<?xml version="1.0" encoding="UTF-8"?>
<svg id="_Слой_1" data-name="Слой 1" xmlns="http://www.w3.org/2000/svg" viewBox="0 0 218.13 64.56">
  <g>
    <g>
      <path d="M104.41,45.29c-5.66.67-10.8-3.55-11.49-9.41-.69-5.86,3.33-11.16,8.99-11.82s10.8,3.55,11.49,9.41-3.33,11.16-8.99,11.82Z" fill="#98afc1"/>
      <circle cx="60.62" cy="40.05" r="9.14" transform="translate(-4.27 7.37) rotate(-6.72)" fill="#98afc1"/>
      <polygon points="61.69 49.13 59.55 30.97 101.9 24.06 104.41 45.29 61.69 49.13" fill="#98afc1"/>
    </g>
    <g>
      <rect x=".04" y="41.55" width="16.8" height="8.83" rx="3.79" ry="3.79" transform="translate(-5.32 1.3) rotate(-6.72)" fill="#896565"/>
      <g>
        <ellipse cx="11.73" cy="45.58" rx="2.88" ry="3.02" transform="translate(-5.25 1.69) rotate(-6.72)" fill="#e6926d"/>
        <path d="M11.24,42.6c.33,1.99.66,3.97.98,5.96,2.7-.2,5.4-.4,8.1-.6-.42-2.27-.85-4.54-1.27-6.81-2.6.48-5.21.96-7.81,1.45h0Z" fill="#e6926d"/>
      </g>
    </g>
    <g>
      <g>
        <ellipse cx="61.87" cy="40" rx="8.42" ry="9.08" transform="translate(-3.44 5.91) rotate(-5.32)" fill="#98afc1"/>
        <path d="M24.29,50.54c-.4-4.24-.8-8.49-1.2-12.73,12.65-2.28,25.29-4.56,37.94-6.85l1.68,18.07c-12.81.5-25.61,1-38.42,1.51h0Z" fill="#99b0c2"/>
      </g>
      <rect x="14.34" y="40.83" width="13.95" height="6.94" rx=".99" ry=".99" transform="translate(63.45 18.97) rotate(84.68)" fill="#b8c2cb"/>
    </g>
  </g>
  <path d="M106.79,64.03c-2.04-2.83-6.43-9.76-7.21-19.72-.76-9.76,2.37-17.16,3.91-20.29,3.04.1,6.89.51,11.21,1.7,3.37.92,6.23,2.1,8.53,3.23l2.02,28.12c-2.28,1.25-4.9,2.51-7.84,3.68-3.87,1.54-7.47,2.57-10.62,3.29h0Z" fill="#98afc1"/>
  <g>
    <g>
      <path d="M170.39,39.26c-1-.2-2.01-.41-3.01-.61l-4.49-2.78-2.32-5.75-.93-6.02,4.05-1.79,3,1.22c.06.1.12.21.18.31.18.31.55.46.89.37l.65-.17,12.8-3.31c.42-.11.86-.06,1.25.13,1.12.55,3.34,1.99,4,4.84.45,1.94-.04,3.6-.6,4.74-.22.45-.45.82-.65,1.09-.24.34-.6.59-1,.7-4.48,1.22-8.97,2.44-13.45,3.66-.36.1-.6.44-.57.81.06.85.13,1.71.2,2.56Z" fill="#ea906d" isolation="isolate"/>
      <path d="M180.06,31.82c-2.32.13-5.3.29-7.77-1.68-2.61-2.07-3.09-5.26-3.2-6.28l12.12-3.12c.42-.11.87-.06,1.26.13,1.12.56,3.33,1.99,3.99,4.84.45,1.94-.04,3.6-.6,4.74-1.27.55-3.27,1.23-5.8,1.37Z" fill="#b05e46" isolation="isolate"/>
    </g>
    <g>
      <path d="M166.99,24.42c.19-.26.34-1.15-4.01-5.74-1.56-1.64-2.98-3.01-4.17-4.1-.65-.59-1.54-.82-2.39-.61l-42.8,10.33s-2.16.94-.81,5.93c1.35,4.99,7.47,27.7,7.47,27.7,0,0,1.33,2.94,3.35,2.84,1.82-.09,35.99-8.62,42.81-10.32.8-.2,1.48-.74,1.86-1.47.84-1.62,2.18-4.78,2.34-8.81.02-.52-.3-1-.79-1.18-1.65-.6-4.98-2.18-6.99-5.84-1.5-2.72-1.57-5.32-1.52-6.58.26-.62.69-1.37,1.47-1.82,1.76-1.03,3.74.3,4.19-.33Z" fill="#ead9cf"/>
      <g>
        <g>
          <g>
            <g>
              <path d="M204.14,27.95l-6.17,4.69c-4.63,3.51-11.23,2.61-14.74-2.02l-1.17-1.54,12.63-9.59-10.66-14.04,4.68-3.56c4.08-3.1,9.9-2.3,13,1.78l2.98,3.92c.28-.3.58-.58.92-.83,3.31-2.51,8.15-1.7,10.82,1.81,2.67,3.51,2.14,8.39-1.16,10.91-1.87,1.42-4.23,1.78-6.41,1.19-.65,2.81-2.24,5.41-4.71,7.29Z" fill="#573937" isolation="isolate"/>
              <ellipse cx="178.71" cy="21.78" rx="9.6" ry="9.76" transform="translate(23.21 112.51) rotate(-37.21)" fill="#ea906d"/>
              <path d="M184.62,29.55c-3.36-5.41-6.72-10.81-10.08-16.22,3.71-3.04,7.41-6.09,11.12-9.13,3-2.28,7.28-1.69,9.55,1.31l2.79,3.68c2.28,3,1.69,7.28-1.31,9.55-4.03,3.6-8.06,7.21-12.08,10.81Z" fill="#ea906d"/>
              <g>
                <path d="M189.61,30.92c3.08-1.28,4.91-3.08,4.91-3.08,0,0,1.41-1.35.67-2.84-.74-1.5-1.87-1.36-1.87-1.36,0,0-1.55.13-3.58,1.54-2.03,1.41-3.56,2.42-4.55,3.46s1.34,3.57,4.43,2.29h0Z" fill="#ea906d"/>
                <g>
                  <path d="M187.9,29.58c.05-.07.11-.13.16-.2.07-.08-.09.08.02-.02l.11-.1c.19-.17.4-.33.61-.47.51-.36,1.01-.65,1.54-.93.55-.28,1.11-.54,1.7-.72.07-.02.14-.04.21-.06-.11.03.05,0,.06-.01.12-.02.24-.05.37-.06.04,0,.08,0,.12,0-.15,0,.02,0,.05,0,.05,0,.19.05.03,0,.04.01.08.03.11.04.65.31,1.08-.73.43-1.04-.78-.37-1.85.07-2.58.37-1.01.42-1.99.97-2.87,1.62-.34.25-.72.54-.96.89-.41.59.48,1.28.89.68h0Z" fill="#ce7857"/>
                  <path d="M189.62,27.7c.17.34.35.67.52,1,.07.14.16.25.31.31.13.05.3.06.42,0,.13-.06.26-.16.31-.31.05-.13.07-.3,0-.42-.17-.34-.35-.67-.52-1-.07-.14-.16-.25-.31-.31-.13-.05-.3-.06-.42,0-.13.06-.26.16-.31.31-.05.13-.07.3,0,.42h0Z" fill="#ce7857"/>
                </g>
              </g>
            </g>
            <g>
              <path d="M179.21,24.37c-.12-.56-.59-1.13-1.13-1.69-.57-.6-1.15-1.18-1.65-1.82-.67-.83-1.25-1.81-1.96-2.16h-.03c-.49-.27-.94-.14-1.28.16-.4.36-.64.97-.64,1.51-.04,2.15,2.23,5.23,4.3,5.64.56.14,1.26.07,1.76-.22.48-.28.79-.75.63-1.43ZM178.31,25.44l-4.88-6.23c.25-.17.56-.21.93.01h.02c.6.35,1.13,1.22,1.73,1.97.45.58.96,1.1,1.46,1.65.48.51.9,1.02,1.03,1.51.15.52,0,.88-.3,1.1h0Z" fill="#ea7b6c" isolation="isolate"/>
              <path d="M178.31,25.44c-.39.29-1.03.33-1.55.16-1.71-.48-3.76-3.24-3.86-5.07-.04-.51.17-1.07.53-1.33l4.88,6.23h0Z" fill="#3c3230" isolation="isolate"/>
              <path d="M178.31,25.44h0s-4.88-6.24-4.88-6.24c.25-.17.56-.21.93.01h.02c.6.35,1.13,1.22,1.73,1.97.45.58.96,1.1,1.46,1.65.48.51.9,1.02,1.03,1.51.15.52,0,.88-.3,1.1Z" fill="#d8b9be" isolation="isolate"/>
              <path d="M178.58,25.79l-.27-.35c.3-.22.45-.58.3-1.1-.13-.49-.55-1-1.03-1.51-.5-.55-1.01-1.07-1.46-1.65-.6-.75-1.13-1.62-1.73-1.96h-.02c-.37-.23-.69-.19-.93-.02h0s-.27-.34-.27-.34c.34-.31.78-.43,1.28-.18h.03c.71.36,1.29,1.34,1.96,2.17.51.64,1.08,1.22,1.65,1.82.54.57,1.01,1.13,1.13,1.69.16.67-.14,1.15-.63,1.43Z" fill="#ea7b6c" isolation="isolate"/>
            </g>
          </g>
          <ellipse cx="180.77" cy="9.68" rx="2.06" ry=".68" transform="translate(30.95 111.29) rotate(-37.21)" fill="#422f2b"/>
          <ellipse cx="186.52" cy="17.26" rx="2.06" ry=".73" transform="translate(27.53 116.31) rotate(-37.21)" fill="#422f2b"/>
          <path d="M183.93,12.19c-.46.17-.91.58-1.36.88-.4.28-.82.63-1.25.75-.4.12-.72,0-1.06-.06-.36-.06-.76-.07-1.19.05-.76.21-1.62.79-1.95,1.51-.36.77-.1,1.43.19,1.97.12.23.34.62.61.65.12.01.22-.05.24-.2.05-.46-.38-.8-.45-1.22-.18-.57.09-1.43.9-1.88,1.1-.63,1.64,0,2.54-.06.66-.09,1.3-.67,1.86-1.08.4-.33.95-.68,1.18-1.11.09-.18,0-.28-.25-.2h-.01s0,0,0,0Z" fill="#c2684e"/>
        </g>
        <rect x="182.02" y="6.08" width="4.36" height="1.99" rx=".86" ry=".86" transform="translate(69.26 -137.04) rotate(49.23)" fill="#50373b"/>
        <rect x="187.75" y="13.62" width="4.36" height="1.99" rx=".86" ry=".86" transform="translate(94.12 -150.03) rotate(55.4)" fill="#50373b"/>
      </g>
    </g>
  </g>
  <g>
    <g>
      <path d="M175.69,49.86c1.49,1.52,3.92,1.89,6.27,2.55,2.18.6,4.29,1.31,6.43,2.1,1.47.54,3.03,1.14,4.57,1.7,3.03,1.02,6.1,2.33,8.83,1.34,1.78-.75,2.09-2.85,1.06-4.39-.89-1.32-2.46-2.11-4.04-2.79-2.97-1.25-6.42-2.41-9.55-3.45-3.83-1.25-7.85-2.54-11.53-3.06-4.42-.86-4.49,3.57-2.07,5.97l.03.03h0Z" fill="#f09077"/>
      <g>
        <path d="M167.38,39.77c.45.12.9.23,1.35.34,4.17,1.05,5.61,1.4,8.21,2.09.42.11,1.11.3,1.97.53-.15.48-.3.96-.43,1.46-.83,3.02-1.24,5.93-1.38,8.62-3.54-.8-7.09-1.6-10.63-2.4-3.45-.55-6.03-3.38-5.78-6.32.25-2.94,3.25-4.88,6.7-4.33h0Z" fill="#ead9cf"/>
        <path d="M174.07,52.34c.62-3.53,1.23-7.07,1.85-10.6" fill="none"/>
      </g>
    </g>
    <path d="M198,56.36c-.77-1.15-1.14-2.73-1.61-3.98-.88-2.48-1.66-5.21-2.74-7.65-.41-.92-.92-1.95-1.39-2.84-.54-1.03-1.13-2.08-1.65-3.12-.54-1.12-1.05-2.14-1.02-3.38.01-.92.64-2.08,1.73-2.21,1.07-.15,2.02.65,2.63,1.39,1.54,1.94,2.66,4.14,3.9,6.3,1.45,2.58,2.89,5.39,3.99,8.09.73,1.9,2.17,4.52,1.72,6.63-.22.96-.99,1.78-2.08,2.14-1.42.43-2.72-.28-3.47-1.35l-.02-.03h0Z" fill="#f09077"/>
    <path d="M195.26,33.02c-1.07.71-2.31,1-3.5,1.37-.53.14-2.66,1.18-1.9.06.27-.37.79-.84,1.11-1.27.54-.7.87-1.51,1.46-2.19.52-.6,1.15-1.12,1.77-1.62,1.67-1.3,3.3-2.63,5.06-3.79,1.79-1.14,2.34-.63,1.37,1.27-1.16,2.41-3.04,4.66-5.35,6.14l-.03.02Z" fill="#f09077"/>
  </g>
  <g>
    <g>
      <path d="M144.73,21.36c-1.79,1.15-4.24.98-6.67,1.11-2.26.11-4.47.33-6.74.63-1.56.2-3.21.44-4.83.65-3.18.33-6.47.92-8.91-.63-1.57-1.12-1.42-3.24-.07-4.51,1.16-1.09,2.86-1.51,4.56-1.84,3.17-.57,6.79-.94,10.08-1.26,4.01-.37,8.22-.75,11.92-.44,4.5.14,3.59,4.47.71,6.28l-.04.02h0Z" fill="#f09077"/>
      <g>
        <path d="M155.06,13.35c-.47.01-.93.03-1.39.04-4.3.11-5.78.13-8.47.23-.43.02-1.14.04-2.04.08.04.5.08,1.01.1,1.52.14,3.13-.09,6.05-.55,8.72,3.63,0,7.26,0,10.9,0,3.48.23,6.63-1.96,7.03-4.89.4-2.92-2.1-5.47-5.58-5.7h0Z" fill="#ead9cf"/>
        <path d="M145.76,24.13c.18-3.58.36-7.17.53-10.75" fill="none"/>
      </g>
    </g>
    <g>
      <path d="M121.23,23.72c-1.9.57-4.16.61-6.05.84-3.72.39-7.72.61-11.46,1.22-1.41.23-3.02.55-4.43.86-1.63.35-3.29.75-4.93,1.07-1.74.33-3.33.64-4.97.33-1.23-.22-2.47-1.15-2.14-2.36.3-1.18,1.8-2.03,3.07-2.51,3.3-1.22,6.74-1.93,10.2-2.78,4.11-.98,8.53-1.9,12.63-2.47,2.86-.36,7.02-1.31,9.63-.36,1.17.45,1.92,1.46,1.9,2.72-.08,1.63-1.63,2.86-3.41,3.43h-.05s0,.01,0,.01Z" fill="#f09077"/>
      <path d="M85.73,28.79c1.71-.51,3.12-1.55,4.57-2.48.62-.43,3.61-1.76,1.76-1.96-.63-.05-1.59.09-2.33.05-1.23-.06-2.37-.43-3.62-.4-1.1.01-2.21.22-3.29.44-2.86.61-5.72,1.16-8.52,1.98-2.8.87-2.75,1.91.13,2.58,3.58.93,7.64.94,11.28-.19h.04Z" fill="#f09077"/>
    </g>
  </g>
  <g>
    <g>
      <path d="M105.7,64.14c-5.69.21-10.48-4.4-10.7-10.3-.22-5.9,4.22-10.85,9.91-11.07s10.48,4.4,10.7,10.3c.22,5.9-4.22,10.85-9.91,11.07Z" fill="#98afc1"/>
      <circle cx="62.47" cy="55.41" r="9.14" transform="translate(-2.02 2.36) rotate(-2.13)" fill="#98afc1"/>
      <polygon points="62.81 64.55 62.14 46.27 104.91 42.77 105.7 64.14 62.81 64.55" fill="#98afc1"/>
    </g>
    <g>
      <rect x="1.59" y="52.72" width="16.8" height="8.83" rx="3.79" ry="3.79" transform="translate(-2.12 .41) rotate(-2.13)" fill="#896565"/>
      <g>
        <ellipse cx="13.3" cy="57.01" rx="2.88" ry="3.02" transform="translate(-2.11 .53) rotate(-2.13)" fill="#e6926d"/>
        <path d="M13.04,54c.17,2.01.34,4.01.5,6.02,2.71.02,5.41.03,8.12.05-.24-2.3-.48-4.59-.72-6.89-2.63.27-5.27.54-7.9.82h0Z" fill="#e6926d"/>
      </g>
    </g>
    <g>
      <g>
        <ellipse cx="63.72" cy="55.46" rx="8.42" ry="9.08" transform="translate(-.7 .82) rotate(-.73)" fill="#98afc1"/>
        <path d="M25.42,62.96c-.06-4.26-.12-8.53-.18-12.79,12.79-1.26,25.58-2.53,38.37-3.79l.23,18.15c-12.81-.53-25.61-1.05-38.42-1.57h0Z" fill="#99b0c2"/>
      </g>
      <rect x="15.98" y="53.04" width="13.95" height="6.94" rx=".99" ry=".99" transform="translate(79.16 32.84) rotate(89.27)" fill="#b8c2cb"/>
    </g>
  </g>
  <line x1="32.2" y1="49.13" x2="102.37" y2="40.49" fill="none" stroke="#93aabc" stroke-linecap="round" stroke-linejoin="round" stroke-width=".88"/>
  <path d="M102.86,36.77s-1.85,4.1,1.42,6.95" fill="none" stroke="#93aabc" stroke-linecap="round" stroke-linejoin="round" stroke-width=".88"/>
</svg>