<?xml version="1.0" encoding="UTF-8"?>
<svg id="_Слой_1" data-name="Слой 1" xmlns="http://www.w3.org/2000/svg" viewBox="0 0 216.56 125.59">
  <g>
    <path d="M91.5,99.65c1.33-5.54,7.06-8.91,12.81-7.53,5.74,1.38,9.31,6.99,7.98,12.53-1.33,5.54-7.06,8.91-12.81,7.53-5.74-1.38-9.31-6.99-7.98-12.53Z" fill="#98afc1"/>
    <circle cx="111.57" cy="60.38" r="9.14" transform="translate(26.76 154.73) rotate(-76.47)" fill="#98afc1"/>
    <polygon points="102.67 58.24 120.46 62.52 112.28 104.65 91.5 99.65 102.67 58.24" fill="#98afc1"/>
  </g>
  <g>
    <path d="M120.26,9.22c-.75.18-2.26.43-4.06-.04-1.49-.39-2.54-1.1-3.11-1.56.01,1.55-.12,3.52-.63,5.74-.41,1.8-.97,3.33-1.51,4.57,1.06-.3,2.83-.66,5-.43,1.94.21,3.45.81,4.4,1.27-.43-.8-1.19-2.46-1.23-4.69-.04-2.32.72-4.05,1.14-4.87Z" fill="#e6926d"/>
    <g>
      <path d="M112.57,6.66c.03-1.63,2.43-3.76,4.98-3.61,2.85.18,5.01,3.16,4.56,4.51-.27.8-.83,1.34-1.79,2.07-1.47,1.11-2.87,1.38-4.54,1.7-1.08.21-2.45.46-2.77-.09-.11-.2-.02-.3.06-1.54.02-.28.02-.61-.03-1.03,0-.07-.04-.29-.15-.79-.07-.31-.17-.73-.32-1.23Z" fill="#e6926d"/>
      <path d="M122.84,9.16c.93-.18,2-.81,2.92-1.35,1.52-.88,2.73-1.97,4.07-3.21,1.36-1.21,3.45-3.64.48-4.25-.94-.15-1.95-.13-3.01-.16-3.67-.05-7.18-.1-10.79-.15-1.66.09-4.11-.57-4.87,1.39-.36.85-.37,1.84-.25,2.75.14,1.11.31,2.06.83,2.38,1.23.54,2.36-1.24,3.24-1.88.67-.55,2.45-1.08,3.26-.78.54.35.21,1.16.25,1.73-.14,2.3,1.57,3.91,3.84,3.53h.04s0,0,0,0Z" fill="#896565"/>
    </g>
    <g>
      <g>
        <ellipse cx="112.05" cy="58.05" rx="8.42" ry="9.08" transform="translate(41.39 162.61) rotate(-83.34)" fill="#98afc1"/>
        <path d="M109.54,19.1c4.23.49,8.47.98,12.71,1.47-.39,12.85-.79,25.69-1.18,38.53l-18.03-2.11c2.17-12.63,4.33-25.27,6.5-37.9h0Z" fill="#99b0c2"/>
      </g>
      <rect x="109.28" y="14.01" width="13.95" height="6.94" rx=".99" ry=".99" transform="translate(229.7 48.34) rotate(-173.34)" fill="#b8c2cb"/>
    </g>
  </g>
  <path d="M105.22,125.06c-2.04-2.83-6.43-9.76-7.21-19.72-.76-9.76,2.37-17.16,3.91-20.29,3.04.1,6.89.51,11.21,1.7,3.37.92,6.23,2.1,8.53,3.23l2.02,28.12c-2.28,1.25-4.9,2.51-7.84,3.68-3.87,1.54-7.47,2.57-10.62,3.29h0Z" fill="#98afc1"/>
  <g>
    <g>
      <path d="M168.82,100.3c-1-.2-2.01-.41-3.01-.61l-4.49-2.78-2.32-5.75-.93-6.02,4.05-1.79,3,1.22c.06.1.12.21.18.31.18.31.55.46.89.37l.65-.17,12.8-3.31c.42-.11.86-.06,1.25.13,1.12.55,3.34,1.99,4,4.84.45,1.94-.04,3.6-.6,4.74-.22.45-.45.82-.65,1.09-.24.34-.6.59-1,.7-4.48,1.22-8.97,2.44-13.45,3.66-.36.1-.6.44-.57.81.06.85.13,1.71.2,2.56Z" fill="#ea906d" isolation="isolate"/>
      <path d="M178.49,92.85c-2.32.13-5.3.29-7.77-1.68-2.61-2.07-3.09-5.26-3.2-6.28l12.12-3.12c.42-.11.87-.06,1.26.13,1.12.56,3.33,1.99,3.99,4.84.45,1.94-.04,3.6-.6,4.74-1.27.55-3.27,1.23-5.8,1.37Z" fill="#b05e46" isolation="isolate"/>
    </g>
    <g>
      <path d="M165.42,85.45c.19-.26.34-1.15-4.01-5.74-1.56-1.64-2.98-3.01-4.17-4.1-.65-.59-1.54-.82-2.39-.61l-42.8,10.33s-2.16.94-.81,5.93c1.35,4.99,7.47,27.7,7.47,27.7,0,0,1.33,2.94,3.35,2.84,1.82-.09,35.99-8.62,42.81-10.32.8-.2,1.48-.74,1.86-1.47.84-1.62,2.18-4.78,2.34-8.81.02-.52-.3-1-.79-1.18-1.65-.6-4.98-2.18-6.99-5.84-1.5-2.72-1.57-5.32-1.52-6.58.26-.62.69-1.37,1.47-1.82,1.76-1.03,3.74.3,4.19-.33Z" fill="#ead9cf"/>
      <g>
        <g>
          <g>
            <g>
              <path d="M202.57,88.98l-6.17,4.69c-4.63,3.51-11.23,2.61-14.74-2.02l-1.17-1.54,12.63-9.59-10.66-14.04,4.68-3.56c4.08-3.1,9.9-2.3,13,1.78l2.98,3.92c.28-.3.58-.58.92-.83,3.31-2.51,8.15-1.7,10.82,1.81,2.67,3.51,2.14,8.39-1.16,10.91-1.87,1.42-4.23,1.78-6.41,1.19-.65,2.81-2.24,5.41-4.71,7.29Z" fill="#573937" isolation="isolate"/>
              <ellipse cx="177.16" cy="82.83" rx="9.6" ry="9.74" transform="translate(-14.03 124) rotate(-37.21)" fill="#ea906d"/>
              <path d="M183.04,90.59c-3.36-5.41-6.72-10.81-10.08-16.22,3.71-3.04,7.41-6.09,11.12-9.13,3-2.28,7.28-1.69,9.55,1.31l2.79,3.68c2.28,3,1.69,7.28-1.31,9.55-4.03,3.6-8.06,7.21-12.08,10.81Z" fill="#ea906d"/>
              <g>
                <path d="M188.04,91.95c3.08-1.28,4.91-3.08,4.91-3.08,0,0,1.41-1.35.67-2.84-.74-1.5-1.87-1.36-1.87-1.36,0,0-1.55.13-3.58,1.54-2.03,1.41-3.56,2.42-4.55,3.46s1.34,3.57,4.43,2.29h0Z" fill="#ea906d"/>
                <g>
                  <path d="M186.33,90.62c.05-.07.11-.13.16-.2.07-.08-.09.08.02-.02l.11-.1c.19-.17.4-.33.61-.47.51-.36,1.01-.65,1.54-.93.55-.28,1.11-.54,1.7-.72.07-.02.14-.04.21-.06-.11.03.05,0,.06-.01.12-.02.24-.05.37-.06.04,0,.08,0,.12,0-.15,0,.02,0,.05,0,.05,0,.19.05.03,0,.04.01.08.03.11.04.65.31,1.08-.73.43-1.04-.78-.37-1.85.07-2.58.37-1.01.42-1.99.97-2.87,1.62-.34.25-.72.54-.96.89-.41.59.48,1.28.89.68h0Z" fill="#ce7857"/>
                  <path d="M188.05,88.73c.17.34.35.67.52,1,.07.14.16.25.31.31.13.05.3.06.42,0,.13-.06.26-.16.31-.31.05-.13.07-.3,0-.42-.17-.34-.35-.67-.52-1-.07-.14-.16-.25-.31-.31-.13-.05-.3-.06-.42,0-.13.06-.26.16-.31.31-.05.13-.07.3,0,.42h0Z" fill="#ce7857"/>
                </g>
              </g>
            </g>
            <g>
              <path d="M177.64,85.4c-.12-.56-.59-1.13-1.13-1.69-.57-.6-1.15-1.18-1.65-1.82-.67-.83-1.25-1.81-1.96-2.16h-.03c-.49-.27-.94-.14-1.28.16-.4.36-.64.97-.64,1.51-.04,2.15,2.23,5.23,4.3,5.64.56.14,1.26.07,1.76-.22.48-.28.79-.75.63-1.43ZM176.73,86.47l-4.88-6.23c.25-.17.56-.21.93.01h.02c.6.35,1.13,1.22,1.73,1.97.45.58.96,1.1,1.46,1.65.48.51.9,1.02,1.03,1.51.15.52,0,.88-.3,1.1h0Z" fill="#ea7b6c" isolation="isolate"/>
              <path d="M176.74,86.47c-.39.29-1.03.33-1.55.16-1.71-.48-3.76-3.24-3.86-5.07-.04-.51.17-1.07.53-1.33l4.88,6.23h0Z" fill="#3c3230" isolation="isolate"/>
              <path d="M176.74,86.47h0s-4.88-6.24-4.88-6.24c.25-.17.56-.21.93.01h.02c.6.35,1.13,1.22,1.73,1.97.45.58.96,1.1,1.46,1.65.48.51.9,1.02,1.03,1.51.15.52,0,.88-.3,1.1Z" fill="#d8b9be" isolation="isolate"/>
              <path d="M177.01,86.82l-.27-.35c.3-.22.45-.58.3-1.1-.13-.49-.55-1-1.03-1.51-.5-.55-1.01-1.07-1.46-1.65-.6-.75-1.13-1.62-1.73-1.96h-.02c-.37-.23-.69-.19-.93-.02h0s-.27-.34-.27-.34c.34-.31.78-.43,1.28-.18h.03c.71.36,1.29,1.34,1.96,2.17.51.64,1.08,1.22,1.65,1.82.54.57,1.01,1.13,1.13,1.69.16.67-.14,1.15-.63,1.43Z" fill="#ea7b6c" isolation="isolate"/>
            </g>
          </g>
          <ellipse cx="179.2" cy="70.71" rx="2.06" ry=".68" transform="translate(-6.28 122.76) rotate(-37.21)" fill="#422f2b"/>
          <ellipse cx="184.95" cy="78.3" rx="2.06" ry=".73" transform="translate(-9.7 127.79) rotate(-37.21)" fill="#422f2b"/>
          <path d="M182.36,73.22c-.46.17-.91.58-1.36.88-.4.28-.82.63-1.25.75-.4.12-.72,0-1.06-.06-.36-.06-.76-.07-1.19.05-.76.21-1.62.79-1.95,1.51-.36.77-.1,1.43.19,1.97.12.23.34.62.61.65.12.01.22-.05.24-.2.05-.46-.38-.8-.45-1.22-.18-.57.09-1.43.9-1.88,1.1-.63,1.64,0,2.54-.06.66-.09,1.3-.67,1.86-1.08.4-.33.95-.68,1.18-1.11.09-.18,0-.28-.25-.2h-.01s0,0,0,0Z" fill="#c2684e"/>
        </g>
        <rect x="180.45" y="67.11" width="4.36" height="1.99" rx=".86" ry=".86" transform="translate(114.94 -114.68) rotate(49.23)" fill="#50373b"/>
        <rect x="186.18" y="74.65" width="4.36" height="1.99" rx=".86" ry=".86" transform="translate(143.68 -122.35) rotate(55.4)" fill="#50373b"/>
      </g>
    </g>
  </g>
  <g>
    <g>
      <path d="M174.11,110.89c1.49,1.52,3.92,1.89,6.27,2.55,2.18.6,4.29,1.31,6.43,2.1,1.47.54,3.03,1.14,4.57,1.7,3.03,1.02,6.1,2.33,8.83,1.34,1.78-.75,2.09-2.85,1.06-4.39-.89-1.32-2.46-2.11-4.04-2.79-2.97-1.25-6.42-2.41-9.55-3.45-3.83-1.25-7.85-2.54-11.53-3.06-4.42-.86-4.49,3.57-2.07,5.97l.03.03h0Z" fill="#f09077"/>
      <g>
        <path d="M165.81,100.8c.45.12.9.23,1.35.34,4.17,1.05,5.61,1.4,8.21,2.09.42.11,1.11.3,1.97.53-.15.48-.3.96-.43,1.46-.83,3.02-1.24,5.93-1.38,8.62-3.54-.8-7.09-1.6-10.63-2.4-3.45-.55-6.03-3.38-5.78-6.32.25-2.94,3.25-4.88,6.7-4.33h0Z" fill="#ead9cf"/>
        <path d="M172.5,113.37c.62-3.53,1.23-7.07,1.85-10.6" fill="none"/>
      </g>
    </g>
    <path d="M196.43,117.39c-.77-1.15-1.14-2.73-1.61-3.98-.88-2.48-1.66-5.21-2.74-7.65-.41-.92-.92-1.95-1.39-2.84-.54-1.03-1.13-2.08-1.65-3.12-.54-1.12-1.05-2.14-1.02-3.38.01-.92.64-2.08,1.73-2.21,1.07-.15,2.02.65,2.63,1.39,1.54,1.94,2.66,4.14,3.9,6.3,1.45,2.58,2.89,5.39,3.99,8.09.73,1.9,2.17,4.52,1.72,6.63-.22.96-.99,1.78-2.08,2.14-1.42.43-2.72-.28-3.47-1.35l-.02-.03h0Z" fill="#f09077"/>
    <path d="M193.69,94.05c-1.07.71-2.31,1-3.5,1.37-.53.14-2.66,1.18-1.9.06.27-.37.79-.84,1.11-1.27.54-.7.87-1.51,1.46-2.19.52-.6,1.15-1.12,1.77-1.62,1.67-1.3,3.3-2.63,5.06-3.79,1.79-1.14,2.34-.63,1.37,1.27-1.16,2.41-3.04,4.66-5.35,6.14l-.03.02Z" fill="#f09077"/>
  </g>
  <g>
    <g>
      <path d="M150.62,70.77c-1.47-1.54-1.76-3.98-2.35-6.34-.53-2.2-1.17-4.33-1.89-6.5-.49-1.49-1.04-3.07-1.56-4.62-.93-3.06-2.13-6.17-1.06-8.87.8-1.76,2.91-2,4.42-.92,1.29.93,2.03,2.52,2.67,4.13,1.16,3.01,2.21,6.49,3.15,9.66,1.13,3.87,2.29,7.93,2.69,11.62.72,4.44-3.71,4.37-6.03,1.88l-.03-.03h0Z" fill="#f09077"/>
      <g>
        <path d="M160.44,79.4c-.1-.45-.2-.91-.3-1.36-.92-4.2-1.22-5.65-1.83-8.28-.1-.42-.26-1.12-.47-1.98-.48.14-.97.27-1.47.39-3.05.73-5.96,1.05-8.66,1.11.69,3.57,1.38,7.13,2.06,10.7.44,3.46,3.18,6.14,6.13,5.98,2.95-.16,4.98-3.09,4.54-6.56h0Z" fill="#ead9cf"/>
        <path d="M148.09,72.31c3.55-.5,7.1-1.01,10.66-1.51" fill="none"/>
      </g>
    </g>
    <g>
      <path d="M143.84,48.14c-.92-1.75-1.39-3.97-1.97-5.78-1.08-3.58-2.06-7.46-3.37-11.02-.5-1.34-1.11-2.86-1.68-4.19-.65-1.53-1.36-3.09-1.99-4.63-.65-1.65-1.26-3.15-1.27-4.82-.01-1.25.66-2.65,1.91-2.55,1.22.07,2.33,1.39,3.05,2.54,1.82,3.01,3.17,6.26,4.66,9.49,1.74,3.85,3.48,8.02,4.82,11.94.89,2.74,2.62,6.65,2.18,9.39-.22,1.24-1.07,2.16-2.31,2.38-1.61.23-3.12-1.06-4.01-2.7l-.02-.04h0Z" fill="#f09077"/>
      <path d="M132.15,14.25c.82,1.58,2.11,2.77,3.3,4.02.54.53,2.41,3.21,2.26,1.36-.07-.63-.39-1.55-.49-2.28-.18-1.21-.03-2.41-.29-3.63-.22-1.08-.64-2.13-1.05-3.15-1.14-2.7-2.22-5.4-3.56-7.99-1.39-2.58-2.4-2.34-2.51.62-.23,3.69.53,7.68,2.32,11.03l.02.04Z" fill="#f09077"/>
    </g>
  </g>
  <g>
    <g>
      <path d="M104.13,125.17c-5.69.21-10.48-4.4-10.7-10.3-.22-5.9,4.22-10.85,9.91-11.07s10.48,4.4,10.7,10.3c.22,5.9-4.22,10.85-9.91,11.07Z" fill="#98afc1"/>
      <circle cx="60.9" cy="116.44" r="9.14" transform="translate(-4.28 2.34) rotate(-2.13)" fill="#98afc1"/>
      <polygon points="61.24 125.58 60.56 107.31 103.34 103.81 104.13 125.17 61.24 125.58" fill="#98afc1"/>
    </g>
    <g>
      <rect x=".02" y="113.75" width="16.8" height="8.83" rx="3.79" ry="3.79" transform="translate(-4.38 .39) rotate(-2.13)" fill="#896565"/>
      <g>
        <ellipse cx="11.73" cy="118.04" rx="2.88" ry="3.02" transform="translate(-4.38 .52) rotate(-2.13)" fill="#e6926d"/>
        <path d="M11.47,115.04c.17,2.01.34,4.01.5,6.02,2.71.02,5.41.03,8.12.05-.24-2.3-.48-4.59-.72-6.89-2.63.27-5.27.54-7.9.82h0Z" fill="#e6926d"/>
      </g>
    </g>
    <g>
      <g>
        <ellipse cx="62.15" cy="116.49" rx="8.42" ry="9.08" transform="translate(-1.48 .8) rotate(-.73)" fill="#98afc1"/>
        <path d="M23.85,123.99c-.06-4.26-.12-8.53-.18-12.79,12.79-1.26,25.58-2.53,38.37-3.79l.23,18.15c-12.81-.53-25.61-1.05-38.42-1.57h0Z" fill="#99b0c2"/>
      </g>
      <rect x="14.41" y="114.07" width="13.95" height="6.94" rx=".99" ry=".99" transform="translate(138.64 94.66) rotate(89.27)" fill="#b8c2cb"/>
    </g>
  </g>
</svg>