<?xml version="1.0" encoding="UTF-8"?>
<svg id="_Слой_1" data-name="Слой 1" xmlns="http://www.w3.org/2000/svg" viewBox="0 0 216.56 116.76">
  <path d="M99.51,13.48c-.48.6-1.52,1.72-3.23,2.45-1.41.6-2.68.68-3.42.67.96,1.22,2.06,2.86,3.01,4.93.78,1.68,1.27,3.23,1.59,4.54.66-.89,1.84-2.25,3.7-3.4,1.66-1.02,3.23-1.47,4.26-1.68-.83-.37-2.45-1.22-3.84-2.96-1.45-1.81-1.91-3.65-2.08-4.55Z" fill="#e6926d"/>
  <g>
    <path d="M91.86,16.15c-.98-1.31-.38-4.46,1.74-5.9,2.36-1.6,5.9-.57,6.37.78.28.8.16,1.57-.15,2.74-.48,1.78-1.43,2.85-2.55,4.11-.73.83-1.66,1.86-2.25,1.62-.21-.09-.2-.22-.89-1.26-.15-.23-.36-.49-.65-.79-.05-.05-.2-.2-.61-.54-.24-.2-.58-.47-1-.78Z" fill="#e6926d"/>
    <path d="M101.51,11.85c.63-.71,1.09-1.86,1.48-2.85.67-1.63.95-3.23,1.26-5.03.34-1.8.51-4.99-2.22-3.65-.84.46-1.62,1.09-2.48,1.72-2.93,2.2-5.75,4.31-8.64,6.48-1.26,1.08-3.61,2.06-3,4.08.24.89.83,1.68,1.48,2.33.79.79,1.5,1.44,2.11,1.38,1.31-.32,1.11-2.42,1.42-3.47.19-.84,1.28-2.35,2.1-2.61.64-.05.87.79,1.25,1.22,1.3,1.91,3.63,2.14,5.2.45l.03-.03h0Z" fill="#896565"/>
  </g>
  <g>
    <path d="M92.72,87.82c2.92-4.89,9.39-6.4,14.46-3.37s6.81,9.44,3.89,14.33c-2.92,4.89-9.39,6.4-14.46,3.37-5.07-3.03-6.81-9.44-3.89-14.33Z" fill="#98afc1"/>
    <circle cx="123.56" cy="56.31" r="9.14" transform="translate(11.88 133.54) rotate(-59.16)" fill="#98afc1"/>
    <polygon points="115.71 51.62 131.41 60.99 111.08 98.78 92.72 87.82 115.71 51.62" fill="#98afc1"/>
  </g>
  <g>
    <g>
      <ellipse cx="122.85" cy="57.15" rx="9.08" ry="8.42" transform="translate(-11.88 71.44) rotate(-31)" fill="#98afc1"/>
      <path d="M97.06,27.85c3.65-2.2,7.3-4.4,10.96-6.6,7.54,10.41,15.08,20.82,22.61,31.22l-15.56,9.35c-6-11.33-12.01-22.65-18.01-33.97h0Z" fill="#99b0c2"/>
    </g>
    <rect x="94.41" y="18.99" width="13.95" height="6.94" rx=".99" ry=".99" transform="translate(199.86 -10.5) rotate(149)" fill="#b8c2cb"/>
  </g>
  <path d="M105.22,116.23c-2.04-2.83-6.43-9.76-7.21-19.72-.76-9.76,2.37-17.16,3.91-20.29,3.04.1,6.89.51,11.21,1.7,3.37.92,6.23,2.1,8.53,3.23l2.02,28.12c-2.28,1.25-4.9,2.51-7.84,3.68-3.87,1.54-7.47,2.57-10.62,3.29h0Z" fill="#98afc1"/>
  <g>
    <g>
      <path d="M168.82,91.47c-1-.2-2.01-.41-3.01-.61l-4.49-2.78-2.32-5.75-.93-6.02,4.05-1.79,3,1.22c.06.1.12.21.18.31.18.31.55.46.89.37l.65-.17,12.8-3.31c.42-.11.86-.06,1.25.13,1.12.55,3.34,1.99,4,4.84.45,1.94-.04,3.6-.6,4.74-.22.45-.45.82-.65,1.09-.24.34-.6.59-1,.7-4.48,1.22-8.97,2.44-13.45,3.66-.36.1-.6.44-.57.81.06.85.13,1.71.2,2.56Z" fill="#ea906d" isolation="isolate"/>
      <path d="M178.49,84.02c-2.32.13-5.3.29-7.77-1.68-2.61-2.07-3.09-5.26-3.2-6.28l12.12-3.12c.42-.11.87-.06,1.26.13,1.12.56,3.33,1.99,3.99,4.84.45,1.94-.04,3.6-.6,4.74-1.27.55-3.27,1.23-5.8,1.37Z" fill="#b05e46" isolation="isolate"/>
    </g>
    <g>
      <path d="M165.42,76.63c.19-.26.34-1.15-4.01-5.74-1.56-1.64-2.98-3.01-4.17-4.1-.65-.59-1.54-.82-2.39-.61l-42.8,10.33s-2.16.94-.81,5.93c1.35,4.99,7.47,27.7,7.47,27.7,0,0,1.33,2.94,3.35,2.84,1.82-.09,35.99-8.62,42.81-10.32.8-.2,1.48-.74,1.86-1.47.84-1.62,2.18-4.78,2.34-8.81.02-.52-.3-1-.79-1.18-1.65-.6-4.98-2.18-6.99-5.84-1.5-2.72-1.57-5.32-1.52-6.58.26-.62.69-1.37,1.47-1.82,1.76-1.03,3.74.3,4.19-.33Z" fill="#ead9cf"/>
      <g>
        <g>
          <g>
            <g>
              <path d="M202.57,80.16l-6.17,4.69c-4.63,3.51-11.23,2.61-14.74-2.02l-1.17-1.54,12.63-9.59-10.66-14.04,4.68-3.56c4.08-3.1,9.9-2.3,13,1.78l2.98,3.92c.28-.3.58-.58.92-.83,3.31-2.51,8.15-1.7,10.82,1.81s2.14,8.39-1.16,10.91c-1.87,1.42-4.23,1.78-6.41,1.19-.65,2.81-2.24,5.41-4.71,7.29Z" fill="#573937" isolation="isolate"/>
              <ellipse cx="177.14" cy="73.98" rx="9.6" ry="9.77" transform="translate(-8.68 122.18) rotate(-37.21)" fill="#ea906d"/>
              <path d="M183.04,81.76c-3.36-5.41-6.72-10.81-10.08-16.22,3.71-3.04,7.41-6.09,11.12-9.13,3-2.28,7.28-1.69,9.55,1.31l2.79,3.68c2.28,3,1.69,7.28-1.31,9.55-4.03,3.6-8.06,7.21-12.08,10.81Z" fill="#ea906d"/>
              <g>
                <path d="M188.04,83.12c3.08-1.28,4.91-3.08,4.91-3.08,0,0,1.41-1.35.67-2.84-.74-1.5-1.87-1.36-1.87-1.36,0,0-1.55.13-3.58,1.54s-3.56,2.42-4.55,3.46,1.34,3.57,4.43,2.29h0Z" fill="#ea906d"/>
                <g>
                  <path d="M186.33,81.79c.05-.07.11-.13.16-.2.07-.08-.09.08.02-.02l.11-.1c.19-.17.4-.33.61-.47.51-.36,1.01-.65,1.54-.93.55-.28,1.11-.54,1.7-.72.07-.02.14-.04.21-.06-.11.03.05,0,.06-.01.12-.02.24-.05.37-.06.04,0,.08,0,.12,0-.15,0,.02,0,.05,0,.05,0,.19.05.03,0,.04.01.08.03.11.04.65.31,1.08-.73.43-1.04-.78-.37-1.85.07-2.58.37-1.01.42-1.99.97-2.87,1.62-.34.25-.72.54-.96.89-.41.59.48,1.28.89.68h0Z" fill="#ce7857"/>
                  <path d="M188.05,79.9c.17.34.35.67.52,1,.07.14.16.25.31.31.13.05.3.06.42,0,.13-.06.26-.16.31-.31.05-.13.07-.3,0-.42-.17-.34-.35-.67-.52-1-.07-.14-.16-.25-.31-.31-.13-.05-.3-.06-.42,0-.13.06-.26.16-.31.31-.05.13-.07.3,0,.42h0Z" fill="#ce7857"/>
                </g>
              </g>
            </g>
            <g>
              <path d="M177.64,76.57c-.12-.56-.59-1.13-1.13-1.69-.57-.6-1.15-1.18-1.65-1.82-.67-.83-1.25-1.81-1.96-2.16h-.03c-.49-.27-.94-.14-1.28.16-.4.36-.64.97-.64,1.51-.04,2.15,2.23,5.23,4.3,5.64.56.14,1.26.07,1.76-.22.48-.28.79-.75.63-1.43ZM176.73,77.65l-4.88-6.23c.25-.17.56-.21.93.01h.02c.6.35,1.13,1.22,1.73,1.97.45.58.96,1.1,1.46,1.65.48.51.9,1.02,1.03,1.51.15.52,0,.88-.3,1.1h0Z" fill="#ea7b6c" isolation="isolate"/>
              <path d="M176.74,77.65c-.39.29-1.03.33-1.55.16-1.71-.48-3.76-3.24-3.86-5.07-.04-.51.17-1.07.53-1.33l4.88,6.23h0Z" fill="#3c3230" isolation="isolate"/>
              <path d="M176.74,77.65h0s-4.88-6.24-4.88-6.24c.25-.17.56-.21.93.01h.02c.6.35,1.13,1.22,1.73,1.97.45.58.96,1.1,1.46,1.65.48.51.9,1.02,1.03,1.51.15.52,0,.88-.3,1.1Z" fill="#d8b9be" isolation="isolate"/>
              <path d="M177.01,78l-.27-.35c.3-.22.45-.58.3-1.1-.13-.49-.55-1-1.03-1.51-.5-.55-1.01-1.07-1.46-1.65-.6-.75-1.13-1.62-1.73-1.96h-.02c-.37-.23-.69-.19-.93-.02h0s-.27-.34-.27-.34c.34-.31.78-.43,1.28-.18h.03c.71.36,1.29,1.34,1.96,2.17.51.64,1.08,1.22,1.65,1.82.54.57,1.01,1.13,1.13,1.69.16.67-.14,1.15-.63,1.43Z" fill="#ea7b6c" isolation="isolate"/>
            </g>
          </g>
          <ellipse cx="179.2" cy="61.89" rx="2.06" ry=".68" transform="translate(-.94 120.97) rotate(-37.21)" fill="#422f2b"/>
          <ellipse cx="184.95" cy="69.47" rx="2.06" ry=".73" transform="translate(-4.36 125.99) rotate(-37.21)" fill="#422f2b"/>
          <path d="M182.36,64.4c-.46.17-.91.58-1.36.88-.4.28-.82.63-1.25.75-.4.12-.72,0-1.06-.06-.36-.06-.76-.07-1.19.05-.76.21-1.62.79-1.95,1.51-.36.77-.1,1.43.19,1.97.12.23.34.62.61.65.12.01.22-.05.24-.2.05-.46-.38-.8-.45-1.22-.18-.57.09-1.43.9-1.88,1.1-.63,1.64,0,2.54-.06.66-.09,1.3-.67,1.86-1.08.4-.33.95-.68,1.18-1.11.09-.18,0-.28-.25-.2h-.01s0,0,0,0Z" fill="#c2684e"/>
        </g>
        <rect x="180.45" y="58.29" width="4.36" height="1.99" rx=".86" ry=".86" transform="translate(108.26 -117.74) rotate(49.23)" fill="#50373b"/>
        <rect x="186.18" y="65.83" width="4.36" height="1.99" rx=".86" ry=".86" transform="translate(136.41 -126.17) rotate(55.4)" fill="#50373b"/>
      </g>
    </g>
  </g>
  <g>
    <g>
      <path d="M174.11,102.06c1.49,1.52,3.92,1.89,6.27,2.55,2.18.6,4.29,1.31,6.43,2.1,1.47.54,3.03,1.14,4.57,1.7,3.03,1.02,6.1,2.33,8.83,1.34,1.78-.75,2.09-2.85,1.06-4.39-.89-1.32-2.46-2.11-4.04-2.79-2.97-1.25-6.42-2.41-9.55-3.45-3.83-1.25-7.85-2.54-11.53-3.06-4.42-.86-4.49,3.57-2.07,5.97l.03.03h0Z" fill="#f09077"/>
      <g>
        <path d="M165.81,91.97c.45.12.9.23,1.35.34,4.17,1.05,5.61,1.4,8.21,2.09.42.11,1.11.3,1.97.53-.15.48-.3.96-.43,1.46-.83,3.02-1.24,5.93-1.38,8.62-3.54-.8-7.09-1.6-10.63-2.4-3.45-.55-6.03-3.38-5.78-6.32.25-2.94,3.25-4.88,6.7-4.33h0Z" fill="#ead9cf"/>
        <path d="M172.5,104.54c.62-3.53,1.23-7.07,1.85-10.6" fill="none"/>
      </g>
    </g>
    <path d="M196.43,108.57c-.77-1.15-1.14-2.73-1.61-3.98-.88-2.48-1.66-5.21-2.74-7.65-.41-.92-.92-1.95-1.39-2.84-.54-1.03-1.13-2.08-1.65-3.12-.54-1.12-1.05-2.14-1.02-3.38.01-.92.64-2.08,1.73-2.21,1.07-.15,2.02.65,2.63,1.39,1.54,1.94,2.66,4.14,3.9,6.3,1.45,2.58,2.89,5.39,3.99,8.09.73,1.9,2.17,4.52,1.72,6.63-.22.96-.99,1.78-2.08,2.14-1.42.43-2.72-.28-3.47-1.35l-.02-.03h0Z" fill="#f09077"/>
    <path d="M193.69,85.22c-1.07.71-2.31,1-3.5,1.37-.53.14-2.66,1.18-1.9.06.27-.37.79-.84,1.11-1.27.54-.7.87-1.51,1.46-2.19.52-.6,1.15-1.12,1.77-1.62,1.67-1.3,3.3-2.63,5.06-3.79,1.79-1.14,2.34-.63,1.37,1.27-1.16,2.41-3.04,4.66-5.35,6.14l-.03.02Z" fill="#f09077"/>
  </g>
  <g>
    <g>
      <path d="M144.96,62.14c-1.88-.99-2.93-3.22-4.24-5.27-1.2-1.92-2.48-3.73-3.85-5.57-.94-1.26-1.96-2.58-2.94-3.89-1.85-2.61-3.97-5.18-3.81-8.08.21-1.92,2.13-2.82,3.9-2.27,1.52.48,2.72,1.75,3.83,3.07,2.05,2.49,4.15,5.46,6.04,8.17,2.29,3.31,4.68,6.8,6.23,10.17,2.08,3.99-2.14,5.32-5.13,3.69l-.04-.02h0Z" fill="#f09077"/>
      <g>
        <path d="M157,67.22c-.24-.4-.48-.8-.72-1.2-2.2-3.69-2.95-4.98-4.35-7.27-.23-.37-.6-.98-1.07-1.73-.41.28-.84.56-1.28.83-2.66,1.66-5.32,2.88-7.87,3.79,1.78,3.17,3.56,6.33,5.34,9.5,1.51,3.15,4.96,4.82,7.71,3.74,2.75-1.08,3.75-4.51,2.24-7.65h0Z" fill="#ead9cf"/>
        <path d="M143.04,64.4c3.21-1.6,6.42-3.2,9.63-4.8" fill="none"/>
      </g>
    </g>
    <g>
      <path d="M131.38,42.81c-1.42-1.37-2.57-3.33-3.69-4.86-2.16-3.05-4.31-6.43-6.68-9.39-.9-1.12-1.96-2.36-2.92-3.45-1.11-1.25-2.27-2.51-3.35-3.77-1.14-1.36-2.19-2.59-2.73-4.17-.41-1.18-.21-2.72,1.01-3.03,1.18-.32,2.65.58,3.69,1.45,2.68,2.28,4.99,4.94,7.42,7.53,2.87,3.11,5.83,6.51,8.35,9.8,1.71,2.32,4.59,5.48,5.03,8.22.18,1.24-.34,2.39-1.44,2.98-1.46.72-3.3-.02-4.66-1.29l-.04-.03h0Z" fill="#f09077"/>
      <path d="M109.57,14.34c1.28,1.24,2.88,1.96,4.4,2.77.68.33,3.31,2.29,2.57.58-.27-.57-.86-1.34-1.18-2.01-.55-1.1-.79-2.28-1.43-3.36-.55-.95-1.28-1.82-1.99-2.66-1.93-2.2-3.81-4.42-5.91-6.46-2.13-2.01-3.01-1.46-2.19,1.38.95,3.58,2.93,7.12,5.69,9.73l.03.03Z" fill="#f09077"/>
    </g>
  </g>
  <g>
    <g>
      <path d="M104.13,116.35c-5.69.21-10.48-4.4-10.7-10.3-.22-5.9,4.22-10.85,9.91-11.07,5.69-.21,10.48,4.4,10.7,10.3s-4.22,10.85-9.91,11.07Z" fill="#98afc1"/>
      <circle cx="60.9" cy="107.62" r="9.14" transform="translate(-3.96 2.34) rotate(-2.13)" fill="#98afc1"/>
      <polygon points="61.24 116.76 60.56 98.48 103.34 94.98 104.13 116.35 61.24 116.76" fill="#98afc1"/>
    </g>
    <g>
      <rect x=".02" y="104.92" width="16.8" height="8.83" rx="3.79" ry="3.79" transform="translate(-4.06 .39) rotate(-2.13)" fill="#896565"/>
      <g>
        <ellipse cx="11.73" cy="109.21" rx="2.88" ry="3.02" transform="translate(-4.05 .51) rotate(-2.13)" fill="#e6926d"/>
        <path d="M11.47,106.21c.17,2.01.34,4.01.5,6.02,2.71.02,5.41.03,8.12.05-.24-2.3-.48-4.59-.72-6.89-2.63.27-5.27.54-7.9.82h0Z" fill="#e6926d"/>
      </g>
    </g>
    <g>
      <g>
        <ellipse cx="62.15" cy="107.66" rx="8.42" ry="9.08" transform="translate(-1.37 .8) rotate(-.73)" fill="#98afc1"/>
        <path d="M23.85,115.17c-.06-4.26-.12-8.53-.18-12.79,12.79-1.26,25.58-2.53,38.37-3.79l.23,18.15c-12.81-.53-25.61-1.05-38.42-1.57h0Z" fill="#99b0c2"/>
      </g>
      <rect x="14.41" y="105.24" width="13.95" height="6.94" rx=".99" ry=".99" transform="translate(129.81 85.95) rotate(89.27)" fill="#b8c2cb"/>
    </g>
  </g>
</svg>