<?xml version="1.0" encoding="UTF-8"?>
<svg id="_Слой_1" data-name="Слой 1" xmlns="http://www.w3.org/2000/svg" viewBox="0 0 141.87 315.69">
  <path d="M141.86,9.95v295.78c0,5.49-4.45,9.95-9.95,9.95H9.95c-5.41,0-9.81-4.32-9.94-9.69,0-.09,0-.17,0-.26V9.95C0,4.46,4.45,0,9.95,0h121.97c.09,0,.17,0,.26,0,5.38.13,9.69,4.54,9.69,9.94Z" fill="#fff"/>
  <path d="M141.86,9.95v32.4c-2.55,3.64-8.69,5.91-12.54,7.13-15.25,4.29-34.37-.05-45.99-12.36-10.89-11.78-5.9-21.78-16.89-31.42-2-1.82-5.68-4.21-7.04-5.65,0,0,0-.02-.02-.04h72.78c5.38.13,9.69,4.54,9.69,9.94Z" fill="#ace55a" opacity=".75"/>
  <path d="M141.87,168.84v109.13c-30.11,0-54.5-24.43-54.5-54.55s24.39-54.55,54.5-54.55v-.02Z" fill="#90ce2e" opacity=".75"/>
  <path d="M82.5,315.69H9.95c-5.41,0-9.81-4.32-9.94-9.69v-32.61c2.54-3.65,8.71-5.94,12.56-7.16,15.24-4.3,34.37.04,45.98,12.35,10.9,11.78,5.9,21.78,16.9,31.42,2,1.82,5.67,4.21,7.04,5.65,0,0,0,.02.02.03Z" fill="#ace55a" opacity=".75"/>
  <path d="M135.74,111.37c0,5.78-4.68,10.46-10.46,10.46s-10.46-4.68-10.46-10.46,4.68-10.46,10.46-10.46,10.46,4.68,10.46,10.46Z" fill="#c7ff85" opacity=".75"/>
  <path d="M43.44,206.61c0,11.1-8.99,20.09-20.09,20.09s-20.09-8.99-20.09-20.09,8.99-20.09,20.09-20.09,20.09,8.99,20.09,20.09Z" fill="#c7ff85" opacity=".75"/>
  <path d="M46.72,99.13c0,20.59-16.69,37.3-37.3,37.3-3.26,0-6.42-.41-9.43-1.2V63.05c3.01-.78,6.17-1.2,9.43-1.2,20.59,0,37.3,16.69,37.3,37.3v-.02Z" fill="#a9db49" opacity=".75"/>
</svg>