<?xml version="1.0" encoding="UTF-8"?>
<svg id="_Слой_1" data-name="Слой 1" xmlns="http://www.w3.org/2000/svg" viewBox="0 0 166.52 57.25">
  <g>
    <path d="M105.6,21.2c1.79-.23,3.56,1.13,5.44,2.18,1.74.99,3.48,1.85,5.3,2.66,1.25.56,2.58,1.13,3.88,1.72,2.51,1.22,5.21,2.25,6.44,4.91.74,1.82-.2,3.75-1.7,4.3-1.3.47-2.73.05-4.13-.47-2.6-1-5.46-2.39-8.05-3.67-3.15-1.58-6.45-3.27-9.11-5.34-3.32-2.31-.95-5.97,1.91-6.28h.04s0,0,0,0Z" fill="#f09077"/>
    <path d="M124.33,30.32c1.96.4,3.95,1.45,5.72,2.14,3.45,1.43,7.05,3.14,10.64,4.39,1.36.47,2.93.96,4.32,1.36,1.61.47,3.27.91,4.87,1.4,1.69.54,3.25,1.02,4.51,2.08.95.78,1.54,2.2.6,3.12-.9.91-2.66.94-4.02.76-3.53-.5-6.91-1.51-10.38-2.41-4.11-1.1-8.45-2.39-12.33-3.84-2.69-1.05-6.82-2.19-8.58-4.28-.78-.96-.89-2.21-.19-3.31.95-1.4,2.96-1.76,4.8-1.41h.05s0,.01,0,.01Z" fill="#f09077"/>
    <path d="M153,41.91c-.54.35-.9.99-1.19,1.66-.4.91-.3,2.04.25,2.83.51.75,1.37,1.09,2.2,1.19,3.53.24,7.09,0,10.62-.29.8-.06,2.1-.47,1.48-1.59-.49-.77-1.37-1.18-2.16-1.5-.52-.21-1.06-.37-1.59-.52-1.4-.39-2.8-.75-4.24-.86-.46-.04-.95-.06-1.39-.19-.57-.17-1.02-.54-1.52-.77-.73-.33-1.75-.4-2.44.02h-.02Z" fill="#f09077"/>
  </g>
  <path d="M71.99.61c-1.41,7.28-2.83,14.57-4.24,21.85-.17.42-.37.87-.63,1.34-.24.45-.49.86-.73,1.21,0,0-1.36,2.18-2.69,3.87-4.94,6.26-14.18,9.35-14.55,9.59,0,0-.05.03-.11.04-.1.01-.21-.04-.26-.13-.15-.27-15.1-14.04-12.46-22.42.22-.69.64-1.6,1.88-2.94C46.1,4.46,66.04,1.41,71.99.61Z" fill="#98afc1"/>
  <g>
    <path d="M77.55,51.2c3.82-6.53,7.64-13.06,11.46-19.59-11.8-7.67-23.61-15.35-35.41-23.02-2.79,8.35-5.57,16.7-8.36,25.05,10.77,5.85,21.54,11.71,32.32,17.56Z" fill="#98afc1"/>
    <ellipse cx="52.36" cy="21.9" rx="13.71" ry="14.26" transform="translate(5.36 53.71) rotate(-56.79)" fill="#98afc1"/>
    <g>
      <g>
        <g>
          <ellipse cx="27.34" cy="45.87" rx="3.6" ry="4.48" transform="translate(-5.69 3.91) rotate(-7.41)" fill="#e6926d"/>
          <path d="M26.76,41.48l1.15,8.88c4.4-.26,8.8-.53,13.2-.79-.49-3.5-.97-7.01-1.46-10.51-4.3.81-8.6,1.61-12.9,2.42Z" fill="#e6926d"/>
        </g>
        <g>
          <g>
            <ellipse cx="82.2" cy="39.49" rx="10.52" ry="11.35" transform="translate(-4.41 10.94) rotate(-7.41)" fill="#91abbc"/>
            <path d="M33.49,37.03c.68,5.29,1.36,10.57,2.05,15.86,16.04-.7,32.09-1.4,48.13-2.1l-2.93-22.51c-15.75,2.92-31.5,5.83-47.25,8.75h0Z" fill="#91abbc"/>
          </g>
          <rect x="34.26" y="35.88" width="7.74" height="17.44" transform="translate(81.7 83.9) rotate(172.59)" fill="#b8c2cb"/>
        </g>
      </g>
      <g>
        <path d="M24.73,41.66c-2.77-.71-5.3,1.96-6.3,3.02-1.8,1.9-3.69,5.22-2.67,6.46.66.8,2.33.5,5.41-.07.95-.18,2.28-.43,3.78-1.09.69-.3.89-.46,1.85-.86,1.45-.6,1.77-.56,2.03-.93.67-.94-.35-2.73-.67-3.33-.4-.75-1.45-2.7-3.42-3.21Z" fill="#e6926d"/>
        <path d="M18.93,51.71c-.05,1.35-3.57,2.29-5.05,2.68-1.93.51-2.93.76-4.02.23-1.26-.61-2.31-2.11-2.04-3.32.08-.35.25-.59.66-1.05,1.74-1.98,3.39-3.09,5.43-4.93.28-.25.99-.42,1.27-.39.57.08,1.16-.06,1.54-.3.69-.43,1.06-1.37.93-2.39-.01-.1.1-.43.17-.49,1.68-1.53,3.36-3.05,5.04-4.58,0,0,.86-1.22,2.32,1.44.95,1.74,1.69,2.45,1.5,3.3-.14.65-.59,1.03-1.44,1.73-1.16.97-2.39,1.47-3.28,1.73-1.76.53-2,.08-3.05.61-1.14.58-2.4,1.89-2.24,3.09.2,1.43,2.28,1.62,2.24,2.62h0Z" fill="#815f5e"/>
      </g>
    </g>
  </g>
  <g>
    <path d="M69.61,55.31c4.31-6.22,8.62-12.44,12.93-18.65-11.18-8.56-22.36-17.11-33.54-25.67-3.42,8.11-6.84,16.22-10.26,24.33,10.29,6.66,20.58,13.33,30.87,19.99Z" fill="#98afc1"/>
    <ellipse cx="46.74" cy="24.17" rx="13.71" ry="14.26" transform="translate(-.93 46.44) rotate(-52.39)" fill="#98afc1"/>
    <g>
      <g>
        <g>
          <ellipse cx="19.96" cy="46.15" rx="3.6" ry="4.48" transform="translate(-2.4 1.11) rotate(-3.02)" fill="#e6926d"/>
          <path d="M19.71,41.73l.47,8.94c4.41.08,8.82.15,13.23.23-.22-3.53-.43-7.06-.65-10.59-4.35.48-8.7.95-13.05,1.43Z" fill="#e6926d"/>
        </g>
        <g>
          <g>
            <ellipse cx="75.14" cy="44" rx="10.52" ry="11.35" transform="translate(-2.21 4.01) rotate(-3.02)" fill="#98afc1"/>
            <path d="M26.76,37.81c.27,5.32.55,10.65.82,15.97,16.05.53,32.1,1.06,48.15,1.6l-1.19-22.67c-15.93,1.7-31.85,3.4-47.78,5.1h0Z" fill="#99b0c2"/>
          </g>
          <rect x="26.95" y="36.99" width="7.74" height="17.44" transform="translate(63.99 89.73) rotate(176.98)" fill="#b8c2cb"/>
        </g>
      </g>
      <g>
        <path d="M17.68,41.75c-2.71-.92-5.44,1.55-6.52,2.53-1.94,1.76-4.08,4.92-3.16,6.24.59.85,2.28.67,5.4.34.97-.1,2.3-.25,3.85-.8.71-.25.93-.39,1.91-.71,1.49-.48,1.81-.42,2.1-.77.74-.89-.14-2.75-.41-3.37-.35-.78-1.24-2.81-3.17-3.46Z" fill="#e6926d"/>
        <path d="M11.13,51.33c-.15,1.35-3.74,2.01-5.25,2.29-1.96.36-2.98.53-4.02-.08-1.21-.71-2.15-2.28-1.78-3.46.11-.34.3-.57.74-1,1.89-1.84,3.62-2.82,5.79-4.5.3-.23,1.02-.34,1.29-.29.57.12,1.16.03,1.56-.18.72-.37,1.16-1.28,1.11-2.31,0-.1.13-.42.21-.48,1.79-1.39,3.58-2.79,5.37-4.18,0,0,.95-1.15,2.2,1.62.82,1.8,1.5,2.57,1.24,3.41-.19.64-.67.98-1.56,1.62-1.23.88-2.5,1.28-3.4,1.47-1.8.39-2-.07-3.09.37-1.19.49-2.54,1.7-2.47,2.91.09,1.44,2.15,1.79,2.03,2.79h0Z" fill="#815f5e"/>
      </g>
    </g>
  </g>
  <g>
    <g>
      <g>
        <g>
          <g>
            <g>
              <path d="M108.04,19.45c-3.85,3.99-7.7,7.98-11.56,11.97.3-.06.71-.13,1.2-.17h0c1.45-.13,3.65-.08,5.92,1,.27.13.53.26.77.41,1.21-1.49,4.46-1.61,7.7-.19,1.23.54,2.29,1.22,3.13,1.98-.5-.07-1.01-.1-1.51-.1.52.01,1.03.05,1.54.12h0c.46.06.91.15,1.36.27h0c.17-.26.34-.52.52-.77.8-1.12,1.74-2.1,2.77-2.93-.89-.43-1.87-.95-2.88-1.6-1.19-.77-2.43-1.71-3.66-2.86-1-.94-1.85-1.89-2.57-2.81-1.27-1.61-2.15-3.13-2.74-4.32h0Z" fill="#ef9475"/>
              <path d="M111.41,23.17s-.07-.13-.13-.24c0,0-.34-.65-.74-1.3-4.81-7.83-9.38-10.93-9.38-10.93-2.19-1.15-4.02-2.05-5.27-2.66,0,0-8.77-4.28-25.14-7.93-.34-.08-1.12-.24-1.9.12-.89.41-1.35,1.32-1.59,2-2.64,6.03-5.28,12.05-7.92,18.08-.37.85.02,1.85.87,2.22,7.46,3.27,14.91,6.53,22.37,9.8,1.2.46,2.37.78,3.48.98,7.57-.44,16.62-2.49,23.95-8.85.49-.42.95-.85,1.4-1.29h0Z" fill="#ead9cf"/>
            </g>
            <path d="M133.76,29.02c-4.69-2.05-9.98-1.1-13.87,2.02-1.03.83-1.97,1.81-2.77,2.93-.18.25-.35.51-.52.77h0c-.44-.11-.89-.2-1.35-.27h0c-.11-.08-.34-.23-.66-.27-.43-.06-.77.08-.89.15,0,0,0,0-.01,0-1.02.06-3.27.2-5.66,1.45-1.77.92-2.71,1.97-2.94,2.36,0,0-.42.71-.42.71h0c-.39.62-.97,1.73-1.19,3.39.26,2.43,1.76,4.89,3.65,6.38.5.4,2.07,1.69,4.18,2,.51.07,1.04.09,1.6.03.64-.07,1.16-.24,1.51-.37.21.16.43.32.67.5,1.09.81,2.53,1.8,4.26,2.86.18.11.36.22.54.33.96.57,1.97,1.17,2.34,1.33,1.51.66,3.09,1.01,4.66,1.08,5.56.23,11.06-3.11,13.54-8.77.8-1.82,1.21-3.7,1.26-5.55.12-3.76-1.21-7.38-3.69-10.03-1.17-1.25-2.61-2.29-4.26-3.01h0Z" fill="#ef9475"/>
          </g>
          <path d="M112.08,32.47c-3.24-1.42-6.49-1.3-7.7.19,1.39.81,2.45,1.85,3.26,2.94-.84.41-1.59.9-2.22,1.49-.82.76-1.42,1.66-1.74,2.69-.24.79-.3,1.63-.21,2.47.09-.89.33-1.62.59-2.21,2-4.45,9.38-5.68,9.62-5.69,0,0,0,0,.01,0,.5,0,1.01.03,1.51.1-.83-.75-1.9-1.44-3.13-1.98h0Z" fill="#b46048"/>
          <path d="M115.21,34.44c-.5-.07-1.01-.1-1.51-.1.52.01,1.03.05,1.54.12-.01,0-.02-.02-.03-.03Z" fill="#b46048"/>
        </g>
        <path d="M132.36,27.62c-3.4-1.53-10.41-3.11-14.5.81-2.48,2.38-2.9,5.71-2.97,7.4.5-.43,1.47-1.13,2.87-1.48.67-.17,2.49-.62,4.28.35.28.15,2.18,1.17,2.18,2.49,0,1.35-2,2.85-5.06,3.12,7.63,2.49,12.35,7.42,11.94,11.73-.08.88-.42,2.16-1.64,3.62-.25.23-1.19.64-1.51.68-.39.05-.74.06-1.05.06.11.11.23.21.38.32.59.4,1.2.47,1.55.48,0,0,.9.14,1.97.02,5.45-.57,10.59-6.67,11.28-13.41.05-.53.08-1.06.08-1.58-.01-3.91-1.54-7.56-4.24-10.61,0,0-2.33-2.54-5.56-3.99h0Z" fill="#5b3d3b"/>
        <circle cx="144.07" cy="35.5" r="6.98" fill="#5b3d3b"/>
      </g>
      <ellipse cx="117.37" cy="50.13" rx=".61" ry="1.73" transform="translate(24.36 137.53) rotate(-66.34)" fill="#422f2b"/>
      <rect x="120.28" y="50.55" width="1.72" height="3.41" transform="translate(215.3 144.65) rotate(-158.87)" fill="#50373b"/>
      <ellipse cx="113.39" cy="50.05" rx="2.89" ry="1.87" transform="translate(22.05 133.83) rotate(-66.34)" fill="#ef9475"/>
    </g>
    <path d="M109.56,46.06c-.24-.06-.98-.21-1.8.14-.99.42-1.39,1.27-1.48,1.46-.09.55.03.79.16.91.19.17.38.03.69.21.36.21.36.54.62.59.2.04.39-.13.48-.21.69-.61,1.25-2.76,1.34-3.11h0Z" fill="#e46761"/>
    <path d="M107.03,48.59c.18-.75.62-1.39,1.24-1.84.16-.11.32.13.17.25-.55.41-.95.98-1.11,1.65-.05.19-.34.14-.3-.05h0Z" fill="#754048"/>
    <g>
      <path d="M119.27,37.76c-.09-.44-.18-.87-.27-1.3-.07-.32.25-.63.55-.65.36-.03.59.23.65.55.09.44.18.87.27,1.3.07.32-.25.63-.55.65-.36.03-.59-.23-.65-.55h0Z" fill="#ce7857"/>
      <path d="M117.14,37.36c1.47.42,3.68.85,4.51-.86.34-.7,1.43-.19,1.09.51-1.09,2.25-3.75,2.12-5.8,1.54-.74-.21-.54-1.4.2-1.19h0Z" fill="#ce7857"/>
    </g>
  </g>
  <g>
    <g>
      <path d="M106.07,26.29c1.8-.07,3.45,1.43,5.23,2.64,1.65,1.14,3.31,2.14,5.05,3.11,1.19.67,2.47,1.35,3.72,2.05,2.4,1.44,5,2.69,5.99,5.45.58,1.88-.52,3.72-2.07,4.14-1.33.36-2.73-.19-4.08-.82-2.5-1.22-5.23-2.86-7.7-4.36-3-1.85-6.15-3.81-8.61-6.11-3.11-2.58-.43-6.03,2.45-6.1h.04s0,0,0,0Z" fill="#ef9475"/>
      <path d="M94.37,28.61c.37.25.74.51,1.1.76,2.23,1.54,4.47,3.08,6.71,4.62.48.33.97.67,1.45,1,.34-.45.68-.91,1.02-1.36,1.91-2.55,3.82-5.11,5.73-7.66-2.82-2.07-5.63-4.14-8.45-6.21-2.56-2.19-6.33-1.98-8.42.46-2.09,2.44-1.71,6.2.86,8.39h0Z" fill="#ead9cf" stroke="#c9b9b1" stroke-miterlimit="10" stroke-width=".37"/>
      <path d="M108.01,24.15c-2.14,3.3-4.28,6.6-6.41,9.9-.2.3-.66,0-.47-.31,2.14-3.3,4.28-6.6,6.41-9.9.2-.3.66,0,.47.31h0Z" fill="#c9b9b1"/>
    </g>
    <path d="M123.94,37c1.91.57,3.81,1.78,5.51,2.63,3.31,1.73,6.75,3.74,10.22,5.29,1.31.58,2.84,1.21,4.19,1.73,1.56.6,3.18,1.19,4.73,1.82,1.64.69,3.15,1.3,4.32,2.46.88.86,1.34,2.33.33,3.16-.97.83-2.73.7-4.07.41-3.47-.8-6.75-2.1-10.13-3.3-4-1.45-8.21-3.11-11.96-4.89-2.58-1.28-6.61-2.77-8.18-5.01-.7-1.02-.69-2.28.09-3.32,1.06-1.31,3.1-1.49,4.91-.99h.05s0,.01,0,.01Z" fill="#ef9475"/>
    <path d="M152.2,51.42c-.54.34-.91.97-1.21,1.65-.41.9-.33,2.04.22,2.83.5.76,1.35,1.1,2.19,1.22,3.53.28,7.09.08,10.62-.17.8-.05,2.11-.45,1.49-1.57-.48-.78-1.36-1.19-2.14-1.53-.52-.21-1.05-.38-1.59-.54-1.39-.41-2.8-.78-4.23-.9-.46-.05-.94-.07-1.39-.2-.57-.17-1.01-.55-1.51-.79-.73-.34-1.74-.42-2.44,0h-.02Z" fill="#ef9475"/>
  </g>
</svg>