<?xml version="1.0" encoding="UTF-8"?>
<svg id="_Слой_1" data-name="Слой 1" xmlns="http://www.w3.org/2000/svg" viewBox="0 0 176.73 84.83">
  <g>
    <path d="M130.24,21.35c1.33,1.22,1.45,3.45,1.86,5.55.37,1.97.84,3.85,1.39,5.76.38,1.31.81,2.7,1.2,4.07.69,2.71,1.65,5.43.42,8.08-.91,1.74-2.99,2.27-4.38,1.48-1.2-.68-1.8-2.05-2.32-3.45-.92-2.63-1.71-5.71-2.41-8.52-.83-3.43-1.68-7.04-1.82-10.4-.39-4.02,3.94-4.58,6.03-2.61l.03.02h0Z" fill="#f09077"/>
    <path d="M135.4,41.53c.96,1.75,1.46,3.95,2.06,5.75,1.14,3.56,2.17,7.41,3.54,10.95.52,1.34,1.17,2.85,1.76,4.17.68,1.53,1.42,3.08,2.08,4.62.68,1.64,1.32,3.14,1.34,4.79.01,1.23-.68,2.6-1.99,2.47-1.27-.1-2.43-1.42-3.18-2.58-1.91-3.01-3.32-6.25-4.87-9.48-1.82-3.84-3.64-7.99-5.05-11.89-.94-2.73-2.74-6.62-2.29-9.31.23-1.22,1.11-2.11,2.4-2.29,1.68-.18,3.25,1.12,4.18,2.75l.02.04h0Z" fill="#f09077"/>
    <path d="M143.61,70.62c-.53.35-.89.99-1.18,1.67-.39.91-.29,2.04.28,2.83.52.75,1.38,1.08,2.21,1.17,3.53.21,7.09-.06,10.62-.38.8-.06,2.1-.49,1.46-1.6-.49-.77-1.38-1.17-2.17-1.49-.52-.2-1.06-.36-1.6-.51-1.4-.38-2.81-.73-4.25-.82-.46-.04-.95-.05-1.39-.18-.57-.16-1.02-.53-1.53-.76-.73-.32-1.75-.38-2.44.04h-.02Z" fill="#f09077"/>
  </g>
  <g>
    <path d="M69.67,66.42c7.51-.93,15.02-1.86,22.52-2.78-1.07-14.04-2.14-28.08-3.2-42.12-8.33,2.85-16.65,5.71-24.98,8.56,1.89,12.11,3.77,24.23,5.66,36.34Z" fill="#91abbc"/>
    <g>
      <g>
        <g>
          <ellipse cx="27.06" cy="70.42" rx="3.6" ry="4.48" transform="translate(-10.8 5.17) rotate(-9.1)" fill="#e6926d"/>
          <path d="M26.35,66.04l1.41,8.84c4.39-.39,8.78-.78,13.18-1.18-.59-3.49-1.18-6.98-1.77-10.46-4.27.93-8.55,1.87-12.82,2.8Z" fill="#e6926d"/>
        </g>
        <g>
          <g>
            <ellipse cx="81.71" cy="62.43" rx="10.52" ry="11.35" transform="translate(-8.85 13.71) rotate(-9.1)" fill="#91abbc"/>
            <path d="M32.95,61.4c.84,5.26,1.68,10.53,2.51,15.79,16.02-1.17,32.03-2.35,48.05-3.52l-3.59-22.41c-15.66,3.38-31.31,6.76-46.97,10.14h0Z" fill="#91abbc"/>
          </g>
          <rect x="33.94" y="60.11" width="7.74" height="17.44" transform="translate(86.04 130.8) rotate(170.9)" fill="#b8c2cb"/>
        </g>
      </g>
      <g>
        <path d="M24.33,66.29c-2.79-.63-5.24,2.12-6.21,3.21-1.74,1.95-3.54,5.32-2.48,6.54.68.78,2.34.43,5.4-.23.95-.2,2.26-.5,3.75-1.2.68-.32.88-.49,1.83-.91,1.43-.64,1.75-.61,2-.99.65-.96-.43-2.72-.77-3.31-.43-.74-1.53-2.66-3.52-3.1Z" fill="#e6926d"/>
        <path d="M18.83,76.5c0,1.35-3.5,2.4-4.97,2.83-1.92.57-2.91.84-4.01.35-1.27-.57-2.38-2.04-2.13-3.26.07-.35.24-.6.63-1.07,1.68-2.03,3.3-3.19,5.28-5.09.27-.26.98-.45,1.26-.42.58.06,1.16-.1,1.54-.35.67-.45,1.02-1.4.86-2.41-.01-.1.09-.43.16-.5,1.63-1.57,3.27-3.15,4.9-4.72,0,0,.83-1.24,2.36,1.38,1,1.71,1.76,2.39,1.6,3.26-.12.66-.56,1.04-1.38,1.77-1.13,1-2.35,1.54-3.23,1.83-1.75.58-2,.14-3.03.7-1.13.61-2.35,1.96-2.14,3.15.24,1.42,2.32,1.56,2.32,2.55h0Z" fill="#815f5e"/>
      </g>
    </g>
  </g>
  <path d="M87.37,20.51c3.57,4.87,7.13,9.74,10.7,14.61-.2.4-.44.83-.74,1.29-.28.43-.56.81-.83,1.15,0,0-1.53,2.06-2.99,3.64-5.43,5.84-14.89,8.16-15.28,8.37,0,0-.05.03-.11.03-.1,0-.2-.05-.25-.15-3.53-7.79-7.06-15.57-10.6-23.36-.09-.21.15-.33.17-.36,2.96-5.8,12.82-5.9,19.93-5.2Z" fill="#98afc1"/>
  <path d="M62.73,72.08c7.56-.16,15.13-.32,22.69-.48.37-14.07.73-28.15,1.1-42.22-8.57,1.99-17.15,3.98-25.72,5.97.64,12.24,1.29,24.49,1.93,36.73Z" fill="#98afc1"/>
  <ellipse cx="74.53" cy="35.29" rx="14.26" ry="13.71" transform="translate(37.07 108.75) rotate(-88.32)" fill="#98afc1"/>
  <g>
    <g>
      <g>
        <ellipse cx="19.94" cy="71.72" rx="3.6" ry="4.48" transform="translate(-4.05 1.25) rotate(-3.26)" fill="#e6926d"/>
        <path d="M19.68,67.3l.51,8.94c4.41.06,8.82.11,13.23.17-.23-3.53-.46-7.06-.7-10.59-4.35.49-8.69.99-13.04,1.48Z" fill="#e6926d"/>
      </g>
      <g>
        <g>
          <ellipse cx="75.12" cy="69.33" rx="10.52" ry="11.35" transform="translate(-3.82 4.38) rotate(-3.26)" fill="#98afc1"/>
          <path d="M26.71,63.35c.3,5.32.59,10.65.89,15.97,16.05.46,32.1.93,48.16,1.39l-1.29-22.66c-15.92,1.77-31.84,3.53-47.76,5.3h0Z" fill="#99b0c2"/>
        </g>
        <rect x="26.93" y="62.51" width="7.74" height="17.44" transform="translate(65.59 140.59) rotate(176.74)" fill="#b8c2cb"/>
      </g>
    </g>
    <g>
      <path d="M17.64,67.33c-2.71-.91-5.43,1.57-6.51,2.56-1.93,1.76-4.06,4.94-3.13,6.25.6.85,2.29.66,5.4.32.97-.11,2.3-.26,3.85-.82.71-.25.92-.4,1.91-.72,1.49-.49,1.81-.43,2.09-.78.74-.89-.15-2.75-.43-3.37-.35-.78-1.25-2.8-3.18-3.45Z" fill="#e6926d"/>
      <path d="M11.13,76.94c-.15,1.35-3.73,2.03-5.24,2.31-1.96.37-2.98.54-4.02-.06-1.21-.7-2.16-2.27-1.79-3.46.11-.34.29-.57.74-1,1.88-1.84,3.6-2.84,5.78-4.53.3-.23,1.02-.35,1.29-.29.57.12,1.16.02,1.56-.19.71-.38,1.15-1.29,1.1-2.31,0-.1.13-.42.21-.48,1.78-1.4,3.57-2.8,5.35-4.2,0,0,.95-1.15,2.21,1.61.82,1.8,1.51,2.56,1.26,3.4-.19.64-.66.98-1.56,1.62-1.23.88-2.49,1.29-3.4,1.49-1.8.4-2-.06-3.09.39-1.18.49-2.53,1.71-2.45,2.92.1,1.44,2.15,1.79,2.04,2.78h0Z" fill="#815f5e"/>
    </g>
  </g>
  <g>
    <g>
      <g>
        <g>
          <g>
            <g>
              <path d="M131,14.33c-.89,5.48-1.78,10.95-2.67,16.43.21-.22.51-.51.89-.83h0c1.12-.94,2.95-2.14,5.43-2.55.29-.05.58-.08.87-.11.14-1.91,2.75-3.86,6.22-4.54,1.31-.26,2.58-.3,3.7-.16-.45.23-.89.49-1.3.78.43-.28.88-.54,1.34-.78h0c.41-.21.84-.39,1.27-.55h0c-.01-.31-.02-.62-.01-.93.02-1.38.23-2.72.61-3.98-.98.16-2.08.28-3.28.33-1.42.05-2.97-.02-4.63-.26-1.35-.2-2.59-.5-3.71-.85-1.96-.6-3.55-1.35-4.72-1.98h0Z" fill="#ef9475"/>
              <path d="M135.89,15.47s-.14-.07-.24-.12c0,0-.65-.34-1.35-.65-8.41-3.69-13.94-3.63-13.94-3.63-2.46.31-4.47.6-5.84.82,0,0-9.65,1.49-25.17,7.81-.32.13-1.06.44-1.49,1.18-.5.85-.36,1.85-.16,2.55,1.27,6.46,2.53,12.91,3.8,19.37.18.91,1.07,1.51,1.98,1.33,7.99-1.57,15.98-3.13,23.97-4.7,1.25-.31,2.39-.71,3.42-1.17,5.97-4.68,12.24-11.52,14.63-20.92.16-.62.3-1.24.41-1.86h0Z" fill="#ead9cf"/>
            </g>
            <path d="M157.59,7.53c-5.02.99-8.82,4.78-10.25,9.56-.38,1.27-.59,2.61-.61,3.98,0,.31,0,.62.01.93h0c-.43.16-.85.34-1.26.55h0c-.14,0-.41,0-.7.15-.39.19-.58.51-.65.63,0,0,0,0-.01,0-.81.63-2.57,2.03-3.83,4.42-.93,1.77-1.1,3.16-1.07,3.61,0,0,.06.82.06.82h0c.03.73.19,1.98.95,3.46,1.6,1.85,4.24,3.01,6.63,3.16.63.04,2.66.21,4.58-.74.46-.23.91-.52,1.33-.89.48-.43.82-.86,1.03-1.17.26.01.54.02.84.03,1.36.04,3.11.04,5.14-.08.21-.01.42-.03.63-.04,1.12-.08,2.28-.16,2.68-.24,1.62-.32,3.12-.93,4.45-1.77,4.7-2.98,7.31-8.86,6.12-14.92-.38-1.95-1.12-3.73-2.13-5.28-2.05-3.15-5.2-5.37-8.75-6.14-1.68-.36-3.45-.39-5.22-.05h0Z" fill="#ef9475"/>
          </g>
          <path d="M141.75,22.72c-3.47.68-6.08,2.63-6.22,4.54,1.6-.13,3.07.12,4.36.56-.46.81-.79,1.65-.97,2.49-.24,1.09-.22,2.18.11,3.2.25.79.68,1.51,1.24,2.15-.43-.79-.66-1.52-.77-2.15-.9-4.79,4.47-10.01,4.66-10.16,0,0,0,0,.01,0,.41-.29.85-.55,1.3-.78-1.12-.14-2.38-.1-3.7.16h0Z" fill="#b46048"/>
          <path d="M145.44,22.56c-.45.23-.89.49-1.3.78.43-.28.88-.54,1.34-.78-.01,0-.03,0-.04,0Z" fill="#b46048"/>
        </g>
        <path d="M155.64,7.17c-3.67.69-10.33,3.38-11.45,8.93-.68,3.37.87,6.34,1.78,7.77.17-.64.56-1.77,1.51-2.85.46-.52,1.69-1.93,3.72-2.15.32-.04,2.46-.28,3.21.81.76,1.11-.02,3.48-2.38,5.44,7.69-2.31,14.37-.95,16.49,2.83.43.77.88,2.01.72,3.91-.08.34-.62,1.21-.85,1.42-.29.26-.57.47-.83.64.15.03.31.04.49.04.71,0,1.25-.3,1.55-.49,0,0,.81-.4,1.63-1.1,4.15-3.58,4.9-11.52,1.62-17.45-.26-.47-.54-.92-.84-1.34-2.24-3.21-5.58-5.33-9.54-6.3,0,0-3.36-.76-6.84-.1h0Z" fill="#5b3d3b"/>
        <circle cx="169.75" cy="6.98" r="6.98" fill="#5b3d3b"/>
      </g>
      <ellipse cx="156.16" cy="34.22" rx="1.73" ry=".61" transform="translate(-3.67 30.71) rotate(-11.1)" fill="#422f2b"/>
      <rect x="159.6" y="32.11" width="1.72" height="3.41" transform="translate(324.38 28.86) rotate(166.37)" fill="#50373b"/>
      <ellipse cx="152.84" cy="36.42" rx="1.87" ry="2.89" transform="translate(-4.15 30.11) rotate(-11.1)" fill="#ef9475"/>
    </g>
    <path d="M147.43,35.32c-.23.09-.93.39-1.4,1.14-.57.91-.42,1.83-.38,2.05.24.51.48.64.65.65.25.03.33-.19.69-.22.41-.03.6.24.85.13.19-.09.25-.33.28-.44.22-.89-.55-2.98-.68-3.32h0Z" fill="#e46761"/>
    <path d="M146.78,38.84c-.28-.72-.28-1.5-.03-2.22.06-.18.34-.08.28.11-.22.65-.22,1.35.03,1.99.07.18-.2.31-.27.13h0Z" fill="#754048"/>
    <g>
      <path d="M150.66,22.97c-.32-.31-.65-.61-.97-.92-.24-.22-.15-.66.08-.85.27-.23.61-.15.85.08.32.31.65.61.97.92.24.22.15.66-.08.85-.27.23-.61.15-.85-.08h0Z" fill="#ce7857"/>
      <path d="M148.69,23.86c1.45-.49,3.51-1.4,3.21-3.28-.12-.76,1.06-.97,1.19-.2.39,2.47-1.87,3.88-3.89,4.57-.73.25-1.24-.84-.51-1.09h0Z" fill="#ce7857"/>
    </g>
  </g>
  <g>
    <g>
      <path d="M124.72,29.8c1.33,1.22,1.45,3.45,1.86,5.55.37,1.97.84,3.85,1.39,5.76.38,1.31.81,2.7,1.2,4.07.69,2.71,1.65,5.43.42,8.08-.91,1.74-2.99,2.27-4.38,1.48-1.2-.68-1.8-2.05-2.32-3.45-.92-2.63-1.71-5.71-2.41-8.52-.83-3.43-1.68-7.04-1.82-10.4-.39-4.02,3.94-4.58,6.03-2.61l.03.02h0Z" fill="#ef9475"/>
      <path d="M114.78,23.22c.08.44.17.88.25,1.32.5,2.67,1.01,5.33,1.51,8,.11.58.22,1.16.33,1.73.56-.08,1.12-.17,1.69-.25,3.15-.47,6.31-.94,9.46-1.41-.54-3.45-1.09-6.9-1.63-10.36-.28-3.36-3.11-5.86-6.31-5.6-3.21.27-5.58,3.21-5.3,6.57h0Z" fill="#ead9cf" stroke="#c9b9b1" stroke-miterlimit="10" stroke-width=".37"/>
      <path d="M127.61,29.65c-3.84.84-7.68,1.68-11.52,2.52-.35.08-.47-.47-.11-.55,3.84-.84,7.68-1.68,11.52-2.52.35-.08.47.47.11.55h0Z" fill="#c9b9b1"/>
    </g>
    <path d="M129.88,49.98c.96,1.75,1.46,3.95,2.06,5.75,1.14,3.56,2.17,7.41,3.54,10.95.52,1.34,1.17,2.85,1.76,4.17.68,1.53,1.42,3.08,2.08,4.62.68,1.64,1.32,3.14,1.34,4.79.01,1.23-.68,2.6-1.99,2.47-1.27-.1-2.43-1.42-3.18-2.58-1.91-3.01-3.32-6.25-4.87-9.48-1.82-3.84-3.64-7.99-5.05-11.89-.94-2.73-2.74-6.62-2.29-9.31.23-1.22,1.11-2.11,2.4-2.29,1.68-.18,3.25,1.12,4.18,2.75l.02.04h0Z" fill="#ef9475"/>
    <path d="M138.09,79.08c-.53.35-.89.99-1.18,1.67-.39.91-.29,2.04.28,2.83.52.75,1.38,1.08,2.21,1.17,3.53.21,7.09-.06,10.62-.38.8-.06,2.1-.49,1.46-1.6-.49-.77-1.38-1.17-2.17-1.49-.52-.2-1.06-.36-1.6-.51-1.4-.38-2.81-.73-4.25-.82-.46-.04-.95-.05-1.39-.18-.57-.16-1.02-.53-1.53-.76-.73-.32-1.75-.38-2.44.04h-.02Z" fill="#ef9475"/>
  </g>
</svg>