<?xml version="1.0" encoding="UTF-8"?>
<svg id="_Слой_1" data-name="Слой 1" xmlns="http://www.w3.org/2000/svg" viewBox="0 0 164.61 62.26">
  <g>
    <path d="M115.21,12.11c1.75.44,2.92,2.34,4.28,3.99,1.26,1.55,2.58,2.98,3.98,4.4.96.98,2,1.99,3,3,1.9,2.05,4.04,3.98,4.23,6.9.03,1.97-1.54,3.42-3.14,3.39-1.38-.03-2.57-.94-3.69-1.93-2.06-1.87-4.22-4.2-6.18-6.34-2.37-2.62-4.84-5.38-6.57-8.27-2.26-3.35,1.27-5.91,4.06-5.17h.03s0,.01,0,.01Z" fill="#f09077"/>
    <path d="M129.37,27.38c1.68,1.08,3.16,2.78,4.56,4.07,2.69,2.58,5.44,5.48,8.34,7.94,1.1.93,2.39,1.95,3.54,2.83,1.33,1.02,2.72,2.03,4.03,3.07,1.38,1.12,2.66,2.13,3.46,3.57.6,1.07.64,2.61-.57,3.12-1.16.52-2.82-.09-4.03-.75-3.11-1.74-5.9-3.91-8.81-6-3.44-2.51-7.01-5.28-10.11-8.04-2.12-1.95-5.57-4.51-6.45-7.09-.38-1.18-.03-2.38,1.02-3.16,1.39-.96,3.39-.57,4.99.42l.04.02h0Z" fill="#f09077"/>
    <path d="M151.23,48.53c-.55.33-.93.96-1.24,1.62-.42.89-.37,2.03.17,2.84.49.77,1.33,1.13,2.16,1.26,3.52.35,7.09.21,10.62.03.8-.03,2.12-.41,1.52-1.54-.46-.79-1.34-1.22-2.11-1.57-.51-.22-1.04-.4-1.58-.57-1.39-.43-2.78-.84-4.21-.98-.46-.05-.94-.09-1.39-.23-.56-.19-1-.57-1.5-.82-.72-.35-1.74-.45-2.44-.05h-.02Z" fill="#f09077"/>
  </g>
  <g>
    <path d="M73.03,50.5c5.51-5.18,11.02-10.36,16.53-15.54-9.15-10.7-18.3-21.4-27.45-32.1-5.04,7.22-10.07,14.44-15.11,21.66,8.68,8.66,17.35,17.32,26.03,25.99Z" fill="#91abbc"/>
    <g>
      <g>
        <g>
          <ellipse cx="26.1" cy="49.23" rx="3.6" ry="4.48" transform="translate(-7.98 5.15) rotate(-9.78)" fill="#e6926d"/>
          <path d="M25.34,44.86l1.52,8.82c4.39-.44,8.77-.89,13.16-1.33-.63-3.48-1.26-6.96-1.89-10.44-4.26.98-8.53,1.97-12.79,2.95Z" fill="#e6926d"/>
        </g>
        <g>
          <g>
            <ellipse cx="80.65" cy="40.59" rx="10.52" ry="11.35" transform="translate(-5.72 14.29) rotate(-9.78)" fill="#91abbc"/>
            <path d="M31.88,40.14c.9,5.25,1.8,10.51,2.7,15.76,16-1.36,32-2.72,48-4.09l-3.85-22.37c-15.62,3.56-31.23,7.13-46.85,10.69h0Z" fill="#91abbc"/>
          </g>
          <rect x="32.96" y="38.79" width="7.74" height="17.44" transform="translate(81.2 88.07) rotate(170.22)" fill="#b8c2cb"/>
        </g>
      </g>
      <g>
        <path d="M23.32,45.13c-2.8-.59-5.22,2.18-6.17,3.28-1.72,1.97-3.48,5.37-2.4,6.57.69.78,2.35.4,5.4-.29.95-.22,2.26-.52,3.73-1.25.67-.33.87-.5,1.82-.94,1.42-.66,1.75-.63,1.99-1.01.63-.97-.46-2.71-.81-3.3-.43-.74-1.56-2.64-3.55-3.06Z" fill="#e6926d"/>
        <path d="M17.94,55.41c0,1.35-3.47,2.44-4.94,2.89-1.91.59-2.9.88-4,.4-1.28-.56-2.4-2.02-2.17-3.23.07-.35.23-.6.62-1.08,1.66-2.05,3.26-3.23,5.22-5.15.27-.26.97-.46,1.25-.44.58.05,1.15-.11,1.53-.37.67-.45,1-1.41.83-2.42-.02-.1.08-.43.15-.5l4.84-4.78s.81-1.25,2.38,1.35c1.02,1.7,1.79,2.37,1.63,3.24-.12.66-.55,1.05-1.36,1.79-1.12,1.02-2.33,1.56-3.2,1.86-1.74.6-2,.16-3.02.73-1.12.63-2.32,1.99-2.11,3.18.26,1.42,2.34,1.53,2.35,2.53h0Z" fill="#815f5e"/>
      </g>
    </g>
  </g>
  <path d="M86.09,4.09c-3.66,6.46-7.32,12.91-10.97,19.37-.29.34-.63.7-1.02,1.07-.37.35-.74.65-1.08.92,0,0-1.98,1.63-3.78,2.81-6.68,4.37-16.41,4.35-16.84,4.46-.01,0-.06.01-.11,0-.1-.02-.19-.1-.21-.21-.06-.3-9.85-18.11-4.68-25.22.43-.59,1.11-1.32,2.71-2.19,10.21-5.59,30.08-2.14,35.99-1Z" fill="#98afc1"/>
  <path d="M66.42,55.19c6.06-4.52,12.13-9.05,18.19-13.57-7.88-11.67-15.75-23.34-23.63-35.01-5.82,6.6-11.65,13.2-17.47,19.8,7.64,9.59,15.27,19.18,22.91,28.77Z" fill="#98afc1"/>
  <ellipse cx="54.65" cy="18.38" rx="13.71" ry="14.26" transform="translate(-.98 33.54) rotate(-33.83)" fill="#98afc1"/>
  <g>
    <g>
      <g>
        <ellipse cx="19.94" cy="48.6" rx="3.6" ry="4.48" transform="translate(-2.73 1.21) rotate(-3.26)" fill="#e6926d"/>
        <path d="M19.68,44.17l.51,8.94c4.41.06,8.82.11,13.23.17-.23-3.53-.46-7.06-.7-10.59-4.35.49-8.69.99-13.04,1.48Z" fill="#e6926d"/>
      </g>
      <g>
        <g>
          <ellipse cx="75.12" cy="46.2" rx="10.52" ry="11.35" transform="translate(-2.51 4.35) rotate(-3.26)" fill="#98afc1"/>
          <path d="M26.71,40.22c.3,5.32.59,10.65.89,15.97,16.05.46,32.1.93,48.16,1.39l-1.29-22.66c-15.92,1.77-31.84,3.53-47.76,5.3h0Z" fill="#99b0c2"/>
        </g>
        <rect x="26.93" y="39.38" width="7.74" height="17.44" transform="translate(64.27 94.37) rotate(176.74)" fill="#b8c2cb"/>
      </g>
    </g>
    <g>
      <path d="M17.64,44.21c-2.71-.91-5.43,1.57-6.51,2.56-1.93,1.76-4.06,4.94-3.13,6.25.6.85,2.29.66,5.4.32.97-.11,2.3-.26,3.85-.82.71-.25.92-.4,1.91-.72,1.49-.49,1.81-.43,2.09-.78.74-.89-.15-2.75-.43-3.37-.35-.78-1.25-2.8-3.18-3.45Z" fill="#e6926d"/>
      <path d="M11.13,53.81c-.15,1.35-3.73,2.03-5.24,2.31-1.96.37-2.98.54-4.02-.06-1.21-.7-2.16-2.27-1.79-3.46.11-.34.29-.57.74-1,1.88-1.84,3.6-2.84,5.78-4.53.3-.23,1.02-.35,1.29-.29.57.12,1.16.02,1.56-.19.71-.38,1.15-1.29,1.1-2.31,0-.1.13-.42.21-.48,1.78-1.4,3.57-2.8,5.35-4.2,0,0,.95-1.15,2.21,1.61.82,1.8,1.51,2.56,1.26,3.4-.19.64-.66.98-1.56,1.62-1.23.88-2.49,1.29-3.4,1.49-1.8.4-2-.06-3.09.39-1.18.49-2.53,1.71-2.45,2.92.1,1.44,2.15,1.79,2.04,2.78h0Z" fill="#815f5e"/>
    </g>
  </g>
  <g>
    <g>
      <g>
        <g>
          <g>
            <g>
              <path d="M113.62,7.29c-2.36,5.02-4.72,10.04-7.08,15.06.26-.15.63-.35,1.08-.55h0c1.33-.6,3.43-1.25,5.93-.96.29.04.58.08.86.14.66-1.8,3.7-2.96,7.23-2.66,1.33.11,2.56.42,3.6.86-.5.1-.99.23-1.46.39.49-.15,1-.28,1.5-.38h0c.46-.09.91-.15,1.37-.18h0c.07-.3.15-.6.24-.9.4-1.32.97-2.55,1.68-3.66-.98-.11-2.07-.3-3.24-.59-1.38-.34-2.85-.83-4.38-1.53-1.24-.57-2.36-1.19-3.34-1.83-1.72-1.12-3.04-2.27-3.99-3.2h0Z" fill="#ef9475"/>
              <path d="M118.01,9.73s-.11-.1-.2-.19c0,0-.53-.51-1.12-.99-7.07-5.86-12.4-7.33-12.4-7.33-2.45-.38-4.46-.65-5.84-.82,0,0-9.68-1.22-26.35.59-.35.04-1.14.13-1.76.72-.71.68-.85,1.68-.86,2.41-.56,6.56-1.12,13.11-1.67,19.67-.08.93.61,1.75,1.54,1.82,8.11.69,16.22,1.38,24.33,2.07,1.29.05,2.49-.03,3.61-.19,7.03-2.86,14.93-7.71,19.82-16.09.32-.56.63-1.11.91-1.67h0Z" fill="#ead9cf"/>
            </g>
            <path d="M141.05,8.06c-5.1-.43-9.8,2.17-12.48,6.38-.71,1.12-1.28,2.35-1.68,3.66-.09.3-.17.6-.24.9h0c-.46.04-.91.1-1.37.19h0c-.13-.04-.39-.1-.71-.05-.43.08-.7.33-.79.42,0,0,0,0-.01,0-.95.38-3.03,1.25-4.89,3.19-1.38,1.44-1.93,2.74-2.02,3.18,0,0-.17.8-.17.8h0c-.17.71-.36,1.95-.04,3.59,1.03,2.21,3.24,4.06,5.51,4.87.6.21,2.5.93,4.6.55.5-.09,1.02-.25,1.53-.49.58-.28,1.02-.6,1.31-.84.25.08.51.17.8.25,1.29.41,2.98.89,4.96,1.34.2.05.41.09.62.14,1.09.23,2.24.47,2.64.5,1.65.14,3.25-.04,4.76-.48,5.34-1.57,9.46-6.51,9.99-12.66.17-1.98-.05-3.89-.59-5.66-1.1-3.6-3.53-6.6-6.72-8.31-1.51-.81-3.2-1.33-5-1.48h0Z" fill="#ef9475"/>
          </g>
          <path d="M121.64,18.31c-3.53-.3-6.57.86-7.23,2.66,1.58.32,2.92.96,4.04,1.74-.66.65-1.21,1.37-1.62,2.12-.53.98-.81,2.03-.78,3.11.03.83.24,1.64.6,2.4-.2-.88-.21-1.64-.15-2.28.45-4.86,7.05-8.4,7.27-8.49,0,0,0,0,.01,0,.48-.17.97-.3,1.46-.39-1.03-.44-2.26-.75-3.6-.86h0Z" fill="#b46048"/>
          <path d="M125.24,19.18c-.5.1-.99.23-1.46.39.49-.15,1-.28,1.5-.38-.01,0-.02-.01-.04-.01Z" fill="#b46048"/>
        </g>
        <path d="M139.27,7.19c-3.71-.35-10.86.41-13.46,5.44-1.58,3.05-.91,6.34-.42,7.96.34-.57,1.02-1.55,2.24-2.33.58-.37,2.16-1.39,4.16-1.05.32.05,2.44.4,2.86,1.66.43,1.28-.98,3.34-3.78,4.58,8.03-.1,14.08,3.04,15.08,7.26.2.86.3,2.17-.39,3.96-.17.3-.92.99-1.21,1.13-.35.17-.68.3-.98.39.14.07.29.13.46.18.68.19,1.28.06,1.62-.05,0,0,.89-.16,1.88-.61,4.97-2.3,7.88-9.73,6.36-16.33-.12-.52-.27-1.03-.44-1.52-1.27-3.7-3.9-6.66-7.44-8.68,0,0-3.03-1.65-6.55-1.98h0Z" fill="#5b3d3b"/>
        <circle cx="152.9" cy="10.88" r="6.98" fill="#5b3d3b"/>
      </g>
      <ellipse cx="132.34" cy="33.33" rx=".61" ry="1.73" transform="translate(87.92 162.38) rotate(-85.14)" fill="#422f2b"/>
      <rect x="135.73" y="32.42" width="1.72" height="3.41" transform="translate(271.68 73.77) rotate(-177.67)" fill="#50373b"/>
      <ellipse cx="128.55" cy="34.53" rx="2.89" ry="1.87" transform="translate(83.25 159.69) rotate(-85.14)" fill="#ef9475"/>
    </g>
    <path d="M123.64,31.99c-.25.02-1,.12-1.66.71-.8.72-.91,1.65-.93,1.86.1.55.28.74.44.81.24.1.37-.09.72-.02.41.09.51.4.78.36.2-.03.33-.25.39-.35.46-.8.29-3.01.26-3.37h0Z" fill="#e46761"/>
    <path d="M122.05,35.2c-.07-.76.14-1.51.58-2.15.11-.16.35.02.24.18-.39.56-.58,1.24-.52,1.92.02.19-.28.24-.3.05h0Z" fill="#754048"/>
    <g>
      <path d="M130.15,21c-.23-.38-.45-.76-.68-1.15-.17-.28.03-.67.31-.79.33-.14.63.03.79.31.23.38.45.76.68,1.15.17.28-.03.67-.31.79-.33.14-.63-.03-.79-.31h0Z" fill="#ce7857"/>
      <path d="M128,21.31c1.53-.08,3.76-.38,3.99-2.27.09-.77,1.29-.64,1.19.13-.3,2.48-2.86,3.22-4.99,3.32-.77.04-.96-1.15-.19-1.19h0Z" fill="#ce7857"/>
    </g>
  </g>
  <g>
    <g>
      <path d="M108.93,17.8c1.71.56,2.74,2.55,3.98,4.3,1.14,1.64,2.35,3.16,3.64,4.68.88,1.04,1.84,2.13,2.77,3.22,1.74,2.18,3.74,4.27,3.71,7.19-.11,1.96-1.79,3.3-3.38,3.15-1.37-.13-2.49-1.13-3.53-2.19-1.92-2.02-3.9-4.5-5.7-6.77-2.17-2.78-4.43-5.72-5.94-8.73-2.01-3.51,1.7-5.8,4.43-4.86h.03s0,.01,0,.01Z" fill="#ef9475"/>
      <path d="M97.16,15.89c.26.36.51.73.77,1.1,1.56,2.22,3.11,4.45,4.67,6.67.34.48.68.96,1.01,1.45.48-.31.95-.62,1.43-.92,2.68-1.73,5.36-3.45,8.04-5.18-1.92-2.92-3.83-5.85-5.75-8.77-1.64-2.95-5.24-4.07-8.05-2.5-2.81,1.56-3.76,5.22-2.13,8.16h0Z" fill="#ead9cf" stroke="#c9b9b1" stroke-miterlimit="10" stroke-width=".37"/>
      <path d="M111.5,16.47c-3.15,2.35-6.31,4.69-9.46,7.04-.29.22-.62-.24-.33-.45,3.15-2.35,6.31-4.69,9.46-7.04.29-.22.62.24.33.45h0Z" fill="#c9b9b1"/>
    </g>
    <path d="M121.94,34.07c1.59,1.2,2.95,3,4.25,4.39,2.5,2.77,5.02,5.86,7.73,8.53,1.03,1.01,2.24,2.12,3.32,3.08,1.25,1.11,2.56,2.23,3.8,3.35,1.3,1.21,2.5,2.32,3.19,3.81.52,1.12.44,2.65-.8,3.07-1.2.44-2.8-.3-3.96-1.04-2.98-1.96-5.59-4.33-8.34-6.63-3.24-2.75-6.61-5.78-9.5-8.76-1.98-2.1-5.22-4.9-5.92-7.55-.3-1.2.15-2.38,1.25-3.07,1.46-.86,3.43-.32,4.94.79l.04.03h0Z" fill="#ef9475"/>
    <path d="M142.16,56.33c-.55.33-.93.96-1.24,1.62-.42.89-.37,2.03.17,2.84.49.77,1.33,1.13,2.16,1.26,3.52.35,7.09.21,10.62.03.8-.03,2.12-.41,1.52-1.54-.46-.79-1.34-1.22-2.11-1.57-.51-.22-1.04-.4-1.58-.57-1.39-.43-2.78-.84-4.21-.98-.46-.05-.94-.09-1.39-.23-.56-.19-1-.57-1.5-.82-.72-.35-1.74-.45-2.44-.05h-.02Z" fill="#ef9475"/>
  </g>
</svg>