<?xml version="1.0" encoding="UTF-8"?>
<svg id="_Слой_1" data-name="Слой 1" xmlns="http://www.w3.org/2000/svg" viewBox="0 0 209.71 102.54">
  <g>
    <path d="M162.54,44.34c1.77.67,2.75,2.8,3.98,4.7,1.12,1.78,2.32,3.43,3.61,5.09.88,1.14,1.84,2.32,2.75,3.51,1.73,2.38,3.73,4.66,3.56,7.73-.21,2.06-2.03,3.39-3.71,3.15-1.44-.2-2.56-1.31-3.61-2.47-1.92-2.21-3.89-4.91-5.66-7.38-2.15-3.03-4.38-6.22-5.83-9.45-1.95-3.78,2.06-6.01,4.88-4.89h.04s0,.02,0,.02Z" fill="#f09077"/>
    <path d="M175.43,62.05c1.62,1.34,2.96,3.29,4.25,4.81,2.49,3.03,5,6.4,7.72,9.32,1.03,1.1,2.25,2.33,3.34,3.39,1.26,1.23,2.59,2.46,3.83,3.7,1.3,1.34,2.51,2.55,3.17,4.16.49,1.2.34,2.8-.98,3.19-1.28.4-2.93-.44-4.11-1.28-3.03-2.2-5.67-4.81-8.45-7.36-3.28-3.05-6.67-6.39-9.56-9.65-1.98-2.3-5.26-5.4-5.86-8.21-.25-1.28.27-2.49,1.45-3.17,1.57-.83,3.61-.17,5.16,1.06l.04.03h0Z" fill="#f09077"/>
    <path d="M195.45,87.14c-.56.37-.93,1.04-1.24,1.76-.41.96-.3,2.15.29,2.97.55.79,1.45,1.13,2.32,1.23,3.71.22,7.46-.07,11.17-.4.84-.07,2.21-.51,1.54-1.68-.52-.81-1.46-1.23-2.28-1.56-.55-.21-1.11-.38-1.68-.53-1.47-.4-2.96-.77-4.47-.86-.49-.04-.99-.05-1.47-.18-.6-.17-1.08-.56-1.61-.8-.77-.34-1.84-.4-2.56.04h-.02Z" fill="#f09077"/>
  </g>
  <g>
    <path d="M131.07,63.41c5.19,3.65,10.39,7.3,15.58,10.95-.07.47-.16.98-.3,1.53-.13.52-.28,1-.44,1.42,0,0-.83,2.57-1.76,4.63-3.44,7.65-12.08,13.15-12.4,13.49,0,0-.04.04-.1.07-.1.04-.22.02-.3-.07-6.14-6.57-12.29-13.13-18.43-19.7-.16-.17.04-.38.05-.42.99-6.78,10.78-10.2,18.1-11.9Z" fill="#98afc1"/>
    <path d="M77.52,78.09c.95,7.9,1.9,15.8,2.85,23.7,14.77-1.07,29.54-2.14,44.31-3.22-2.97-8.77-5.94-17.54-8.91-26.3-12.75,1.94-25.49,3.88-38.24,5.82Z" fill="#98afc1"/>
    <ellipse cx="122.94" cy="82.8" rx="14.42" ry="15.87" transform="translate(-4.17 6.56) rotate(-3)" fill="#98afc1"/>
    <g>
      <g>
        <g>
          <ellipse cx="20.97" cy="92.51" rx="3.78" ry="4.71" transform="translate(-5.23 1.34) rotate(-3.26)" fill="#e6926d"/>
          <path d="M20.69,87.85l.53,9.4c4.64.06,9.27.12,13.91.18-.24-3.71-.49-7.43-.73-11.14-4.57.52-9.14,1.04-13.71,1.56Z" fill="#e6926d"/>
        </g>
        <g>
          <g>
            <ellipse cx="79" cy="89.99" rx="11.06" ry="11.94" transform="translate(-4.99 4.64) rotate(-3.26)" fill="#98afc1"/>
            <path d="M28.09,83.7c.31,5.6.63,11.2.94,16.79,16.88.49,33.76.98,50.65,1.46l-1.36-23.84c-16.74,1.86-33.49,3.72-50.23,5.58h0Z" fill="#99b0c2"/>
          </g>
          <rect x="28.32" y="82.82" width="8.14" height="18.34" transform="translate(69.95 181.99) rotate(176.74)" fill="#b8c2cb"/>
        </g>
      </g>
      <g>
        <path d="M18.55,87.89c-2.85-.96-5.71,1.65-6.84,2.69-2.03,1.86-4.27,5.19-3.3,6.58.63.89,2.4.7,5.68.34,1.02-.11,2.42-.28,4.05-.86.74-.27.97-.42,2.01-.76,1.56-.52,1.9-.45,2.2-.82.78-.94-.16-2.89-.45-3.54-.37-.82-1.32-2.95-3.35-3.63Z" fill="#e6926d"/>
        <path d="M11.7,97.99c-.15,1.42-3.92,2.13-5.51,2.43-2.06.39-3.13.57-4.23-.06-1.27-.74-2.27-2.39-1.88-3.64.11-.36.31-.6.77-1.05,1.98-1.94,3.79-2.99,6.07-4.76.31-.24,1.07-.37,1.36-.31.6.12,1.22.02,1.64-.2.75-.39,1.21-1.35,1.16-2.43,0-.1.14-.44.22-.5,1.88-1.47,3.75-2.95,5.63-4.42,0,0,1-1.21,2.33,1.69.87,1.89,1.58,2.69,1.32,3.58-.2.67-.7,1.03-1.64,1.71-1.29.93-2.62,1.36-3.57,1.57-1.89.42-2.11-.07-3.25.41-1.24.52-2.66,1.8-2.58,3.07.1,1.52,2.26,1.88,2.15,2.92h0Z" fill="#815f5e"/>
      </g>
    </g>
  </g>
  <g>
    <g>
      <g>
        <g>
          <g>
            <g>
              <path d="M160.31,35.95c2.34,5.34,4.68,10.69,7.02,16.03.06-.31.16-.74.31-1.24h0c.45-1.47,1.38-3.58,3.34-5.36.23-.21.47-.41.71-.59-.96-1.77.22-4.98,2.9-7.57,1.01-.98,2.11-1.74,3.17-2.25-.27.46-.5.94-.7,1.43.22-.5.47-.98.74-1.45h0c.25-.42.51-.83.8-1.21h0c-.19-.27-.37-.54-.55-.82-.77-1.23-1.35-2.53-1.74-3.87-.77.7-1.67,1.43-2.71,2.16-1.22.85-2.63,1.68-4.24,2.41-1.31.59-2.58,1.04-3.76,1.37-2.08.59-3.91.83-5.3.94h0Z" fill="#ef9475"/>
              <path d="M165.28,34.17c-.06,0-.16.02-.29.03,0,0-.77.07-1.56.2-9.54,1.54-14.39,4.75-14.39,4.75-1.99,1.67-3.6,3.09-4.7,4.06,0,0-7.67,6.82-17.77,21.27-.21.3-.68.99-.64,1.89.04,1.03.74,1.84,1.31,2.35,4.81,4.98,9.61,9.96,14.41,14.94.68.7,1.81.73,2.51.04,6.16-5.95,12.32-11.89,18.48-17.84.93-.99,1.7-1.99,2.35-2.99,2.6-7.54,4.23-17.16.98-26.83-.22-.64-.45-1.27-.69-1.88h0Z" fill="#ead9cf"/>
            </g>
            <path d="M179.9,14.77c-3.87,3.74-5.06,9.26-3.59,14.3.39,1.33.97,2.64,1.74,3.87.17.28.35.55.55.82h0c-.29.39-.55.79-.8,1.21h0c-.13.08-.36.24-.53.53-.23.39-.22.78-.21.92,0,0,0,0,0,.01-.35,1.02-1.11,3.26-.86,6.09.19,2.09.84,3.42,1.12,3.8,0,0,.52.69.52.69h0c.45.63,1.3,1.64,2.82,2.52,2.47.72,5.46.24,7.67-.99.58-.33,2.47-1.34,3.62-3.26.27-.46.51-.98.67-1.55.18-.65.23-1.22.24-1.62.24-.14.49-.29.75-.45,1.22-.74,2.76-1.74,4.49-3,.18-.13.36-.26.54-.4.94-.7,1.92-1.45,2.23-1.74,1.25-1.21,2.22-2.6,2.91-4.11,2.45-5.31,1.4-12-3.11-16.68-1.45-1.5-3.12-2.65-4.89-3.45-3.61-1.62-7.67-1.78-11.23-.43-1.69.64-3.27,1.62-4.64,2.94h0Z" fill="#ef9475"/>
          </g>
          <path d="M174.59,37.23c-2.68,2.59-3.86,5.8-2.9,7.57,1.34-1.03,2.78-1.64,4.17-1.99.06.98.24,1.91.56,2.75.41,1.1,1.05,2.05,1.92,2.77.67.55,1.46.94,2.32,1.19-.83-.45-1.45-.97-1.91-1.46-3.53-3.72-1.77-11.39-1.69-11.64,0,0,0,0,0-.01.2-.49.43-.97.7-1.43-1.07.51-2.16,1.27-3.17,2.25h0Z" fill="#b46048"/>
          <path d="M177.76,34.98c-.27.46-.5.94-.7,1.43.22-.5.47-.98.74-1.45-.01,0-.03.01-.04.02Z" fill="#b46048"/>
        </g>
        <path d="M177.98,15.57c-2.85,2.7-7.19,8.88-5.01,14.42,1.32,3.37,4.39,5.1,6.01,5.85-.22-.66-.52-1.88-.29-3.38.11-.72.39-2.67,2.05-4.02.26-.21,2.01-1.66,3.29-1.12,1.31.55,1.97,3.09,1.01,6.16,5.48-6.43,12.15-9.04,16.18-6.92.82.43,1.93,1.27,2.87,3.04.13.34.15,1.42.06,1.74-.11.4-.24.75-.37,1.04.15-.06.3-.14.46-.25.62-.41.93-.98,1.09-1.32,0,0,.49-.82.81-1.91,1.62-5.53-2.25-12.97-8.53-16.34-.5-.27-1-.5-1.51-.71-3.81-1.55-7.97-1.52-12.02-.12,0,0-3.4,1.25-6.1,3.82h0Z" fill="#5b3d3b"/>
        <circle cx="190.34" cy="7.34" r="7.34" fill="#5b3d3b"/>
      </g>
      <ellipse cx="193.89" cy="39.16" rx="1.82" ry=".64" transform="translate(27.18 145.62) rotate(-43.98)" fill="#422f2b"/>
      <rect x="196.55" y="34.55" width="1.81" height="3.59" transform="translate(359.71 -81.9) rotate(133.49)" fill="#50373b"/>
      <ellipse cx="192.21" cy="42.99" rx="1.96" ry="3.04" transform="translate(24.05 145.53) rotate(-43.98)" fill="#ef9475"/>
    </g>
    <path d="M186.8,45.12c-.16.21-.6.87-.58,1.81.02,1.13.67,1.86.83,2.03.5.31.78.29.95.21.24-.12.18-.36.48-.58.35-.26.67-.13.82-.36.12-.18.03-.43,0-.55-.31-.91-2.18-2.31-2.49-2.54h0Z" fill="#e46761"/>
    <path d="M188.24,48.6c-.65-.47-1.1-1.16-1.3-1.94-.05-.2.26-.26.31-.07.18.7.58,1.32,1.16,1.74.16.12,0,.39-.17.27h0Z" fill="#754048"/>
    <g>
      <path d="M182.6,32.36c-.46-.08-.92-.17-1.38-.26-.34-.06-.51-.49-.42-.79.11-.36.46-.48.79-.41.46.08.92.17,1.38.26.34.06.51.49.42.79-.11.36-.46.48-.79.41h0Z" fill="#ce7857"/>
      <path d="M181.37,34.28c1-1.26,2.3-3.24.96-4.73-.54-.61.39-1.46.93-.85,1.75,1.96.57,4.49-.82,6.26-.5.63-1.57-.03-1.07-.67h0Z" fill="#ce7857"/>
    </g>
  </g>
  <g>
    <g>
      <path d="M158.41,52.57c1.73.77,2.59,2.95,3.71,4.92,1.02,1.84,2.13,3.56,3.31,5.28.81,1.19,1.7,2.42,2.55,3.66,1.59,2.47,3.46,4.86,3.12,7.92-.32,2.04-2.22,3.27-3.88,2.94-1.42-.28-2.49-1.45-3.47-2.67-1.8-2.31-3.61-5.12-5.24-7.69-1.97-3.14-4.03-6.46-5.29-9.77-1.73-3.88,2.4-5.89,5.15-4.61h.03s0,.02,0,.02Z" fill="#f09077"/>
      <path d="M146.29,49.32c.23.41.46.82.69,1.23,1.39,2.49,2.79,4.98,4.18,7.47.3.54.6,1.08.91,1.62.53-.27,1.06-.54,1.6-.81,2.99-1.52,5.98-3.04,8.96-4.57-1.69-3.26-3.39-6.52-5.08-9.79-1.4-3.26-5.05-4.81-8.16-3.48-3.11,1.34-4.49,5.06-3.09,8.32h0Z" fill="#ead9cf" stroke="#c9b9b1" stroke-miterlimit="10" stroke-width=".39"/>
      <path d="M161.23,51.45c-3.55,2.12-7.1,4.24-10.65,6.36-.33.2-.62-.32-.3-.51,3.55-2.12,7.1-4.24,10.65-6.36.33-.2.62.32.3.51h0Z" fill="#c9b9b1"/>
    </g>
    <path d="M170.29,71.09c1.6,1.35,2.93,3.32,4.2,4.86,2.46,3.06,4.94,6.45,7.63,9.4,1.02,1.12,2.23,2.36,3.31,3.43,1.25,1.24,2.56,2.49,3.79,3.74,1.29,1.35,2.49,2.58,3.13,4.19.48,1.2.31,2.81-1.01,3.18-1.28.39-2.93-.47-4.1-1.32-3.01-2.23-5.62-4.87-8.38-7.45-3.25-3.08-6.6-6.46-9.46-9.75-1.95-2.32-5.2-5.45-5.78-8.27-.24-1.28.29-2.49,1.49-3.16,1.58-.82,3.62-.14,5.15,1.11l.04.03h0Z" fill="#f09077"/>
    <path d="M190.06,96.33c-.57.35-.97,1.01-1.3,1.71-.44.94-.37,2.14.19,2.98.52.81,1.41,1.18,2.28,1.31,3.71.35,7.46.18,11.17-.03.84-.04,2.22-.44,1.59-1.63-.49-.82-1.41-1.27-2.23-1.64-.54-.23-1.1-.41-1.66-.59-1.46-.45-2.93-.86-4.43-1.01-.49-.05-.99-.08-1.46-.23-.59-.19-1.06-.6-1.58-.85-.76-.36-1.83-.46-2.56-.04h-.02Z" fill="#f09077"/>
  </g>
</svg>