<?xml version="1.0" encoding="UTF-8"?>
<svg id="_Слой_1" data-name="Слой 1" xmlns="http://www.w3.org/2000/svg" viewBox="0 0 170.87 124.17">
  <g>
    <path d="M142.56,59.51c1.4,1.28,1.52,3.62,1.95,5.84.39,2.07.89,4.05,1.47,6.06.4,1.38.85,2.84,1.26,4.28.73,2.85,1.74,5.71.44,8.5-.96,1.83-3.14,2.39-4.61,1.56-1.26-.72-1.9-2.16-2.44-3.63-.97-2.76-1.79-6-2.53-8.96-.88-3.61-1.77-7.4-1.92-10.94-.41-4.23,4.14-4.82,6.34-2.74l.03.02h0Z" fill="#f09077"/>
    <path d="M147.98,80.73c1.01,1.84,1.53,4.15,2.17,6.04,1.19,3.74,2.28,7.79,3.72,11.52.55,1.41,1.23,3,1.85,4.39.72,1.61,1.49,3.24,2.19,4.86.72,1.72,1.39,3.3,1.4,5.03.02,1.29-.72,2.73-2.09,2.6-1.34-.1-2.56-1.5-3.35-2.71-2-3.17-3.49-6.57-5.13-9.97-1.92-4.04-3.83-8.4-5.31-12.5-.98-2.87-2.89-6.96-2.41-9.79.24-1.28,1.17-2.22,2.52-2.41,1.77-.19,3.42,1.18,4.4,2.89l.03.04h0Z" fill="#f09077"/>
    <path d="M156.61,111.34c-.56.37-.93,1.04-1.24,1.76-.41.96-.3,2.15.29,2.97.54.79,1.45,1.13,2.32,1.24,3.71.22,7.46-.06,11.17-.4.84-.06,2.21-.51,1.54-1.68-.52-.81-1.46-1.23-2.28-1.56-.55-.21-1.11-.38-1.68-.53-1.47-.4-2.96-.77-4.47-.86-.49-.04-.99-.05-1.47-.19-.6-.17-1.08-.56-1.61-.8-.77-.34-1.84-.4-2.56.04h-.02Z" fill="#f09077"/>
  </g>
  <g>
    <path d="M131.07,85.27c5.19,3.65,10.39,7.3,15.58,10.95-.07.47-.16.98-.3,1.53-.13.52-.28,1-.44,1.42,0,0-.83,2.57-1.76,4.63-3.44,7.65-12.08,13.15-12.4,13.49,0,0-.04.04-.1.07-.1.04-.22.02-.3-.07-6.14-6.57-12.29-13.13-18.43-19.7-.16-.17.04-.38.05-.42.99-6.78,10.78-10.2,18.1-11.9Z" fill="#98afc1"/>
    <path d="M77.52,99.95c.95,7.9,1.9,15.8,2.85,23.7,14.77-1.07,29.54-2.14,44.31-3.22-2.97-8.77-5.94-17.54-8.91-26.3-12.75,1.94-25.49,3.88-38.24,5.82Z" fill="#98afc1"/>
    <ellipse cx="122.94" cy="104.66" rx="14.42" ry="15.87" transform="translate(-5.32 6.59) rotate(-3)" fill="#98afc1"/>
    <g>
      <g>
        <g>
          <ellipse cx="20.97" cy="114.37" rx="3.78" ry="4.71" transform="translate(-6.47 1.38) rotate(-3.26)" fill="#e6926d"/>
          <path d="M20.69,109.71l.53,9.4c4.64.06,9.27.12,13.91.18-.24-3.71-.49-7.43-.73-11.14-4.57.52-9.14,1.04-13.71,1.56Z" fill="#e6926d"/>
        </g>
        <g>
          <g>
            <ellipse cx="79" cy="111.86" rx="11.06" ry="11.94" transform="translate(-6.23 4.67) rotate(-3.26)" fill="#98afc1"/>
            <path d="M28.09,105.56c.31,5.6.63,11.2.94,16.79,16.88.49,33.76.98,50.65,1.46l-1.36-23.84c-16.74,1.86-33.49,3.72-50.23,5.58h0Z" fill="#99b0c2"/>
          </g>
          <rect x="28.32" y="104.68" width="8.14" height="18.34" transform="translate(71.19 225.68) rotate(176.74)" fill="#b8c2cb"/>
        </g>
      </g>
      <g>
        <path d="M18.55,109.75c-2.85-.96-5.71,1.65-6.84,2.69-2.03,1.86-4.27,5.19-3.3,6.58.63.89,2.4.7,5.68.34,1.02-.11,2.42-.28,4.05-.86.74-.27.97-.42,2.01-.76,1.56-.52,1.9-.45,2.2-.82.78-.94-.16-2.89-.45-3.54-.37-.82-1.32-2.95-3.35-3.63Z" fill="#e6926d"/>
        <path d="M11.7,119.85c-.15,1.42-3.92,2.13-5.51,2.43-2.06.39-3.13.57-4.23-.06-1.27-.74-2.27-2.39-1.88-3.64.11-.36.31-.6.77-1.05,1.98-1.94,3.79-2.99,6.07-4.76.31-.24,1.07-.37,1.36-.31.6.12,1.22.02,1.64-.2.75-.39,1.21-1.35,1.16-2.43,0-.1.14-.44.22-.5l5.63-4.42s1-1.21,2.33,1.69c.87,1.89,1.58,2.69,1.32,3.58-.2.67-.7,1.03-1.64,1.71-1.29.93-2.62,1.36-3.57,1.57-1.89.42-2.11-.07-3.25.41-1.24.52-2.66,1.8-2.58,3.07.1,1.52,2.26,1.88,2.15,2.92h0Z" fill="#815f5e"/>
      </g>
    </g>
  </g>
  <g>
    <g>
      <g>
        <g>
          <g>
            <g>
              <path d="M129.19,48.54c5.21,2.62,10.43,5.24,15.64,7.85-.15-.28-.35-.67-.55-1.15h0c-.59-1.42-1.22-3.64-.85-6.26.04-.31.1-.61.17-.9-1.87-.75-3.01-3.97-2.6-7.67.16-1.4.51-2.68,1.01-3.76.09.53.21,1.04.37,1.55-.15-.52-.27-1.05-.36-1.59h0c-.08-.48-.13-.97-.16-1.45h0c-.32-.08-.63-.18-.94-.28-1.37-.46-2.65-1.09-3.81-1.87-.15,1.03-.37,2.17-.71,3.39-.4,1.44-.95,2.97-1.72,4.57-.63,1.29-1.32,2.44-2.02,3.46-1.22,1.78-2.47,3.14-3.48,4.11h0Z" fill="#ef9475"/>
              <path d="M131.88,43.99s-.11.11-.2.21c0,0-.55.55-1.07,1.15-6.36,7.28-8.04,12.84-8.04,12.84-.47,2.56-.8,4.68-1.02,6.12,0,0-1.55,10.15-.09,27.72.03.36.11,1.2.71,1.87.69.76,1.74.94,2.51.97,6.88.76,13.75,1.53,20.63,2.29.97.11,1.85-.59,1.96-1.57.94-8.51,1.89-17.02,2.83-25.53.09-1.35.04-2.62-.1-3.8-2.81-7.46-7.71-15.91-16.38-21.27-.58-.36-1.15-.69-1.73-1h0Z" fill="#ead9cf"/>
            </g>
            <path d="M130.75,19.72c-.59,5.35,2.02,10.36,6.37,13.29,1.15.78,2.43,1.41,3.81,1.87.31.1.62.19.94.28h0c.03.48.08.96.16,1.44h0c-.05.14-.12.41-.07.75.07.45.32.74.43.85,0,0,0,0,0,.01.38,1.01,1.23,3.22,3.22,5.23,1.48,1.49,2.83,2.1,3.29,2.21.01,0,.84.2.84.2h0c.75.2,2.04.43,3.77.14,2.36-1.02,4.36-3.3,5.27-5.66.24-.62,1.05-2.61.7-4.82-.08-.53-.23-1.07-.47-1.62-.28-.62-.6-1.09-.85-1.4.09-.26.19-.54.29-.83.47-1.35,1.02-3.1,1.54-5.18.05-.21.11-.43.16-.65.28-1.14.55-2.34.6-2.76.19-1.73.05-3.42-.38-5.02-1.51-5.65-6.58-10.13-13.05-10.84-2.07-.23-4.09-.05-5.97.47-3.81,1.06-7.03,3.53-8.92,6.84-.89,1.57-1.48,3.33-1.69,5.22h0Z" fill="#ef9475"/>
          </g>
          <path d="M141,40.4c-.41,3.7.73,6.93,2.6,7.67.37-1.65,1.09-3.04,1.93-4.2.67.71,1.41,1.31,2.19,1.76,1.02.58,2.11.91,3.25.9.87,0,1.73-.21,2.54-.56-.93.18-1.73.18-2.4.1-5.09-.61-8.64-7.64-8.73-7.88,0,0,0,0,0-.01-.16-.51-.29-1.02-.37-1.55-.5,1.07-.85,2.36-1.01,3.76h0Z" fill="#b46048"/>
          <path d="M142.01,36.64c.09.53.21,1.04.37,1.55-.15-.52-.27-1.05-.36-1.59,0,.01-.01.03-.02.04Z" fill="#b46048"/>
        </g>
        <path d="M129.78,21.57c-.47,3.89.13,11.42,5.35,14.3,3.17,1.75,6.64,1.12,8.36.66-.59-.37-1.6-1.12-2.38-2.41-.38-.62-1.41-2.31-.99-4.41.07-.33.49-2.56,1.82-2.97,1.36-.41,3.49,1.12,4.71,4.1.11-8.44,3.58-14.72,8.04-15.66.9-.19,2.29-.25,4.15.51.32.18,1.02,1,1.16,1.3.17.37.29.73.38,1.04.07-.14.14-.3.2-.48.21-.71.1-1.35,0-1.71,0,0-.14-.94-.59-1.99-2.28-5.29-10.02-8.54-16.99-7.13-.55.11-1.09.25-1.61.42-3.92,1.24-7.11,3.92-9.32,7.58,0,0-1.82,3.14-2.26,6.83h0Z" fill="#5b3d3b"/>
        <circle cx="134.03" cy="7.34" r="7.34" fill="#5b3d3b"/>
      </g>
      <ellipse cx="157.08" cy="29.56" rx="1.82" ry=".64" transform="translate(110.38 182.42) rotate(-83.67)" fill="#422f2b"/>
      <rect x="157.13" y="23.32" width="1.81" height="3.59" transform="translate(193.58 -130.9) rotate(93.8)" fill="#50373b"/>
      <ellipse cx="158.24" cy="33.58" rx="1.96" ry="3.04" transform="translate(107.41 187.15) rotate(-83.67)" fill="#ef9475"/>
    </g>
    <path d="M155.44,38.68c.02.26.1,1.05.71,1.77.73.86,1.71,1,1.93,1.03.58-.09.79-.28.86-.44.11-.25-.09-.39,0-.76.1-.42.43-.53.4-.81-.03-.21-.25-.35-.36-.42-.82-.5-3.16-.39-3.54-.37h0Z" fill="#e46761"/>
    <path d="M158.77,40.43c-.81.05-1.59-.19-2.24-.67-.16-.12.03-.37.2-.25.58.42,1.29.65,2,.6.2-.01.25.3.04.31h0Z" fill="#754048"/>
    <g>
      <path d="M144.06,31.53c-.41.23-.82.46-1.22.68-.3.17-.71-.05-.82-.34-.14-.35.04-.66.34-.82.41-.23.82-.46,1.22-.68.3-.17.71.05.82.34.14.35-.04.66-.34.82h0Z" fill="#ce7857"/>
      <path d="M144.33,33.8c-.04-1.61-.3-3.96-2.28-4.25-.8-.12-.63-1.37.17-1.25,2.6.39,3.31,3.1,3.36,5.34.02.81-1.23.98-1.25.17h0Z" fill="#ce7857"/>
    </g>
  </g>
  <g>
    <g>
      <path d="M134.23,66.29c1.4,1.28,1.52,3.62,1.95,5.84.39,2.07.89,4.05,1.47,6.06.4,1.38.85,2.84,1.26,4.28.73,2.85,1.74,5.71.44,8.5-.96,1.83-3.14,2.39-4.61,1.56-1.26-.72-1.9-2.16-2.44-3.63-.97-2.76-1.79-6-2.53-8.96-.88-3.61-1.77-7.4-1.92-10.94-.41-4.23,4.14-4.82,6.34-2.74l.03.02h0Z" fill="#f09077"/>
      <path d="M123.76,59.37c.09.46.17.92.26,1.38.53,2.8,1.06,5.61,1.59,8.41.11.61.23,1.22.35,1.82.59-.09,1.18-.18,1.77-.26,3.32-.49,6.63-.99,9.95-1.49-.57-3.63-1.14-7.26-1.71-10.89-.29-3.53-3.27-6.17-6.64-5.89-3.37.28-5.87,3.37-5.57,6.9h0Z" fill="#ead9cf" stroke="#c9b9b1" stroke-miterlimit="10" stroke-width=".39"/>
      <path d="M137.26,66.13c-4.04.88-8.08,1.77-12.12,2.65-.37.08-.49-.5-.12-.58,4.04-.88,8.08-1.77,12.12-2.65.37-.08.49.5.12.58h0Z" fill="#c9b9b1"/>
    </g>
    <path d="M139.65,87.52c1.01,1.84,1.53,4.15,2.17,6.04,1.19,3.74,2.28,7.79,3.72,11.52.55,1.41,1.23,3,1.85,4.39.72,1.61,1.49,3.24,2.19,4.86.72,1.72,1.39,3.3,1.4,5.03.02,1.29-.72,2.73-2.09,2.6-1.34-.1-2.56-1.5-3.35-2.71-2-3.17-3.49-6.57-5.13-9.97-1.92-4.04-3.83-8.4-5.31-12.5-.98-2.87-2.89-6.96-2.41-9.79.24-1.28,1.17-2.22,2.52-2.41,1.77-.19,3.42,1.18,4.4,2.89l.03.04h0Z" fill="#f09077"/>
    <path d="M148.28,118.12c-.56.37-.93,1.04-1.24,1.76-.41.96-.3,2.15.29,2.97.54.79,1.45,1.13,2.32,1.24,3.71.22,7.46-.06,11.17-.4.84-.06,2.21-.51,1.54-1.68-.52-.81-1.46-1.23-2.28-1.56-.55-.21-1.11-.38-1.68-.53-1.47-.4-2.96-.77-4.47-.86-.49-.04-.99-.05-1.47-.19-.6-.17-1.08-.56-1.61-.8-.77-.34-1.84-.4-2.56.04h-.02Z" fill="#f09077"/>
  </g>
</svg>