<?xml version="1.0" encoding="UTF-8"?>
<svg id="_Слой_1" data-name="Слой 1" xmlns="http://www.w3.org/2000/svg" viewBox="0 0 248.05 40.78">
  <g>
    <path d="M169,24.11c1.76-.7,3.92.22,6.11.8,2.03.56,4.03.97,6.09,1.34,1.42.25,2.92.48,4.4.74,2.88.59,5.89.93,7.84,3.32,1.23,1.66.78,3.87-.62,4.83-1.2.82-2.77.76-4.33.6-2.91-.34-6.18-1.02-9.16-1.65-3.63-.79-7.43-1.65-10.68-3.07-3.98-1.48-2.52-5.83.31-6.9h.03s0-.01,0-.01Z" fill="#f09077"/>
    <path d="M190.45,28.52c2.1-.1,4.4.44,6.38.7,3.88.56,8.01,1.36,11.99,1.7,1.51.12,3.24.21,4.76.26,1.76.06,3.57.08,5.33.16,1.86.11,3.58.19,5.14.94,1.17.55,2.14,1.84,1.42,3.02-.68,1.16-2.46,1.65-3.9,1.82-3.72.41-7.44.26-11.2.25-4.47-.05-9.23-.23-13.57-.7-3.01-.37-7.52-.45-9.86-2.12-1.05-.77-1.48-2.02-1.06-3.32.6-1.67,2.56-2.56,4.53-2.69h.05s0,0,0,0Z" fill="#f09077"/>
    <path d="M223.55,31.31c-.56.37-.94,1.04-1.24,1.75-.41.96-.31,2.15.28,2.98.54.79,1.45,1.14,2.32,1.24,3.71.23,7.46-.05,11.17-.37.84-.06,2.21-.51,1.54-1.68-.52-.81-1.45-1.23-2.28-1.57-.55-.21-1.11-.38-1.68-.54-1.47-.4-2.95-.77-4.46-.87-.49-.04-.99-.05-1.47-.19-.6-.17-1.08-.56-1.61-.8-.77-.34-1.84-.41-2.56.04h-.02Z" fill="#ea8b78"/>
  </g>
  <path d="M141.44,8.12c2.25,5.94,4.5,11.87,6.75,17.81-.32.35-.68.72-1.11,1.1-.4.36-.79.67-1.16.93,0,0-2.13,1.66-4.05,2.85-7.14,4.4-17.38,4.1-17.84,4.2-.01,0-.06.01-.12,0-.11-.02-.19-.11-.21-.23-1.4-8.88-2.8-17.77-4.19-26.65-.04-.23.25-.29.27-.32,4.63-5.05,14.64-2.39,21.66.31Z" fill="#98afc1"/>
  <path d="M77.52,13.7c.95,7.9,1.9,15.8,2.85,23.7,14.77-1.07,29.54-2.14,44.31-3.22-2.97-8.77-5.94-17.54-8.91-26.3-12.75,1.94-25.49,3.88-38.24,5.82Z" fill="#98afc1"/>
  <ellipse cx="123.82" cy="19.6" rx="15.87" ry="14.42" transform="translate(43 115.44) rotate(-58.85)" fill="#98afc1"/>
  <g>
    <g>
      <g>
        <ellipse cx="20.97" cy="28.12" rx="3.78" ry="4.71" transform="translate(-1.56 1.24) rotate(-3.26)" fill="#e6926d"/>
        <path d="M20.69,23.46l.53,9.4c4.64.06,9.27.12,13.91.18-.24-3.71-.49-7.43-.73-11.14-4.57.52-9.14,1.04-13.71,1.56Z" fill="#e6926d"/>
      </g>
      <g>
        <g>
          <ellipse cx="79" cy="25.61" rx="11.06" ry="11.94" transform="translate(-1.33 4.53) rotate(-3.26)" fill="#98afc1"/>
          <path d="M28.09,19.31c.31,5.6.63,11.2.94,16.79,16.88.49,33.76.98,50.65,1.46l-1.36-23.84c-16.74,1.86-33.49,3.72-50.23,5.58h0Z" fill="#99b0c2"/>
        </g>
        <rect x="28.32" y="18.43" width="8.14" height="18.34" transform="translate(66.29 53.31) rotate(176.74)" fill="#b8c2cb"/>
      </g>
    </g>
    <g>
      <path d="M18.55,23.5c-2.85-.96-5.71,1.65-6.84,2.69-2.03,1.86-4.27,5.19-3.3,6.58.63.89,2.4.7,5.68.34,1.02-.11,2.42-.28,4.05-.86.74-.27.97-.42,2.01-.76,1.56-.52,1.9-.45,2.2-.82.78-.94-.16-2.89-.45-3.54-.37-.82-1.32-2.95-3.35-3.63Z" fill="#e6926d"/>
      <path d="M11.7,33.6c-.15,1.42-3.92,2.13-5.51,2.43-2.06.39-3.13.57-4.23-.06-1.27-.74-2.27-2.39-1.88-3.64.11-.36.31-.6.77-1.05,1.98-1.94,3.79-2.99,6.07-4.76.31-.24,1.07-.37,1.36-.31.6.12,1.22.02,1.64-.2.75-.39,1.21-1.35,1.16-2.43,0-.1.14-.44.22-.5,1.88-1.47,3.75-2.95,5.63-4.42,0,0,1-1.21,2.33,1.69.87,1.89,1.58,2.69,1.32,3.58-.2.67-.7,1.03-1.64,1.71-1.29.93-2.62,1.36-3.57,1.57-1.89.42-2.11-.07-3.25.41-1.24.52-2.66,1.8-2.58,3.07.1,1.52,2.26,1.88,2.15,2.92h0Z" fill="#815f5e"/>
    </g>
  </g>
  <g>
    <g>
      <g>
        <g>
          <g>
            <g>
              <path d="M183.66,8.2c-1.88,5.52-3.76,11.05-5.64,16.57.26-.19.62-.44,1.06-.7h0c1.32-.78,3.43-1.71,6.08-1.7.31,0,.62.01.92.04.48-1.96,3.52-3.53,7.25-3.63,1.41-.04,2.73.14,3.86.48-.51.16-1.01.35-1.48.58.5-.22,1.01-.41,1.53-.57h0c.47-.15.94-.26,1.41-.35h0c.04-.33.09-.65.15-.97.26-1.42.71-2.78,1.33-4.03-1.04,0-2.2-.07-3.45-.23-1.48-.2-3.08-.54-4.76-1.08-1.37-.45-2.6-.97-3.7-1.53-1.93-.97-3.45-2.02-4.55-2.88h0Z" fill="#ef9475"/>
              <path d="M188.54,10.23s-.13-.09-.23-.17c0,0-.62-.47-1.29-.91-8.08-5.3-13.83-6.2-13.83-6.2-2.6-.11-4.74-.15-6.2-.17,0,0-10.26-.14-27.47,3.71-.36.08-1.17.27-1.75.96-.66.79-.69,1.86-.62,2.62.19,6.92.37,13.83.56,20.75.03.98.84,1.75,1.82,1.73,8.56-.23,17.12-.46,25.68-.69,1.35-.1,2.6-.32,3.75-.62,7.01-3.81,14.7-9.81,18.82-19.14.27-.62.52-1.24.75-1.85h0Z" fill="#ead9cf"/>
            </g>
            <path d="M212.42,5.79c-5.38.15-9.99,3.42-12.3,8.13-.61,1.25-1.06,2.6-1.33,4.03-.06.32-.11.64-.15.97h0c-.47.09-.94.21-1.41.35h0c-.15-.03-.42-.06-.75.04-.44.13-.69.42-.78.54,0,0,0,0-.01,0-.95.51-3.02,1.66-4.74,3.91-1.27,1.67-1.69,3.09-1.74,3.56,0,.01-.08.86-.08.86h0c-.09.77-.15,2.08.38,3.76,1.34,2.19,3.87,3.86,6.33,4.44.65.15,2.73.68,4.87.03.51-.16,1.03-.38,1.54-.69.58-.36,1-.75,1.27-1.03.27.06.56.11.86.17,1.4.28,3.21.58,5.34.81.22.03.44.05.66.07,1.17.12,2.39.23,2.82.22,1.74-.05,3.4-.42,4.92-1.06,5.39-2.27,9.13-7.91,8.95-14.41-.06-2.09-.51-4.06-1.28-5.85-1.57-3.63-4.46-6.48-8-7.89-1.68-.67-3.5-1.01-5.4-.96h0Z" fill="#ef9475"/>
          </g>
          <path d="M193.34,18.78c-3.72.1-6.76,1.67-7.25,3.63,1.68.15,3.16.66,4.42,1.34-.61.76-1.11,1.57-1.44,2.41-.44,1.09-.61,2.22-.45,3.34.12.86.44,1.68.91,2.44-.31-.89-.42-1.69-.43-2.36-.09-5.13,6.38-9.6,6.61-9.73,0,0,0,0,.01,0,.48-.23.97-.43,1.48-.58-1.13-.34-2.45-.52-3.86-.48h0Z" fill="#b46048"/>
          <path d="M197.2,19.26c-.51.16-1.01.35-1.48.58.5-.22,1.01-.41,1.53-.57-.01,0-.03,0-.04-.01Z" fill="#b46048"/>
        </g>
        <path d="M210.46,5.08c-3.92.07-11.3,1.7-13.43,7.26-1.29,3.38-.2,6.73.49,8.37.29-.63.89-1.74,2.06-2.69.56-.46,2.09-1.71,4.23-1.58.34.02,2.6.13,3.19,1.4.6,1.29-.63,3.61-3.41,5.23,8.38-1.05,15.07,1.53,16.61,5.81.31.87.57,2.24.06,4.18-.14.34-.85,1.14-1.13,1.32-.35.22-.68.39-.97.52.15.05.32.1.51.13.74.11,1.35-.09,1.69-.24,0,0,.91-.27,1.89-.86,4.93-2.98,7.09-11.1,4.73-17.81-.19-.53-.4-1.04-.64-1.54-1.76-3.72-4.86-6.5-8.79-8.2,0,0-3.36-1.37-7.08-1.3h0Z" fill="#5b3d3b"/>
        <circle cx="225.13" cy="7.34" r="7.34" fill="#5b3d3b"/>
      </g>
      <ellipse cx="206.29" cy="33.22" rx="1.82" ry=".64" transform="translate(-.82 5.59) rotate(-1.55)" fill="#422f2b"/>
      <rect x="209.91" y="31.75" width="1.81" height="3.59" transform="translate(423.48 52.01) rotate(175.92)" fill="#50373b"/>
      <ellipse cx="202.46" cy="34.92" rx="1.96" ry="3.04" transform="translate(-.87 5.49) rotate(-1.55)" fill="#ef9475"/>
    </g>
    <path d="M197.03,32.84c-.26.05-1.03.24-1.65.94-.75.84-.76,1.83-.75,2.06.16.57.38.74.56.79.26.07.38-.14.75-.11.43.04.58.36.85.29.21-.06.31-.3.36-.41.39-.89-.05-3.18-.12-3.56h0Z" fill="#e46761"/>
    <path d="M195.75,36.38c-.16-.79-.03-1.6.35-2.31.1-.18.37-.02.27.16-.34.63-.46,1.36-.32,2.07.04.2-.26.28-.31.08h0Z" fill="#754048"/>
    <g>
      <path d="M202.54,20.59c-.28-.37-.56-.75-.85-1.12-.21-.27-.04-.71.23-.86.32-.19.66-.05.86.23.28.37.56.75.85,1.12.21.27.04.71-.23.86-.32.19-.66.05-.86-.23h0Z" fill="#ce7857"/>
      <path d="M200.34,21.17c1.59-.26,3.88-.84,3.9-2.84,0-.81,1.27-.82,1.26,0-.03,2.63-2.61,3.7-4.83,4.06-.8.13-1.14-1.09-.34-1.22h0Z" fill="#ce7857"/>
    </g>
  </g>
  <g>
    <g>
      <path d="M179.33,25.07c1.8-.61,3.91.42,6.06,1.11,2,.66,3.97,1.18,6.02,1.64,1.4.32,2.9.63,4.36.96,2.84.74,5.84,1.23,7.66,3.71,1.15,1.72.58,3.91-.86,4.79-1.24.76-2.81.62-4.36.38-2.89-.48-6.12-1.33-9.07-2.11-3.58-.97-7.33-2.02-10.51-3.6-3.9-1.68-2.22-5.95.66-6.88h.04s0-.01,0-.01Z" fill="#f09077"/>
      <path d="M168.22,30.89c.45.14.89.29,1.34.44,2.71.89,5.42,1.78,8.14,2.67.59.19,1.18.39,1.76.58.21-.56.42-1.12.62-1.68,1.17-3.14,2.33-6.29,3.5-9.43-3.46-1.25-6.91-2.5-10.37-3.76-3.23-1.45-6.98-.12-8.36,2.97-1.38,3.09.12,6.77,3.36,8.21h0Z" fill="#ead9cf" stroke="#c9b9b1" stroke-miterlimit="10" stroke-width=".39"/>
      <path d="M180.65,22.33c-1.17,3.96-2.35,7.93-3.53,11.89-.11.37-.67.19-.56-.17,1.17-3.96,2.35-7.93,3.53-11.89.11-.37.67-.19.56.17h0Z" fill="#c9b9b1"/>
    </g>
    <path d="M200.54,30.56c2.1,0,4.38.66,6.34,1.02,3.85.76,7.93,1.77,11.88,2.3,1.5.2,3.22.37,4.74.5,1.75.14,3.56.26,5.31.43,1.86.2,3.56.37,5.09,1.2,1.14.61,2.04,1.95,1.27,3.09-.73,1.12-2.54,1.52-3.99,1.62-3.74.23-7.44-.12-11.2-.32-4.46-.27-9.21-.7-13.52-1.38-2.99-.52-7.49-.83-9.74-2.62-1.01-.83-1.38-2.1-.89-3.37.68-1.64,2.68-2.43,4.66-2.46h.05s0,0,0,0Z" fill="#f09077"/>
    <path d="M233.6,34.81c-.54.4-.88,1.09-1.16,1.81-.36.98-.2,2.16.43,2.96.58.76,1.5,1.06,2.38,1.13,3.72.05,7.45-.41,11.14-.91.84-.1,2.18-.62,1.46-1.75-.56-.78-1.51-1.16-2.35-1.46-.56-.19-1.13-.33-1.7-.46-1.49-.33-2.99-.63-4.5-.65-.49-.02-1,0-1.47-.12-.61-.14-1.1-.51-1.64-.72-.78-.3-1.86-.32-2.56.16h-.02Z" fill="#f09077"/>
  </g>
</svg>