<?xml version="1.0" encoding="UTF-8"?>
<svg id="_Слой_1" data-name="Слой 1" xmlns="http://www.w3.org/2000/svg" viewBox="0 0 137.63 125.33">
  <ellipse cx="118.02" cy="110.31" rx="14.66" ry="15.97" transform="translate(-1.37 219.15) rotate(-85.42)" fill="#98afc1"/>
  <g>
    <g>
      <ellipse cx="13.4" cy="117.43" rx="3.9" ry="4.85" transform="translate(-17.33 3.3) rotate(-8.56)" fill="#e6926d"/>
      <path d="M14.13,122.18l-1.44-9.6c4.67-1.05,9.35-2.08,14.02-3.13.54,3.8,1.08,7.6,1.62,11.4-4.73.44-9.45.87-14.18,1.34h-.03Z" fill="#e6926d"/>
    </g>
    <g>
      <g>
        <ellipse cx="72.54" cy="107.7" rx="11.43" ry="12.33" transform="translate(-15.22 12) rotate(-8.56)" fill="#98afc1"/>
        <path d="M22.48,124.83c-.87-5.73-1.75-11.43-2.59-17.15,16.95-4.06,33.9-8.11,50.85-12.17l3.67,24.37c-17.31,1.67-34.62,3.31-51.9,4.98l-.03-.03Z" fill="#99b0c2"/>
      </g>
      <rect x="20.87" y="106.04" width="8.4" height="18.93" rx="1.26" ry="1.26" transform="translate(-16.91 5.02) rotate(-8.56)" fill="#b8c2cb"/>
    </g>
  </g>
  <g>
    <ellipse cx="72.59" cy="107.78" rx="12.33" ry="10.84" transform="translate(-37.74 176.43) rotate(-87.93)" fill="#98afc1"/>
    <path d="M71.81,120.08c.41-8.19.82-16.41,1.23-24.6h50.95l-12.4,27.89c-13.25-1.08-26.53-2.18-39.78-3.26v-.03Z" fill="#98afc1"/>
    <ellipse cx="119.26" cy="108.94" rx="14.89" ry="16.38" transform="translate(-1.81 2.01) rotate(-.96)" fill="#98afc1"/>
  </g>
  <path d="M130.33,89.72l-23.14-.62c-.15,0-.28.1-.28.26-.56,7.27-1.16,14.53-1.72,21.8,0,.15.1.31.28.31,9.27.23,18.54.46,27.84.69.18,0,.31-.15.28-.33-1-7.29-1.98-14.59-2.98-21.88,0-.13-.13-.23-.28-.26v.03Z" fill="#98afc1"/>
  <g>
    <g>
      <g>
        <g>
          <g>
            <g>
              <path d="M129.74,46.94c-5.32,1.8-10.63,3.62-15.92,5.42.18-.26.41-.59.67-1.03h0c.74-1.26,1.64-3.31,1.64-5.85,0-.31,0-.59-.05-.87,1.87-.46,3.39-3.39,3.49-6.96.03-1.36-.13-2.62-.46-3.72-.15.49-.33.98-.56,1.44.21-.49.39-.98.54-1.46h0c.13-.44.26-.9.33-1.36h0c.31-.03.62-.08.92-.13,1.36-.26,2.67-.69,3.88-1.28,0,1,.08,2.11.23,3.31.18,1.41.51,2.95,1.03,4.57.44,1.31.92,2.49,1.46,3.57.92,1.85,1.95,3.31,2.77,4.37h.03Z" fill="#ef9475"/>
              <path d="M127.79,42.27s.1.13.15.23h0s.44.59.87,1.23c5.08,7.78,5.96,13.3,5.96,13.3.1,2.49.15,4.57.15,5.96,0,0,.13,9.86-3.57,26.4-.08.33-.26,1.13-.92,1.69-.77.64-1.77.67-2.52.59l-19.95-.54c-.95,0-1.69-.82-1.67-1.75l.67-24.68c.1-1.31.31-2.49.59-3.6,3.67-6.73,9.42-14.12,18.41-18.1.59-.26,1.18-.51,1.77-.72l.05-.03Z" fill="#ead9cf"/>
            </g>
            <path d="M132.05,19.29c-.13,5.19-3.29,9.6-7.81,11.81-1.21.59-2.49,1.03-3.88,1.28-.31.05-.62.1-.92.13h0c-.08.46-.21.9-.33,1.36h0c.03.13.05.41-.03.72-.13.41-.41.67-.51.74h0c-.49.92-1.59,2.9-3.75,4.55-1.62,1.23-2.98,1.62-3.42,1.67l-.82.08h0c-.74.1-2,.15-3.62-.36-2.11-1.28-3.72-3.72-4.26-6.09-.15-.62-.64-2.62-.03-4.7.15-.49.36-1,.67-1.49.33-.56.72-.95,1-1.23-.05-.26-.1-.54-.15-.82-.26-1.34-.56-3.08-.77-5.14,0-.21-.05-.41-.08-.64-.1-1.13-.23-2.31-.21-2.72.05-1.67.41-3.26,1.03-4.73,2.18-5.19,7.6-8.78,13.84-8.6,2,.05,3.9.49,5.62,1.23,3.49,1.52,6.24,4.29,7.58,7.7.64,1.62.98,3.36.92,5.19l-.08.05Z" fill="#ef9475"/>
          </g>
          <path d="M119.57,37.65c-.1,3.57-1.62,6.5-3.49,6.96-.13-1.62-.64-3.03-1.28-4.26-.72.59-1.52,1.05-2.31,1.39-1.05.41-2.13.59-3.21.44-.82-.13-1.62-.44-2.34-.87.85.31,1.62.41,2.26.41,4.93.1,9.24-6.14,9.35-6.34h0c.23-.46.41-.92.56-1.44.33,1.08.49,2.36.46,3.72h0Z" fill="#b46048"/>
          <path d="M119.11,33.92c-.15.49-.33.98-.56,1.44.21-.49.39-.98.54-1.46v.05l.03-.03Z" fill="#b46048"/>
        </g>
        <path d="M132.75,21.19c-.08,3.77-1.64,10.86-6.98,12.92-3.24,1.23-6.47.21-8.04-.46.62-.28,1.67-.85,2.59-1.98.44-.54,1.64-2,1.52-4.06,0-.33-.13-2.49-1.34-3.06-1.23-.56-3.47.62-5.03,3.29,1-8.06-1.46-14.48-5.6-15.97-.85-.31-2.16-.54-4.03-.05-.33.13-1.1.82-1.28,1.08-.21.33-.39.64-.51.92-.05-.15-.1-.31-.13-.49-.1-.72.08-1.28.23-1.62,0,0,.26-.87.82-1.82,2.88-4.73,10.66-6.81,17.13-4.55.51.18,1,.39,1.49.62,3.57,1.69,6.24,4.67,7.88,8.45,0,0,1.31,3.24,1.26,6.81l.03-.03Z" fill="#5b3d3b"/>
        <circle cx="130.56" cy="7.06" r="7.06" fill="#5b3d3b"/>
      </g>
      <ellipse cx="105.69" cy="25.23" rx="1.75" ry=".62" transform="translate(77.6 130.2) rotate(-88.45)" fill="#422f2b"/>
      <rect x="104.62" y="19.12" width="1.75" height="3.44" rx=".67" ry=".67" transform="translate(77.19 124.59) rotate(-85.92)" fill="#50373b"/>
      <ellipse cx="104.05" cy="28.93" rx="1.9" ry="2.93" transform="translate(72.32 132.16) rotate(-88.45)" fill="#ef9475"/>
    </g>
    <path d="M106.04,34.1c-.05.26-.23.98-.9,1.59-.82.72-1.75.72-1.98.72-.54-.15-.72-.36-.77-.54-.08-.26.13-.36.1-.72-.05-.41-.33-.56-.28-.82.05-.21.28-.31.39-.36.85-.36,3.06.05,3.42.13h.03Z" fill="#e46761"/>
    <path d="M102.65,35.31c.74.15,1.54.03,2.21-.33.08-.05.1-.13.05-.21-.05-.08-.13-.1-.21-.05-.62.33-1.31.44-1.98.31-.08,0-.15,0-.18.1,0,.08,0,.18.1.18h0Z" fill="#754048"/>
    <g>
      <path d="M117.83,28.79l1.08.82s.15.08.23.08h.23c.08,0,.15-.05.21-.1.08-.05.13-.1.15-.18l.05-.15s.03-.21,0-.33l-.05-.15s-.13-.15-.21-.21l-1.08-.82s-.15-.08-.23-.08h-.23c-.08,0-.15.05-.21.1-.08.05-.13.1-.15.18l-.05.15s-.03.21,0,.33l.05.15s.13.15.21.21h0Z" fill="#ce7857"/>
      <path d="M117.26,30.92c.05-.36.13-.74.21-1.1.05-.18.1-.36.15-.54.03-.08.05-.18.1-.26,0-.05.03-.08.05-.13,0,0,.05-.1,0,0s0,0,0-.03c.08-.15.15-.33.26-.49.05-.08.08-.13.13-.21,0-.03.05-.08.08-.1,0-.03.08-.08-.03.05,0,0,.03-.03.05-.05.1-.13.23-.26.36-.36.03,0,.05-.05.08-.08,0,0,.13-.1.05-.03-.08.08,0,0,.05-.03s.08-.05.13-.08c.08-.05.15-.1.23-.13.03,0,.08-.03.1-.05,0,0,.05,0,.05-.03-.03,0-.13.05-.05,0,.18-.08.36-.1.54-.13h-.15.39c.31,0,.62-.28.62-.62s-.26-.59-.62-.62c-.87-.03-1.69.36-2.31.95s-1.05,1.44-1.28,2.29c-.13.46-.23.92-.31,1.39-.03.15-.03.31.05.46.08.13.23.26.36.28.15.03.33.03.46-.05s.26-.21.28-.36h0l-.03.03Z" fill="#ce7857"/>
    </g>
  </g>
  <g>
    <g>
      <path d="M5.09,122.03c-2.59-1.69-2.29-5.7-2.18-7.27.21-2.82,1.49-6.78,3.24-6.86,1.13-.05,2.11,1.52,3.88,4.39.56.9,1.31,2.13,1.87,3.83.26.77.28,1.05.67,2.11.59,1.59.85,1.82.74,2.31-.26,1.23-2.44,1.72-3.16,1.9-.9.23-3.24.8-5.08-.41h.03Z" fill="#e6926d"/>
      <path d="M8.95,110.04c1.05-1.03-.77-4.55-1.54-6.01-1-1.93-1.54-2.9-2.75-3.39-1.41-.56-3.39-.31-4.16.8-.23.31-.28.64-.36,1.31-.31,2.85,0,4.98,0,7.96,0,.41.39,1.1.62,1.31.49.41.8.98.87,1.46.15.87-.33,1.85-1.23,2.49-.08.05-.26.39-.26.49v7.4s-.36,1.59,2.85.82c2.08-.51,3.18-.44,3.75-1.21.41-.59.39-1.23.33-2.41-.08-1.64-.56-2.98-1-3.9-.87-1.8-1.39-1.67-1.75-2.9-.36-1.34-.23-3.31.85-4.06,1.28-.87,2.95.64,3.75-.13l.03-.03Z" fill="#815f5e"/>
    </g>
    <path d="M3.5,107.49c-.98,0-1.93-.51-2.57-1.23-.72-.82-.87-1.9-.9-3.06-.03-1.62-.03-3.34,0-5.01.05-.67,1.87-1.85,2.62-.95,1.08,1.28,2.18,2.72,3.06,4.01.72,1.08,1.39,2.36.98,3.67-.39,1.34-1.69,2.57-3.18,2.57h-.03.03Z" fill="#815f5e"/>
  </g>
  <path d="M104.94,79.17c-1.9.23-3.93,1.16-5.68,1.75-3.44,1.21-7.06,2.7-10.61,3.67-1.34.36-2.9.74-4.26,1.03-1.59.33-3.21.64-4.8,1.03-1.67.41-3.21.77-4.52,1.8-.98.74-1.67,2.23-.85,3.34.77,1.08,2.47,1.28,3.8,1.23,3.44-.18,6.78-.92,10.17-1.54,4.03-.77,8.32-1.72,12.17-2.9,2.67-.87,6.75-1.67,8.63-3.77.85-.98,1.05-2.31.49-3.6-.77-1.62-2.67-2.21-4.47-2.03h-.08Z" fill="#f09077"/>
  <g>
    <path d="M114.87,65.71c-1.62.64-2.39,2.41-3.39,4.01-.92,1.49-1.93,2.88-3.03,4.29-.74.95-1.57,1.98-2.34,2.98-1.46,2-3.16,3.95-2.77,6.39.33,1.62,2.16,2.57,3.72,2.29,1.34-.26,2.31-1.21,3.21-2.18,1.64-1.87,3.29-4.16,4.78-6.24,1.8-2.54,3.67-5.24,4.8-7.91,1.57-3.13-2.36-4.67-4.93-3.6h-.03l-.03-.03Z" fill="#f09077"/>
    <path d="M127.94,61.91c-.23.44-.49.85-.77,1.23.26-.41.51-.82.77-1.23Z" fill="#ead9cf"/>
    <path d="M127.94,61.91c-.26.41-.51.82-.77,1.23-1.59,2.49-3.16,4.96-4.75,7.45-.33.54-.69,1.08-1.03,1.62-.54-.31-1.05-.62-1.59-.92-2.98-1.75-5.98-3.49-8.96-5.24,1.93-3.26,3.88-6.52,5.8-9.78,1.64-3.26,5.5-4.65,8.6-3.11,3.13,1.57,4.34,5.47,2.7,8.76h0Z" fill="#ead9cf" stroke="#c9b9b1" stroke-miterlimit="10" stroke-width=".41"/>
    <path d="M112.1,63.43c3.65,2.21,7.32,4.39,10.97,6.6.33.21.64-.33.31-.51-3.65-2.21-7.32-4.39-10.97-6.6-.33-.21-.64.33-.31.51h0Z" fill="#c9b9b1"/>
  </g>
  <circle cx="71.68" cy="90.8" r="3.57" fill="#f09077"/>
</svg>