<?xml version="1.0" encoding="UTF-8"?>
<svg id="_Слой_1" data-name="Слой 1" xmlns="http://www.w3.org/2000/svg" viewBox="0 0 131.38 50.66">
  <g>
    <ellipse cx="114.75" cy="33.09" rx="15.84" ry="17.03" transform="translate(20.7 106.69) rotate(-54.13)" fill="#98afc1"/>
    <path d="M107.79,14.3l-13.1,18.1s-.05.28.05.39c5.68,4.57,11.38,9.12,17.05,13.69.05.03.08.05.1.05,0,0,.13,0,.28-.1.28-.23,14.12-23.83,7.63-28.22-1.95-1.31-4.83-.28-10.32-2.98-.77-.39-1.36-.72-1.72-.92h.03Z" fill="#98afc1"/>
  </g>
  <g>
    <g>
      <g>
        <g>
          <g>
            <g>
              <path d="M63.39,10.81c1.41,5.42,2.82,10.86,4.24,16.28-.23-.21-.56-.46-.98-.74h0c-1.21-.85-3.16-1.87-5.7-2.05-.31,0-.59-.03-.87-.03-.33-1.9-3.13-3.62-6.7-3.98-1.34-.13-2.62-.05-3.72.18.49.18.95.41,1.39.67-.46-.26-.92-.46-1.41-.67h0c-.44-.18-.87-.31-1.34-.44h0c0-.31-.03-.64-.08-.95-.15-1.39-.49-2.72-.98-3.95,1,.08,2.11.08,3.34,0,1.44-.08,2.98-.28,4.65-.69,1.34-.33,2.57-.74,3.65-1.21,1.93-.8,3.44-1.69,4.57-2.44l-.05.03Z" fill="#ef9475"/>
              <path d="M58.58,12.43s.13-.08.23-.15h0s.62-.41,1.31-.77c8.11-4.52,13.69-4.96,13.69-4.96,2.49.08,4.55.18,5.96.28,0,0,9.86.59,26.06,5.5.33.1,1.1.33,1.62,1.05.59.8.54,1.82.41,2.54l-2,19.85c-.1.95-.92,1.62-1.87,1.52-8.19-.82-16.38-1.64-24.58-2.49-1.28-.18-2.47-.49-3.54-.87-6.45-4.16-13.4-10.45-16.69-19.7-.23-.62-.41-1.23-.59-1.82v.03Z" fill="#ead9cf"/>
            </g>
            <path d="M35.99,6.47c5.16.51,9.32,3.98,11.22,8.65.49,1.23.82,2.57.98,3.95.03.31.05.62.08.95h0c.44.13.9.26,1.34.44h0c.13,0,.41-.03.72.08.41.15.64.46.72.56h0c.87.56,2.77,1.8,4.26,4.08,1.1,1.69,1.41,3.08,1.41,3.54v.82h0c.03.74,0,2-.64,3.57-1.44,2-3.98,3.44-6.39,3.8-.64.1-2.67.46-4.67-.31-.49-.18-.98-.44-1.44-.77-.54-.39-.9-.8-1.16-1.08-.26.03-.54.08-.85.1-1.36.15-3.13.33-5.19.41h-.64c-1.13.03-2.31.05-2.72,0-1.67-.18-3.24-.64-4.65-1.36-5.01-2.57-8.19-8.24-7.58-14.46.21-2,.77-3.85,1.64-5.52,1.77-3.36,4.73-5.91,8.22-7.01,1.64-.51,3.44-.72,5.24-.54l.1.08Z" fill="#ef9475"/>
          </g>
          <path d="M53.37,20.29c3.57.36,6.37,2.08,6.7,3.98-1.62,0-3.08.41-4.34.98.54.77.95,1.59,1.21,2.41.33,1.08.44,2.18.21,3.24-.18.82-.54,1.59-1.05,2.29.36-.82.51-1.59.59-2.23.46-4.9-5.44-9.66-5.65-9.78h0c-.44-.26-.9-.49-1.39-.67,1.1-.26,2.39-.33,3.72-.18v-.03Z" fill="#b46048"/>
          <path d="M49.65,20.47c.49.18.95.41,1.39.67-.46-.26-.92-.46-1.41-.67h.05-.03Z" fill="#b46048"/>
        </g>
        <path d="M37.94,5.93c3.75.33,10.71,2.44,12.35,7.91,1,3.34-.28,6.47-1.05,7.99-.23-.62-.72-1.72-1.8-2.72-.51-.49-1.9-1.8-3.95-1.82-.33,0-2.52-.05-3.16,1.1-.67,1.18.36,3.49,2.9,5.26-7.96-1.59-14.56.39-16.33,4.39-.36.82-.69,2.11-.36,4.01.1.33.74,1.16,1,1.34.31.23.62.41.9.56-.15.05-.31.08-.49.08-.72.05-1.28-.18-1.59-.36,0,0-.85-.33-1.75-.95-4.52-3.21-6.01-11.14-3.26-17.41.21-.49.46-.98.72-1.44,1.95-3.44,5.11-5.88,9.01-7.24,0,0,3.31-1.08,6.88-.74l-.03.05Z" fill="#5b3d3b"/>
        <circle cx="23.69" cy="7.06" r="7.06" fill="#5b3d3b"/>
      </g>
      <ellipse cx="39.98" cy="33.32" rx=".62" ry="1.75" transform="translate(2.81 69.75) rotate(-84.23)" fill="#422f2b"/>
      <rect x="33.88" y="32.25" width="3.44" height="1.75" rx=".67" ry=".67" transform="translate(-2.31 63.57) rotate(-81.7)" fill="#50373b"/>
      <ellipse cx="43.51" cy="35.22" rx="2.93" ry="1.9" transform="translate(4.1 74.97) rotate(-84.23)" fill="#ef9475"/>
    </g>
    <path d="M48.83,33.51c.26.08.98.31,1.52,1.03.67.87.59,1.8.56,2.03-.21.54-.41.69-.59.72-.26.05-.36-.15-.72-.15-.41,0-.59.31-.85.21-.21-.08-.28-.31-.33-.41-.31-.87.28-3.06.36-3.42h.05Z" fill="#e46761"/>
    <path d="M49.83,36.98c.21-.74.13-1.54-.18-2.23-.03-.08-.15-.1-.21-.05-.08.05-.08.13-.05.21.28.64.33,1.34.15,2,0,.08.03.15.1.18s.15-.03.18-.1h0Z" fill="#754048"/>
    <g>
      <path d="M44.36,21.44l.69-.8.21-.23s.1-.13.13-.21.05-.15.05-.23,0-.15-.05-.23c0-.08-.08-.13-.13-.21l-.13-.1s-.21-.08-.31-.08h-.15s-.18.1-.26.18l-.69.8-.21.23s-.1.13-.13.21-.05.15-.05.23,0,.15.05.23c0,.08.08.13.13.21l.13.1s.21.08.31.08h.15s.18-.1.26-.18h0Z" fill="#ce7857"/>
      <path d="M46.44,22.06c-.56-.13-1.1-.28-1.62-.49l.15.05c-.39-.15-.77-.36-1.1-.64l.13.1c-.23-.18-.44-.39-.62-.62l.1.13c-.15-.21-.31-.44-.41-.69l.05.15c-.08-.21-.15-.41-.18-.64v.15-.54c0-.15-.08-.33-.18-.44s-.28-.18-.44-.18-.31.05-.44.18c-.13.13-.15.26-.18.44-.1.87.28,1.75.85,2.39s1.39,1.1,2.21,1.41c.44.15.9.28,1.34.39.31.08.67-.1.74-.44.08-.31-.1-.67-.44-.74h0l.03.03Z" fill="#ce7857"/>
    </g>
  </g>
  <g>
    <g>
      <g>
        <ellipse cx="13.39" cy="42.78" rx="3.9" ry="4.85" transform="translate(-6.22 2.47) rotate(-8.56)" fill="#e6926d"/>
        <path d="M14.13,47.53l-1.44-9.6c4.67-1.05,9.35-2.08,14.02-3.13.54,3.8,1.08,7.6,1.62,11.4-4.73.44-9.45.87-14.18,1.34h-.03Z" fill="#e6926d"/>
      </g>
      <g>
        <g>
          <ellipse cx="72.53" cy="33.06" rx="11.43" ry="12.33" transform="translate(-4.11 11.16) rotate(-8.56)" fill="#98afc1"/>
          <path d="M22.48,50.18c-.87-5.73-1.75-11.43-2.59-17.15,16.95-4.06,33.9-8.11,50.85-12.17l3.67,24.37c-17.31,1.67-34.62,3.31-51.9,4.98l-.03-.03Z" fill="#99b0c2"/>
        </g>
        <rect x="20.86" y="31.39" width="8.4" height="18.93" rx="1.26" ry="1.26" transform="translate(-5.8 4.19) rotate(-8.56)" fill="#b8c2cb"/>
      </g>
    </g>
    <g>
      <ellipse cx="72.6" cy="32.73" rx="12.33" ry="10.84" transform="translate(37.27 104.1) rotate(-87.93)" fill="#98afc1"/>
      <path d="M71.81,45.02c.41-8.19.82-16.41,1.23-24.6h50.95l-12.4,27.89c-13.25-1.08-26.53-2.18-39.78-3.26v-.03Z" fill="#98afc1"/>
      <path d="M126.74,23.42c5.37,7.96.13,23.21-7.78,24.52-5.86.98-14.05-5.57-14.53-13.92-.49-8.29,6.81-15.87,13.74-15.61,5.24.18,8.45,4.78,8.58,5.01Z" fill="#98afc1"/>
    </g>
  </g>
  <g>
    <g>
      <path d="M5.09,47.38c-2.59-1.69-2.29-5.7-2.18-7.27.21-2.82,1.49-6.78,3.24-6.86,1.13-.05,2.11,1.52,3.88,4.39.56.9,1.31,2.13,1.87,3.83.26.77.28,1.05.67,2.11.59,1.59.85,1.82.74,2.31-.26,1.23-2.44,1.72-3.16,1.9-.9.23-3.24.8-5.08-.41h.03Z" fill="#e6926d"/>
      <path d="M8.95,35.39c1.05-1.03-.77-4.55-1.54-6.01-1-1.93-1.54-2.9-2.75-3.39-1.41-.56-3.39-.31-4.16.8-.23.31-.28.64-.36,1.31-.31,2.85,0,4.98,0,7.96,0,.41.39,1.1.62,1.31.49.41.8.98.87,1.46.15.87-.33,1.85-1.23,2.49-.08.05-.26.39-.26.49v7.4s-.36,1.59,2.85.82c2.08-.51,3.18-.44,3.75-1.21.41-.59.39-1.23.33-2.41-.08-1.64-.56-2.98-1-3.9-.87-1.8-1.39-1.67-1.75-2.9-.36-1.34-.23-3.31.85-4.06,1.28-.87,2.95.64,3.75-.13l.03-.03Z" fill="#815f5e"/>
    </g>
    <path d="M3.5,32.84c-.98,0-1.93-.51-2.57-1.23-.72-.82-.87-1.9-.9-3.06-.03-1.62-.03-3.34,0-5.01.05-.67,1.87-1.85,2.62-.95,1.08,1.28,2.18,2.72,3.06,4.01.72,1.08,1.39,2.36.98,3.67-.39,1.34-1.69,2.57-3.18,2.57h-.03.03Z" fill="#815f5e"/>
  </g>
  <g>
    <path d="M51.27,33.36c-1.93-.21-4.08.26-5.93.44-3.62.41-7.47,1.05-11.17,1.21-1.39.05-2.98.08-4.39.05-1.62,0-3.29-.08-4.9-.08-1.72.03-3.31.05-4.8.74-1.13.51-2.13,1.8-1.59,3.06.51,1.23,2.11,1.82,3.42,2.05,3.39.59,6.81.62,10.27.77,4.11.15,8.5.18,12.53-.1,2.8-.26,6.96-.13,9.24-1.75,1.03-.74,1.54-2.03,1.28-3.39-.41-1.75-2.11-2.77-3.9-2.98h-.05v-.03Z" fill="#f09077"/>
    <g>
      <path d="M63.95,22.47c-1.72.28-2.85,1.82-4.21,3.13-1.23,1.23-2.52,2.39-3.9,3.49-.95.77-1.95,1.57-2.93,2.36-1.87,1.62-3.95,3.13-4.13,5.6-.03,1.67,1.54,2.98,3.11,3.06,1.36.05,2.52-.64,3.62-1.41,2.03-1.46,4.13-3.31,6.06-5.01,2.31-2.08,4.75-4.29,6.45-6.63,2.21-2.7-1.28-5.08-4.01-4.62h-.03l-.03.03Z" fill="#f09077"/>
      <path d="M77.54,21.67c-.31.39-.67.72-1.03,1.03.33-.33.69-.69,1.03-1.03Z" fill="#ead9cf"/>
      <path d="M77.54,21.67c-.33.33-.69.67-1.03,1.03-2.11,2.05-4.19,4.13-6.29,6.21-.46.44-.9.9-1.36,1.34-.46-.41-.9-.85-1.36-1.26-2.52-2.36-5.06-4.73-7.58-7.11,2.62-2.75,5.24-5.5,7.86-8.24,2.31-2.82,6.39-3.31,9.09-1.1,2.7,2.21,3,6.32.67,9.14h0Z" fill="#ead9cf" stroke="#c9b9b1" stroke-miterlimit="10" stroke-width=".41"/>
      <path d="M61.77,19.62c2.39,2.29,4.78,4.6,7.16,6.88l2.05,1.98c.28.28.72-.15.44-.44-2.39-2.29-4.78-4.6-7.16-6.88l-2.05-1.98c-.28-.28-.72.15-.44.44h0Z" fill="#c9b9b1"/>
    </g>
    <circle cx="16.26" cy="37.29" r="3.57" fill="#f09077"/>
  </g>
</svg>