<?xml version="1.0" encoding="UTF-8"?>
<svg id="_Слой_1" data-name="Слой 1" xmlns="http://www.w3.org/2000/svg" viewBox="0 0 131.37 86.78">
  <g>
    <g>
      <ellipse cx="114.74" cy="69.23" rx="15.84" ry="17.03" transform="translate(-8.6 121.64) rotate(-54.13)" fill="#98afc1"/>
      <path d="M107.79,50.43l-13.1,18.1s-.05.28.05.39c5.68,4.57,11.38,9.12,17.05,13.69.05.03.08.05.1.05,0,0,.13,0,.28-.1.28-.23,14.12-23.83,7.63-28.22-1.95-1.31-4.83-.28-10.32-2.98-.77-.39-1.36-.72-1.72-.92h.03Z" fill="#98afc1"/>
    </g>
    <g>
      <g>
        <g>
          <g>
            <g>
              <g>
                <path d="M70.06,28.48c-1.21,5.47-2.44,10.94-3.65,16.43-.13-.28-.28-.67-.51-1.1h0c-.69-1.31-1.98-3.11-4.16-4.44-.26-.15-.51-.31-.77-.44.59-1.85-1.13-4.65-4.13-6.6-1.13-.74-2.31-1.26-3.42-1.54.33.39.64.8.92,1.23-.31-.44-.62-.85-.98-1.23h0c-.31-.36-.64-.69-.98-1h0c.13-.28.26-.59.36-.87.49-1.31.8-2.64.92-3.98.85.51,1.85,1.05,2.95,1.54,1.31.56,2.8,1.1,4.44,1.49,1.34.31,2.62.51,3.8.59,2.08.18,3.85.05,5.16-.1l.03.03Z" fill="#ef9475"/>
                <path d="M65.06,27.73h.28s.74-.08,1.52-.1c9.3-.31,14.46,1.8,14.46,1.8,2.18,1.21,3.98,2.23,5.19,2.95,0,0,8.5,5.01,20.72,16.77.26.23.82.82.95,1.67.15.98-.36,1.87-.8,2.47l-10.81,16.77c-.51.8-1.57,1.03-2.36.51-6.91-4.47-13.84-8.94-20.75-13.38-1.05-.74-1.98-1.57-2.77-2.39-3.85-6.63-7.16-15.41-5.91-25.11.08-.64.18-1.28.31-1.9l-.03-.05Z" fill="#ead9cf"/>
              </g>
              <path d="M47.64,12.15c4.34,2.8,6.5,7.81,6.03,12.81-.13,1.34-.44,2.67-.92,3.98-.1.28-.23.59-.36.87h0c.33.31.67.64.98,1h0c.13.05.39.15.59.41.28.33.36.69.39.82h0c.51.9,1.64,2.88,1.95,5.57.21,2-.15,3.39-.36,3.8l-.36.74h0c-.31.67-.92,1.8-2.18,2.9-2.18,1.13-5.11,1.23-7.42.49-.62-.21-2.59-.8-4.03-2.41-.33-.39-.67-.82-.92-1.34-.31-.59-.44-1.1-.54-1.49-.26-.08-.51-.18-.8-.28-1.28-.46-2.93-1.13-4.8-2-.18-.08-.39-.18-.59-.28-1.03-.49-2.08-1-2.41-1.23-1.41-.9-2.57-2.03-3.52-3.34-3.29-4.57-3.54-11.07-.15-16.31,1.08-1.69,2.44-3.08,3.98-4.16,3.11-2.21,6.91-3.11,10.5-2.49,1.72.28,3.39.92,4.93,1.9l.03.03Z" fill="#ef9475"/>
            </g>
            <path d="M56.84,32.33c3,1.95,4.73,4.75,4.13,6.6-1.46-.72-2.93-1.03-4.29-1.1.13.92.13,1.85,0,2.7-.18,1.1-.62,2.13-1.31,2.98-.54.64-1.21,1.16-1.98,1.54.69-.59,1.18-1.18,1.54-1.72,2.65-4.16-.44-11.07-.56-11.3h0c-.28-.44-.59-.85-.92-1.23,1.1.28,2.29.8,3.42,1.54h-.03Z" fill="#b46048"/>
            <path d="M53.42,30.82c.33.39.64.8.92,1.23-.31-.44-.62-.85-.98-1.23h.05Z" fill="#b46048"/>
          </g>
          <path d="M49.62,12.53c3.18,2.03,8.42,7.04,7.4,12.69-.62,3.42-3.18,5.62-4.6,6.63.08-.67.13-1.87-.36-3.24-.23-.67-.87-2.44-2.7-3.42-.28-.15-2.21-1.18-3.31-.44-1.13.77-1.28,3.29.18,6.01-6.37-5.03-13.15-6.27-16.54-3.52-.69.56-1.59,1.57-2.13,3.42-.05.33.13,1.36.26,1.64.18.36.36.67.54.92-.15-.03-.31-.08-.49-.15-.67-.28-1.05-.74-1.26-1.05,0,0-.62-.67-1.13-1.64-2.57-4.9-.28-12.66,5.01-17,.41-.33.85-.67,1.28-.95,3.31-2.18,7.24-2.93,11.32-2.34,0,0,3.44.54,6.47,2.47l.05-.03Z" fill="#5b3d3b"/>
          <circle cx="36.42" cy="7.06" r="7.06" fill="#5b3d3b"/>
        </g>
        <ellipse cx="38.98" cy="37.85" rx=".62" ry="1.75" transform="translate(-13.96 50.08) rotate(-57.16)" fill="#422f2b"/>
        <rect x="33.48" y="34.82" width="3.44" height="1.75" rx=".67" ry=".67" transform="translate(-14.28 43.73) rotate(-54.63)" fill="#50373b"/>
        <ellipse cx="41.27" cy="41.14" rx="2.93" ry="1.9" transform="translate(-15.68 53.51) rotate(-57.16)" fill="#ef9475"/>
      </g>
      <path d="M46.8,42.06c.18.18.72.72.9,1.59.21,1.08-.28,1.87-.41,2.05-.41.39-.69.41-.85.36-.26-.08-.23-.31-.56-.46-.39-.18-.67,0-.85-.18-.15-.15-.1-.41-.1-.51.13-.92,1.62-2.59,1.87-2.85Z" fill="#e46761"/>
      <path d="M46.08,45.58c.41-.44.69-.98.8-1.54.03-.18.05-.33.08-.51,0-.08-.08-.15-.15-.15s-.15.08-.15.15v.39c0,.13-.05.28-.1.41,0,.08-.05.13-.08.21v.03h0s-.03.05-.05.1c-.05.13-.13.26-.21.36-.08.13-.15.23-.28.33-.05.05-.05.15,0,.21s.15.05.21,0h0l-.05.03Z" fill="#754048"/>
      <g>
        <path d="M48.23,29.27l1.26-.49s.15-.05.21-.1c.08-.05.13-.1.15-.18.05-.08.08-.15.08-.23v-.23l-.05-.15s-.13-.15-.21-.21l-.15-.05s-.21-.03-.33,0l-1.26.49s-.15.05-.21.1c-.08.05-.13.1-.15.18-.05.08-.08.15-.08.23v.23l.05.15s.13.15.21.21l.15.05s.21.03.33,0h0Z" fill="#ce7857"/>
        <path d="M49.88,30.79c-.28-.26-.56-.49-.85-.77-.13-.13-.26-.28-.39-.41-.03-.03-.05-.08-.1-.1-.08-.08.05.08,0,0s-.13-.15-.18-.23c-.1-.15-.21-.31-.28-.49,0-.05-.05-.08-.05-.13-.05-.1.05.1,0,0-.03-.08-.08-.18-.1-.26-.03-.08-.05-.18-.08-.26,0-.05,0-.1-.03-.13,0-.03-.03-.18,0-.08,0,.1,0-.05,0-.08v-.56s0-.08,0,0c0,.1,0,0,0-.03,0-.1.05-.18.08-.28,0-.05.03-.08.05-.13,0-.05.05-.08,0,.03,0,0,0-.05.03-.08.05-.1.1-.18.15-.28.18-.26.05-.69-.21-.82-.31-.15-.64-.08-.82.21-.49.74-.56,1.69-.36,2.54s.72,1.62,1.31,2.26c.31.33.67.67,1.03.95.23.21.62.26.85,0,.21-.23.26-.64,0-.85h0l-.05-.03Z" fill="#ce7857"/>
      </g>
    </g>
  </g>
  <g>
    <g>
      <g>
        <ellipse cx="13.38" cy="78.92" rx="3.9" ry="4.85" transform="translate(-11.6 2.87) rotate(-8.56)" fill="#e6926d"/>
        <path d="M14.13,83.66l-1.44-9.6c4.67-1.05,9.35-2.08,14.02-3.13.54,3.8,1.08,7.6,1.62,11.4-4.73.44-9.45.87-14.18,1.34h-.03Z" fill="#e6926d"/>
      </g>
      <g>
        <g>
          <ellipse cx="72.52" cy="69.18" rx="11.43" ry="12.33" transform="translate(-9.49 11.56) rotate(-8.56)" fill="#98afc1"/>
          <path d="M22.48,86.31c-.87-5.73-1.75-11.43-2.59-17.15,16.95-4.06,33.9-8.11,50.85-12.17l3.67,24.37c-17.31,1.67-34.62,3.31-51.9,4.98l-.03-.03Z" fill="#99b0c2"/>
        </g>
        <rect x="20.88" y="67.51" width="8.4" height="18.93" rx="1.26" ry="1.26" transform="translate(-11.18 4.59) rotate(-8.56)" fill="#b8c2cb"/>
      </g>
    </g>
    <g>
      <ellipse cx="72.61" cy="68.87" rx="12.33" ry="10.84" transform="translate(1.16 138.95) rotate(-87.93)" fill="#98afc1"/>
      <path d="M71.81,81.15c.41-8.19.82-16.41,1.23-24.6h50.95l-12.4,27.89c-13.25-1.08-26.53-2.18-39.78-3.26v-.03Z" fill="#98afc1"/>
      <path d="M126.74,59.55c5.37,7.96.13,23.21-7.78,24.52-5.86.98-14.05-5.57-14.53-13.92-.49-8.29,6.81-15.87,13.74-15.61,5.24.18,8.45,4.78,8.58,5.01Z" fill="#98afc1"/>
    </g>
  </g>
  <g>
    <g>
      <path d="M5.09,83.51c-2.59-1.69-2.29-5.7-2.18-7.27.21-2.82,1.49-6.78,3.24-6.86,1.13-.05,2.11,1.52,3.88,4.39.56.9,1.31,2.13,1.87,3.83.26.77.28,1.05.67,2.11.59,1.59.85,1.82.74,2.31-.26,1.23-2.44,1.72-3.16,1.9-.9.23-3.24.8-5.08-.41h.03Z" fill="#e6926d"/>
      <path d="M8.95,71.52c1.05-1.03-.77-4.55-1.54-6.01-1-1.93-1.54-2.9-2.75-3.39-1.41-.56-3.39-.31-4.16.8-.23.31-.28.64-.36,1.31-.31,2.85,0,4.98,0,7.96,0,.41.39,1.1.62,1.31.49.41.8.98.87,1.46.15.87-.33,1.85-1.23,2.49-.08.05-.26.39-.26.49v7.4s-.36,1.59,2.85.82c2.08-.51,3.18-.44,3.75-1.21.41-.59.39-1.23.33-2.41-.08-1.64-.56-2.98-1-3.9-.87-1.8-1.39-1.67-1.75-2.9-.36-1.34-.23-3.31.85-4.06,1.28-.87,2.95.64,3.75-.13l.03-.03Z" fill="#815f5e"/>
    </g>
    <path d="M3.5,68.98c-.98,0-1.93-.51-2.57-1.23-.72-.82-.87-1.9-.9-3.06-.03-1.62-.03-3.34,0-5.01.05-.67,1.87-1.85,2.62-.95,1.08,1.28,2.18,2.72,3.06,4.01.72,1.08,1.39,2.36.98,3.67-.39,1.34-1.69,2.57-3.18,2.57h-.03.03Z" fill="#815f5e"/>
  </g>
  <g>
    <path d="M54.99,57.93c-1.93-.15-4.08.39-5.91.59-3.6.51-7.45,1.26-11.12,1.54-1.39.1-2.98.15-4.39.18-1.62,0-3.29,0-4.9.05-1.72.08-3.29.13-4.78.87-1.1.54-2.08,1.87-1.49,3.11.54,1.21,2.16,1.75,3.47,1.95,3.39.49,6.83.41,10.27.46,4.11.03,8.5-.08,12.51-.46,2.8-.33,6.93-.33,9.19-2,1-.77,1.49-2.08,1.18-3.42-.44-1.75-2.18-2.7-4.01-2.88h-.05.03Z" fill="#f09077"/>
    <g>
      <path d="M67.37,46.69c-1.72.31-2.8,1.9-4.11,3.26-1.21,1.28-2.47,2.44-3.8,3.62-.92.8-1.9,1.62-2.88,2.47-1.82,1.67-3.88,3.26-3.98,5.73,0,1.67,1.62,2.95,3.18,2.98,1.36,0,2.52-.72,3.57-1.52,1.98-1.52,4.06-3.44,5.91-5.19,2.26-2.16,4.62-4.42,6.24-6.81,2.13-2.77-1.41-5.03-4.13-4.49h-.03l.03-.05Z" fill="#f09077"/>
      <path d="M80.92,45.5c-.31.39-.64.74-1,1.05.33-.36.67-.69,1-1.05Z" fill="#ead9cf"/>
      <path d="M80.92,45.5c-.33.36-.67.69-1,1.05-2.03,2.13-4.08,4.26-6.11,6.39-.44.46-.87.92-1.34,1.39l-1.39-1.23c-2.59-2.29-5.19-4.6-7.78-6.88,2.54-2.82,5.08-5.65,7.6-8.45,2.23-2.9,6.29-3.49,9.04-1.36,2.75,2.13,3.18,6.21.92,9.12l.05-.03Z" fill="#ead9cf" stroke="#c9b9b1" stroke-miterlimit="10" stroke-width=".41"/>
      <path d="M65.08,43.89l7.4,6.7,2.08,1.9c.28.26.72-.15.44-.44l-7.4-6.7-2.08-1.9c-.28-.26-.72.15-.44.44h0Z" fill="#c9b9b1"/>
    </g>
    <circle cx="20.12" cy="62.86" r="3.57" fill="#f09077"/>
  </g>
</svg>