<?xml version="1.0" encoding="UTF-8"?>
<svg id="_Слой_1" data-name="Слой 1" xmlns="http://www.w3.org/2000/svg" viewBox="0 0 133.15 97.66">
  <g>
    <g>
      <g>
        <ellipse cx="13.31" cy="86.18" rx="3.93" ry="4.89" transform="translate(-10.54 2.3) rotate(-7.09)" fill="#e6926d"/>
        <path d="M13.91,91l-1.21-9.71c4.73-.93,9.46-1.86,14.19-2.78.44,3.84.89,7.68,1.33,11.53-4.77.32-9.55.65-14.32.97Z" fill="#e6926d"/>
      </g>
      <g>
        <g>
          <ellipse cx="73.13" cy="77.91" rx="11.5" ry="12.41" transform="translate(-9.06 9.63) rotate(-7.09)" fill="#98afc1"/>
          <path d="M22.24,93.86c-.73-5.78-1.45-11.57-2.18-17.35,17.17-3.65,34.35-7.31,51.52-10.96l3.07,24.63c-17.47,1.23-34.94,2.46-52.41,3.68h0Z" fill="#99b0c2"/>
        </g>
        <rect x="20.86" y="75.04" width="8.46" height="19.07" rx="1.48" ry="1.48" transform="translate(-10.25 3.75) rotate(-7.09)" fill="#b8c2cb"/>
      </g>
    </g>
    <g>
      <ellipse cx="73.18" cy="77.59" rx="12.41" ry="10.92" transform="translate(-8.78 145.85) rotate(-86.46)" fill="#98afc1"/>
      <path d="M72.05,89.94c.63-8.25,1.26-16.49,1.88-24.74,17.11.43,34.21.86,51.32,1.29-4.4,9.25-8.81,18.51-13.22,27.77-13.33-1.44-26.65-2.87-39.98-4.31Z" fill="#98afc1"/>
      <path d="M127.95,69.62c5.2,8.15-.48,23.38-8.48,24.5-5.93.83-14-5.97-14.27-14.38-.27-8.36,7.25-15.8,14.23-15.37,5.27.33,8.37,5.03,8.52,5.26h0Z" fill="#98afc1"/>
    </g>
  </g>
  <g>
    <path d="M5.05,90.45c-2.57-1.79-2.17-5.79-2-7.38.29-2.85,1.68-6.79,3.44-6.83,1.14-.03,2.07,1.57,3.8,4.52.54.92,1.27,2.19,1.8,3.91.24.78.25,1.07.61,2.15.54,1.63.8,1.86.69,2.34-.3,1.23-2.51,1.66-3.23,1.82-.91.2-3.27.73-5.1-.54Z" fill="#e6926d"/>
    <path d="M9.23,78.47c1.09-1.01-.65-4.6-1.39-6.1-.96-1.96-1.47-2.97-2.68-3.49-1.4-.6-3.4-.41-4.2.68-.23.32-.31.63-.4,1.3-.39,2.86-.14,5.01-.2,8.02,0,.41.36,1.12.59,1.32.47.42.78,1,.85,1.49.14.87-.38,1.85-1.31,2.48-.09.06-.28.39-.28.5-.06,2.48-.13,4.96-.19,7.44,0,0-.39,1.58,2.85.89,2.12-.45,3.23-.35,3.8-1.12.44-.59.43-1.22.41-2.43-.03-1.65-.49-3.03-.91-3.95-.83-1.84-1.36-1.72-1.67-2.96-.34-1.36-.15-3.34.96-4.06,1.33-.86,2.97.72,3.77-.02h0Z" fill="#815f5e"/>
  </g>
  <path d="M12.66,67.43c-.49-.39-1.37-.3-2.04-.54-1.23-.3-2.48-1.29-3.79-.95-2.26.67-2.41,4.64-1.25,6.22.89,1.41,2.86,2.28,4.57,1.72.85-.26,1.57-.83,2.41-1.13,1.2-.37,1.28-.59.9-1.7-.25-.82-.39-1.62-.45-2.47-.03-.38-.03-.85-.33-1.14h-.01Z" fill="#d68069"/>
  <path d="M46.66,55.26c-2.31.5-4.66,1.64-6.74,2.43-4.06,1.6-8.3,3.48-12.53,4.9-1.6.54-3.45,1.1-5.09,1.57-1.89.55-3.86,1.08-5.74,1.65-1.99.63-3.83,1.18-5.31,2.29-1.11.83-1.79,2.26-.67,3.11,1.07.85,3.15.78,4.76.53,4.17-.68,8.15-1.87,12.24-2.94,4.85-1.3,9.96-2.82,14.54-4.46,3.16-1.18,8.04-2.53,10.1-4.69.92-.99,1.03-2.23.19-3.28-1.13-1.33-3.51-1.58-5.69-1.13h-.06s0,.01,0,.01Z" fill="#d68069"/>
  <g>
    <path d="M67.2,45.43c-1.85-.24-3.7,1.15-5.64,2.23-1.81,1.02-3.61,1.9-5.5,2.74-1.29.58-2.68,1.16-4.03,1.76-2.61,1.26-5.41,2.31-6.69,5.05-.78,1.88.19,3.88,1.75,4.46,1.34.49,2.83.06,4.28-.46,2.7-1.02,5.66-2.45,8.36-3.77,3.27-1.63,6.7-3.35,9.46-5.49,3.45-2.37,1.01-6.18-1.95-6.52h-.04s0,0,0,0Z" fill="#d68069"/>
    <path d="M79.05,48.94c-.4.23-.81.45-1.21.68-2.45,1.38-4.9,2.75-7.35,4.13-.53.3-1.06.6-1.59.9-.31-.5-.62-1-.92-1.5-1.73-2.81-3.46-5.63-5.18-8.44,3.1-1.87,6.2-3.74,9.3-5.61,2.85-2.02,6.72-1.45,8.64,1.27,1.93,2.72,1.17,6.56-1.68,8.57h0Z" fill="#ead9cf" stroke="#c9b9b1" stroke-miterlimit="10" stroke-width=".39"/>
    <path d="M65.4,43.05c1.89,3.61,3.79,7.21,5.68,10.82.17.33.68.05.51-.28-1.89-3.61-3.79-7.21-5.68-10.82-.17-.33-.68-.05-.51.28h0Z" fill="#c9b9b1"/>
  </g>
  <g>
    <g>
      <ellipse cx="115.9" cy="78.94" rx="15.96" ry="17.15" transform="translate(-20.81 110.16) rotate(-47.12)" fill="#98afc1"/>
      <path d="M111.28,59.24l-15.32,16.5c-.1.11-.1.28.01.39,5.13,5.26,10.25,10.52,15.38,15.78.03.04.07.06.11.07,0,0,.13.04.3-.06.32-.19,17.07-22.1,11.09-27.29-1.8-1.56-4.79-.87-9.96-4.24-.72-.47-1.28-.88-1.61-1.14h0Z" fill="#98afc1"/>
    </g>
    <g>
      <g>
        <g>
          <g>
            <g>
              <g>
                <path d="M76.27,32.66c-1.89,5.33-3.78,10.65-5.66,15.98-.08-.3-.21-.7-.39-1.17,0,0,0,0,0,0-.54-1.39-1.58-3.36-3.6-4.94-.24-.19-.48-.36-.72-.52.81-1.78-.56-4.8-3.33-7.11-1.05-.87-2.16-1.53-3.22-1.95.29.42.55.87.78,1.33-.25-.47-.52-.92-.82-1.35h0c-.26-.39-.55-.76-.86-1.12h0c.17-.27.32-.55.47-.83.65-1.24,1.12-2.54,1.41-3.85.79.62,1.72,1.27,2.77,1.89,1.24.74,2.66,1.44,4.27,2.03,1.31.48,2.56.83,3.73,1.06,2.05.42,3.83.53,5.18.54h0Z" fill="#ef9475"/>
                <path d="M71.34,31.28c.06,0,.16,0,.28,0h0s.75.02,1.52.08c9.32.83,14.23,3.58,14.23,3.58,2.04,1.48,3.7,2.73,4.82,3.59,0,0,7.89,6.06,18.66,19.31.22.27.73.91.75,1.78.03,1-.59,1.83-1.1,2.36-4.29,5.14-8.59,10.29-12.88,15.44-.61.73-1.69.83-2.42.22-6.37-5.31-12.73-10.63-19.1-15.94-.97-.89-1.79-1.81-2.48-2.73-3.04-7.1-5.28-16.29-2.82-25.85.16-.63.34-1.26.54-1.86h0Z" fill="#ead9cf"/>
              </g>
              <path d="M55.86,13.56c4.01,3.34,5.54,8.6,4.47,13.56-.29,1.32-.76,2.62-1.41,3.85-.15.28-.3.55-.47.82h0c.3.35.59.73.86,1.12h0c.13.06.36.21.55.48.25.36.27.74.27.88,0,0,0,0,0,.01.41.96,1.3,3.08,1.26,5.82-.04,2.03-.57,3.37-.82,3.75,0,0-.45.7-.45.7h0c-.39.64-1.14,1.67-2.54,2.63-2.33.86-5.26.61-7.48-.42-.59-.27-2.48-1.12-3.73-2.9-.3-.43-.56-.91-.76-1.45-.22-.62-.31-1.17-.35-1.55-.24-.12-.49-.25-.76-.39-1.23-.63-2.79-1.49-4.55-2.59-.18-.11-.36-.23-.55-.35-.96-.61-1.96-1.26-2.27-1.53-1.29-1.08-2.33-2.36-3.1-3.76-2.74-4.96-2.19-11.5,1.84-16.33,1.3-1.55,2.83-2.78,4.49-3.68,3.37-1.82,7.28-2.25,10.82-1.2,1.68.5,3.27,1.34,4.68,2.52h0Z" fill="#ef9475"/>
            </g>
            <path d="M62.56,34.89c2.77,2.31,4.14,5.33,3.33,7.11-1.37-.9-2.8-1.39-4.17-1.64,0,.95-.1,1.86-.35,2.7-.32,1.09-.87,2.05-1.66,2.81-.61.58-1.35,1.01-2.16,1.31.77-.49,1.33-1.04,1.74-1.54,3.15-3.84.92-11.13.82-11.36,0,0,0,0,0-.01-.23-.46-.48-.91-.78-1.33,1.07.42,2.18,1.08,3.22,1.95h0Z" fill="#b46048"/>
            <path d="M59.34,32.94c.29.42.55.87.78,1.33-.25-.47-.52-.92-.82-1.35.01,0,.03.01.04.02h0Z" fill="#b46048"/>
          </g>
          <path d="M57.77,14.2c2.94,2.41,7.57,8.07,5.85,13.58-1.04,3.34-3.89,5.24-5.4,6.07.16-.65.37-1.86.05-3.28-.15-.69-.57-2.56-2.27-3.74-.27-.19-2.06-1.46-3.26-.85-1.23.62-1.69,3.12-.55,6.03-5.74-5.83-12.37-7.89-16.12-5.55-.76.47-1.78,1.36-2.56,3.14-.1.34-.04,1.38.06,1.68.13.38.28.7.43.98-.14-.05-.3-.12-.46-.21-.63-.35-.97-.88-1.14-1.2,0,0-.53-.75-.92-1.79-1.95-5.22,1.27-12.69,7.1-16.38.46-.29.93-.55,1.41-.79,3.57-1.77,7.59-2.03,11.6-.95,0,0,3.38.97,6.16,3.26h0Z" fill="#5b3d3b"/>
          <circle cx="45.26" cy="7.11" r="7.11" fill="#5b3d3b"/>
        </g>
        <ellipse cx="44.05" cy="38.18" rx=".62" ry="1.76" transform="translate(-13.49 47.53) rotate(-50.15)" fill="#422f2b"/>
        <rect x="38.71" y="34.77" width="3.48" height="1.75" transform="translate(-13.14 41.5) rotate(-47.62)" fill="#50373b"/>
        <ellipse cx="45.93" cy="41.76" rx="2.95" ry="1.9" transform="translate(-15.56 50.27) rotate(-50.15)" fill="#ef9475"/>
      </g>
      <path d="M51.31,43.37c.17.2.64.8.69,1.71.06,1.09-.52,1.84-.66,2.01-.47.33-.74.34-.9.27-.24-.1-.2-.33-.51-.53-.36-.23-.66-.08-.82-.29-.13-.17-.06-.41-.03-.53.24-.9,1.95-2.39,2.23-2.63h0Z" fill="#e46761"/>
      <path d="M50.17,46.82c.6-.5.98-1.2,1.12-1.96.03-.19-.27-.23-.3-.04-.12.68-.47,1.31-1,1.76-.15.13.04.37.19.24h0Z" fill="#754048"/>
      <g>
        <path d="M54.34,30.78l1.31-.34c.32-.08.57-.34.52-.7-.04-.3-.37-.6-.7-.52l-1.31.34c-.32.08-.57.34-.52.7.04.3.37.6.7.52h0Z" fill="#ce7857"/>
        <path d="M55.79,32.49c-1.06-1.17-2.42-2.94-1.24-4.5.48-.63-.5-1.37-.97-.74-1.54,2.03-.22,4.37,1.25,5.99.53.58,1.5-.17.96-.75h0Z" fill="#ce7857"/>
      </g>
    </g>
  </g>
  <path d="M108.81,80.58l-29.01-.74.37-14.5c1.64,1.2,4.13,2.86,7.4,4.44,2.27,1.1,3.43,1.65,4.93,1.87,4.54.67,8.31-1.69,9.71-2.57,2.75-1.72,4.71-4.04,5.01-4.41.49-.59,1.56-1.95,3.27-3.83.46-.51.85-.92,1.11-1.19-.93,6.98-1.87,13.95-2.8,20.93Z" fill="#98afc1"/>
  <g>
    <path d="M12.61,67.54c-.5-.39-1.37-.28-2.04-.51-1.24-.29-2.49-1.25-3.81-.9-2.25.7-2.35,4.68-1.17,6.24.91,1.39,2.89,2.24,4.59,1.66.85-.27,1.56-.85,2.4-1.16,1.2-.39,1.27-.61.88-1.71-.26-.81-.41-1.62-.49-2.47-.04-.38-.04-.85-.35-1.13h-.01Z" fill="#f09077"/>
    <path d="M48.99,58.21c-2.35.26-4.81,1.2-6.96,1.79-4.21,1.23-8.64,2.73-13,3.74-1.65.38-3.56.76-5.24,1.07-1.94.36-3.95.69-5.89,1.07-2.05.43-3.94.81-5.53,1.82-1.2.75-2.03,2.2-1.01,3.25.97,1.04,3.05,1.22,4.68,1.15,4.22-.22,8.31-1.01,12.49-1.67,4.96-.81,10.21-1.81,14.94-3.02,3.27-.89,8.27-1.74,10.55-3.8,1.02-.95,1.27-2.27.55-3.5-.98-1.57-3.32-2.12-5.53-1.9h-.06s0,0,0,0Z" fill="#f09077"/>
    <g>
      <path d="M70.5,50.73c-1.81-.45-3.8.73-5.85,1.59-1.91.81-3.8,1.48-5.77,2.11-1.35.43-2.79.86-4.2,1.3-2.73.96-5.63,1.69-7.21,4.28-.98,1.79-.25,3.88,1.24,4.63,1.28.64,2.81.38,4.31.02,2.79-.71,5.9-1.81,8.72-2.82,3.43-1.25,7.03-2.59,10.01-4.4,3.69-1.97,1.69-6.03-1.22-6.7h-.04s0,0,0,0Z" fill="#f09077"/>
      <path d="M81.88,55.53c-.43.18-.85.36-1.28.54-2.59,1.09-5.18,2.19-7.77,3.29-.56.24-1.12.48-1.68.71-.25-.53-.5-1.06-.75-1.6-1.41-2.99-2.81-5.98-4.21-8.97,3.29-1.51,6.58-3.03,9.86-4.54,3.06-1.69,6.84-.69,8.45,2.23,1.61,2.92.44,6.65-2.62,8.33h0Z" fill="#ead9cf" stroke="#c9b9b1" stroke-miterlimit="10" stroke-width=".39"/>
      <path d="M68.97,48.16c1.48,3.79,2.96,7.59,4.44,11.38.14.35.67.13.54-.22-1.48-3.79-2.96-7.59-4.44-11.38-.14-.35-.67-.13-.54.22h0Z" fill="#c9b9b1"/>
    </g>
  </g>
  <path d="M132.38,81.94c.35,1.12.53,2.26.55,3.38.09,5.2-3.22,10.05-8.43,11.68-6.34,1.98-13.08-1.55-15.06-7.88-1.98-6.34,1.55-13.08,7.88-15.06,6.34-1.98,13.08,1.55,15.06,7.88Z" fill="#98afc1"/>
  <circle cx="115.73" cy="79.69" r="16.45" fill="#98afc1"/>
  <path d="M129.91,72.3c2.01,3.13,2.68,5.92,2.94,7.49.78,4.66-.05,10.58-1.85,10.9-.27.05-.52-.04-.68-.12-1.94-1.38-3.31-3.79-5.43-6.51-1.12-1.53-2.32-3.12-3.41-4.64-.62-.88-1.3-1.84-1.67-2.79-1-2.43,2.22-3.13,3.37-3.78.49-.4,1.67-1.26,3.4-1.35,1.55-.08,2.76.49,3.33.81Z" fill="#98afc1"/>
  <g>
    <g>
      <g>
        <ellipse cx="98.64" cy="89.14" rx="2.53" ry="4.05" transform="translate(-8.68 10.67) rotate(-5.93)" fill="#e6926d"/>
        <path d="M107.35,83.32c.02.26.05.52.08.79-.88-.05-1.75-.09-2.63-.14-.04-.05-.08-.09-.13-.12.9-.18,1.79-.35,2.69-.53Z" fill="#98afc1"/>
        <path d="M107.43,84.11c.29,2.92.57,5.85.85,8.77-1.43.05-2.86.09-4.29.13-.63.02-1.26.04-1.89.06-.71.02-1.42.04-2.13.07-.3,0-.61.02-.92.03h0s-.01-.13-.01-.13l-.73-7.04-.09-.89s0,0,.01,0c.05,0,.1-.02.15-.03.42-.08.83-.16,1.25-.24.46-.09.93-.18,1.39-.27.79-.15,1.58-.31,2.37-.46.28-.05.55-.11.83-.16.15-.03.29-.06.44-.09.05.03.09.07.13.12.88.05,1.75.09,2.63.14Z" fill="#e6926d"/>
      </g>
      <path d="M97.52,84.05c-2.67-1.84-6.42,0-7.9.74-2.74,1.35-5.97,4.08-5.39,5.84.6,1.79,4.99,2.07,5.57,2.11,1.77.11,1.96-.29,3.73-.01.91.14,2,.42,3.78.55,1.11.08,1.33.01,1.52-.09,1.49-.78,1.12-3.98,1.07-4.36-.29-2.28-1.57-3.91-2.39-4.76Z" fill="#e6926d"/>
      <path d="M87.4,92.47c-.58,1.42-4.71,1.04-6.44.87-2.26-.22-3.42-.35-4.37-1.34-1.1-1.14-1.63-3.16-.87-4.34.22-.34.5-.53,1.12-.86,2.63-1.42,4.82-1.96,7.72-3.12.39-.16,1.22-.06,1.5.09.58.31,1.26.39,1.76.28.9-.18,1.66-1.04,1.93-2.17.03-.11.27-.41.38-.46l7.16-2.9s1.4-.96,1.9,2.45c.33,2.22.84,3.27.3,4.11-.41.64-1.03.86-2.21,1.28-1.62.58-3.12.62-4.17.55-2.09-.13-2.16-.7-3.49-.55-1.45.17-3.3,1.07-3.59,2.41-.35,1.6,1.78,2.63,1.35,3.67h0Z" fill="#815f5e"/>
    </g>
    <g>
      <ellipse cx="121.05" cy="91.26" rx="6.4" ry="4.13" transform="translate(26.17 209.49) rotate(-88.26)" fill="#98afc1"/>
      <path d="M121.32,84.86l-.54,12.79h0s0,0-.01,0c-.29-.07-.59-.14-.88-.21-5.33-1.24-10.65-2.48-15.98-3.72-.6-.14-1.2-.28-1.8-.42,0-.08,0-.16,0-.24,0-.8.04-1.63.11-2.5.2-2.41.64-4.58,1.18-6.48.02-.07.04-.14.06-.21.26.01.52.03.77.04.19.01.38.02.57.03.88.05,1.75.09,2.63.14,4.63.25,9.26.5,13.89.75Z" fill="#98afc1"/>
    </g>
    <path d="M105.02,84.71l-1.02,8.3-.09.72-.03.28c-.06.47-.42.81-.8.76l-2.55-.38c-.38-.06-.64-.48-.58-.96l.04-.3.05-.41.69-5.6.32-2.57.05-.42c.06-.47.41-.81.8-.76l2.55.37c.09.01.17.04.24.09.05.03.09.07.13.12.16.18.25.46.21.75Z" fill="#b8c2cb"/>
  </g>
  <path d="M117.04,77.25c-.39,1.35-.8,3.34-.71,5.77.1,2.74.8,4.92,1.36,6.29" fill="none" isolation="isolate" stroke="#93aabc" stroke-linecap="round" stroke-linejoin="round" stroke-width=".81"/>
  <path d="M103.06,82.81c-1.52-1.13-2.25-2.34-2.62-3.28-.69-1.71-.8-3.93-.82-3.92,0,0,.01.11.02.21" fill="none" isolation="isolate" stroke="#93aabc" stroke-linecap="round" stroke-linejoin="round" stroke-width=".9"/>
  <path d="M105.7,84.6c1.87,1.04,8.59,5.23,8.5,5.14" fill="none" isolation="isolate" stroke="#93aabc" stroke-linecap="round" stroke-linejoin="round" stroke-width="1.05"/>
  <path d="M104.46,80.41c-.29-1.32-1.02-5.56,1.34-9.59,3.06-5.22,9.84-7.52,15.65-5.84,5.07,1.47,8.92,5.83,9.99,11.22" fill="none" isolation="isolate" stroke="#93aabc" stroke-linecap="round" stroke-linejoin="round" stroke-width="1.05"/>
  <path d="M109.73,87.04c-.83-.42-3-1.65-4.41-4.28-1.1-2.05-1.2-3.97-1.19-4.92" fill="none" isolation="isolate" stroke="#93aabc" stroke-linecap="round" stroke-linejoin="round" stroke-width="1.05"/>
</svg>