<?xml version="1.0" encoding="UTF-8"?>
<svg id="_Слой_1" data-name="Слой 1" xmlns="http://www.w3.org/2000/svg" viewBox="0 0 133.15 111.49">
  <g>
    <g>
      <g>
        <ellipse cx="13.31" cy="100.01" rx="3.93" ry="4.89" transform="translate(-12.25 2.41) rotate(-7.09)" fill="#e6926d"/>
        <path d="M13.91,104.82l-1.21-9.71c4.73-.93,9.46-1.86,14.19-2.78.44,3.84.89,7.68,1.33,11.53-4.77.32-9.55.65-14.32.97Z" fill="#e6926d"/>
      </g>
      <g>
        <g>
          <ellipse cx="73.13" cy="91.74" rx="11.5" ry="12.41" transform="translate(-10.77 9.73) rotate(-7.09)" fill="#98afc1"/>
          <path d="M22.24,107.69c-.73-5.78-1.45-11.57-2.18-17.35,17.17-3.65,34.35-7.31,51.52-10.96l3.07,24.63c-17.47,1.23-34.94,2.46-52.41,3.68h0Z" fill="#99b0c2"/>
        </g>
        <rect x="20.86" y="88.87" width="8.46" height="19.07" rx="1.48" ry="1.48" transform="translate(-11.96 3.85) rotate(-7.09)" fill="#b8c2cb"/>
      </g>
    </g>
    <g>
      <ellipse cx="73.18" cy="91.42" rx="12.41" ry="10.92" transform="translate(-22.58 158.82) rotate(-86.46)" fill="#98afc1"/>
      <path d="M72.05,103.77c.63-8.25,1.26-16.49,1.88-24.74,17.11.43,34.21.86,51.32,1.29-4.4,9.25-8.81,18.51-13.22,27.77-13.33-1.44-26.65-2.87-39.98-4.31Z" fill="#98afc1"/>
      <path d="M127.95,83.44c5.2,8.15-.48,23.38-8.48,24.5-5.93.83-14-5.97-14.27-14.38-.27-8.36,7.25-15.8,14.23-15.37,5.27.33,8.37,5.03,8.52,5.26h0Z" fill="#98afc1"/>
    </g>
  </g>
  <g>
    <path d="M5.05,104.28c-2.57-1.79-2.17-5.79-2-7.38.29-2.85,1.68-6.79,3.44-6.83,1.14-.03,2.07,1.57,3.8,4.52.54.92,1.27,2.19,1.8,3.91.24.78.25,1.07.61,2.15.54,1.63.8,1.86.69,2.34-.3,1.23-2.51,1.66-3.23,1.82-.91.2-3.27.73-5.1-.54Z" fill="#e6926d"/>
    <path d="M9.23,92.3c1.09-1.01-.65-4.6-1.39-6.1-.96-1.96-1.47-2.97-2.68-3.49-1.4-.6-3.4-.41-4.2.68-.23.32-.31.63-.4,1.3-.39,2.86-.14,5.01-.2,8.02,0,.41.36,1.12.59,1.32.47.42.78,1,.85,1.49.14.87-.38,1.85-1.31,2.48-.09.06-.28.39-.28.5-.06,2.48-.13,4.96-.19,7.44,0,0-.39,1.58,2.85.89,2.12-.45,3.23-.35,3.8-1.12.44-.59.43-1.22.41-2.43-.03-1.65-.49-3.03-.91-3.95-.83-1.84-1.36-1.72-1.67-2.96-.34-1.36-.15-3.34.96-4.06,1.33-.86,2.97.72,3.77-.02h0Z" fill="#815f5e"/>
  </g>
  <g>
    <path d="M24.45,76.51c-.49-.39-1.37-.3-2.04-.54-1.23-.3-2.48-1.29-3.79-.95-2.26.67-2.41,4.64-1.25,6.22.89,1.41,2.86,2.28,4.57,1.72.85-.26,1.57-.83,2.41-1.13,1.2-.37,1.28-.59.9-1.7-.25-.82-.39-1.62-.45-2.47-.03-.38-.03-.85-.33-1.14h-.01Z" fill="#d68069"/>
    <path d="M61.91,71.17c-2.36.07-4.88.75-7.07,1.13-4.28.82-8.8,1.88-13.22,2.5-1.67.23-3.6.44-5.3.6-1.96.19-3.99.34-5.94.55-2.07.24-3.98.45-5.65,1.27-1.25.61-2.18,1.88-1.24,2.93.89,1.03,2.95,1.35,4.58,1.41,4.22.11,8.36-.32,12.58-.62,5-.38,10.31-.92,15.11-1.68,3.33-.58,8.37-.99,10.79-2.73,1.08-.8,1.42-2,.8-3.19-.87-1.52-3.16-2.2-5.38-2.17h-.06s0,0,0,0Z" fill="#d68069"/>
    <g>
      <path d="M75.58,53.49c-1.75.65-2.74,2.74-3.96,4.6-1.12,1.74-2.32,3.36-3.59,4.98-.88,1.11-1.83,2.27-2.74,3.43-1.72,2.32-3.71,4.56-3.57,7.58.19,2.03,1.97,3.35,3.62,3.14,1.42-.19,2.53-1.26,3.58-2.4,1.91-2.16,3.87-4.81,5.64-7.22,2.14-2.96,4.37-6.09,5.82-9.26,1.95-3.7-1.98-5.94-4.76-4.86h-.04s0,.01,0,.01Z" fill="#d68069"/>
      <path d="M87.7,51.08c-.25.39-.5.78-.76,1.16-1.53,2.36-3.06,4.72-4.59,7.08-.33.51-.66,1.02-.99,1.53-.51-.3-1.01-.6-1.52-.9-2.84-1.69-5.68-3.37-8.52-5.06,1.87-3.1,3.75-6.19,5.62-9.29,1.58-3.11,5.27-4.41,8.24-2.89,2.97,1.51,4.09,5.26,2.51,8.37h0Z" fill="#ead9cf" stroke="#c9b9b1" stroke-miterlimit="10" stroke-width=".39"/>
      <path d="M72.88,52.22c3.35,2.31,6.71,4.62,10.06,6.93.31.21.63-.27.32-.48-3.35-2.31-6.71-4.62-10.06-6.93-.31-.21-.63.27-.32.48h0Z" fill="#c9b9b1"/>
    </g>
  </g>
  <g>
    <ellipse cx="115.9" cy="92.77" rx="15.96" ry="17.15" transform="translate(-30.95 114.57) rotate(-47.12)" fill="#98afc1"/>
    <path d="M111.28,73.06l-15.32,16.5c-.1.11-.1.28.01.39,5.13,5.26,10.25,10.52,15.38,15.78.03.04.07.06.11.07,0,0,.13.04.3-.06.32-.19,17.07-22.1,11.09-27.29-1.8-1.56-4.79-.87-9.96-4.24-.72-.47-1.28-.88-1.61-1.14h0Z" fill="#98afc1"/>
  </g>
  <g>
    <g>
      <g>
        <g>
          <g>
            <g>
              <path d="M83.57,39.39c-3.12,4.71-6.24,9.42-9.36,14.14,0-.31-.03-.73-.09-1.23,0,0,0,0,0,0-.19-1.48-.72-3.64-2.3-5.67-.19-.24-.38-.46-.57-.68,1.21-1.53.61-4.79-1.52-7.7-.8-1.1-1.72-2.01-2.66-2.67.18.48.32.98.43,1.48-.13-.51-.28-1.02-.47-1.51h0c-.16-.44-.35-.87-.56-1.29h0c.23-.23.45-.45.66-.69.93-1.04,1.7-2.19,2.3-3.4.62.8,1.36,1.65,2.23,2.51,1.03,1.01,2.23,2.04,3.65,3,1.15.78,2.29,1.42,3.36,1.93,1.88.91,3.59,1.44,4.9,1.77h0Z" fill="#ef9475"/>
              <path d="M79.12,36.87c.05.02.15.04.27.08h0s.72.2,1.46.45c8.85,3.05,12.95,6.92,12.95,6.92,1.63,1.93,2.93,3.54,3.81,4.65,0,0,6.19,7.78,13.44,23.25.15.32.49,1.06.3,1.91-.21.98-1.01,1.63-1.64,2.02-5.41,3.96-10.82,7.91-16.23,11.87-.77.56-1.84.39-2.4-.37-4.9-6.69-9.79-13.39-14.69-20.08-.73-1.1-1.3-2.18-1.75-3.24-1.23-7.63-1.19-17.08,3.51-25.77.31-.58.64-1.14.97-1.68h0Z" fill="#ead9cf"/>
            </g>
            <path d="M68.37,15.93c3.08,4.21,3.3,9.68,1.06,14.24-.59,1.21-1.36,2.36-2.3,3.4-.21.23-.43.46-.65.69h0c.21.42.4.85.56,1.29h0c.11.09.3.29.41.59.16.41.09.78.05.92,0,0,0,0,0,.01.17,1.03.52,3.3-.19,5.95-.53,1.96-1.36,3.13-1.7,3.44,0,0-.61.57-.61.57h0c-.53.53-1.51,1.35-3.1,1.94-2.47.28-5.25-.67-7.15-2.22-.5-.41-2.14-1.69-2.92-3.72-.19-.49-.32-1.02-.38-1.59-.07-.66-.02-1.21.04-1.59-.2-.17-.42-.36-.64-.56-1.04-.91-2.35-2.12-3.79-3.61-.15-.15-.3-.31-.45-.47-.78-.83-1.59-1.7-1.84-2.03-.99-1.36-1.69-2.85-2.1-4.4-1.46-5.48.65-11.68,5.73-15.4,1.63-1.19,3.41-2.02,5.24-2.48,3.71-.95,7.61-.43,10.79,1.45,1.51.89,2.85,2.09,3.94,3.57h0Z" fill="#ef9475"/>
          </g>
          <path d="M69.72,38.25c2.13,2.91,2.73,6.17,1.52,7.7-1.11-1.2-2.38-2.03-3.65-2.59-.22.92-.55,1.78-.99,2.53-.57.98-1.34,1.78-2.29,2.32-.73.41-1.55.66-2.41.75.87-.29,1.54-.68,2.06-1.07,3.99-2.97,3.58-10.58,3.54-10.82,0,0,0,0,0-.01-.11-.5-.25-1-.43-1.48.93.66,1.85,1.57,2.66,2.67h0Z" fill="#b46048"/>
          <path d="M67.07,35.58c.18.48.32.98.43,1.48-.13-.51-.28-1.02-.47-1.51.01,0,.02.02.03.03h0Z" fill="#b46048"/>
        </g>
        <path d="M70.07,17.01c2.27,3.05,5.4,9.66,2.4,14.59-1.82,2.99-5.04,4.14-6.71,4.59.31-.59.8-1.71.84-3.18.02-.7.07-2.62-1.29-4.18-.22-.25-1.64-1.91-2.96-1.62-1.34.31-2.39,2.62-1.98,5.72-4.16-7.04-10.1-10.64-14.3-9.28-.85.28-2.05.89-3.24,2.43-.18.3-.37,1.33-.34,1.65.04.4.1.75.18,1.05-.13-.08-.26-.18-.4-.31-.52-.5-.73-1.09-.82-1.44,0,0-.33-.86-.46-1.96-.63-5.54,4.3-12.01,10.84-14.18.52-.17,1.04-.31,1.56-.43,3.89-.85,7.86-.13,11.49,1.88,0,0,3.04,1.76,5.2,4.65h0Z" fill="#5b3d3b"/>
        <circle cx="59.64" cy="7.11" r="7.11" fill="#5b3d3b"/>
      </g>
      <ellipse cx="50.96" cy="36.97" rx=".62" ry="1.76" transform="translate(-11.99 37.21) rotate(-36.18)" fill="#422f2b"/>
      <rect x="46.35" y="32.76" width="3.48" height="1.75" transform="translate(-10.58 32.28) rotate(-33.65)" fill="#50373b"/>
      <ellipse cx="51.93" cy="40.9" rx="2.95" ry="1.9" transform="translate(-14.13 38.54) rotate(-36.18)" fill="#ef9475"/>
    </g>
    <path d="M56.76,43.76c.11.23.43.93.26,1.82-.2,1.07-.95,1.66-1.13,1.79-.53.21-.8.15-.94.04-.21-.16-.12-.37-.36-.64-.29-.31-.62-.23-.72-.48-.08-.19.04-.42.1-.53.45-.82,2.47-1.85,2.8-2.01h0Z" fill="#e46761"/>
    <path d="M54.81,46.83c.7-.34,1.24-.93,1.56-1.64.08-.18-.21-.29-.29-.11-.28.63-.77,1.16-1.4,1.47-.18.09-.05.37.12.28h0Z" fill="#754048"/>
    <g>
      <path d="M62.74,32.27l1.36-.02c.33,0,.63-.2.67-.55.03-.3-.22-.67-.55-.67l-1.36.02c-.33,0-.63.2-.67.55-.03.3.22.67.55.67h0Z" fill="#ce7857"/>
      <path d="M63.74,34.29c-.75-1.39-1.64-3.44-.12-4.66.61-.5-.15-1.45-.77-.96-1.99,1.6-1.27,4.19-.23,6.12.37.69,1.49.2,1.12-.5h0Z" fill="#ce7857"/>
    </g>
  </g>
  <path d="M107.75,91.08h-29.01s0-10.13,0-10.13c1.67.81,4.21,1.92,7.51,2.97,2.3.73,3.47,1.09,4.97,1.22,4.56.39,8.27-1.33,9.64-1.97,2.71-1.25,4.6-2.9,4.9-3.17.48-.42,1.51-1.39,3.18-2.73.45-.36.82-.66,1.08-.85-.76,4.89-1.51,9.77-2.27,14.66Z" fill="#98afc1"/>
  <g>
    <path d="M29.14,78.65c-.41-.47-1.3-.54-1.91-.89-1.16-.52-2.21-1.7-3.57-1.61-2.34.26-3.19,4.15-2.33,5.9.63,1.54,2.41,2.74,4.19,2.5.88-.1,1.69-.54,2.57-.69,1.25-.16,1.37-.36,1.19-1.51-.1-.85-.1-1.66-.01-2.51.04-.38.12-.84-.13-1.18h0Z" fill="#f09077"/>
    <path d="M65.71,71.91c-2.36.11-4.88.89-7.06,1.34-4.28.96-8.79,2.18-13.21,2.91-1.67.27-3.6.53-5.29.74-1.96.23-3.99.43-5.94.69-2.07.3-3.98.55-5.64,1.46-1.24.67-2.17,2.07-1.22,3.18.9,1.1,2.96,1.41,4.59,1.44,4.22.04,8.36-.48,12.57-.87,5-.49,10.31-1.16,15.1-2.06,3.32-.67,8.36-1.21,10.77-3.12,1.08-.88,1.41-2.19.78-3.45-.88-1.62-3.18-2.32-5.4-2.25h-.06s0,0,0,0Z" fill="#f09077"/>
    <g>
      <path d="M79.04,54.37c-1.74.68-2.68,2.79-3.87,4.67-1.09,1.76-2.25,3.4-3.5,5.05-.85,1.13-1.79,2.31-2.68,3.49-1.68,2.36-3.62,4.63-3.42,7.65.23,2.02,2.04,3.31,3.68,3.07,1.41-.21,2.51-1.31,3.53-2.47,1.87-2.19,3.78-4.88,5.5-7.33,2.08-3,4.25-6.17,5.64-9.37,1.88-3.74-2.09-5.9-4.86-4.77h-.03s0,.02,0,.02Z" fill="#f09077"/>
      <path d="M91.1,51.72c-.24.39-.49.79-.73,1.18-1.48,2.39-2.96,4.78-4.45,7.16-.32.52-.64,1.04-.96,1.55-.51-.29-1.02-.58-1.53-.87-2.87-1.63-5.74-3.26-8.61-4.9,1.81-3.13,3.63-6.26,5.44-9.4,1.52-3.14,5.19-4.51,8.19-3.05,3,1.45,4.19,5.18,2.67,8.32h0Z" fill="#ead9cf" stroke="#c9b9b1" stroke-miterlimit="10" stroke-width=".39"/>
      <path d="M76.31,53.14c3.4,2.25,6.8,4.49,10.19,6.74.31.21.63-.28.31-.49-3.4-2.25-6.8-4.49-10.19-6.74-.31-.21-.63.28-.31.49h0Z" fill="#c9b9b1"/>
    </g>
  </g>
  <path d="M132.38,95.77c.35,1.12.53,2.26.55,3.38.09,5.2-3.22,10.05-8.43,11.68-6.34,1.98-13.08-1.55-15.06-7.88-1.98-6.34,1.55-13.08,7.88-15.06s13.08,1.55,15.06,7.88Z" fill="#98afc1"/>
  <circle cx="115.73" cy="93.52" r="16.45" fill="#98afc1"/>
  <path d="M129.91,86.12c2.01,3.13,2.68,5.92,2.94,7.49.78,4.66-.05,10.58-1.85,10.9-.27.05-.52-.04-.68-.12-1.94-1.38-3.31-3.79-5.43-6.51-1.12-1.53-2.32-3.12-3.41-4.64-.62-.88-1.3-1.84-1.67-2.79-1-2.43,2.22-3.13,3.37-3.78.49-.4,1.67-1.26,3.4-1.35,1.55-.08,2.76.49,3.33.81Z" fill="#98afc1"/>
  <g>
    <g>
      <g>
        <ellipse cx="98.64" cy="102.96" rx="2.53" ry="4.05" transform="translate(-10.11 10.75) rotate(-5.93)" fill="#e6926d"/>
        <path d="M107.35,97.15c.02.26.05.52.08.79-.88-.05-1.75-.09-2.63-.14-.04-.05-.08-.09-.13-.12.9-.18,1.79-.35,2.69-.53Z" fill="#98afc1"/>
        <path d="M107.43,97.94c.29,2.92.57,5.85.85,8.77-1.43.05-2.86.09-4.29.13-.63.02-1.26.04-1.89.06-.71.02-1.42.04-2.13.07-.3,0-.61.02-.92.03h0s-.01-.13-.01-.13l-.73-7.04-.09-.89s0,0,.01,0c.05,0,.1-.02.15-.03.42-.08.83-.16,1.25-.24.46-.09.93-.18,1.39-.27.79-.15,1.58-.31,2.37-.46.28-.05.55-.11.83-.16.15-.03.29-.06.44-.09.05.03.09.07.13.12.88.05,1.75.09,2.63.14Z" fill="#e6926d"/>
      </g>
      <path d="M97.52,97.87c-2.67-1.84-6.42,0-7.9.74-2.74,1.35-5.97,4.08-5.39,5.84.6,1.79,4.99,2.07,5.57,2.11,1.77.11,1.96-.29,3.73-.01.91.14,2,.42,3.78.55,1.11.08,1.33.01,1.52-.09,1.49-.78,1.12-3.98,1.07-4.36-.29-2.28-1.57-3.91-2.39-4.76Z" fill="#e6926d"/>
      <path d="M87.4,106.3c-.58,1.42-4.71,1.04-6.44.87-2.26-.22-3.42-.35-4.37-1.34-1.1-1.14-1.63-3.16-.87-4.34.22-.34.5-.53,1.12-.86,2.63-1.42,4.82-1.96,7.72-3.12.39-.16,1.22-.06,1.5.09.58.31,1.26.39,1.76.28.9-.18,1.66-1.04,1.93-2.17.03-.11.27-.41.38-.46l7.16-2.9s1.4-.96,1.9,2.45c.33,2.22.84,3.27.3,4.11-.41.64-1.03.86-2.21,1.28-1.62.58-3.12.62-4.17.55-2.09-.13-2.16-.7-3.49-.55-1.45.17-3.3,1.07-3.59,2.41-.35,1.6,1.78,2.63,1.35,3.67h0Z" fill="#815f5e"/>
    </g>
    <g>
      <ellipse cx="121.05" cy="105.08" rx="6.4" ry="4.13" transform="translate(12.35 222.9) rotate(-88.26)" fill="#98afc1"/>
      <path d="M121.32,98.69l-.54,12.79h0s0,0-.01,0c-.29-.07-.59-.14-.88-.21-5.33-1.24-10.65-2.48-15.98-3.72-.6-.14-1.2-.28-1.8-.42,0-.08,0-.16,0-.24,0-.8.04-1.63.11-2.5.2-2.41.64-4.58,1.18-6.48.02-.07.04-.14.06-.21.26.01.52.03.77.04.19.01.38.02.57.03.88.05,1.75.09,2.63.14,4.63.25,9.26.5,13.89.75Z" fill="#98afc1"/>
    </g>
    <path d="M105.02,98.54l-1.02,8.3-.09.72-.03.28c-.06.47-.42.81-.8.76l-2.55-.38c-.38-.06-.64-.48-.58-.96l.04-.3.05-.41.69-5.6.32-2.57.05-.42c.06-.47.41-.81.8-.76l2.55.37c.09.01.17.04.24.09.05.03.09.07.13.12.16.18.25.46.21.75Z" fill="#b8c2cb"/>
  </g>
  <path d="M117.04,91.08c-.39,1.35-.8,3.34-.71,5.77.1,2.74.8,4.92,1.36,6.29" fill="none" isolation="isolate" stroke="#93aabc" stroke-linecap="round" stroke-linejoin="round" stroke-width=".81"/>
  <path d="M103.06,96.64c-1.52-1.13-2.25-2.34-2.62-3.28-.69-1.71-.8-3.93-.82-3.92,0,0,.01.11.02.21" fill="none" isolation="isolate" stroke="#93aabc" stroke-linecap="round" stroke-linejoin="round" stroke-width=".9"/>
  <path d="M105.7,98.43c1.87,1.04,8.59,5.23,8.5,5.14" fill="none" isolation="isolate" stroke="#93aabc" stroke-linecap="round" stroke-linejoin="round" stroke-width="1.05"/>
  <path d="M104.46,94.24c-.29-1.32-1.02-5.56,1.34-9.59,3.06-5.22,9.84-7.52,15.65-5.84,5.07,1.47,8.92,5.83,9.99,11.22" fill="none" isolation="isolate" stroke="#93aabc" stroke-linecap="round" stroke-linejoin="round" stroke-width="1.05"/>
  <path d="M109.73,100.87c-.83-.42-3-1.65-4.41-4.28-1.1-2.05-1.2-3.97-1.19-4.92" fill="none" isolation="isolate" stroke="#93aabc" stroke-linecap="round" stroke-linejoin="round" stroke-width="1.05"/>
</svg>