<?xml version="1.0" encoding="UTF-8"?>
<svg id="_Слой_1" data-name="Слой 1" xmlns="http://www.w3.org/2000/svg" viewBox="0 0 145.4 130.65">
  <ellipse cx="122.9" cy="110.6" rx="14.62" ry="15.93" transform="translate(9.16 230.61) rotate(-88.52)" fill="#98afc1"/>
  <g>
    <g>
      <ellipse cx="17.79" cy="115.21" rx="3.9" ry="4.85" transform="translate(-7.61 1.43) rotate(-3.8)" fill="#e6926d"/>
      <path d="M18.09,120.01l-.64-9.67c4.73-.65,9.46-1.3,14.19-1.95.22,3.82.44,7.65.66,11.47-4.74.05-9.47.1-14.21.14Z" fill="#e6926d"/>
    </g>
    <g>
      <g>
        <ellipse cx="77.39" cy="110.44" rx="11.39" ry="12.29" transform="translate(-7.16 5.38) rotate(-3.8)" fill="#98afc1"/>
        <path d="M26.18,123.31c-.39-5.76-.78-11.52-1.17-17.28,17.19-2.64,34.37-5.27,51.56-7.91l1.63,24.52c-17.34.22-34.68.44-52.02.66h0Z" fill="#99b0c2"/>
      </g>
      <rect x="25.33" y="104.86" width="8.38" height="18.88" transform="translate(-7.52 2.21) rotate(-3.8)" fill="#b8c2cb"/>
    </g>
  </g>
  <g>
    <ellipse cx="77.53" cy="110.51" rx="10.81" ry="12.29" transform="translate(-1.97 1.41) rotate(-1.03)" fill="#98afc1"/>
    <path d="M77.39,122.78c-.03-8.19-.06-16.38-.09-24.57,16.92-.92,33.84-1.85,50.76-2.77-3.62,9.48-7.24,18.97-10.86,28.45-13.27-.37-26.54-.74-39.81-1.11Z" fill="#98afc1"/>
    <ellipse cx="124.14" cy="109.12" rx="14.85" ry="16.34" transform="translate(-7.41 9.06) rotate(-4.06)" fill="#98afc1"/>
  </g>
  <path d="M134.07,89.41l-23.08.63c-.15,0-.27.13-.28.28-.18,7.27-.36,14.55-.54,21.82,0,.16.13.3.29.29,9.25-.27,18.51-.55,27.76-.82.18,0,.3-.17.27-.34-1.38-7.21-2.76-14.42-4.14-21.62-.03-.14-.15-.23-.29-.23h0Z" fill="#98afc1"/>
  <g>
    <g>
      <g>
        <g>
          <g>
            <g>
              <path d="M131.17,46.8c-5.19,2.09-10.38,4.17-15.58,6.26.17-.26.39-.61.62-1.06h0c.68-1.31,1.46-3.38,1.31-5.91-.02-.3-.05-.59-.09-.88,1.85-.56,3.2-3.56,3.1-7.13-.04-1.35-.27-2.61-.66-3.67-.12.5-.29.98-.48,1.45.18-.49.34-.99.47-1.49h0c.12-.45.2-.91.27-1.37h0c.31-.06.62-.12.92-.19,1.35-.33,2.62-.83,3.79-1.48.06,1,.18,2.11.4,3.3.26,1.4.67,2.92,1.28,4.5.5,1.29,1.07,2.44,1.65,3.47,1.02,1.8,2.11,3.2,3,4.2h0Z" fill="#ef9475"/>
              <path d="M128.97,42.24s.1.12.18.21h0s.48.57.93,1.19c5.49,7.47,6.66,12.92,6.66,12.92.24,2.49.39,4.53.49,5.93,0,0,.67,9.82-2.13,26.5-.06.35-.2,1.14-.83,1.73-.72.67-1.74.76-2.48.73-6.63.18-13.27.36-19.9.54-.94.02-1.72-.72-1.75-1.66-.22-8.21-.45-16.42-.67-24.63.02-1.3.17-2.51.4-3.63,3.29-6.91,8.64-14.59,17.36-19.02.58-.29,1.16-.57,1.74-.82h0Z" fill="#ead9cf"/>
            </g>
            <path d="M131.99,19.14c.14,5.16-2.76,9.74-7.15,12.2-1.17.65-2.44,1.15-3.79,1.48-.3.07-.61.14-.92.19h0c-.06.46-.15.91-.27,1.37h0c.03.14.08.4,0,.72-.1.43-.37.68-.47.77,0,0,0,0,0,.01-.44.93-1.43,2.98-3.5,4.74-1.53,1.3-2.87,1.78-3.32,1.85-.01,0-.82.12-.82.12h0c-.73.13-1.99.25-3.62-.17-2.17-1.17-3.9-3.5-4.58-5.83-.18-.62-.79-2.58-.29-4.67.12-.5.31-1.01.58-1.51.31-.57.66-1,.92-1.27-.07-.25-.14-.53-.21-.82-.34-1.33-.72-3.05-1.06-5.07-.04-.21-.07-.42-.1-.63-.17-1.11-.34-2.28-.35-2.69-.05-1.67.23-3.27.76-4.77,1.89-5.28,7.1-9.15,13.34-9.32,2-.05,3.92.28,5.67.93,3.56,1.32,6.44,3.94,7.97,7.25.73,1.57,1.15,3.3,1.2,5.13h0Z" fill="#ef9475"/>
          </g>
          <path d="M120.54,38.09c.1,3.57-1.25,6.56-3.1,7.13-.23-1.61-.8-2.99-1.51-4.17-.7.63-1.45,1.14-2.23,1.51-1.02.47-2.09.7-3.17.6-.83-.07-1.64-.34-2.39-.74.87.25,1.64.31,2.29.29,4.92-.18,8.87-6.61,8.97-6.83,0,0,0,0,0-.01.2-.47.36-.95.48-1.45.39,1.07.62,2.32.66,3.67h0Z" fill="#b46048"/>
          <path d="M119.88,34.41c-.12.5-.29.98-.48,1.45.18-.49.34-.99.47-1.49,0,.01,0,.03.01.04Z" fill="#b46048"/>
        </g>
        <path d="M132.77,20.98c.13,3.76-1.04,10.91-6.26,13.24-3.17,1.41-6.44.54-8.05-.04.59-.31,1.62-.94,2.47-2.12.41-.56,1.53-2.1,1.3-4.13-.04-.32-.26-2.49-1.5-2.98-1.26-.5-3.42.79-4.83,3.54.57-8.08-2.25-14.36-6.43-15.61-.85-.25-2.17-.43-4.01.16-.32.15-1.05.87-1.21,1.15-.19.34-.34.67-.45.96-.06-.14-.11-.3-.15-.48-.15-.7.02-1.3.14-1.63,0,0,.21-.89.73-1.85,2.6-4.87,10.26-7.37,16.81-5.45.52.15,1.02.33,1.51.53,3.65,1.5,6.48,4.31,8.31,7.99,0,0,1.49,3.14,1.61,6.71h0Z" fill="#5b3d3b"/>
        <circle cx="129.85" cy="7.04" r="7.04" fill="#5b3d3b"/>
      </g>
      <ellipse cx="106.03" cy="26.43" rx=".61" ry="1.74" transform="translate(-.68 2.88) rotate(-1.55)" fill="#422f2b"/>
      <rect x="104.62" y="20.39" width="1.73" height="3.44" transform="translate(81.57 127.2) rotate(-89.02)" fill="#50373b"/>
      <ellipse cx="104.61" cy="30.19" rx="2.92" ry="1.88" transform="translate(-.78 2.84) rotate(-1.55)" fill="#ef9475"/>
    </g>
    <path d="M106.88,35.28c-.04.25-.18,1-.82,1.63-.77.76-1.71.82-1.93.83-.55-.13-.73-.33-.79-.49-.08-.24.12-.37.06-.72-.06-.41-.37-.54-.32-.8.04-.2.27-.32.38-.37.83-.42,3.05-.12,3.41-.07h0Z" fill="#e46761"/>
    <path d="M103.55,36.69c.77.11,1.53-.05,2.19-.46.17-.1,0-.35-.17-.25-.59.36-1.28.51-1.96.41-.19-.03-.26.27-.06.3h0Z" fill="#754048"/>
    <g>
      <path d="M118.32,29.36c.37.25.74.5,1.12.75.27.18.68,0,.82-.26.16-.32.01-.63-.26-.82-.37-.25-.74-.5-1.12-.75-.27-.18-.68,0-.82.26-.16.32-.01.63.26.82h0Z" fill="#ce7857"/>
      <path d="M117.88,31.51c.17-1.53.6-3.76,2.52-3.88.78-.05.72-1.26-.07-1.21-2.52.16-3.41,2.69-3.64,4.84-.08.77,1.1,1.03,1.19.26h0Z" fill="#ce7857"/>
    </g>
  </g>
  <g>
    <path d="M12.91,120.54c-3.07-.44-4.48-4.17-5.05-5.64-1.01-2.65-1.52-6.75.02-7.57.99-.53,2.53.47,5.37,2.32.88.57,2.1,1.38,3.32,2.66.56.59.7.83,1.49,1.63,1.2,1.2,1.54,1.3,1.65,1.77.28,1.22-1.48,2.58-2.06,3.05-.72.58-2.58,2.1-4.76,1.78Z" fill="#e6926d"/>
    <path d="M11.3,108.09c.51-1.37-2.62-3.78-3.94-4.79-1.72-1.31-2.62-1.98-3.92-1.9-1.51.09-3.19,1.15-3.42,2.47-.07.38,0,.69.22,1.32.92,2.7,2.1,4.5,3.38,7.19.17.37.81.83,1.11.91.61.16,1.13.54,1.42.94.51.71.49,1.81-.06,2.77-.05.09-.08.47-.03.57,1.04,2.22,2.09,4.45,3.13,6.67,0,0,.36,1.57,2.92-.48,1.67-1.34,2.7-1.74,2.87-2.68.13-.71-.16-1.27-.72-2.33-.76-1.45-1.78-2.46-2.56-3.09-1.54-1.26-1.97-.91-2.79-1.88-.9-1.05-1.62-2.89-.95-4.02.8-1.35,2.95-.68,3.33-1.69h0Z" fill="#815f5e"/>
  </g>
  <path d="M134.7,53.36c.19.46.32.93.4,1.39-.14-.46-.27-.93-.4-1.39Z" fill="#ead9cf"/>
  <g>
    <g>
      <path d="M128.18,64.8c-.59,1.86.51,4.01,1.27,6.21.72,2.04,1.29,4.06,1.81,6.16.36,1.44.71,2.97,1.08,4.46.82,2.91,1.39,5.98,3.98,7.81,1.8,1.14,4.03.51,4.91-.98.75-1.29.58-2.9.3-4.49-.56-2.96-1.49-6.28-2.36-9.29-1.08-3.67-2.23-7.51-3.93-10.74-1.81-3.98-6.17-2.17-7.07.82v.04s-.01,0-.01,0Z" fill="#f09077"/>
      <path d="M133.94,53.24c.16.46.32.91.48,1.37.97,2.77,1.94,5.55,2.91,8.32.21.6.42,1.2.63,1.8-.57.23-1.14.45-1.72.68-3.21,1.27-6.42,2.53-9.63,3.8-1.36-3.53-2.72-7.06-4.08-10.59-1.56-3.3-.26-7.18,2.88-8.66,3.15-1.49,6.97-.01,8.52,3.29h0Z" fill="#ead9cf" stroke="#c9b9b1" stroke-miterlimit="10" stroke-width=".4"/>
      <path d="M125.4,66.22c4.06-1.29,8.11-2.59,12.17-3.88.37-.12.18-.69-.19-.58-4.06,1.29-8.11,2.59-12.17,3.88-.37.12-.18.69.19.58h0Z" fill="#c9b9b1"/>
    </g>
    <path d="M134.28,86.51c.05,2.16.78,4.49,1.18,6.51.86,3.95,1.98,8.12,2.61,12.18.24,1.54.45,3.31.61,4.87.19,1.8.34,3.66.55,5.46.25,1.91.46,3.66,1.34,5.21.65,1.16,2.05,2.06,3.2,1.24,1.14-.78,1.51-2.65,1.59-4.14.15-3.85-.27-7.65-.56-11.52-.37-4.59-.91-9.46-1.7-13.88-.6-3.06-1.01-7.69-2.9-9.97-.87-1.02-2.19-1.37-3.49-.85-1.67.74-2.44,2.81-2.43,4.85v.05s0,0,0,0Z" fill="#f09077"/>
    <path d="M143.26,119.67c.6.35,1.02,1.02,1.38,1.73.48.96.44,2.19-.12,3.07-.51.84-1.42,1.25-2.31,1.41-3.8.45-7.67.38-11.5.26-.87-.02-2.3-.4-1.68-1.63.48-.86,1.42-1.35,2.25-1.74.55-.25,1.12-.46,1.69-.65,1.49-.5,2.99-.96,4.54-1.15.5-.07,1.02-.11,1.5-.28.61-.21,1.07-.64,1.6-.92.77-.39,1.87-.52,2.64-.11h.02Z" fill="#f09077"/>
  </g>
</svg>