<?xml version="1.0" encoding="UTF-8"?>
<svg id="_Слой_1" data-name="Слой 1" xmlns="http://www.w3.org/2000/svg" viewBox="0 0 30.96 53.18">
  <path d="M13.26,7.21c.07.18.12.37.15.56-.05-.19-.1-.37-.15-.56Z" fill="#ead9cf"/>
  <path d="M24.73,46.08c-1.35.67-4.64,2.1-9.2,2.12-4.46.02-7.72-1.32-9.09-1.97.15-1.11.46-2.51,1.14-4.06.59-1.35,1.3-2.47,1.95-3.34,4.13,0,8.25.02,12.38.03.58.91,1.17,1.99,1.68,3.24.61,1.48.95,2.83,1.15,3.97Z" fill="#98afc1"/>
  <g>
    <path d="M19,20.26c.13.62-1.44,1.92-3.17,1.92-1.73,0-3.3-1.31-3.17-1.92.05-.22.29-.21.63-.68.41-.55.26-.83.55-1.16.34-.4.91-.39,2.04-.39.98,0,1.48.01,1.8.37.27.29.15.52.49,1.01.4.59.77.57.83.85h0Z" fill="#ef9475"/>
    <ellipse cx="15.76" cy="15.31" rx="2.03" ry="1.71" fill="#f09077"/>
    <path d="M17.88,18.79c-1.42.01-2.84.03-4.26.04.03-1.17.07-2.35.1-3.52h4.07c.03,1.16.06,2.32.09,3.48Z" fill="#ef9475"/>
  </g>
  <path d="M17.87,18.22s-.05.04-.08.06c-.1.08-.21.15-.32.22-.52.31-1.1.49-1.72.49s-1.16-.16-1.67-.46c-.12-.07-.24-.15-.36-.24-.03-.02-.06-.04-.09-.07.03-1.02.06-2.05.09-3.07h0c0-.91.91-1.64,2.03-1.64s2.03.74,2.03,1.64c0,0,0,0,0,.02.03,1.02.05,2.03.08,3.05Z" fill="#b46048"/>
  <g>
    <path d="M20.7,11.06c0,3.6-2.21,6.51-4.94,6.51s-4.94-2.92-4.94-6.51c0-.43.03-.84.09-1.25.35-2.37,1.67-4.28,3.39-4.98.46-.19.95-.29,1.45-.29.56,0,1.11.12,1.61.35,1.65.75,2.9,2.61,3.24,4.91.06.4.09.82.09,1.25h0Z" fill="#ef9475"/>
    <ellipse cx="17.92" cy="11.03" rx=".27" ry=".78" fill="#422f2b"/>
    <path d="M15.44,10.62c-.08.17-.05.38-.06.57-.01.17,0,.36-.08.51-.08.14-.23.2-.36.28-.14.09-.27.2-.36.34-.15.26-.18.62,0,.87.21.27.57.33.89.37.14.02.37.04.47-.03.04-.03.05-.07,0-.11-.18-.11-.46-.06-.66-.13-.3-.07-.57-.33-.5-.65.08-.44.53-.46.78-.73.17-.2.13-.51.14-.75-.01-.18.02-.41-.09-.57-.05-.06-.12-.06-.16.03h0s0,0,0,0Z" fill="#c2684e"/>
    <g>
      <path d="M12.31,2.89c-.03.57.13.85.13.85l.37-.14s-.53-.56-.48-.82" fill="#5b3d3b"/>
      <path d="M21.14,9.16c-.03.2-.08.49-.16.8-.12.46-.36,1.15-.9,1.95.16-1.32.02-2.38-.13-3.07-.14-.67-.27-1.26-.7-1.93-.19-.3-.74-1.14-1.84-1.63-.34-.15-.71-.26-1.09-.31-.15-.02-.3-.04-.45-.04-.05,0-.1,0-.13,0-.03,0-.07,0-.13,0-.15,0-.3.02-.45.04-.37.05-.74.16-1.09.31-1.1.49-1.65,1.33-1.84,1.63-.43.67-.56,1.26-.7,1.93-.15.69-.29,1.75-.13,3.07-.54-.79-.78-1.49-.9-1.95-.08-.3-.13-.59-.16-.8-.07-.42-.15-.93-.14-1.57,0-.23.01-.62.11-1.13.1-.5.25-.91.39-1.21.14-.3.26-.49.32-.57.56-.77,1.27-1.17,1.71-1.37-.06-.21-.1-.44-.1-.67,0-.81.43-1.55,1.08-2.03.44-.32.84-.43,1.16-.51.58-.15,1.39-.08,1.39-.08.14.02.28.06.35.08.42.09.81.26,1.16.51.65.47,1.08,1.22,1.08,2.03,0,.23-.03.46-.1.67.44.2,1.14.61,1.71,1.37.05.08.18.27.32.57.14.3.29.71.39,1.21.1.51.11.91.11,1.13.01.64-.07,1.15-.14,1.57h0Z" fill="#5b3d3b"/>
    </g>
    <rect x="12.66" y="8.68" width="1.54" height=".84" transform="translate(-.64 1.02) rotate(-4.25)" fill="#50373b"/>
    <ellipse cx="13.43" cy="11.03" rx=".27" ry=".78" fill="#422f2b"/>
    <g>
      <path d="M17.76,14.55c.09.24-.87,1.14-1.99,1.14s-2.09-.9-1.99-1.14c.07-.17.65.08,1.99.08s1.92-.24,1.99-.08Z" fill="#ea7564"/>
      <path d="M14.2,14.75c.08.08.2.13.31.16.47.15.97.17,1.46.17.18,0,.35,0,.53-.03.29-.04.57-.13.83-.27" fill="none" stroke="#d3584a" stroke-linecap="round" stroke-linejoin="round" stroke-width=".17"/>
    </g>
    <rect x="17.5" y="8.34" width=".84" height="1.54" transform="translate(7.51 26.3) rotate(-85.75)" fill="#50373b"/>
    <g>
      <path d="M21.45,12.94c.27-1.01.16-1.81.16-1.81,0,0-.07-.61-.58-.71-.52-.1-.7.21-.7.21,0,0-.26.41-.3,1.19s-.07,1.35,0,1.8,1.15.34,1.41-.67h0Z" fill="#ef9475"/>
      <g>
        <path d="M20.54,12.3c.12.02.23.04.35.06.05,0,.09,0,.14-.02.04-.02.07-.06.08-.11.01-.04,0-.1-.02-.14-.02-.04-.06-.07-.11-.08-.12-.02-.23-.04-.35-.06-.05,0-.09,0-.14.02-.04.02-.07.06-.08.11-.01.04,0,.1.02.14.02.04.06.07.11.08h0Z" fill="#ce7857"/>
        <path d="M20.69,13.11s-.01-.05-.02-.08c0-.03,0,.04,0,0v-.05c-.01-.08,0-.16,0-.24,0-.2.03-.38.06-.56.03-.19.08-.38.14-.56,0-.02.02-.04.02-.06-.01.03,0-.01,0-.02.02-.04.03-.07.06-.1,0-.01.01-.02.02-.03-.03.04,0,0,.01-.01,0-.01.05-.04,0,0,.01,0,.02-.01.03-.02.2-.1.02-.41-.18-.3-.24.12-.33.48-.4.72-.09.33-.13.68-.14,1.03,0,.13,0,.28.04.41.07.21.41.12.34-.09h0Z" fill="#ce7857"/>
      </g>
    </g>
    <g>
      <path d="M10.02,12.9c-.27-1.01-.16-1.81-.16-1.81,0,0,.07-.61.58-.71.52-.1.7.21.7.21,0,0,.26.41.3,1.19s.07,1.35,0,1.8-1.15.34-1.41-.67h0Z" fill="#ef9475"/>
      <g>
        <path d="M10.83,11.93c-.12.02-.23.04-.35.06-.04,0-.09.05-.11.08-.02.04-.03.09-.02.14s.04.08.08.11l.04.02s.06,0,.09,0c.12-.02.23-.04.35-.06.04,0,.09-.05.11-.08.02-.04.03-.09.02-.14s-.04-.08-.08-.11l-.04-.02s-.06,0-.09,0h0Z" fill="#ce7857"/>
        <path d="M11.11,13.17c.08-.25.04-.56.01-.82-.04-.34-.1-.69-.25-1.01-.06-.12-.14-.26-.26-.32-.2-.1-.38.2-.18.3.01,0,.02.01.03.02-.04-.03,0,0,0,0,0,0,.03.04.02.02s.01.02.02.02c.02.03.04.07.06.1,0,0,.02.05,0,.02,0,.02.02.04.02.06.07.18.11.37.14.56.03.18.05.36.06.56,0,.08,0,.16,0,.24,0,.01,0,.03,0,.04,0,.05,0-.01,0,.01,0,.03-.01.05-.02.08-.07.22.27.31.34.09h0Z" fill="#ce7857"/>
      </g>
    </g>
  </g>
  <path d="M21.4,19.99h-.31c.11,0,.21,0,.31,0Z" fill="#ead9cf"/>
  <g>
    <path d="M14.45,45.87c-1.24.86-3.24.11-4.47-1.67s-1.23-3.92,0-4.77,3.24-.11,4.47,1.67,1.23,3.92,0,4.77Z" fill="#98afc1"/>
    <ellipse cx="2.99" cy="49.22" rx="2.42" ry="3.35" transform="translate(-27.52 10.48) rotate(-34.75)" fill="#98afc1"/>
    <path d="M4.9,51.97l-3.82-5.51c2.59-2.04,5.18-4.09,7.76-6.13.38-.3.76-.6,1.15-.9,1.49,2.15,2.98,4.29,4.47,6.44l-9.56,6.1Z" fill="#98afc1"/>
  </g>
  <g>
    <path d="M16.47,45.75c1.22.88,3.24.17,4.5-1.58s1.31-3.89.09-4.77-3.24-.17-4.5,1.58c-1.27,1.75-1.31,3.89-.09,4.77Z" fill="#98afc1"/>
    <ellipse cx="27.87" cy="49.32" rx="3.35" ry="2.42" transform="translate(-28.43 43.01) rotate(-54.14)" fill="#98afc1"/>
    <path d="M25.91,52.04l3.93-5.43c-2.55-2.09-5.1-4.19-7.64-6.28-.38-.31-.75-.62-1.13-.93-1.53,2.12-3.06,4.23-4.59,6.35l9.44,6.29Z" fill="#98afc1"/>
  </g>
  <path d="M23.51,25.9c-.58,4.79-1.16,9.58-1.73,14.37-.06.5-.46.88-.97.93-.86-.01-2.24,0-3.76,0-2.19,0-4.38,0-6.57-.01-.56,0-1.03-.41-1.08-.95-.48-4.55-.96-9.1-1.44-13.64,0-2.35.01-4.32.13-5.25.17-.61.59-1.21,1.15-1.48.4-.22.9-.27,1.41-.28h.44c.12.01.34.02.6,0,.97-.09,1.48-.61,1.71-.4.16.14-.03.4.07.77.2.74,1.34,1.04,1.99,1.1.98.09,2.32-.25,2.54-1.03.13-.46-.19-.89-.02-1.01.22-.16.71.56,1.51.58.13,0,.25,0,.57,0,.21,0,.42,0,.62,0,.02,0,.03,0,.05,0h.29c1.23.04,2.15.66,2.43,2h0c.03,1.11.05,2.63.05,4.32h0Z" fill="#ead9cf"/>
  <path d="M10.82,19.99h.63c-.2,0-.42,0-.63,0Z" fill="#ead9cf"/>
  <path d="M21.04,19.99c-.22,0-.44,0-.66,0h.72s-.04,0-.05,0h0Z" fill="#ead9cf"/>
  <g>
    <path d="M8.29,26.51c.06.91-.59,1.74-1.1,2.63-.49.83-.91,1.66-1.32,2.53-.28.6-.57,1.24-.86,1.87-.61,1.2-1.13,2.51-2.34,2.99-.83.28-1.67-.29-1.88-1.07-.18-.68.04-1.38.31-2.06.51-1.26,1.2-2.63,1.83-3.87.78-1.51,1.61-3.08,2.6-4.32,1.11-1.55,2.69-.18,2.76,1.28v.02s0,0,0,0Z" fill="#ef9475"/>
    <g>
      <path d="M7.4,20.91c-.1.17-.21.33-.31.5-.96,1.54-1.3,2.07-1.89,3.05-.09.16-.25.41-.44.74.22.11.43.22.65.34,1.33.71,2.48,1.51,3.47,2.32.85-1.28,1.7-2.57,2.55-3.85.91-1.17.74-2.82-.38-3.67-1.11-.85-2.75-.59-3.66.58h0Z" fill="#ead9cf"/>
      <path d="M9.68,26.82c-1.44-.94-2.88-1.87-4.32-2.81" fill="none"/>
    </g>
  </g>
  <path d="M4.04,34.61c.68.27,1.21.73,1.74,1.08,1.01.69,2.01,1.47,3.12,2.11.42.24.93.51,1.38.74.53.26,1.08.52,1.59.79.54.29,1.04.55,1.27.96.17.3.02.76-.61.95-.61.19-1.34.06-1.84-.1-1.3-.42-2.39-.99-3.56-1.52-1.37-.64-2.78-1.36-3.96-2.09-.8-.52-2.17-1.18-2.32-1.92-.05-.34.25-.71.83-.98.77-.33,1.68-.27,2.34-.03h.02s0,0,0,0Z" fill="#ef9475"/>
  <g>
    <path d="M22.87,26.43c-.09.91.53,1.75,1.02,2.66.46.84.86,1.68,1.24,2.57.26.61.53,1.26.8,1.89.57,1.22,1.05,2.54,2.25,3.06.82.31,1.68-.24,1.91-1.02.2-.67,0-1.38-.24-2.06-.47-1.27-1.12-2.66-1.72-3.92-.74-1.53-1.52-3.13-2.47-4.39-1.06-1.59-2.68-.26-2.8,1.19v.02s0,0,0,0Z" fill="#ef9475"/>
    <g>
      <path d="M23.93,20.87c.1.17.2.34.3.51.91,1.57,1.23,2.11,1.79,3.1.09.16.24.42.42.75-.22.1-.44.2-.66.32-1.35.67-2.52,1.43-3.54,2.21-.81-1.31-1.62-2.62-2.43-3.92-.87-1.2-.65-2.84.49-3.66,1.14-.82,2.77-.51,3.64.69h0Z" fill="#ead9cf"/>
      <path d="M21.47,26.7c1.47-.89,2.93-1.78,4.4-2.67" fill="none"/>
    </g>
  </g>
  <path d="M26.98,34.45c-.71.15-1.3.52-1.87.77-1.1.51-2.2,1.11-3.4,1.56-.45.17-.99.35-1.47.49-.56.17-1.14.34-1.69.51-.57.2-1.11.37-1.39.73-.22.27-.14.74.44,1.03.57.29,1.3.28,1.82.2,1.34-.2,2.5-.57,3.73-.91,1.44-.41,2.94-.88,4.21-1.4.87-.38,2.32-.8,2.58-1.5.11-.32-.12-.74-.65-1.09-.7-.45-1.6-.54-2.28-.41h-.02s0,0,0,0Z" fill="#ef9475"/>
  <g>
    <g>
      <rect x="21.39" y="42.52" width="7.15" height="3.76" rx="1.61" ry="1.61" transform="translate(60.62 80.78) rotate(164.93)" fill="#815f5e"/>
      <g>
        <ellipse cx="23.75" cy="44.67" rx="1.37" ry="1.44" transform="translate(-17.65 15.6) rotate(-26.92)" fill="#ef9475"/>
        <path d="M23.1,43.39c.39.87.79,1.75,1.18,2.62-1.12.63-2.25,1.27-3.37,1.9-.43-1.01-.86-2.02-1.29-3.04,1.16-.5,2.32-.99,3.48-1.49h0Z" fill="#ef9475"/>
      </g>
    </g>
    <g>
      <g>
        <ellipse cx="3.49" cy="49.39" rx="3.49" ry="3.79" transform="translate(-6.91 .98) rotate(-8.09)" fill="#98afc1"/>
        <path d="M18.82,44.26c.25,1.76.51,3.53.76,5.29-5.18,1.2-10.37,2.4-15.55,3.6l-1.07-7.51c5.29-.46,10.57-.92,15.86-1.38h0Z" fill="#99b0c2"/>
      </g>
      <rect x="17.21" y="45.16" width="5.82" height="2.87" rx=".47" ry=".47" transform="translate(-19.64 78.14) rotate(-105.07)" fill="#b8c2cb"/>
    </g>
  </g>
  <line x1="4.63" y1="48.77" x2="11.07" y2="45.5" fill="none" isolation="isolate" stroke="#93aabc" stroke-linecap="round" stroke-linejoin="round" stroke-width=".25"/>
  <g>
    <rect x="2.79" y="42.57" width="7.15" height="3.76" rx="1.61" ry="1.61" transform="translate(10.54 -.26) rotate(13.49)" fill="#815f5e"/>
    <g>
      <ellipse cx="7.75" cy="44.69" rx="1.44" ry="1.37" transform="translate(-35.41 30.74) rotate(-62.25)" fill="#ef9475"/>
      <path d="M8.42,43.42c-.41.87-.81,1.74-1.22,2.61,1.11.65,2.23,1.3,3.34,1.95.45-1.01.89-2.01,1.34-3.02-1.15-.51-2.31-1.03-3.46-1.54h0Z" fill="#ef9475"/>
    </g>
    <g>
      <g>
        <ellipse cx="27.47" cy="49.32" rx="3.79" ry="3.49" transform="translate(-25.81 67.99) rotate(-80.19)" fill="#98afc1"/>
        <path d="M12.3,43.73c-.04.71-.15,1.62-.46,2.63-.25.84-.57,1.54-.87,2.08,5.28,1.54,10.56,3.08,15.85,4.61l1.29-7.47c-5.27-.62-10.54-1.24-15.81-1.86Z" fill="#99b0c2"/>
      </g>
      <rect x="8.29" y="44.51" width="5.26" height="2.87" rx=".44" ry=".44" transform="translate(-36.14 41.9) rotate(-71.71)" fill="#b8c2cb"/>
    </g>
  </g>
  <line x1="12" y1="48.77" x2="16.1" y2="49.96" fill="none" isolation="isolate" stroke="#93aabc" stroke-linecap="round" stroke-linejoin="round" stroke-width=".25"/>
  <line x1="13.45" y1="44.09" x2="17.71" y2="44.42" fill="none" isolation="isolate" stroke="#93aabc" stroke-linecap="round" stroke-linejoin="round" stroke-width=".25"/>
  <path d="M12.2,40.16c-.14.15-.2.38-.25.61-.05.31.06.66.3.87.22.2.51.24.78.2,1.12-.2,2.22-.55,3.3-.91.25-.08.62-.31.34-.61-.21-.2-.52-.26-.79-.3-.18-.02-.36-.03-.54-.04-.47-.01-.93-.02-1.39.06-.15.02-.3.06-.45.05-.19,0-.36-.09-.54-.12-.25-.05-.58.01-.76.19h0Z" fill="#ef9475"/>
  <path d="M18.07,38.43c.17.11.29.32.39.54.13.29.1.66-.07.92-.16.25-.44.36-.71.39-1.15.09-2.3.02-3.45-.07-.26-.02-.68-.15-.48-.51.16-.25.44-.39.7-.49.17-.07.34-.12.52-.17.45-.13.91-.25,1.37-.29.15-.01.31-.02.45-.06.18-.06.33-.18.49-.26.24-.11.57-.13.79,0h0Z" fill="#ef9475"/>
  <path d="M13.97,40.05c.35-.03.76-.04,1.21,0,.48.03.91.09,1.27.17" fill="none" stroke="#bc6d55" stroke-linecap="round" stroke-miterlimit="10" stroke-width=".07"/>
</svg>