<?xml version="1.0" encoding="UTF-8"?>
<svg id="_Слой_1" data-name="Слой 1" xmlns="http://www.w3.org/2000/svg" viewBox="0 0 57.37 52.24">
  <ellipse cx="49.2" cy="45.99" rx="6.11" ry="6.66" transform="translate(-.57 91.36) rotate(-85.42)" fill="#98afc1"/>
  <g>
    <g>
      <ellipse cx="5.58" cy="48.95" rx="1.63" ry="2.02" transform="translate(-7.22 1.38) rotate(-8.56)" fill="#e6926d"/>
      <path d="M5.89,50.93l-.6-4c1.95-.44,3.9-.87,5.84-1.31.22,1.58.45,3.17.67,4.75-1.97.18-3.94.36-5.91.56h-.01Z" fill="#e6926d"/>
    </g>
    <g>
      <g>
        <ellipse cx="30.24" cy="44.9" rx="4.76" ry="5.14" transform="translate(-6.35 5) rotate(-8.56)" fill="#98afc1"/>
        <path d="M9.37,52.04c-.36-2.39-.73-4.76-1.08-7.15,7.07-1.69,14.13-3.38,21.2-5.07l1.53,10.16c-7.22.7-14.43,1.38-21.63,2.08h-.01Z" fill="#99b0c2"/>
      </g>
      <rect x="8.7" y="44.21" width="3.5" height="7.89" rx=".52" ry=".52" transform="translate(-7.05 2.09) rotate(-8.56)" fill="#b8c2cb"/>
    </g>
  </g>
  <g>
    <ellipse cx="30.26" cy="44.93" rx="5.14" ry="4.52" transform="translate(-15.73 73.55) rotate(-87.93)" fill="#98afc1"/>
    <path d="M29.93,50.06c.17-3.41.34-6.84.51-10.26h21.24l-5.17,11.63c-5.52-.45-11.06-.91-16.58-1.36h0Z" fill="#98afc1"/>
    <ellipse cx="49.72" cy="45.42" rx="6.21" ry="6.83" transform="translate(-.75 .84) rotate(-.96)" fill="#98afc1"/>
  </g>
  <path d="M54.33,37.4l-9.65-.26c-.06,0-.12.04-.12.11-.24,3.03-.48,6.06-.72,9.09,0,.06.04.13.12.13,3.86.1,7.73.19,11.6.29.07,0,.13-.06.12-.14-.42-3.04-.82-6.08-1.24-9.12,0-.05-.05-.1-.12-.11h0Z" fill="#98afc1"/>
  <g>
    <g>
      <g>
        <g>
          <g>
            <g>
              <path d="M54.09,19.57c-2.22.75-4.43,1.51-6.64,2.26.07-.11.17-.25.28-.43h0c.31-.52.69-1.38.69-2.44,0-.13,0-.25-.02-.36.78-.19,1.41-1.41,1.46-2.9.01-.57-.05-1.09-.19-1.55-.06.2-.14.41-.24.6.09-.2.16-.41.22-.61h0c.05-.18.11-.37.14-.57h0c.13-.01.26-.03.39-.05.57-.11,1.11-.29,1.62-.54,0,.42.03.88.1,1.38.07.59.21,1.23.43,1.91.18.55.39,1.04.61,1.49.39.77.81,1.38,1.16,1.82h.01Z" fill="#ef9475"/>
              <path d="M53.27,17.62s.04.05.06.1h0s.18.25.36.51c2.12,3.24,2.48,5.55,2.48,5.55.04,1.04.06,1.91.06,2.48,0,0,.05,4.11-1.49,11-.03.14-.11.47-.39.71-.32.27-.74.28-1.05.25l-8.32-.22c-.4,0-.71-.34-.7-.73l.28-10.29c.04-.55.13-1.04.25-1.5,1.53-2.8,3.93-5.89,7.68-7.55.25-.11.49-.21.74-.3h.02Z" fill="#ead9cf"/>
            </g>
            <path d="M55.05,8.04c-.05,2.16-1.37,4-3.25,4.92-.5.25-1.04.43-1.62.54-.13.02-.26.04-.39.05h0c-.03.19-.09.37-.14.57h0c.01.05.02.17-.01.3-.05.17-.17.28-.21.31h0c-.2.39-.66,1.21-1.56,1.89-.67.51-1.24.67-1.42.7l-.34.03h0c-.31.04-.84.06-1.51-.15-.88-.54-1.55-1.55-1.78-2.54-.06-.26-.27-1.09-.01-1.96.06-.2.15-.42.28-.62.14-.24.3-.4.42-.51-.02-.11-.04-.22-.06-.34-.11-.56-.24-1.28-.32-2.14,0-.09-.02-.17-.03-.27-.04-.47-.1-.96-.09-1.13.02-.7.17-1.36.43-1.97.91-2.16,3.17-3.66,5.77-3.59.84.02,1.63.2,2.34.51,1.46.63,2.6,1.79,3.16,3.21.27.67.41,1.4.39,2.16l-.03.02Z" fill="#ef9475"/>
          </g>
          <path d="M49.85,15.69c-.04,1.49-.67,2.71-1.46,2.9-.05-.67-.27-1.26-.54-1.78-.3.25-.63.44-.96.58-.44.17-.89.25-1.34.18-.34-.05-.67-.18-.97-.36.35.13.67.17.94.17,2.06.04,3.85-2.56,3.9-2.64h0c.1-.19.17-.39.24-.6.14.45.2.98.19,1.55h0Z" fill="#b46048"/>
          <path d="M49.65,14.14c-.06.2-.14.41-.24.6.09-.2.16-.41.22-.61v.02h.01Z" fill="#b46048"/>
        </g>
        <path d="M55.34,8.83c-.03,1.57-.69,4.53-2.91,5.38-1.35.51-2.7.09-3.35-.19.26-.12.7-.35,1.08-.82.18-.22.69-.83.63-1.69,0-.14-.05-1.04-.56-1.27-.51-.24-1.45.26-2.1,1.37.42-3.36-.61-6.04-2.33-6.66-.35-.13-.9-.22-1.68-.02-.14.05-.46.34-.54.45-.09.14-.16.27-.21.39-.02-.06-.04-.13-.05-.2-.04-.3.03-.54.1-.67,0,0,.11-.36.34-.76,1.2-1.97,4.44-2.84,7.14-1.89.21.07.42.16.62.26,1.49.71,2.6,1.95,3.29,3.52,0,0,.55,1.35.52,2.84h.01Z" fill="#5b3d3b"/>
        <circle cx="54.43" cy="2.94" r="2.94" fill="#5b3d3b"/>
      </g>
      <ellipse cx="44.06" cy="10.52" rx=".73" ry=".26" transform="translate(32.35 54.28) rotate(-88.45)" fill="#422f2b"/>
      <rect x="43.61" y="7.97" width=".73" height="1.43" rx=".28" ry=".28" transform="translate(32.18 51.94) rotate(-85.92)" fill="#50373b"/>
      <ellipse cx="43.37" cy="12.06" rx=".79" ry="1.22" transform="translate(30.15 55.09) rotate(-88.45)" fill="#ef9475"/>
    </g>
    <path d="M44.2,14.22c-.02.11-.1.41-.37.66-.34.3-.73.3-.82.3-.22-.06-.3-.15-.32-.22-.03-.11.05-.15.04-.3-.02-.17-.14-.24-.12-.34.02-.09.12-.13.16-.15.35-.15,1.27.02,1.42.05h.01Z" fill="#e46761"/>
    <path d="M42.79,14.72c.31.06.64.01.92-.14.03-.02.04-.05.02-.09-.02-.03-.05-.04-.09-.02-.26.14-.55.18-.82.13-.03,0-.06,0-.07.04,0,.03,0,.07.04.07h0Z" fill="#754048"/>
    <g>
      <path d="M49.12,12l.45.34s.06.03.1.03h.1s.06-.02.09-.04c.03-.02.05-.04.06-.07l.02-.06s.01-.09,0-.14l-.02-.06s-.05-.06-.09-.09l-.45-.34s-.06-.03-.1-.03h-.1s-.06.02-.09.04c-.03.02-.05.04-.06.07l-.02.06s-.01.09,0,.14l.02.06s.05.06.09.09h0Z" fill="#ce7857"/>
      <path d="M48.88,12.89c.02-.15.05-.31.09-.46.02-.07.04-.15.06-.22.01-.03.02-.07.04-.11,0-.02.01-.03.02-.05,0,0,.02-.04,0,0s0,0,0-.01c.03-.06.06-.14.11-.2.02-.03.03-.05.05-.09,0-.01.02-.03.03-.04,0-.01.03-.03-.01.02,0,0,.01-.01.02-.02.04-.05.1-.11.15-.15.01,0,.02-.02.03-.03,0,0,.05-.04.02-.01-.03.03,0,0,.02-.01s.03-.02.05-.03c.03-.02.06-.04.1-.05.01,0,.03-.01.04-.02,0,0,.02,0,.02-.01-.01,0-.05.02-.02,0,.07-.03.15-.04.22-.05h-.06.16c.13,0,.26-.12.26-.26s-.11-.25-.26-.26c-.36-.01-.71.15-.96.4s-.44.6-.54.95c-.05.19-.1.39-.13.58-.01.06-.01.13.02.19.03.05.1.11.15.12.06.01.14.01.19-.02s.11-.09.12-.15h-.01Z" fill="#ce7857"/>
    </g>
  </g>
  <g>
    <g>
      <path d="M2.12,50.87c-1.08-.71-.95-2.38-.91-3.03.09-1.18.62-2.83,1.35-2.86.47-.02.88.63,1.62,1.83.24.37.55.89.78,1.6.11.32.12.44.28.88.25.66.35.76.31.96-.11.51-1.02.72-1.32.79-.37.1-1.35.33-2.12-.17h.01Z" fill="#e6926d"/>
      <path d="M3.73,45.87c.44-.43-.32-1.89-.64-2.5-.42-.8-.64-1.21-1.15-1.41-.59-.24-1.41-.13-1.73.33-.1.13-.12.27-.15.55-.13,1.19,0,2.08,0,3.32,0,.17.16.46.26.55.2.17.33.41.36.61.06.36-.14.77-.51,1.04-.03.02-.11.16-.11.2v3.08s-.15.66,1.19.34c.87-.21,1.33-.18,1.56-.5.17-.25.16-.51.14-1.01-.03-.69-.24-1.24-.42-1.63-.36-.75-.58-.7-.73-1.21-.15-.56-.1-1.38.35-1.69.54-.36,1.23.27,1.56-.05h.01Z" fill="#815f5e"/>
    </g>
    <path d="M1.46,44.81c-.41,0-.8-.21-1.07-.51-.3-.34-.36-.79-.37-1.27-.01-.67-.01-1.39,0-2.09.02-.28.78-.77,1.09-.4.45.54.91,1.13,1.27,1.67.3.45.58.98.41,1.53-.16.56-.71,1.07-1.33,1.07h-.01.01Z" fill="#815f5e"/>
  </g>
  <path d="M43.74,33c-.79.1-1.64.48-2.37.73-1.43.5-2.94,1.12-4.42,1.53-.56.15-1.21.31-1.78.43-.66.14-1.34.27-2,.43-.7.17-1.34.32-1.88.75-.41.31-.7.93-.35,1.39.32.45,1.03.54,1.58.51,1.43-.07,2.83-.39,4.24-.64,1.68-.32,3.47-.72,5.07-1.21,1.11-.36,2.82-.7,3.6-1.57.35-.41.44-.96.2-1.5-.32-.67-1.11-.92-1.86-.85h-.03Z" fill="#ef9475"/>
  <g>
    <path d="M47.89,27.39c-.67.27-1,1.01-1.41,1.67-.39.62-.8,1.2-1.26,1.79-.31.4-.65.82-.97,1.24-.61.83-1.32,1.65-1.16,2.67.14.67.9,1.07,1.55.95.56-.11.96-.5,1.34-.91.69-.78,1.37-1.73,1.99-2.6.75-1.06,1.53-2.18,2-3.3.65-1.31-.98-1.95-2.06-1.5h-.02Z" fill="#ef9475"/>
    <path d="M53.34,25.81c-.1.18-.2.35-.32.51.11-.17.21-.34.32-.51Z" fill="#ead9cf"/>
    <path d="M53.34,25.81c-.11.17-.21.34-.32.51-.66,1.04-1.32,2.07-1.98,3.1-.14.22-.29.45-.43.67-.22-.13-.44-.26-.66-.39-1.24-.73-2.49-1.46-3.74-2.18.8-1.36,1.62-2.72,2.42-4.08.69-1.36,2.29-1.94,3.59-1.3,1.31.65,1.81,2.28,1.12,3.65h0Z" fill="#ead9cf" stroke="#c9b9b1" stroke-miterlimit="10" stroke-width=".17"/>
    <path d="M46.73,26.44c1.52.92,3.05,1.83,4.57,2.75.14.09.27-.14.13-.21-1.52-.92-3.05-1.83-4.57-2.75-.14-.09-.27.14-.13.21h0Z" fill="#c9b9b1"/>
  </g>
  <circle cx="29.88" cy="37.85" r="1.49" fill="#ef9475"/>
</svg>