<?xml version="1.0" encoding="UTF-8"?>
<svg id="_Слой_1" data-name="Слой 1" xmlns="http://www.w3.org/2000/svg" viewBox="0 0 45.15 53.18">
  <path d="M20.06,7.21c.07.18.12.37.15.56-.05-.19-.1-.37-.15-.56Z" fill="#ead9cf"/>
  <path d="M31.53,46.08c-1.35.67-4.64,2.1-9.2,2.12-4.46.02-7.72-1.32-9.09-1.97.15-1.11.46-2.51,1.14-4.06.59-1.35,1.3-2.47,1.95-3.34,4.13,0,8.25.02,12.38.03.58.91,1.17,1.99,1.68,3.24.61,1.48.95,2.83,1.15,3.97Z" fill="#98afc1"/>
  <g>
    <path d="M25.8,20.26c.13.62-1.44,1.92-3.17,1.92-1.73,0-3.3-1.31-3.17-1.92.05-.22.29-.21.63-.68.41-.55.26-.83.55-1.16.34-.4.91-.39,2.04-.39.98,0,1.48.01,1.8.37.27.29.15.52.49,1.01.4.59.77.57.83.85h0Z" fill="#ef9475"/>
    <ellipse cx="22.56" cy="15.31" rx="2.03" ry="1.71" fill="#f09077"/>
    <path d="M24.68,18.79c-1.42.01-2.84.03-4.26.04.03-1.17.07-2.35.1-3.52h4.07c.03,1.16.06,2.32.09,3.48Z" fill="#ef9475"/>
  </g>
  <path d="M24.67,18.22s-.05.04-.08.06c-.1.08-.21.15-.32.22-.52.31-1.1.49-1.72.49s-1.16-.16-1.67-.46c-.12-.07-.24-.15-.36-.24-.03-.02-.06-.04-.09-.07.03-1.02.06-2.05.09-3.07h0c0-.91.91-1.64,2.03-1.64s2.03.74,2.03,1.64c0,0,0,0,0,.02.03,1.02.05,2.03.08,3.05Z" fill="#b46048"/>
  <g>
    <path d="M27.5,11.06c0,3.6-2.21,6.51-4.94,6.51s-4.94-2.92-4.94-6.51c0-.43.03-.84.09-1.25.35-2.37,1.67-4.28,3.39-4.98.46-.19.95-.29,1.45-.29.56,0,1.11.12,1.61.35,1.65.75,2.9,2.61,3.24,4.91.06.4.09.82.09,1.25h0Z" fill="#ef9475"/>
    <ellipse cx="24.72" cy="11.03" rx=".27" ry=".78" fill="#422f2b"/>
    <path d="M22.24,10.62c-.08.17-.05.38-.06.57-.01.17,0,.36-.08.51-.08.14-.23.2-.36.28-.14.09-.27.2-.36.34-.15.26-.18.62,0,.87.21.27.57.33.89.37.14.02.37.04.47-.03.04-.03.05-.07,0-.11-.18-.11-.46-.06-.66-.13-.3-.07-.57-.33-.5-.65.08-.44.53-.46.78-.73.17-.2.13-.51.14-.75-.01-.18.02-.41-.09-.57-.05-.06-.12-.06-.16.03h0s0,0,0,0Z" fill="#c2684e"/>
    <g>
      <path d="M19.11,2.89c-.03.57.13.85.13.85l.37-.14s-.53-.56-.48-.82" fill="#5b3d3b"/>
      <path d="M27.94,9.16c-.03.2-.08.49-.16.8-.12.46-.36,1.15-.9,1.95.16-1.32.02-2.38-.13-3.07-.14-.67-.27-1.26-.7-1.93-.19-.3-.74-1.14-1.84-1.63-.34-.15-.71-.26-1.09-.31-.15-.02-.3-.04-.45-.04-.05,0-.1,0-.13,0-.03,0-.07,0-.13,0-.15,0-.3.02-.45.04-.37.05-.74.16-1.09.31-1.1.49-1.65,1.33-1.84,1.63-.43.67-.56,1.26-.7,1.93-.15.69-.29,1.75-.13,3.07-.54-.79-.78-1.49-.9-1.95-.08-.3-.13-.59-.16-.8-.07-.42-.15-.93-.14-1.57,0-.23.01-.62.11-1.13.1-.5.25-.91.39-1.21.14-.3.26-.49.32-.57.56-.77,1.27-1.17,1.71-1.37-.06-.21-.1-.44-.1-.67,0-.81.43-1.55,1.08-2.03.44-.32.84-.43,1.16-.51.58-.15,1.39-.08,1.39-.08.14.02.28.06.35.08.42.09.81.26,1.16.51.65.47,1.08,1.22,1.08,2.03,0,.23-.03.46-.1.67.44.2,1.14.61,1.71,1.37.05.08.18.27.32.57.14.3.29.71.39,1.21.1.51.11.91.11,1.13.01.64-.07,1.15-.14,1.57h0Z" fill="#5b3d3b"/>
    </g>
    <rect x="19.46" y="8.68" width="1.54" height=".84" transform="translate(-.62 1.52) rotate(-4.25)" fill="#50373b"/>
    <ellipse cx="20.23" cy="11.03" rx=".27" ry=".78" fill="#422f2b"/>
    <g>
      <path d="M24.56,14.55c.09.24-.87,1.14-1.99,1.14s-2.09-.9-1.99-1.14c.07-.17.65.08,1.99.08s1.92-.24,1.99-.08Z" fill="#ea7564"/>
      <path d="M21,14.75c.08.08.2.13.31.16.47.15.97.17,1.46.17.18,0,.35,0,.53-.03.29-.04.57-.13.83-.27" fill="none" stroke="#d3584a" stroke-linecap="round" stroke-linejoin="round" stroke-width=".17"/>
    </g>
    <rect x="24.3" y="8.34" width=".84" height="1.54" transform="translate(13.81 33.08) rotate(-85.75)" fill="#50373b"/>
    <g>
      <path d="M28.25,12.94c.27-1.01.16-1.81.16-1.81,0,0-.07-.61-.58-.71-.52-.1-.7.21-.7.21,0,0-.26.41-.3,1.19s-.07,1.35,0,1.8,1.15.34,1.41-.67h0Z" fill="#ef9475"/>
      <g>
        <path d="M27.34,12.3c.12.02.23.04.35.06.05,0,.09,0,.14-.02.04-.02.07-.06.08-.11.01-.04,0-.1-.02-.14-.02-.04-.06-.07-.11-.08-.12-.02-.23-.04-.35-.06-.05,0-.09,0-.14.02-.04.02-.07.06-.08.11-.01.04,0,.1.02.14.02.04.06.07.11.08h0Z" fill="#ce7857"/>
        <path d="M27.49,13.11s-.01-.05-.02-.08c0-.03,0,.04,0,0v-.05c-.01-.08,0-.16,0-.24,0-.2.03-.38.06-.56.03-.19.08-.38.14-.56,0-.02.02-.04.02-.06-.01.03,0-.01,0-.02.02-.04.03-.07.06-.1,0-.01.01-.02.02-.03-.03.04,0,0,.01-.01,0-.01.05-.04,0,0,.01,0,.02-.01.03-.02.2-.1.02-.41-.18-.3-.24.12-.33.48-.4.72-.09.33-.13.68-.14,1.03,0,.13,0,.28.04.41.07.21.41.12.34-.09h0Z" fill="#ce7857"/>
      </g>
    </g>
    <g>
      <path d="M16.82,12.9c-.27-1.01-.16-1.81-.16-1.81,0,0,.07-.61.58-.71.52-.1.7.21.7.21,0,0,.26.41.3,1.19s.07,1.35,0,1.8-1.15.34-1.41-.67h0Z" fill="#ef9475"/>
      <g>
        <path d="M17.63,11.93c-.12.02-.23.04-.35.06-.04,0-.09.05-.11.08-.02.04-.03.09-.02.14s.04.08.08.11l.04.02s.06,0,.09,0c.12-.02.23-.04.35-.06.04,0,.09-.05.11-.08.02-.04.03-.09.02-.14s-.04-.08-.08-.11l-.04-.02s-.06,0-.09,0h0Z" fill="#ce7857"/>
        <path d="M17.92,13.17c.08-.25.04-.56.01-.82-.04-.34-.1-.69-.25-1.01-.06-.12-.14-.26-.26-.32-.2-.1-.38.2-.18.3.01,0,.02.01.03.02-.04-.03,0,0,0,0,0,0,.03.04.02.02s.01.02.02.02c.02.03.04.07.06.1,0,0,.02.05,0,.02,0,.02.02.04.02.06.07.18.11.37.14.56.03.18.05.36.06.56,0,.08,0,.16,0,.24,0,.01,0,.03,0,.04,0,.05,0-.01,0,.01,0,.03-.01.05-.02.08-.07.22.27.31.34.09h0Z" fill="#ce7857"/>
      </g>
    </g>
  </g>
  <path d="M28.2,19.99h-.31c.11,0,.21,0,.31,0Z" fill="#ead9cf"/>
  <g>
    <path d="M21.26,45.87c-1.24.86-3.24.11-4.47-1.67-1.23-1.78-1.23-3.92,0-4.77s3.24-.11,4.47,1.67,1.23,3.92,0,4.77Z" fill="#98afc1"/>
    <ellipse cx="9.79" cy="49.22" rx="2.42" ry="3.35" transform="translate(-26.31 14.36) rotate(-34.75)" fill="#98afc1"/>
    <path d="M11.7,51.97l-3.82-5.51c2.59-2.04,5.18-4.09,7.76-6.13.38-.3.76-.6,1.15-.9,1.49,2.15,2.98,4.29,4.47,6.44l-9.56,6.1Z" fill="#98afc1"/>
  </g>
  <g>
    <path d="M23.27,45.75c1.22.88,3.24.17,4.5-1.58s1.31-3.89.09-4.77-3.24-.17-4.5,1.58c-1.27,1.75-1.31,3.89-.09,4.77Z" fill="#98afc1"/>
    <ellipse cx="34.67" cy="49.32" rx="3.35" ry="2.42" transform="translate(-25.61 48.52) rotate(-54.14)" fill="#98afc1"/>
    <path d="M32.71,52.04l3.93-5.43c-2.55-2.09-5.1-4.19-7.64-6.28-.38-.31-.75-.62-1.13-.93-1.53,2.12-3.06,4.23-4.59,6.35l9.44,6.29Z" fill="#98afc1"/>
  </g>
  <path d="M30.31,25.9c-.58,4.79-1.16,9.58-1.73,14.37-.06.5-.46.88-.97.93-.86-.01-2.24,0-3.76,0-2.19,0-4.38,0-6.57-.01-.56,0-1.03-.41-1.08-.95-.48-4.55-.96-9.1-1.44-13.64,0-2.35.01-4.32.13-5.25.17-.61.59-1.21,1.15-1.48.4-.22.9-.27,1.41-.28h.44c.12.01.34.02.6,0,.97-.09,1.48-.61,1.72-.4.16.14-.03.4.07.77.2.74,1.34,1.04,1.99,1.1.98.09,2.32-.25,2.54-1.03.13-.46-.19-.89-.02-1.01.22-.16.71.56,1.51.58.13,0,.25,0,.57,0,.21,0,.42,0,.62,0,.02,0,.03,0,.05,0h.29c1.23.04,2.15.66,2.43,2h0c.03,1.11.05,2.63.05,4.32h0Z" fill="#ead9cf"/>
  <path d="M17.62,19.99h.63c-.2,0-.42,0-.63,0Z" fill="#ead9cf"/>
  <path d="M27.84,19.99c-.22,0-.44,0-.66,0h.72s-.04,0-.05,0h0Z" fill="#ead9cf"/>
  <g>
    <g>
      <rect x="28.19" y="42.52" width="7.15" height="3.76" rx="1.61" ry="1.61" transform="translate(73.99 79.01) rotate(164.93)" fill="#815f5e"/>
      <g>
        <ellipse cx="30.56" cy="44.67" rx="1.37" ry="1.44" transform="translate(-16.91 18.68) rotate(-26.92)" fill="#e6926d"/>
        <path d="M29.9,43.39c.39.87.79,1.75,1.18,2.62-1.12.63-2.25,1.27-3.37,1.9-.43-1.01-.86-2.02-1.29-3.04,1.16-.5,2.32-.99,3.48-1.49h0Z" fill="#e6926d"/>
      </g>
    </g>
    <g>
      <g>
        <ellipse cx="10.29" cy="49.39" rx="3.49" ry="3.79" transform="translate(-6.85 1.94) rotate(-8.09)" fill="#98afc1"/>
        <path d="M25.62,44.26c.25,1.76.51,3.53.76,5.29-5.18,1.2-10.37,2.4-15.55,3.6l-1.07-7.51c5.29-.46,10.57-.92,15.86-1.38h0Z" fill="#99b0c2"/>
      </g>
      <rect x="24.01" y="45.16" width="5.82" height="2.87" rx=".47" ry=".47" transform="translate(-11.07 84.7) rotate(-105.07)" fill="#b8c2cb"/>
    </g>
  </g>
  <line x1="11.43" y1="48.77" x2="17.87" y2="45.5" fill="none" isolation="isolate" stroke="#93aabc" stroke-linecap="round" stroke-linejoin="round" stroke-width=".25"/>
  <g>
    <rect x="9.59" y="42.57" width="7.15" height="3.76" rx="1.61" ry="1.61" transform="translate(10.73 -1.85) rotate(13.49)" fill="#815f5e"/>
    <g>
      <ellipse cx="14.55" cy="44.69" rx="1.44" ry="1.37" transform="translate(-31.78 36.76) rotate(-62.25)" fill="#e6926d"/>
      <path d="M15.22,43.42c-.41.87-.81,1.74-1.22,2.61,1.11.65,2.23,1.3,3.34,1.95.45-1.01.89-2.01,1.34-3.02-1.15-.51-2.31-1.03-3.46-1.54h0Z" fill="#e6926d"/>
    </g>
    <g>
      <g>
        <ellipse cx="34.27" cy="49.32" rx="3.79" ry="3.49" transform="translate(-20.17 74.69) rotate(-80.19)" fill="#98afc1"/>
        <path d="M19.11,43.73c-.04.71-.15,1.62-.46,2.63-.25.84-.57,1.54-.87,2.08,5.28,1.54,10.56,3.08,15.85,4.61l1.29-7.47c-5.27-.62-10.54-1.24-15.81-1.86Z" fill="#99b0c2"/>
      </g>
      <rect x="15.09" y="44.51" width="5.26" height="2.87" rx=".44" ry=".44" transform="translate(-31.47 48.36) rotate(-71.71)" fill="#b8c2cb"/>
    </g>
  </g>
  <line x1="18.8" y1="48.77" x2="22.9" y2="49.96" fill="none" isolation="isolate" stroke="#93aabc" stroke-linecap="round" stroke-linejoin="round" stroke-width=".25"/>
  <line x1="20.25" y1="44.09" x2="24.51" y2="44.42" fill="none" isolation="isolate" stroke="#93aabc" stroke-linecap="round" stroke-linejoin="round" stroke-width=".25"/>
  <g>
    <g>
      <path d="M35.55,36.28c.59.57.93,1.25,1.32,1.81.74,1.11,1.43,2.31,2.3,3.43.33.42.74.91,1.11,1.33.43.49.88.99,1.3,1.47.43.52.83,1,.89,1.49.05.37-.3.74-1.03.65-.71-.09-1.39-.54-1.85-.92-1.15-.99-2.04-2.02-3-3.05-1.13-1.23-2.27-2.55-3.17-3.78-.6-.86-1.73-2.1-1.56-2.88.09-.35.55-.58,1.26-.57.93.02,1.84.48,2.41,1.01h.01s0,.01,0,.01Z" fill="#ef9475"/>
      <g>
        <path d="M31.95,26.17c.69.6.82,1.64,1.09,2.63.24.93.54,1.81.87,2.72.23.62.48,1.28.72,1.92.43,1.28.99,2.57.47,3.77-.38.79-1.38.98-2.09.58-.61-.35-.95-1-1.24-1.66-.54-1.25-1.02-2.7-1.46-4.02-.52-1.62-1.05-3.32-1.23-4.89-.32-1.88,1.76-2.03,2.85-1.06h.01s0,.01,0,.01Z" fill="#ef9475"/>
        <g>
          <path d="M27.2,23.17c.04.19.09.38.13.57.41,1.77.55,2.38.82,3.49.04.18.12.47.21.84.23-.08.46-.15.7-.22,1.44-.43,2.82-.69,4.09-.81-.31-1.51-.61-3.02-.92-4.52-.19-1.47-1.47-2.52-2.86-2.33-1.39.18-2.37,1.52-2.18,3h0Z" fill="#ead9cf"/>
          <path d="M32.65,25.34c-1.64.49-3.29.99-4.93,1.48" fill="none"/>
        </g>
      </g>
    </g>
    <path d="M36.28,37.19c-.32.15-.64.3-.97.45l-1.26-2.32c.33-.21.66-.42.98-.64.12.37.27.79.49,1.23.24.5.5.93.75,1.27Z" fill="#ef9475"/>
  </g>
  <g>
    <path d="M43.95,46.15c.22.19.38.44.53.69.18.3.36.59.54.89.07.11.13.22.13.35,0,.19-.16.34-.31.45-.31.24-.65.44-1.01.6-.23.1-.5.19-.74.1-.28-.11-.41-.42-.59-.67-.21-.3-.52-.52-.78-.78-.27-.28-.49-.61-.71-.93-.09-.14-.19-.29-.22-.45-.07-.35.15-.7.45-.89.2-.13.43-.19.67-.24.09-.02.23-.07.32-.04.06.02.12.11.17.14.3.22.67.32,1.01.46.19.08.37.18.53.31Z" fill="#ef9475"/>
    <path d="M44.9,47.76c.74.46-.42,1.03-.82,1.24-.55.29-.9.53-1.38.3-.16-.08-.33-.2-.42-.35-.34-.52.67-.77,1.02-1.06.36-.22.59-.46.93-.38.2.05.41.12.59.2l.07.03Z" fill="#e58b73"/>
    <path d="M43.28,45.55c.22.03.43.11.6.25.2.17.32.41.42.65.08.2.15.4.18.61s.01.43-.07.63c-.03.07-.08.14-.14.19s-.16.06-.23.02c-.09-.05-.12-.17-.13-.28-.02-.14-.03-.29-.09-.42-.1-.21-.31-.35-.54-.43s-.46-.1-.69-.16c-.11-.03-.23-.06-.32-.14-.15-.14-.17-.38-.08-.56.08-.16.27-.34.45-.37.2-.04.45-.01.65.02Z" fill="#e58b73"/>
  </g>
  <g>
    <g>
      <path d="M9.35,36.28c-.59.57-.93,1.25-1.32,1.81-.74,1.11-1.43,2.31-2.3,3.43-.33.42-.74.91-1.11,1.33-.43.49-.88.99-1.3,1.47-.43.52-.83,1-.89,1.49-.05.37.3.74,1.03.65.71-.09,1.39-.54,1.85-.92,1.15-.99,2.04-2.02,3-3.05,1.13-1.23,2.27-2.55,3.17-3.78.6-.86,1.73-2.1,1.56-2.88-.09-.35-.55-.58-1.26-.57-.93.02-1.84.48-2.41,1.01h-.01s0,.01,0,.01Z" fill="#ef9475"/>
      <g>
        <path d="M12.95,26.17c-.69.6-.82,1.64-1.09,2.63-.24.93-.54,1.81-.87,2.72-.23.62-.48,1.28-.72,1.92-.43,1.28-.99,2.57-.47,3.77.38.79,1.38.98,2.09.58.61-.35.95-1,1.24-1.66.54-1.25,1.02-2.7,1.46-4.02.52-1.62,1.05-3.32,1.23-4.89.32-1.88-1.76-2.03-2.85-1.06h-.01s0,.01,0,.01Z" fill="#ef9475"/>
        <g>
          <path d="M17.7,23.17c-.04.19-.09.38-.13.57-.41,1.77-.55,2.38-.82,3.49-.04.18-.12.47-.21.84-.23-.08-.46-.15-.7-.22-1.44-.43-2.82-.69-4.09-.81.31-1.51.61-3.02.92-4.52.19-1.47,1.47-2.52,2.86-2.33,1.39.18,2.37,1.52,2.18,3h0Z" fill="#ead9cf"/>
          <path d="M12.25,25.34c1.64.49,3.29.99,4.93,1.48" fill="none"/>
        </g>
      </g>
    </g>
    <path d="M8.61,37.19c.32.15.64.3.97.45l1.26-2.32c-.33-.21-.66-.42-.98-.64-.12.37-.27.79-.49,1.23-.24.5-.5.93-.75,1.27Z" fill="#ef9475"/>
  </g>
  <g>
    <path d="M1.07,46.21c-.21.2-.35.47-.48.73-.16.31-.32.62-.48.92-.06.11-.12.23-.11.36.02.19.18.32.34.43.33.21.68.39,1.05.53.24.09.51.16.74.05.27-.13.38-.45.54-.71.19-.31.48-.55.72-.84.25-.3.45-.64.65-.98.08-.15.17-.3.19-.47.05-.35-.2-.69-.51-.86-.21-.11-.45-.16-.68-.19-.09-.01-.23-.05-.32-.01-.06.03-.11.11-.16.16-.29.24-.65.36-.98.53-.18.09-.36.2-.51.35Z" fill="#ef9475"/>
    <path d="M.23,47.88c-.7.51.49,1,.9,1.19.56.25.93.47,1.4.21.15-.09.31-.22.39-.37.3-.54-.72-.72-1.09-.99-.38-.19-.62-.42-.96-.32-.2.06-.4.15-.58.24l-.06.04Z" fill="#e58b73"/>
    <path d="M1.69,45.57c-.21.05-.42.14-.58.29-.19.18-.29.43-.37.68-.07.2-.12.41-.14.62s.02.43.11.62c.04.07.09.14.16.18s.16.05.23,0c.09-.06.11-.18.11-.29,0-.14.01-.29.06-.43.09-.22.29-.38.51-.47s.45-.14.68-.2c.11-.03.23-.07.31-.16.14-.15.15-.39.04-.57-.09-.16-.29-.32-.48-.34-.2-.03-.45.02-.64.06Z" fill="#e58b73"/>
  </g>
  <ellipse cx="16.33" cy="20.7" rx="2.98" ry=".97" transform="translate(-3.61 3.45) rotate(-10.87)" fill="#ead9cf"/>
  <ellipse cx="28.59" cy="20.7" rx=".97" ry="2.98" transform="translate(2.87 44.87) rotate(-79.13)" fill="#ead9cf"/>
</svg>