<?xml version="1.0" encoding="UTF-8"?>
<svg id="_Слой_1" data-name="Слой 1" xmlns="http://www.w3.org/2000/svg" viewBox="0 0 208.7 167.62">
  <circle cx="122.3" cy="111.87" r="10.68" fill="#98afc1"/>
  <path d="M132.97,111.76c-3.67,1.46-12.46,4.38-23.6,2.5-10.91-1.84-18.16-7.3-21.18-9.85.94-3.3,2.45-7.42,4.93-11.82,1.94-3.44,4.01-6.25,5.88-8.47l31.38,5.5c.74,2.84,1.41,6.06,1.89,9.61.62,4.66.78,8.89.69,12.54h0Z" fill="#98afc1"/>
  <g>
    <path d="M133.19,51.16c-.17,8.96-1.54,30.95-1.7,36.17-.06,3.28-2.75,5.58-5.98,5.26-4.81-.31-18.36-.82-24.8-1.27-2.42-.41-4.19-2.33-4.4-4.78-.01-1.84.17-3.65.23-5.54.71-10.56.99-27.51,1.83-32.12.45-1.28,1.46-2.5,2.77-3.01,1.55-.71,3.74-.37,5.59-.32,1.56.08,2.52.15,3.21,1.66.92,1.66,2.61,2.63,4.88,2.99,2.19.38,5.16-.29,6.46-1.83.47-.49.75-1.15,1.29-1.55.49-.35,1.19-.39,1.86-.38.88.02,1.81.08,2.69.13,3.19.02,5.54,1.42,6.07,4.57v.02s0,0,0,0Z" fill="#ead9cf"/>
    <g>
      <path d="M115.67,51c-3.67-.19-6.89-3.13-6.55-4.42.03-.14.1-.23.2-.31.24-.21.66-.38,1.21-1.06.55-.67.67-1.16.82-1.58h0c.06-.18.13-.36.23-.53.24.21.48.39.74.57,1.04.7,2.23,1.13,3.51,1.19,1.32.07,2.58-.26,3.72-.9.24-.13.47-.28.7-.44.07.16.12.31.16.48h0c.09.36.17.77.54,1.36.61.99,1.22,1.23,1.51,1.55.09.1.15.2.17.34.21,1.33-3.27,3.94-6.95,3.75Z" fill="#f09077"/>
      <path d="M111.57,43.1c.24.21.48.39.74.57-.32-.01-.64-.03-.97-.04h0c.02-.23.04-.46.05-.68.06.05.12.11.18.16Z" fill="#f09077"/>
      <path d="M120.4,43.99h0c-.29-.01-.57-.02-.86-.03.24-.13.47-.28.7-.44.06-.04.12-.08.17-.13,0,.2,0,.4-.01.6Z" fill="#f09077"/>
    </g>
    <path d="M120.42,43.39c-.06.04-.12.09-.17.13-.23.16-.46.31-.7.44-1.14.64-2.4.97-3.72.9-1.27-.06-2.46-.49-3.51-1.19-.26-.17-.5-.36-.74-.57-.06-.05-.12-.1-.18-.16.18-2.26.36-4.53.54-6.8h0c.1-2.01,2.12-3.55,4.5-3.43,2.39.12,4.24,1.84,4.14,3.86,0,.01,0,.02,0,.03-.05,2.26-.11,4.52-.17,6.78Z" fill="#b46048"/>
  </g>
  <g>
    <path d="M127.98,26.01c.21,8.55-4.87,15.6-11.34,15.76-6.48.16-11.9-6.64-12.11-15.18-.02-1.01.03-2.01.14-2.97.69-5.65,3.72-10.26,7.77-12.03,1.08-.47,2.23-.74,3.44-.77,1.34-.03,2.63.23,3.84.75,3.96,1.68,7.04,6.04,7.98,11.48.16.95.26,1.94.29,2.96h0Z" fill="#ea8f72"/>
    <ellipse cx="121.36" cy="26.09" rx=".65" ry="1.85" transform="translate(-.6 2.99) rotate(-1.41)" fill="#422f2b"/>
    <path d="M115.45,25.27c-.17.4-.09.9-.12,1.36-.02.41.02.86-.17,1.22-.17.33-.54.49-.85.69-.33.22-.64.49-.83.84-.35.62-.4,1.49.07,2.06.51.62,1.37.75,2.13.82.33.03.88.06,1.11-.11.1-.07.11-.18-.02-.26-.43-.26-1.09-.12-1.56-.28-.7-.15-1.38-.75-1.23-1.52.17-1.06,1.22-1.12,1.82-1.77.4-.49.29-1.21.29-1.8-.04-.44.02-.98-.24-1.34-.11-.14-.28-.13-.38.08h0s0,.01,0,.01Z" fill="#c2684e"/>
    <g>
      <path d="M107.56,7.07c-.04,1.35.36,2,.36,2l.87-.35s-1.29-1.3-1.2-1.91l-.03.26Z" fill="#5b3d3b"/>
      <path d="M128.91,21.46c-.07.49-.16,1.18-.33,1.9-.26,1.1-.79,2.76-2.03,4.68.29-3.14-.1-5.65-.49-7.28-.38-1.59-.73-2.99-1.78-4.55-.48-.71-1.84-2.67-4.47-3.77-.83-.35-1.71-.56-2.6-.67-.35-.04-.71-.07-1.07-.07-.13,0-.23,0-.31-.01-.08.01-.17.02-.3.03-.36.03-.71.07-1.06.13-.88.15-1.75.41-2.56.8-2.58,1.23-3.84,3.26-4.28,3.99-.97,1.61-1.25,3.02-1.55,4.63-.31,1.65-.58,4.17-.13,7.29-1.33-1.85-1.95-3.49-2.26-4.57-.2-.72-.33-1.4-.43-1.88-.19-1-.41-2.2-.42-3.72,0-.54,0-1.48.2-2.7.21-1.2.54-2.17.85-2.89.31-.72.6-1.19.72-1.38,1.3-1.85,2.94-2.85,3.97-3.36-.16-.5-.26-1.04-.27-1.59-.05-1.93.93-3.72,2.45-4.88,1.02-.79,1.98-1.08,2.72-1.29,1.37-.39,3.3-.27,3.3-.27.33.05.66.13.85.16.99.19,1.95.58,2.78,1.15,1.57,1.08,2.63,2.83,2.68,4.75.01.55-.05,1.09-.19,1.6,1.06.46,2.75,1.38,4.13,3.16.13.19.44.64.79,1.35.34.7.72,1.66.99,2.85.27,1.21.32,2.15.34,2.69.06,1.51-.1,2.73-.24,3.74h0Z" fill="#5b3d3b"/>
    </g>
    <rect x="108.75" y="20.78" width="3.65" height="2" transform="translate(-1.61 11) rotate(-5.66)" fill="#50373b"/>
    <ellipse cx="110.7" cy="26.35" rx=".65" ry="1.85" transform="translate(-.61 2.72) rotate(-1.41)" fill="#422f2b"/>
    <g>
      <path d="M121.19,34.46c.24.56-2,2.75-4.67,2.81-2.67.07-5.01-2.02-4.8-2.58.15-.41,1.55.14,4.74.06s4.56-.69,4.73-.3Z" fill="#ea7564"/>
      <path d="M112.75,35.15c.2.2.47.29.74.37,1.13.32,2.32.35,3.49.32.42-.01.84-.03,1.26-.1.69-.11,1.35-.35,1.95-.7" fill="none" stroke="#d3584a" stroke-linecap="round" stroke-linejoin="round" stroke-width=".4"/>
    </g>
    <rect x="120.25" y="19.69" width="2" height="3.65" transform="translate(93.74 141.55) rotate(-87.16)" fill="#50373b"/>
    <g>
      <path d="M129.86,30.42c.57-2.42.28-4.32.28-4.32,0,0-.2-1.44-1.43-1.65-1.23-.2-1.64.54-1.64.54,0,0-.59.99-.63,2.84s-.09,3.21.1,4.27,2.75.74,3.32-1.68h0Z" fill="#ea8f72"/>
      <g>
        <path d="M127.66,28.96c.28.04.56.08.84.12.11.02.22.01.32-.05.09-.05.17-.15.19-.25.02-.11.01-.23-.05-.32-.06-.08-.15-.17-.25-.19-.28-.04-.56-.08-.84-.12-.11-.02-.22-.01-.32.05-.09.05-.17.15-.19.25-.02.11-.01.23.05.32.06.08.15.17.25.19h0Z" fill="#ce7857"/>
        <path d="M128.07,30.88c-.02-.06-.03-.12-.05-.17-.01-.06,0,.08,0-.05,0-.03,0-.07-.01-.1-.02-.19-.02-.39-.02-.58,0-.45.04-.88.11-1.32.07-.45.16-.9.3-1.33.06-.16.1-.27.2-.45.02-.03.03-.06.06-.09-.06.09.02-.02.03-.03.02-.02.04-.04.06-.06-.09.08,0,.01.02,0,.47-.26.03-.97-.44-.71-.36.2-.54.61-.68.98-.18.46-.28.95-.36,1.44-.08.53-.14,1.06-.14,1.6,0,.37,0,.78.12,1.13.18.5.98.27.8-.24h0Z" fill="#ce7857"/>
      </g>
    </g>
    <g>
      <path d="M102.7,31c-.69-2.39-.49-4.3-.49-4.3,0,0,.13-1.45,1.35-1.71,1.22-.26,1.66.45,1.66.45,0,0,.64.96.77,2.8.13,1.84.24,3.2.1,4.27s-2.71.88-3.4-1.51h0Z" fill="#ea8f72"/>
      <g>
        <path d="M104.58,28.64c-.28.05-.55.11-.83.17-.1.02-.2.12-.24.2-.05.09-.07.22-.03.32s.1.2.2.24l.1.04c.07.02.15.02.22,0,.28-.05.55-.11.83-.17.1-.02.2-.12.24-.2.05-.09.07-.22.03-.32s-.1-.2-.2-.24l-.1-.04c-.07-.02-.15-.02-.22,0h0Z" fill="#ce7857"/>
        <path d="M105.32,31.57c.11-.36.09-.77.07-1.14-.03-.53-.11-1.06-.22-1.59-.1-.49-.23-.97-.43-1.42-.15-.35-.36-.76-.73-.94-.48-.24-.89.5-.41.73.03.01.11.08.02,0,.02.02.04.04.06.06.02.02.1.12.03.03.02.03.04.05.06.08.05.07.09.15.13.23.04.08.04.09.09.21.17.42.28.87.37,1.31s.15.86.17,1.31c.01.19.02.39,0,.58,0,.03,0,.07,0,.1,0,.12,0-.02,0,.05-.01.06-.02.12-.04.18-.16.52.66.72.81.2h0Z" fill="#ce7857"/>
      </g>
    </g>
  </g>
  <path d="M109.05,136.7c-1.88.85-2.61,3.27-1.71,5.11.58,1.32,1.61,2.46,1.97,3.88.98,3.09-1.82,6.54-.52,9.17,1.16,2.11,5.72,2.7,7.04.51.74-1.16.82-2.67.96-4.03.26-3.67.59-7.33-1.14-10.75-1.13-2.4-3.68-5.21-6.55-3.9l-.05.02Z" fill="#896565"/>
  <rect x="112.7" y="137.9" width="6" height="19.41" rx="2.23" ry="2.23" transform="translate(-60.68 83.87) rotate(-32.04)" fill="#e6926d"/>
  <g>
    <ellipse cx="122.23" cy="111.36" rx="10.99" ry="11.18" transform="translate(-9.56 11.5) rotate(-5.18)" fill="#98afc1"/>
    <ellipse cx="126.06" cy="157.7" rx="9.4" ry="9.92" transform="translate(-13.73 12.03) rotate(-5.18)" fill="#98afc1"/>
    <polygon points="116.7 158.55 135.43 156.85 133.18 110.37 111.29 112.35 116.7 158.55" fill="#98afc1"/>
  </g>
  <g>
    <path d="M104.7,112.27c-4.86,3.27-11.54,1.84-14.93-3.2-3.39-5.04-2.2-11.77,2.66-15.04,4.86-3.27,11.54-1.84,14.93,3.2,3.39,5.04,2.2,11.77-2.66,15.04Z" fill="#98afc1"/>
    <circle cx="62.19" cy="128.06" r="9.4" transform="translate(-60.89 56.52) rotate(-33.93)" fill="#98afc1"/>
    <polygon points="67.44 135.87 56.94 120.26 92.43 94.03 104.7 112.27 67.44 135.87" fill="#98afc1"/>
  </g>
  <g>
    <path d="M19.96,159.43c-.21-.77-.72-2.25-2.03-3.65-1.08-1.15-2.24-1.75-2.94-2.05,1.41-.75,3.12-1.84,4.88-3.39,1.43-1.26,2.54-2.51,3.38-3.61.25,1.11.79,2.88,2.07,4.73,1.14,1.65,2.43,2.72,3.31,3.35-.94,0-2.81.13-4.84,1.19-2.11,1.1-3.31,2.64-3.84,3.42Z" fill="#e6926d"/>
    <g>
      <ellipse cx="61.79" cy="128.3" rx="8.66" ry="9.33" transform="translate(-58.06 51.39) rotate(-31.59)" fill="#98afc1"/>
      <path d="M31.94,155.13c-2.3-3.73-4.6-7.46-6.9-11.2,10.62-7.86,21.24-15.72,31.87-23.58l9.78,15.9c-11.58,6.29-23.16,12.58-34.74,18.88h0Z" fill="#99b0c2"/>
    </g>
    <rect x="19.19" y="147.17" width="14.34" height="7.14" rx="1.02" ry="1.02" transform="translate(140.95 49.32) rotate(58.41)" fill="#b8c2cb"/>
  </g>
  <g>
    <path d="M19.71,158.2c0,1.68-2.44,3.91-5.07,3.78-2.93-.14-5.2-3.17-4.75-4.57.26-.83.83-1.39,1.82-2.16,1.49-1.16,2.93-1.46,4.64-1.81,1.11-.23,2.52-.5,2.85.05.12.2.02.31-.04,1.58-.02.28,0,.63.05,1.06,0,.07.04.29.17.82.08.31.19.74.35,1.26Z" fill="#e6926d"/>
    <path d="M9.12,155.79c-.95.2-2.04.86-2.98,1.43-1.55.93-2.77,2.07-4.13,3.36-1.39,1.27-3.5,3.79-.43,4.38.97.14,2.01.1,3.1.12h11.1c1.71-.11,4.24.53,4.99-1.5.36-.88.35-1.9.22-2.83-.16-1.14-.35-2.12-.89-2.44-1.28-.54-2.41,1.31-3.31,1.98-.68.57-2.51,1.14-3.34.85-.56-.35-.23-1.18-.28-1.77.11-2.37-1.67-4-4-3.58h-.04Z" fill="#896565"/>
  </g>
  <g>
    <g>
      <path d="M90.52,50.96c-1.82.67-3.97.03-6.16-.34-2.04-.36-4.05-.6-6.13-.79-1.43-.13-2.95-.24-4.44-.38-2.9-.34-5.94-.47-7.81-2.34-1.18-1.31-.62-3.17.84-4.03,1.25-.74,2.85-.78,4.42-.73,2.94.13,6.24.52,9.23.88,3.64.47,7.47.97,10.7,1.98,3.98,1.02,2.3,4.7-.62,5.73h-.04s0,.01,0,.01Z" fill="#f09077"/>
      <g>
        <path d="M101.32,45.89c-.42-.08-.83-.16-1.25-.24-3.85-.76-5.18-1.04-7.59-1.48-.39-.07-1.03-.19-1.83-.33-.06.45-.13.91-.21,1.37-.49,2.82-1.29,5.37-2.23,7.65,3.24.72,6.47,1.45,9.71,2.17,3.06.89,6.29-.43,7.24-2.95.94-2.52-.77-5.29-3.83-6.19h0Z" fill="#ead9cf"/>
        <path d="M90.89,53.64c.87-3.15,1.75-6.31,2.62-9.47" fill="none"/>
      </g>
    </g>
    <g>
      <path d="M69.12,48.38c-1.8.13-3.83-.29-5.55-.46-3.39-.4-6.99-.99-10.45-1.19-1.31-.07-2.8-.11-4.12-.12-1.52-.01-3.08,0-4.6-.03-1.61-.06-3.1-.09-4.5-.69-1.05-.44-1.97-1.52-1.44-2.53.5-1,2.01-1.45,3.24-1.63,3.18-.43,6.39-.37,9.64-.44,3.86-.05,7.97,0,11.74.31,2.62.25,6.52.23,8.65,1.6.96.63,1.42,1.69,1.15,2.8-.4,1.43-2.02,2.22-3.72,2.37h-.04s0,0,0,0Z" fill="#f09077"/>
      <path d="M36.49,45.82c1.62-.11,3.08-.76,4.56-1.3.64-.26,3.57-.85,1.96-1.39-.55-.17-1.44-.23-2.09-.42-1.08-.29-2.03-.86-3.15-1.08-.98-.21-2.01-.24-3.02-.27-2.67-.03-5.33-.11-7.99.07-2.67.22-2.83,1.15-.4,2.32,3.01,1.54,6.62,2.36,10.08,2.08h.04Z" fill="#f09077"/>
    </g>
  </g>
  <g>
    <g>
      <path d="M142.84,52.24c1.82.67,3.97.03,6.16-.34,2.04-.36,4.05-.6,6.13-.79,1.43-.13,2.95-.24,4.44-.38,2.9-.34,5.94-.47,7.81-2.34,1.18-1.31.62-3.17-.84-4.03-1.25-.74-2.85-.78-4.42-.73-2.94.13-6.24.52-9.23.88-3.64.47-7.47.97-10.7,1.98-3.98,1.02-2.3,4.7.62,5.73h.04s0,.01,0,.01Z" fill="#f09077"/>
      <g>
        <path d="M132.04,47.16c.42-.08.83-.16,1.25-.24,3.85-.76,5.18-1.04,7.59-1.48.39-.07,1.03-.19,1.83-.33.06.45.13.91.21,1.37.49,2.82,1.29,5.37,2.23,7.65-3.24.72-6.47,1.45-9.71,2.17-3.06.89-6.29-.43-7.24-2.95-.94-2.52.77-5.29,3.83-6.19h0Z" fill="#ead9cf"/>
        <path d="M142.47,54.91c-.87-3.15-1.75-6.31-2.62-9.47" fill="none"/>
      </g>
    </g>
    <g>
      <path d="M164.24,49.66c1.8.13,3.83-.29,5.55-.46,3.39-.4,6.99-.99,10.45-1.19,1.31-.07,2.8-.11,4.12-.12,1.52-.01,3.08,0,4.6-.03,1.61-.06,3.1-.09,4.5-.69,1.05-.44,1.97-1.52,1.44-2.53-.5-1-2.01-1.45-3.24-1.63-3.18-.43-6.39-.37-9.64-.44-3.86-.05-7.97,0-11.74.31-2.62.25-6.52.23-8.65,1.6-.96.63-1.42,1.69-1.15,2.8.4,1.43,2.02,2.22,3.72,2.37h.04s0,0,0,0Z" fill="#f09077"/>
      <path d="M196.86,47.1c-1.62-.11-3.08-.76-4.56-1.3-.64-.26-3.57-.85-1.96-1.39.55-.17,1.44-.23,2.09-.42,1.08-.29,2.03-.86,3.15-1.08.98-.21,2.01-.24,3.02-.27,2.67-.03,5.33-.11,7.99.07,2.67.22,2.83,1.15.4,2.32-3.01,1.54-6.62,2.36-10.08,2.08h-.04Z" fill="#f09077"/>
    </g>
  </g>
  <path d="M110.97,144.36c.39,1.67.38,3.43-.03,5.1-.08.33-.15.73.09.95.11.1.25.14.39.17.72.19,1.45.36,2.19.51.27.06.59.09.78-.1.18-.19.14-.52.31-.73.02-1.02.05-2.06.07-3.08.02-.89,0-1.89-.64-2.52-.66-.66-1.72-.64-2.66-.58-.22.01-.41.08-.52.27Z" fill="none"/>
</svg>