<?xml version="1.0" encoding="UTF-8"?>
<svg id="_Слой_1" data-name="Слой 1" xmlns="http://www.w3.org/2000/svg" viewBox="0 0 160.54 97.69">
  <path d="M155.07,26.26c-1.08,4.15-4.18,13.72-12.99,22.26-8.63,8.37-18.07,11.2-22.24,12.2-2.28-2.95-4.92-6.92-7.18-11.92-1.77-3.91-2.9-7.53-3.63-10.59l24.99-23.93c2.97,1.18,6.21,2.66,9.62,4.52,4.48,2.45,8.28,5.04,11.42,7.46h0Z" fill="#98afc1"/>
  <g>
    <g>
      <path d="M78.64,23.9c.61,3.95-1.81,8.01-3.25,7.94-.15,0-.26-.05-.37-.14-.28-.21-.55-.62-1.4-1.06-.22-.11-.41-.2-.59-.26-.52-.19-.91-.21-1.27-.26-.21-.03-.41-.06-.61-.13.16-.3.31-.6.44-.91.51-1.27.7-2.62.49-3.99-.22-1.41-.85-2.69-1.78-3.76-.19-.23-.4-.44-.63-.65.15-.11.3-.2.47-.27h0c.36-.17.78-.34,1.33-.87.83-.79,1-1.44,1.24-1.83.02-.04.05-.08.08-.12.08-.11.18-.2.32-.26,1.36-.52,4.91,2.61,5.52,6.57Z" fill="#f09077"/>
      <path d="M71.15,30c.17-.3.31-.6.44-.91.06.35.11.69.17,1.04h0c-.25.03-.49.06-.74.1.04-.07.09-.15.13-.22Z" fill="#f09077"/>
      <path d="M70.14,20.41h0c.05.31.1.62.15.92-.19-.23-.41-.44-.63-.65-.05-.05-.11-.11-.17-.16.21-.04.43-.08.64-.12Z" fill="#f09077"/>
    </g>
    <path d="M69.5,20.53c.06.05.12.1.17.16.22.21.43.42.63.65.93,1.07,1.56,2.34,1.78,3.76s.02,2.73-.49,3.99c-.13.31-.27.61-.44.91-.04.07-.08.15-.13.22-2.45.31-4.9.62-7.35.93h0c-2.16.33-4.24-1.47-4.64-4.04-.4-2.57,1.03-4.92,3.19-5.26.01,0,.02,0,.04,0,2.41-.44,4.83-.88,7.24-1.32Z" fill="#b46048"/>
  </g>
  <g>
    <path d="M49.36,22.54c7.39-4.28,16.01-3.2,19.25,2.4,3.24,5.6-.13,13.61-7.52,17.88-.88.51-1.77.94-2.67,1.3-5.28,2.1-10.78,1.65-14.26-1.05-.93-.72-1.72-1.61-2.32-2.65-.67-1.16-1.06-2.42-1.18-3.73-.42-4.27,1.93-9.06,6.25-12.49.76-.6,1.58-1.16,2.46-1.67h0Z" fill="#ea8f72"/>
    <ellipse cx="52.59" cy="28.3" rx="1.85" ry=".65" transform="translate(-7.11 30.13) rotate(-30.04)" fill="#422f2b"/>
    <path d="M54.71,33.88c.43-.04.83-.35,1.25-.55.37-.18.74-.43,1.15-.43.37,0,.69.23,1.01.41.35.19.73.33,1.13.33.71,0,1.5-.36,1.78-1.05.3-.75,0-1.56-.3-2.26-.13-.3-.37-.8-.63-.92-.11-.05-.21,0-.22.14-.02.5.41,1.02.5,1.5.21.69,0,1.57-.75,1.81-1.01.35-1.57-.53-2.43-.75-.62-.11-1.2.33-1.71.61-.36.25-.86.45-1.06.86-.07.17.02.31.25.3h.01s0,0,0,0Z" fill="#c2684e"/>
    <g>
      <path d="M42.53,49.51c1.21-.61,1.59-1.27,1.59-1.27l-.72-.59s-.52,1.75-1.1,1.96l.24-.1Z" fill="#5b3d3b"/>
      <path d="M44.93,23.9c.46-.17,1.11-.42,1.83-.62,1.08-.3,2.8-.63,5.07-.46-2.9,1.25-4.9,2.79-6.15,3.91-1.22,1.09-2.27,2.07-3.14,3.74-.39.76-1.46,2.89-1.17,5.73.09.89.32,1.77.65,2.6.13.33.28.65.44.97.06.12.1.2.13.27.05.06.1.14.17.25.19.3.4.59.62.87.56.7,1.2,1.34,1.93,1.86,2.31,1.67,4.69,1.81,5.55,1.84,1.88.08,3.25-.35,4.8-.86,1.59-.52,3.93-1.49,6.46-3.38-.99,2.06-2.12,3.38-2.93,4.17-.53.52-1.06.96-1.45,1.27-.78.64-1.74,1.42-3.06,2.15-.47.26-1.3.72-2.47,1.11-1.15.39-2.16.57-2.94.64-.78.07-1.33.05-1.56.03-2.24-.25-3.91-1.21-4.85-1.88-.36.38-.79.72-1.26,1-1.67.96-3.71.96-5.45.19-1.18-.52-1.9-1.22-2.43-1.77-.99-1.02-1.81-2.77-1.81-2.77-.12-.31-.2-.64-.26-.82-.31-.96-.43-1.99-.32-2.99.2-1.89,1.22-3.66,2.88-4.63.48-.28.98-.47,1.49-.6-.11-1.15-.11-3.07.79-5.14.1-.2.35-.69.8-1.33.45-.64,1.11-1.43,2.02-2.23.93-.82,1.74-1.31,2.2-1.58,1.3-.78,2.44-1.22,3.39-1.58h0Z" fill="#5b3d3b"/>
    </g>
    <rect x="52.16" y="38.83" width="3.65" height="1.99" transform="translate(51.49 106.86) rotate(-124.29)" fill="#50373b"/>
    <ellipse cx="57.93" cy="37.53" rx="1.85" ry=".65" transform="translate(-11.01 34.04) rotate(-30.04)" fill="#422f2b"/>
    <g>
      <path d="M60.02,24.45c.37-.48,3.37.44,4.7,2.74,1.33,2.31.63,5.36.03,5.44-.43.06-.62-1.42-2.21-4.18-1.6-2.76-2.79-3.66-2.52-4Z" fill="#ea7564"/>
      <path d="M64.67,31.52c.08-.27.03-.55-.03-.83-.25-1.14-.8-2.2-1.39-3.21-.21-.36-.43-.72-.69-1.06-.43-.55-.95-1.02-1.55-1.38" fill="none" stroke="#d3584a" stroke-linecap="round" stroke-linejoin="round" stroke-width=".4"/>
    </g>
    <rect x="47.64" y="28.77" width="1.99" height="3.65" transform="translate(105.74 36.98) rotate(154.21)" fill="#50373b"/>
    <g>
      <path d="M52.32,18.78c-2.4.66-3.92,1.82-3.92,1.82,0,0-1.17.87-.76,2.04.41,1.18,1.25,1.18,1.25,1.18,0,0,1.15.05,2.79-.8s2.86-1.46,3.69-2.13-.66-2.76-3.06-2.11h0Z" fill="#ea8f72"/>
      <g>
        <path d="M52.1,21.4c-.1-.26-.19-.53-.29-.79-.04-.11-.09-.2-.2-.26-.09-.05-.21-.07-.31-.04-.1.03-.21.1-.26.2-.05.09-.08.21-.04.31.1.26.19.53.29.79.04.11.09.2.2.26.09.05.21.07.31.04.1-.03.21-.1.26-.2.05-.09.08-.21.04-.31h0Z" fill="#ce7857"/>
        <path d="M53.58,20.13s-.09.08-.13.13c-.05.04.07-.04-.04.03-.03.02-.06.04-.09.06-.16.11-.33.21-.5.3-.4.21-.8.39-1.21.54-.43.16-.86.29-1.31.37-.17.03-.29.05-.49.04-.03,0-.07,0-.1,0,.11,0-.02,0-.04-.01-.03,0-.05-.02-.08-.02.11.04.02,0-.01-.02-.45-.29-.87.44-.41.73.34.22.8.18,1.18.13.49-.07.97-.21,1.43-.38.5-.18,1-.39,1.47-.64.32-.17.69-.37.93-.65.36-.4-.24-.99-.6-.59h0Z" fill="#ce7857"/>
      </g>
    </g>
    <g>
      <path d="M65.84,42.31c-1.77,1.75-3.53,2.49-3.53,2.49,0,0-1.33.58-2.15-.36s-.4-1.68-.4-1.68c0,0,.54-1.02,2.09-2.02,1.55-.99,2.69-1.75,3.69-2.13s2.07,1.95.3,3.7h0Z" fill="#ea8f72"/>
      <g>
        <path d="M62.86,41.8c.18.22.36.43.54.65.06.08.2.12.29.12.1,0,.23-.05.3-.12s.13-.18.12-.29v-.11c-.03-.07-.07-.14-.13-.19-.18-.22-.36-.43-.54-.65-.06-.08-.2-.12-.29-.12-.1,0-.23.05-.3.12s-.13.18-.12.29v.11c.03.07.07.14.13.19h0Z" fill="#ce7857"/>
        <path d="M65.08,39.74c-.36.08-.71.29-1.03.49-.45.28-.88.61-1.29.95-.38.32-.74.66-1.04,1.05-.24.3-.5.68-.48,1.09.02.54.86.54.84,0,0-.03.01-.13,0-.02,0-.03.01-.05.02-.08,0-.02.06-.14.01-.04.01-.03.03-.06.04-.09.04-.08.09-.15.14-.22.05-.08.06-.08.14-.18.29-.35.63-.66.97-.95s.69-.54,1.07-.78c.16-.1.33-.2.51-.29.03-.02.06-.03.1-.04.11-.05-.02,0,.04-.02.06-.02.11-.04.17-.05.53-.11.32-.92-.21-.81h0Z" fill="#ce7857"/>
      </g>
    </g>
  </g>
  <g>
    <path d="M132.37,62.85c-2.1.78-3.08,3.34-2.25,5.4.52,1.47,1.56,2.79,1.84,4.36.82,3.42-2.47,6.95-1.27,9.89,1.09,2.37,5.99,3.37,7.59,1.09.89-1.2,1.09-2.83,1.35-4.29.57-3.95,1.2-7.89-.41-11.74-1.03-2.69-3.58-5.92-6.8-4.73l-.05.02Z" fill="#896565"/>
    <rect x="135.49" y="64.63" width="6.52" height="21.08" rx="2.43" ry="2.43" transform="translate(-19.05 73.9) rotate(-27.99)" fill="#e6926d"/>
    <g>
      <ellipse cx="148.6" cy="36.41" rx="11.94" ry="12.15" transform="translate(-.69 2.93) rotate(-1.13)" fill="#98afc1"/>
      <ellipse cx="149.19" cy="86.92" rx="10.21" ry="10.77" transform="translate(-1.68 2.95) rotate(-1.13)" fill="#98afc1"/>
      <polygon points="138.98 87.12 159.4 86.71 160.54 36.18 136.67 36.65 138.98 87.12" fill="#98afc1"/>
    </g>
  </g>
  <g>
    <path d="M121.39,60.3c-5.89,2.4-12.68-.6-15.17-6.7-2.49-6.11.26-13,6.15-15.41,5.89-2.4,12.68.6,15.17,6.7,2.49,6.11-.26,13-6.15,15.41Z" fill="#98afc1"/>
    <circle cx="72.7" cy="67.71" r="10.21" transform="translate(-20.2 32.49) rotate(-22.2)" fill="#98afc1"/>
    <polygon points="76.56 77.17 68.84 58.25 112.36 38.19 121.39 60.3 76.56 77.17" fill="#98afc1"/>
  </g>
  <g>
    <path d="M20.86,91.74c-.05-.86-.27-2.55-1.35-4.32-.89-1.47-1.99-2.36-2.67-2.83,1.66-.49,3.73-1.27,5.93-2.53,1.79-1.02,3.25-2.11,4.39-3.09.02,1.23.21,3.24,1.16,5.49.85,2.01,1.98,3.43,2.78,4.29-1-.2-3.02-.48-5.41.2-2.49.71-4.1,2.08-4.84,2.79Z" fill="#e6926d"/>
    <g>
      <ellipse cx="72.22" cy="67.88" rx="9.4" ry="10.14" transform="translate(-18.77 28.58) rotate(-19.87)" fill="#98afc1"/>
      <path d="M34.55,89.81c-1.62-4.48-3.25-8.95-4.87-13.43,13.03-6.01,26.06-12.03,39.09-18.04l6.89,19.07c-13.71,4.13-27.41,8.27-41.12,12.41h0Z" fill="#99b0c2"/>
    </g>
    <rect x="21.79" y="80.03" width="15.58" height="7.75" rx="1.11" ry="1.11" transform="translate(98.44 27.57) rotate(70.13)" fill="#b8c2cb"/>
  </g>
  <g>
    <path d="M21.29,89.23c.03,1.82-2.57,4.29-5.42,4.21-3.19-.09-5.72-3.33-5.26-4.86.27-.9.88-1.53,1.93-2.38,1.6-1.3,3.15-1.65,5-2.06,1.2-.27,2.72-.6,3.09,0,.14.22.03.33-.01,1.72-.01.31,0,.68.08,1.14.01.08.05.32.2.88.09.34.22.8.41,1.36Z" fill="#e6926d"/>
    <path d="M9.74,86.83c-1.03.24-2.2.98-3.21,1.62-1.66,1.04-2.97,2.3-4.42,3.74-1.48,1.41-3.72,4.19-.37,4.76,1.06.13,2.18.07,3.36.06,4.09-.08,8.02-.16,12.05-.24,1.85-.16,4.61.48,5.38-1.74.37-.96.34-2.07.18-3.08-.2-1.23-.42-2.29-1.01-2.63-1.4-.56-2.59,1.47-3.55,2.22-.73.64-2.7,1.3-3.61.99-.61-.37-.28-1.28-.34-1.92.07-2.58-1.9-4.31-4.42-3.8h-.04s0,.01,0,.01Z" fill="#896565"/>
  </g>
  <g>
    <g>
      <path d="M67.86,46.67c-1.08,1.99-3.54,3.1-5.81,4.49-2.12,1.27-4.12,2.63-6.14,4.08-1.39.99-2.84,2.08-4.29,3.11-2.87,1.96-5.71,4.21-8.92,4.05-2.13-.21-3.15-2.24-2.56-4.11.51-1.61,1.92-2.88,3.37-4.05,2.74-2.17,6.02-4.39,9-6.4,3.65-2.43,7.5-4.96,11.22-6.6,4.4-2.21,5.92,2.25,4.15,5.41l-.02.04h0Z" fill="#f09077"/>
      <g>
        <path d="M73.38,33.94c-.44.25-.88.51-1.32.76-4.08,2.33-5.49,3.12-8.03,4.61-.41.24-1.08.64-1.91,1.13.32.43.63.88.94,1.34,1.87,2.8,3.25,5.61,4.28,8.3,3.5-1.89,6.99-3.77,10.49-5.66,3.48-1.6,5.29-5.25,4.07-8.15-1.23-2.9-5.04-3.94-8.51-2.34h0Z" fill="#ead9cf"/>
        <path d="M70.39,48.68c-1.81-3.38-3.61-6.77-5.42-10.16" fill="none"/>
      </g>
    </g>
    <g>
      <path d="M46.55,61.05c-1.51,1.51-3.67,2.72-5.36,3.91-3.36,2.29-7.09,4.57-10.35,7.08-1.23.95-2.6,2.08-3.79,3.09-1.37,1.17-2.76,2.4-4.15,3.55-1.49,1.2-2.85,2.32-4.6,2.89-1.3.43-3.02.23-3.37-1.06-.37-1.24.61-2.8,1.57-3.9,2.5-2.84,5.43-5.28,8.29-7.85,3.42-3.04,7.16-6.18,10.79-8.84,2.56-1.82,6.03-4.86,9.07-5.33,1.38-.2,2.65.35,3.33,1.51.82,1.54,0,3.48-1.39,4.92l-.04.04h0Z" fill="#f09077"/>
      <path d="M15.19,84.15c1.37-1.35,2.14-3.04,3.03-4.65.36-.72,2.5-3.5.61-2.72-.63.29-1.48.91-2.22,1.26-1.21.59-2.52.84-3.71,1.51-1.05.58-2,1.35-2.93,2.11-2.42,2.05-4.87,4.04-7.11,6.25-2.21,2.26-1.59,3.18,1.55,2.3,3.96-1.01,7.87-3.11,10.74-6.03l.03-.03Z" fill="#f09077"/>
    </g>
  </g>
  <g>
    <g>
      <path d="M64.46,15.79c-1.22,1.72-3.54,2.47-5.73,3.48-2.04.93-3.99,1.95-5.97,3.06-1.36.76-2.79,1.59-4.21,2.38-2.8,1.48-5.61,3.24-8.43,2.7-1.86-.45-2.5-2.46-1.73-4.13.67-1.43,2.07-2.45,3.52-3.37,2.71-1.69,5.9-3.37,8.81-4.88,3.55-1.82,7.29-3.72,10.8-4.8,4.19-1.53,4.95,2.79,2.97,5.52l-.02.03h0Z" fill="#f09077"/>
      <g>
        <path d="M75.56,1.46c-.57.28-1.13.57-1.7.85-5.25,2.61-7.07,3.49-10.34,5.15-.53.27-1.39.71-2.48,1.26.2.46.4.93.58,1.41,1.11,2.95,1.69,5.92,1.93,8.76,4.46-2.12,8.93-4.23,13.39-6.34,4.35-1.81,7.56-5.76,7.18-8.83-.38-3.07-4.21-4.08-8.56-2.27h0Z" fill="#ead9cf"/>
        <path d="M66.43,17.96c-1.16-3.36-2.32-6.73-3.47-10.09" fill="none"/>
      </g>
    </g>
    <g>
      <path d="M43.7,26.63c-1.53,1.22-3.6,2.1-5.25,3-3.28,1.73-6.87,3.41-10.09,5.35-1.21.74-2.58,1.62-3.76,2.42-1.37.92-2.76,1.9-4.14,2.81-1.48.94-2.83,1.82-4.45,2.14-1.21.25-2.7-.15-2.84-1.38-.16-1.2.91-2.53,1.9-3.44,2.59-2.34,5.49-4.26,8.36-6.32,3.42-2.42,7.15-4.89,10.71-6.94,2.5-1.38,5.98-3.8,8.73-3.88,1.25-.02,2.31.64,2.75,1.8.52,1.53-.45,3.24-1.87,4.41l-.04.03h0Z" fill="#f09077"/>
      <path d="M12.91,44.39c1.39-1.1,2.3-2.58,3.29-3.97.41-.63,2.67-2.95.9-2.45-.6.19-1.43.67-2.13.9-1.15.4-2.34.48-3.48.97-1.01.42-1.95,1.02-2.87,1.62-2.41,1.62-4.84,3.17-7.11,4.97-2.25,1.84-1.83,2.77,1.07,2.33,3.64-.47,7.37-1.96,10.3-4.34l.03-.03Z" fill="#f09077"/>
    </g>
  </g>
  <path d="M76.39,1.81c.96-.34,2.41-.81,4.22-1.18,6.07-1.26,11.07-.44,16.88.83,9.16,2,17.62,3.9,28.87,8.9,4.02,1.79,7.27,3.47,9.5,4.68-6.87,8.03-13.74,16.06-20.61,24.1-.57.67-1.4,1.06-2.25,1.06h-36.2c-1.02.01-1.87-.54-2.31-1.36-.32-.61-.31-1.21-.31-1.37,0-1.37-.63-3.84-1.15-7.07.18.06.38.15.59.26.84.44,1.12.85,1.4,1.06.11.09.22.13.37.14,1.45.07,3.87-3.99,3.25-7.94-.61-3.95-4.16-7.08-5.52-6.57-.14.05-.24.14-.32.26-.03.04-.05.07-.08.12.21-1.17.44-2.34.68-3.53.88-4.32,1.89-8.45,3-12.37Z" fill="#ead9cf"/>
</svg>