<?xml version="1.0" encoding="UTF-8"?>
<svg id="_Слой_1" data-name="Слой 1" xmlns="http://www.w3.org/2000/svg" viewBox="0 0 135.47 161.72">
  <g>
    <path d="M104.7,106.37c-4.86,3.27-11.54,1.84-14.93-3.2-3.39-5.04-2.2-11.77,2.66-15.04,4.86-3.27,11.54-1.84,14.93,3.2,3.39,5.04,2.2,11.77-2.66,15.04Z" fill="#98afc1"/>
    <circle cx="62.19" cy="122.17" r="9.4" transform="translate(-57.6 55.52) rotate(-33.93)" fill="#98afc1"/>
    <polygon points="67.44 129.97 56.94 114.36 92.43 88.13 104.7 106.37 67.44 129.97" fill="#98afc1"/>
  </g>
  <circle cx="122.3" cy="105.98" r="10.68" fill="#98afc1"/>
  <path d="M130.21,83.69l-10.57-1.85-20.44-3.71c7.43-3.52,14.86-7.04,22.3-10.56,2.94,4.46,5.04,8.35,6.5,11.28,1.04,2.09,1.74,3.6,2.22,4.84Z" fill="#f09077"/>
  <path d="M130.23,83.69c-10.41-1.82-20.81-3.64-31.22-5.47-1.87,2.22-3.94,5.03-5.88,8.47-2.48,4.41-3.99,8.52-4.93,11.82,3.01,2.55,10.26,8.01,21.18,9.85,11.14,1.88,19.93-1.04,23.6-2.5.08-3.65-.07-7.88-.69-12.54-.33-2.48-.78-4.95-1.34-7.39-.4-1.74-1.2-3.61-2.93-7.09-1.46-2.93-3.57-6.82-6.5-11.28-7.5,3.55-15,7.1-22.49,10.65" fill="#98afc1"/>
  <path d="M109.05,130.8c-1.88.85-2.61,3.27-1.71,5.11.58,1.32,1.61,2.46,1.97,3.88.98,3.09-1.82,6.54-.52,9.17,1.16,2.11,5.72,2.7,7.04.51.74-1.16.82-2.67.96-4.03.26-3.67.59-7.33-1.14-10.75-1.13-2.4-3.68-5.21-6.55-3.9l-.05.02Z" fill="#896565"/>
  <rect x="112.7" y="132" width="6" height="19.41" rx="2.23" ry="2.23" transform="translate(-57.55 82.97) rotate(-32.04)" fill="#e6926d"/>
  <g>
    <ellipse cx="122.23" cy="105.46" rx="10.99" ry="11.18" transform="translate(-9.03 11.47) rotate(-5.18)" fill="#98afc1"/>
    <ellipse cx="126.06" cy="151.81" rx="9.4" ry="9.92" transform="translate(-13.2 12.01) rotate(-5.18)" fill="#98afc1"/>
    <polygon points="116.7 152.66 135.43 150.96 133.18 104.47 111.29 106.46 116.7 152.66" fill="#98afc1"/>
  </g>
  <g>
    <path d="M19.96,153.53c-.21-.77-.72-2.25-2.03-3.65-1.08-1.15-2.24-1.75-2.94-2.05,1.41-.75,3.12-1.84,4.88-3.39,1.43-1.26,2.54-2.51,3.38-3.61.25,1.11.79,2.88,2.07,4.73,1.14,1.65,2.43,2.72,3.31,3.35-.94,0-2.81.13-4.84,1.19-2.11,1.1-3.31,2.64-3.84,3.42Z" fill="#e6926d"/>
    <g>
      <ellipse cx="61.79" cy="122.41" rx="8.66" ry="9.33" transform="translate(-54.97 50.51) rotate(-31.59)" fill="#98afc1"/>
      <path d="M31.94,149.23c-2.3-3.73-4.6-7.46-6.9-11.2,10.62-7.86,21.24-15.72,31.87-23.58l9.78,15.9c-11.58,6.29-23.16,12.58-34.74,18.88h0Z" fill="#99b0c2"/>
    </g>
    <rect x="19.19" y="141.27" width="14.34" height="7.14" rx="1.02" ry="1.02" transform="translate(135.92 46.51) rotate(58.41)" fill="#b8c2cb"/>
  </g>
  <g>
    <path d="M19.71,152.31c0,1.68-2.44,3.91-5.07,3.78-2.93-.14-5.2-3.17-4.75-4.57.26-.83.83-1.39,1.82-2.16,1.49-1.16,2.93-1.46,4.64-1.81,1.11-.23,2.52-.5,2.85.05.12.2.02.31-.04,1.58-.02.28,0,.63.05,1.06,0,.07.04.29.17.82.08.31.19.74.35,1.26Z" fill="#e6926d"/>
    <path d="M9.12,149.89c-.95.2-2.04.86-2.98,1.43-1.55.93-2.77,2.07-4.13,3.36-1.39,1.27-3.5,3.79-.43,4.38.97.14,2.01.1,3.1.12h11.1c1.71-.11,4.24.53,4.99-1.5.36-.88.35-1.9.22-2.83-.16-1.14-.35-2.12-.89-2.44-1.28-.54-2.41,1.31-3.31,1.98-.68.57-2.51,1.14-3.34.85-.56-.35-.23-1.18-.28-1.77.11-2.37-1.67-4-4-3.58h-.04Z" fill="#896565"/>
  </g>
  <g>
    <g>
      <path d="M71.57,75.51c-.11,1.94-1.55,3.66-2.75,5.53-1.13,1.73-2.15,3.48-3.14,5.32-.69,1.26-1.39,2.61-2.1,3.92-1.46,2.53-2.78,5.27-5.24,6.25-1.67.56-3.15-.69-3.37-2.36-.19-1.44.41-2.92,1.08-4.35,1.28-2.65,2.94-5.52,4.46-8.13,1.87-3.16,3.85-6.47,6.05-9.05,2.51-3.25,5.23-.26,5.02,2.84v.04s0,0,0,0Z" fill="#f09077"/>
      <g>
        <path d="M71.17,63.58c-.24.35-.48.7-.72,1.05-2.22,3.24-3,4.35-4.36,6.39-.22.33-.58.87-1.03,1.55.39.23.78.48,1.18.74,2.39,1.57,4.42,3.31,6.15,5.07,1.94-2.69,3.89-5.37,5.83-8.06,2.03-2.45,2.09-5.95.15-7.82-1.95-1.86-5.17-1.38-7.2,1.07h0Z" fill="#ead9cf"/>
        <path d="M74.17,76.23c-2.55-2.05-5.11-4.1-7.66-6.15" fill="none"/>
      </g>
    </g>
    <g>
      <path d="M60.74,94.15c-.59,1.7-1.78,3.4-2.62,4.92-1.7,2.95-3.68,6.03-5.23,9.13-.58,1.17-1.21,2.53-1.74,3.74-.61,1.39-1.21,2.84-1.84,4.22-.69,1.46-1.31,2.81-2.41,3.86-.82.79-2.18,1.21-2.89.32-.72-.85-.53-2.42-.21-3.61.86-3.09,2.18-6.02,3.41-9.03,1.48-3.56,3.16-7.32,4.93-10.66,1.27-2.31,2.79-5.89,4.89-7.31.96-.63,2.11-.63,3.02.05,1.16.93,1.24,2.74.71,4.35v.04s-.01,0-.01,0Z" fill="#f09077"/>
      <path d="M45.49,123.1c.54-1.53.52-3.13.61-4.7.01-.69.63-3.61-.51-2.35-.37.44-.78,1.23-1.21,1.75-.7.88-1.59,1.53-2.24,2.46-.58.82-1.02,1.75-1.44,2.67-1.08,2.44-2.21,4.85-3.09,7.36-.85,2.54-.06,3.06,1.98,1.28,2.6-2.15,4.78-5.15,5.89-8.44v-.04Z" fill="#f09077"/>
    </g>
  </g>
  <path d="M110.97,138.46c.39,1.67.38,3.43-.03,5.1-.08.33-.15.73.09.95.11.1.25.14.39.17.72.19,1.45.36,2.19.51.27.06.59.09.78-.1.18-.19.14-.52.31-.73.02-1.02.05-2.06.07-3.08.02-.89,0-1.89-.64-2.52-.66-.66-1.72-.64-2.66-.58-.22.01-.41.08-.52.27Z" fill="none"/>
  <g>
    <path d="M95.08,42.17c6.88,5.75,23.16,20.59,27.12,23.99,1.08.9,1.72,2.07,1.91,3.29.32,2.02-.91,3.75-1.56,4.66,0,0-9.67,13.47-18.1,17.31-1.09.5-1.93.55-2.39.55,0,0-1.39-.01-2.79-.82-3.68-2.11-7.58-11.29-14.59-16.02-.34-.23-2.72-1.54-7.5-4.16-2.44-1.34-4.43-2.42-5.7-3.1-.72-1.16-1.04-2.7-.61-4.04.41-1.65,2.05-3.15,3.25-4.55,1.04-1.17,1.69-1.87,3.31-1.46,1.87.32,3.69-.39,5.39-1.93,1.67-1.47,3.01-4.2,2.62-6.18-.09-.67-.43-1.31-.4-1.98.04-.6.44-1.17.87-1.68.57-.67,1.2-1.36,1.78-2.02,1.52-1.7,2.77-2.47,4.34-2.61.54-.05,1.66-.04,3.04.76Z" fill="#ead9cf"/>
    <g>
      <path d="M83.98,55.73c-2.45,2.75-6.75,3.41-7.55,2.33-.08-.11-.11-.22-.12-.35-.02-.32.12-.75-.07-1.61-.18-.85-.48-1.25-.72-1.63h0c-.1-.16-.2-.32-.27-.51.31-.06.61-.13.9-.22,1.2-.37,2.28-1.03,3.13-1.99s1.41-2.18,1.63-3.46c.05-.27.08-.55.09-.83.17.04.32.1.47.17h0c.33.16.7.35,1.4.44,1.16.15,1.72-.19,2.16-.21.13,0,.25.01.37.08,1.17.67,1.02,5.02-1.43,7.77Z" fill="#f09077"/>
      <path d="M75.26,53.97c.31-.06.61-.13.9-.22-.21.24-.43.48-.64.73h0c-.17-.16-.33-.31-.5-.47.08-.01.16-.02.23-.04Z" fill="#f09077"/>
      <path d="M81.48,47.64h0c-.19.22-.38.43-.57.65.05-.27.08-.55.09-.83,0-.07,0-.14.01-.21.15.13.31.26.46.39Z" fill="#f09077"/>
    </g>
    <path d="M81.02,47.26c0,.07,0,.14-.01.21-.02.28-.05.56-.09.83-.22,1.29-.75,2.48-1.63,3.46s-1.92,1.61-3.13,1.99c-.3.09-.6.16-.9.22-.08.01-.16.03-.23.04-1.65-1.56-3.31-3.12-4.96-4.68h0c-1.51-1.34-1.44-3.88.15-5.66,1.59-1.79,4.1-2.15,5.6-.81,0,0,.02.01.02.02,1.73,1.46,3.45,2.92,5.18,4.37Z" fill="#b46048"/>
  </g>
  <g>
    <path d="M68.44,31.43c7.85,3.39,12.12,10.97,9.55,16.91-2.57,5.94-11.02,8.01-18.86,4.62-.93-.4-1.81-.86-2.63-1.37-4.84-3-7.76-7.68-7.66-12.1.03-1.18.27-2.34.75-3.44.53-1.23,1.31-2.29,2.29-3.17,3.19-2.88,8.44-3.85,13.77-2.42.94.25,1.87.58,2.8.98h0Z" fill="#ea8f72"/>
    <ellipse cx="65.73" cy="37.46" rx=".65" ry="1.85" transform="translate(5.25 82.91) rotate(-66.6)" fill="#422f2b"/>
    <path d="M62.51,42.49c.29.32.78.46,1.19.68.36.19.79.34,1.04.67.23.3.22.69.27,1.06.06.39.18.78.41,1.11.42.58,1.18.99,1.9.8.78-.21,1.26-.93,1.64-1.59.16-.28.43-.77.37-1.05-.02-.12-.12-.17-.24-.09-.41.28-.57.94-.91,1.3-.43.58-1.26.94-1.9.48-.89-.6-.51-1.58-.85-2.4-.28-.57-.98-.77-1.51-1.01-.41-.15-.88-.43-1.32-.34-.18.04-.24.2-.09.38h0s0,.01,0,.01Z" fill="#c2684e"/>
    <g>
      <path d="M42.68,42.01c1.21.61,1.97.52,1.97.52l.05-.94s-1.72.63-2.24.28l.22.13Z" fill="#5b3d3b"/>
      <path d="M64.7,28.68c.42.27,1,.64,1.59,1.1.89.69,2.17,1.88,3.39,3.81-2.73-1.59-5.17-2.28-6.81-2.61-1.61-.33-3.02-.59-4.87-.29-.84.14-3.19.55-5.3,2.47-.66.6-1.23,1.31-1.7,2.07-.19.3-.36.62-.51.94-.06.12-.1.21-.14.27-.02.07-.06.17-.1.29-.13.33-.24.67-.33,1.02-.23.86-.36,1.76-.35,2.66.04,2.86,1.35,4.85,1.83,5.56,1.05,1.56,2.21,2.4,3.55,3.35,1.37.97,3.54,2.27,6.57,3.18-2.24.43-3.98.31-5.1.13-.74-.11-1.41-.28-1.89-.4-.98-.25-2.17-.55-3.55-1.17-.49-.22-1.35-.61-2.37-1.32-1-.69-1.74-1.4-2.27-1.98-.52-.58-.83-1.04-.95-1.23-1.14-1.95-1.36-3.87-1.38-5.02-.53-.06-1.05-.2-1.55-.42-1.77-.77-2.98-2.41-3.4-4.27-.28-1.26-.15-2.25-.03-3.01.22-1.41,1.14-3.11,1.14-3.11.18-.28.39-.55.5-.7.59-.82,1.34-1.53,2.21-2.04,1.64-.97,3.67-1.21,5.44-.44.51.22.96.5,1.37.84.86-.77,2.4-1.92,4.61-2.43.22-.04.77-.13,1.55-.15.78-.02,1.81.04,3,.29,1.21.26,2.09.62,2.58.82,1.4.58,2.44,1.24,3.29,1.78h0Z" fill="#5b3d3b"/>
    </g>
    <rect x="55.47" y="44.45" width="3.65" height="2" transform="translate(-4.43 84.67) rotate(-70.85)" fill="#50373b"/>
    <ellipse cx="61.49" cy="47.26" rx=".65" ry="1.85" transform="translate(-6.3 84.93) rotate(-66.6)" fill="#422f2b"/>
    <g>
      <path d="M73.26,41.14c.61.02,1.65,2.97.6,5.42-1.06,2.45-3.93,3.7-4.36,3.27-.31-.31.78-1.34,2.04-4.27,1.27-2.93,1.28-4.43,1.72-4.42Z" fill="#ea7564"/>
      <path d="M70.35,49.09c.26-.1.46-.31.65-.52.77-.89,1.29-1.96,1.75-3.03.17-.39.32-.78.44-1.18.19-.67.25-1.38.18-2.07" fill="none" stroke="#d3584a" stroke-linecap="round" stroke-linejoin="round" stroke-width=".4"/>
    </g>
    <rect x="60.54" y="33.83" width="2" height="3.65" transform="translate(99.5 95.79) rotate(-152.35)" fill="#50373b"/>
    <g>
      <path d="M73.23,31.57c-1.96-1.54-3.8-2.06-3.8-2.06,0,0-1.39-.42-2.09.61s-.2,1.71-.2,1.71c0,0,.65.96,2.31,1.76,1.66.81,2.88,1.43,3.92,1.69,1.04.27,1.83-2.18-.13-3.72h0Z" fill="#ea8f72"/>
      <g>
        <path d="M70.99,32.95c.15-.24.31-.47.46-.71.06-.1.1-.19.09-.31-.01-.1-.07-.22-.15-.28-.09-.07-.2-.11-.31-.09-.1.02-.22.06-.28.15-.15.24-.31.47-.46.71-.06.1-.1.19-.09.31.01.1.07.22.15.28.09.07.2.11.31.09.1-.02.22-.06.28-.15h0Z" fill="#ce7857"/>
        <path d="M72.89,33.38c-.06,0-.12-.02-.18-.03-.06-.01.07.03-.04-.01-.03-.01-.07-.02-.1-.03-.18-.06-.36-.14-.54-.23-.41-.2-.78-.41-1.15-.65-.38-.25-.75-.52-1.08-.83-.12-.12-.21-.2-.32-.37-.02-.03-.04-.06-.05-.09.06.09,0-.02-.02-.04-.01-.03-.02-.05-.03-.08.04.11,0,.01,0-.02-.04-.54-.87-.44-.83.1.03.41.33.75.6,1.03.35.35.75.65,1.16.93.44.3.91.57,1.39.8.33.16.71.33,1.08.36.53.05.66-.78.12-.83h0Z" fill="#ce7857"/>
      </g>
    </g>
    <g>
      <path d="M62.37,56.47c-2.46-.38-4.11-1.36-4.11-1.36,0,0-1.26-.73-.99-1.94.27-1.22,1.11-1.32,1.11-1.32,0,0,1.14-.18,2.87.48,1.72.66,3.01,1.12,3.92,1.69.91.57-.34,2.82-2.8,2.45h0Z" fill="#ea8f72"/>
      <g>
        <path d="M61.01,53.77c-.07.27-.13.55-.2.82-.02.1.02.23.08.31.06.08.18.16.28.17s.22,0,.31-.08l.08-.08c.05-.06.08-.13.09-.2.07-.27.13-.55.2-.82.02-.1-.02-.23-.08-.31-.06-.08-.18-.16-.28-.17s-.22,0-.31.08l-.08.08c-.05.06-.08.13-.09.2h0Z" fill="#ce7857"/>
        <path d="M63.98,54.33c-.28-.25-.66-.4-1-.54-.5-.19-1.01-.35-1.53-.47-.48-.11-.97-.2-1.47-.21-.39,0-.84,0-1.16.26-.42.34.08,1.02.5.68.03-.02.12-.07,0-.02.02-.01.05-.02.08-.03.02,0,.15-.04.04-.02.03,0,.07-.01.1-.02.09-.01.17-.02.26-.02.1,0,.1,0,.23,0,.45.03.9.11,1.35.22s.84.23,1.26.39c.18.07.36.15.53.24.03.02.06.03.09.05.11.06-.01-.01.04.02.05.04.1.07.14.11.4.36.93-.29.53-.65h0Z" fill="#ce7857"/>
      </g>
    </g>
  </g>
  <g>
    <g>
      <path d="M88.15,39.01c-1.92-.27-3.52-1.86-5.27-3.22-1.63-1.28-3.28-2.44-5.03-3.59-1.2-.79-2.48-1.61-3.73-2.43-2.39-1.67-5.02-3.22-5.78-5.75-.42-1.71.95-3.08,2.64-3.16,1.45-.06,2.88.66,4.24,1.45,2.53,1.5,5.25,3.4,7.71,5.14,2.99,2.13,6.12,4.39,8.5,6.8,3.02,2.78-.19,5.23-3.26,4.76h-.04s0,0,0,0Z" fill="#f09077"/>
      <g>
        <path d="M100.06,39.64c-.33-.27-.66-.54-.99-.81-3.03-2.49-4.07-3.36-5.99-4.9-.31-.25-.82-.65-1.46-1.16-.27.37-.55.74-.84,1.11-1.77,2.25-3.68,4.13-5.58,5.69,2.51,2.17,5.02,4.33,7.53,6.5,2.27,2.23,5.75,2.6,7.77.82,2.02-1.78,1.82-5.03-.45-7.26h0Z" fill="#ead9cf"/>
        <path d="M87.21,41.54c2.26-2.37,4.52-4.74,6.78-7.11" fill="none"/>
      </g>
    </g>
    <g>
      <path d="M70.51,26.62c-1.65-.74-3.24-2.06-4.68-3.03-2.8-1.95-5.7-4.18-8.64-5.99-1.12-.68-2.42-1.42-3.57-2.05-1.33-.73-2.72-1.45-4.04-2.2-1.4-.81-2.69-1.54-3.64-2.74-.71-.89-1.02-2.27-.07-2.91.91-.64,2.45-.33,3.62.1,3.01,1.13,5.81,2.69,8.7,4.17,3.43,1.78,7.02,3.78,10.2,5.83,2.19,1.46,5.63,3.28,6.86,5.5.54,1.01.45,2.16-.31,3.01-1.03,1.07-2.84,1-4.4.34l-.04-.02h0Z" fill="#f09077"/>
      <path d="M42.97,8.95c1.48.67,3.08.79,4.63,1.01.69.07,3.55.94,2.39-.3-.41-.41-1.16-.88-1.64-1.36-.81-.77-1.38-1.71-2.26-2.44-.77-.65-1.66-1.17-2.54-1.66-2.34-1.29-4.64-2.62-7.07-3.71-2.45-1.06-3.04-.32-1.45,1.86,1.92,2.78,4.72,5.2,7.9,6.59h.03Z" fill="#f09077"/>
    </g>
  </g>
</svg>