<svg width="125" height="76" viewBox="0 0 125 76" fill="none" xmlns="http://www.w3.org/2000/svg">
<path d="M117.48 0.580002H7.21997C3.59146 0.580002 0.650024 3.52149 0.650024 7.15V68.68C0.650024 72.3085 3.59146 75.25 7.21997 75.25H117.48C121.108 75.25 124.05 72.3085 124.05 68.68V7.15C124.05 3.52149 121.108 0.580002 117.48 0.580002Z" fill="white"/>
<path d="M98.5 71.84H24.2C26.7 67.67 29.19 63.5 31.69 59.33H90.83C93.39 63.5 95.94 67.67 98.5 71.84Z" fill="#C9C0C0"/>
<path d="M58.69 19.56C58.76 19.75 58.81 19.94 58.84 20.14C58.79 19.95 58.74 19.75 58.69 19.56Z" fill="#EAD9CF"/>
<path d="M70.41 61.15C69.01 61.84 65.61 63.32 60.91 63.34C56.3 63.36 52.94 61.98 51.52 61.31C51.67 60.17 51.99 58.72 52.69 57.12C53.3 55.72 54.03 54.57 54.7 53.67C58.96 53.67 63.22 53.69 67.48 53.7C68.07 54.64 68.69 55.75 69.22 57.05C69.85 58.58 70.2 59.98 70.4 61.16L70.41 61.15Z" fill="#98AFC1"/>
<path d="M64.62 33.04C64.75 33.68 63.13 35.03 61.34 35.02C59.56 35.02 57.93 33.67 58.06 33.04C58.11 32.81 58.36 32.82 58.71 32.34C59.13 31.77 58.9801 31.48 59.2801 31.14C59.6401 30.73 60.22 30.73 61.39 30.74C62.4 30.74 62.92 30.75 63.25 31.12C63.53 31.42 63.4 31.65 63.75 32.17C64.17 32.78 64.55 32.76 64.61 33.05L64.62 33.04Z" fill="#F09077"/>
<path d="M61.27 29.69C62.4298 29.69 63.37 28.8975 63.37 27.92C63.37 26.9424 62.4298 26.15 61.27 26.15C60.1102 26.15 59.17 26.9424 59.17 27.92C59.17 28.8975 60.1102 29.69 61.27 29.69Z" fill="#F09077"/>
<path d="M63.46 31.52C61.99 31.53 60.53 31.55 59.06 31.56C59.1 30.35 59.13 29.13 59.17 27.92H63.37C63.4 29.12 63.43 30.32 63.46 31.52Z" fill="#F09077"/>
<path d="M63.45 30.93C63.45 30.93 63.4 30.97 63.37 30.99C63.26 31.07 63.15 31.15 63.04 31.21C62.51 31.53 61.9 31.71 61.27 31.71C60.64 31.71 60.07 31.54 59.55 31.24C59.42 31.17 59.3 31.08 59.18 30.99C59.15 30.97 59.12 30.94 59.09 30.92C59.12 29.86 59.15 28.81 59.19 27.75C59.19 26.81 60.13 26.05 61.28 26.05C62.43 26.05 63.37 26.81 63.37 27.75C63.37 27.75 63.37 27.76 63.37 27.77C63.4 28.82 63.42 29.87 63.45 30.92V30.93Z" fill="#B46048"/>
<path d="M66.38 23.54C66.38 27.26 64.1 30.27 61.28 30.27C58.46 30.27 56.18 27.26 56.18 23.54C56.18 23.1 56.21 22.67 56.27 22.25C56.63 19.8 57.99 17.83 59.77 17.11C60.24 16.92 60.75 16.81 61.27 16.81C61.85 16.81 62.41 16.94 62.93 17.18C64.63 17.95 65.92 19.88 66.27 22.25C66.33 22.67 66.36 23.1 66.36 23.54H66.38Z" fill="#EA8F72"/>
<path d="M63.51 24.3C63.6646 24.3 63.79 23.9418 63.79 23.5C63.79 23.0582 63.6646 22.7 63.51 22.7C63.3554 22.7 63.23 23.0582 63.23 23.5C63.23 23.9418 63.3554 24.3 63.51 24.3Z" fill="#422F2B"/>
<path d="M60.94 23.08C60.86 23.25 60.89 23.47 60.87 23.67C60.86 23.85 60.87 24.05 60.78 24.2C60.7 24.34 60.54 24.41 60.4 24.49C60.25 24.58 60.12 24.7 60.03 24.84C59.87 25.11 59.84 25.48 60.03 25.74C60.25 26.02 60.62 26.08 60.95 26.12C61.09 26.14 61.33 26.16 61.43 26.08C61.47 26.05 61.48 26 61.43 25.97C61.25 25.85 60.96 25.91 60.75 25.83C60.45 25.76 60.16 25.49 60.23 25.15C60.32 24.69 60.77 24.67 61.04 24.4C61.22 24.19 61.18 23.88 61.18 23.62C61.17 23.43 61.2 23.2 61.09 23.03C61.04 22.97 60.97 22.97 60.92 23.06L60.94 23.08Z" fill="#C2684E"/>
<path d="M57.71 15.09C57.68 15.68 57.8401 15.96 57.8401 15.96L58.22 15.82C58.22 15.82 57.67 15.24 57.72 14.98" fill="#5B3D3B"/>
<path d="M66.83 21.57C66.79 21.78 66.75 22.08 66.67 22.39C66.55 22.86 66.3 23.58 65.74 24.4C65.9 23.04 65.76 21.94 65.61 21.23C65.46 20.53 65.33 19.92 64.89 19.23C64.69 18.92 64.12 18.05 62.99 17.54C62.63 17.38 62.25 17.28 61.87 17.22C61.72 17.2 61.56 17.18 61.41 17.18C61.35 17.18 61.3101 17.18 61.2801 17.18C61.2501 17.18 61.2001 17.18 61.1501 17.18C61.0001 17.18 60.84 17.2 60.69 17.22C60.31 17.28 59.92 17.38 59.57 17.54C58.44 18.05 57.87 18.91 57.67 19.23C57.23 19.92 57.09 20.53 56.95 21.23C56.8 21.94 56.65 23.04 56.82 24.4C56.26 23.58 56.01 22.86 55.89 22.39C55.81 22.08 55.76 21.78 55.73 21.57C55.66 21.14 55.5701 20.61 55.5901 19.95C55.5901 19.72 55.6 19.31 55.71 18.78C55.81 18.26 55.97 17.84 56.11 17.53C56.25 17.22 56.38 17.02 56.44 16.94C57.02 16.15 57.75 15.73 58.2 15.52C58.13 15.3 58.1 15.07 58.1 14.83C58.1 13.99 58.55 13.22 59.21 12.74C59.66 12.41 60.08 12.29 60.41 12.21C61.01 12.06 61.85 12.13 61.85 12.13C61.99 12.15 62.14 12.19 62.22 12.21C62.65 12.3 63.06 12.48 63.42 12.74C64.09 13.23 64.5301 14 64.5301 14.83C64.5301 15.07 64.49 15.3 64.43 15.52C64.89 15.73 65.61 16.15 66.19 16.94C66.25 17.02 66.37 17.22 66.52 17.53C66.66 17.84 66.82 18.26 66.92 18.78C67.03 19.31 67.03 19.72 67.04 19.95C67.05 20.61 66.9701 21.14 66.9001 21.57H66.83Z" fill="#5B3D3B"/>
<path d="M59.63 21.0215L58.0444 21.1393L58.1089 22.0069L59.6945 21.8891L59.63 21.0215Z" fill="#50373B"/>
<path d="M58.87 24.3C59.0246 24.3 59.15 23.9418 59.15 23.5C59.15 23.0582 59.0246 22.7 58.87 22.7C58.7154 22.7 58.59 23.0582 58.59 23.5C58.59 23.9418 58.7154 24.3 58.87 24.3Z" fill="#422F2B"/>
<path d="M63.34 27.14C63.44 27.38 62.44 28.31 61.28 28.31C60.12 28.31 59.12 27.38 59.22 27.14C59.29 26.97 59.89 27.22 61.28 27.22C62.67 27.22 63.27 26.97 63.34 27.14Z" fill="#EA7564"/>
<path d="M59.67 27.35C59.75 27.44 59.87 27.48 59.99 27.52C60.48 27.67 60.99 27.7 61.5 27.7C61.68 27.7 61.87 27.7 62.05 27.67C62.35 27.63 62.64 27.53 62.91 27.39" stroke="#D3584A" stroke-width="0.17" stroke-linecap="round" stroke-linejoin="round"/>
<path d="M62.7448 21.0254L62.6803 21.893L64.2659 22.0109L64.3304 21.1433L62.7448 21.0254Z" fill="#50373B"/>
<path d="M67.15 25.48C67.43 24.43 67.32 23.61 67.32 23.61C67.32 23.61 67.25 22.98 66.72 22.88C66.19 22.78 66 23.1 66 23.1C66 23.1 65.73 23.53 65.7 24.33C65.67 25.13 65.63 25.72 65.7 26.18C65.77 26.64 66.88 26.53 67.16 25.49L67.15 25.48Z" fill="#EA8F72"/>
<path d="M66.21 24.82C66.33 24.84 66.45 24.86 66.57 24.88C66.62 24.88 66.67 24.88 66.71 24.86C66.75 24.84 66.78 24.79 66.79 24.75C66.8 24.7 66.79 24.65 66.77 24.61C66.75 24.57 66.71 24.53 66.66 24.53C66.54 24.51 66.42 24.49 66.3 24.47C66.25 24.47 66.2 24.47 66.16 24.49C66.12 24.51 66.09 24.56 66.08 24.6C66.07 24.65 66.08 24.7 66.1 24.74C66.12 24.78 66.16 24.82 66.21 24.82Z" fill="#CE7857"/>
<path d="M66.37 25.65C66.37 25.65 66.36 25.6 66.35 25.57C66.35 25.61 66.35 25.53 66.35 25.57V25.52C66.34 25.44 66.35 25.35 66.35 25.27C66.35 25.07 66.38 24.88 66.41 24.69C66.44 24.49 66.49 24.3 66.56 24.11C66.56 24.09 66.58 24.07 66.59 24.04C66.58 24.07 66.59 24.03 66.59 24.02C66.61 23.98 66.63 23.95 66.65 23.91C66.65 23.9 66.66 23.89 66.67 23.88C66.64 23.92 66.67 23.88 66.68 23.87C66.73 23.83 66.68 23.86 66.68 23.87C66.69 23.87 66.7 23.86 66.71 23.85C66.92 23.74 66.73 23.43 66.53 23.54C66.28 23.67 66.18 24.03 66.12 24.28C66.03 24.62 65.98 24.99 65.97 25.34C65.97 25.48 65.97 25.63 66.01 25.76C66.08 25.98 66.44 25.89 66.36 25.66L66.37 25.65Z" fill="#CE7857"/>
<path d="M55.34 25.44C55.06 24.39 55.17 23.57 55.17 23.57C55.17 23.57 55.24 22.94 55.77 22.84C56.3 22.74 56.49 23.06 56.49 23.06C56.49 23.06 56.76 23.49 56.79 24.29C56.82 25.09 56.86 25.68 56.79 26.14C56.72 26.6 55.61 26.49 55.33 25.45L55.34 25.44Z" fill="#EA8F72"/>
<path d="M56.19 24.43C56.07 24.45 55.95 24.47 55.83 24.49C55.79 24.49 55.74 24.54 55.72 24.57C55.7 24.61 55.69 24.67 55.7 24.71C55.71 24.75 55.7401 24.8 55.7801 24.82L55.82 24.84C55.82 24.84 55.88 24.84 55.92 24.84C56.04 24.82 56.1601 24.8 56.2801 24.78C56.3201 24.78 56.37 24.73 56.39 24.7C56.41 24.66 56.42 24.6 56.41 24.56C56.4 24.52 56.37 24.47 56.33 24.45L56.29 24.43C56.29 24.43 56.23 24.43 56.19 24.43Z" fill="#CE7857"/>
<path d="M56.48 25.71C56.57 25.45 56.52 25.13 56.49 24.86C56.45 24.51 56.38 24.14 56.23 23.82C56.17 23.69 56.09 23.55 55.96 23.49C55.75 23.38 55.57 23.7 55.78 23.8C55.79 23.8 55.8 23.81 55.81 23.82C55.81 23.82 55.84 23.86 55.83 23.84C55.82 23.82 55.84 23.86 55.85 23.87C55.87 23.9 55.89 23.94 55.91 23.98C55.91 23.98 55.93 24.03 55.91 24C55.91 24.02 55.93 24.04 55.94 24.07C56.01 24.26 56.05 24.45 56.09 24.65C56.12 24.84 56.14 25.03 56.15 25.23C56.15 25.31 56.15 25.4 56.15 25.48C56.15 25.49 56.15 25.51 56.15 25.52C56.15 25.57 56.15 25.51 56.15 25.53C56.15 25.56 56.14 25.58 56.13 25.61C56.06 25.83 56.41 25.93 56.48 25.71Z" fill="#CE7857"/>
<path d="M69.28 38.87C68.68 43.82 68.09 48.77 67.49 53.71C67.43 54.22 67.01 54.62 66.49 54.67C65.6 54.66 64.18 54.67 62.61 54.67C60.35 54.67 58.09 54.67 55.82 54.66C55.24 54.66 54.76 54.23 54.7 53.68C54.2 48.98 53.71 44.28 53.21 39.58C53.21 37.15 53.22 35.11 53.34 34.15C53.52 33.52 53.94 32.9 54.53 32.63C54.94 32.4 55.46 32.35 55.99 32.34H56.45C56.58 32.35 56.8 32.37 57.06 32.34C58.06 32.24 58.58 31.71 58.83 31.93C59 32.07 58.8 32.35 58.9 32.73C59.11 33.49 60.29 33.8 60.96 33.86C61.98 33.95 63.36 33.6 63.58 32.8C63.71 32.32 63.39 31.88 63.56 31.75C63.78 31.58 64.29 32.33 65.12 32.35C65.25 32.35 65.38 32.35 65.7 32.35C65.91 32.35 66.13 32.35 66.34 32.35C66.36 32.35 66.38 32.35 66.39 32.35H66.69C67.96 32.39 68.91 33.03 69.2 34.42C69.23 35.57 69.25 37.13 69.25 38.88L69.28 38.87Z" fill="#EAD9CF"/>
<path d="M53.9 39.54C54.12 40.46 53.61 41.41 53.24 42.41C52.89 43.34 52.61 44.26 52.35 45.22C52.17 45.88 51.99 46.58 51.8 47.27C51.39 48.6 51.09 50.02 49.94 50.73C49.14 51.16 48.19 50.73 47.84 49.97C47.54 49.31 47.64 48.56 47.79 47.82C48.09 46.45 48.55 44.94 48.98 43.56C49.51 41.89 50.08 40.14 50.87 38.71C51.72 36.93 53.57 38.06 53.9 39.53V39.55V39.54Z" fill="#F09077"/>
<path d="M52.01 34C51.93 34.19 51.86 34.38 51.78 34.57C51.08 36.31 50.82 36.91 50.4 38C50.33 38.18 50.22 38.47 50.08 38.83C50.32 38.9 50.56 38.98 50.8 39.06C52.28 39.55 53.59 40.16 54.74 40.81C55.38 39.36 56.02 37.9 56.66 36.45C57.38 35.1 56.92 33.45 55.63 32.78C54.35 32.11 52.72 32.66 52.01 34.02V34Z" fill="#EAD9CF"/>
<path d="M49.43 47.04C50.02 46.43 50.74 46.07 51.33 45.65C52.5 44.87 53.77 44.15 54.95 43.23C55.39 42.88 55.9 42.46 56.34 42.07C56.85 41.62 57.37 41.14 57.88 40.71C58.43 40.26 58.92 39.84 59.46 39.78C59.86 39.73 60.28 40.09 60.21 40.85C60.15 41.59 59.69 42.3 59.3 42.78C58.28 43.98 57.2 44.91 56.13 45.92C54.85 47.1 53.47 48.3 52.17 49.24C51.27 49.87 49.97 51.05 49.11 50.88C48.72 50.79 48.46 50.31 48.43 49.57C48.41 48.6 48.87 47.65 49.42 47.06V47.04H49.43Z" fill="#EA8C73"/>
<path d="M57.84 41.16C58.8 40.27 59.7 39 60 37.64C60.21 36.84 60.23 35.79 60.44 35.09C60.5 34.79 60.94 33.85 61.07 34.4C61.1 34.56 61.1 34.78 61.11 34.98C61.1 36.35 61.14 38.96 61.09 40.49C61.05 41.34 60.19 41.31 59.48 41.44" fill="#EA8C73"/>
<path d="M64.36 41.16C63.4 40.27 62.5 39 62.2 37.64C61.99 36.84 61.97 35.79 61.76 35.09C61.7 34.79 61.26 33.85 61.13 34.4C61.1 34.56 61.1 34.78 61.09 34.98C61.1 36.35 61.06 38.96 61.11 40.49C61.15 41.34 62.01 41.31 62.72 41.44" fill="#EA8C73"/>
<path d="M68.38 39.55C68.16 40.47 68.67 41.42 69.04 42.42C69.39 43.35 69.67 44.27 69.93 45.23C70.11 45.89 70.29 46.59 70.48 47.28C70.89 48.61 71.19 50.03 72.34 50.74C73.14 51.17 74.09 50.74 74.44 49.98C74.74 49.32 74.64 48.57 74.49 47.83C74.19 46.46 73.73 44.95 73.3 43.57C72.77 41.9 72.1999 40.15 71.4099 38.72C70.5599 36.94 68.71 38.07 68.38 39.54V39.56V39.55Z" fill="#F09077"/>
<path d="M70.28 34.01C70.36 34.2 70.43 34.39 70.51 34.58C71.21 36.32 71.47 36.92 71.89 38.01C71.96 38.19 72.07 38.48 72.21 38.84C71.97 38.91 71.73 38.99 71.49 39.07C70.01 39.56 68.7 40.17 67.55 40.82C66.91 39.37 66.27 37.91 65.63 36.46C64.91 35.11 65.3699 33.46 66.6599 32.79C67.9399 32.12 69.57 32.67 70.28 34.03V34.01Z" fill="#EAD9CF"/>
<path d="M72.86 47.05C72.27 46.44 71.55 46.08 70.96 45.66C69.79 44.88 68.52 44.16 67.34 43.24C66.9 42.89 66.39 42.47 65.95 42.08C65.44 41.63 64.92 41.15 64.41 40.72C63.86 40.27 63.37 39.85 62.83 39.79C62.43 39.74 62.01 40.1 62.08 40.86C62.14 41.6 62.6 42.31 62.99 42.79C64.01 43.99 65.09 44.92 66.16 45.93C67.44 47.11 68.82 48.31 70.12 49.25C71.02 49.88 72.32 51.06 73.18 50.89C73.57 50.8 73.83 50.32 73.86 49.58C73.88 48.61 73.42 47.66 72.87 47.07V47.05H72.86Z" fill="#EA8C73"/>
<path d="M61.1 39.91V34.76" stroke="#AA390B" stroke-width="0.04" stroke-miterlimit="10"/>
<path d="M59.435 68.3852L63.4262 67.5884C64.3253 67.4089 64.9086 66.5346 64.7292 65.6355L64.6195 65.0864C64.44 64.1873 63.5657 63.604 62.6666 63.7835L58.6754 64.5803C57.7763 64.7598 57.193 65.6341 57.3725 66.5332L57.4821 67.0823C57.6616 67.9814 58.5359 68.5647 59.435 68.3852Z" fill="#5B3F3F"/>
<path d="M57.73 63.68C55.36 64.27 52.95 62.75 52.34 60.3C51.73 57.85 53.16 55.38 55.52 54.79C57.88 54.2 60.3 55.72 60.91 58.17C61.52 60.62 60.09 63.09 57.73 63.68Z" fill="#98AFC1"/>
<path d="M38.85 67.73C41.0149 67.73 42.77 65.9749 42.77 63.81C42.77 61.645 41.0149 59.89 38.85 59.89C36.685 59.89 34.93 61.645 34.93 63.81C34.93 65.9749 36.685 67.73 38.85 67.73Z" fill="#98AFC1"/>
<path d="M39.79 67.61L37.9 60.01C43.02 58.5 48.14 56.98 53.25 55.47C54.01 55.25 54.76 55.02 55.52 54.8C56.25 57.76 56.99 60.72 57.72 63.69L39.78 67.62L39.79 67.61Z" fill="#98AFC1"/>
<path d="M61.1181 66.508C61.1738 65.6926 60.5847 64.9882 59.8023 64.9347C59.0199 64.8812 58.3404 65.4989 58.2847 66.3144C58.229 67.1299 58.8181 67.8343 59.6005 67.8878C60.3829 67.9412 61.0623 67.3235 61.1181 66.508Z" fill="#E6926D"/>
<path d="M59.78 64.93C59.67 65.91 59.55 66.9 59.44 67.88C58.11 67.85 56.78 67.81 55.44 67.78C55.59 66.65 55.75 65.53 55.9 64.4C57.19 64.57 58.48 64.75 59.77 64.92L59.78 64.93Z" fill="#E6926D"/>
<path d="M42.1961 64.5423C42.4697 62.3947 41.0927 60.45 39.1204 60.1988C37.1481 59.9475 35.3274 61.4848 35.0538 63.6324C34.7803 65.78 36.1573 67.7246 38.1296 67.9759C40.1019 68.2271 41.9225 66.6899 42.1961 64.5423Z" fill="#98AFC1"/>
<path d="M55.29 63.16C55.06 64.99 54.83 66.81 54.6 68.64C49.11 68.42 43.62 68.1999 38.12 67.9799L39.11 60.21C44.5 61.2 49.9 62.18 55.29 63.17V63.16Z" fill="#99B0C2"/>
<path d="M54.8108 63.3698L54.1713 68.3892C54.1378 68.6522 54.3238 68.8925 54.5868 68.926L56.5807 69.18C56.8437 69.2135 57.084 69.0275 57.1175 68.7645L57.7569 63.7451C57.7904 63.4821 57.6044 63.2417 57.3415 63.2082L55.3476 62.9542C55.0846 62.9207 54.8443 63.1068 54.8108 63.3698Z" fill="#B8C2CB"/>
<path d="M41.98 61.55L54.23 63.11" stroke="#93AABC" stroke-width="0.45" stroke-linecap="round" stroke-linejoin="round"/>
<path d="M62.4686 64.5432L58.4021 64.7129C57.4861 64.7511 56.7746 65.5247 56.8128 66.4407L56.8362 67.0002C56.8744 67.9162 57.6479 68.6277 58.5639 68.5895L62.6304 68.4198C63.5464 68.3816 64.258 67.608 64.2198 66.692L64.1964 66.1325C64.1582 65.2165 63.3846 64.5049 62.4686 64.5432Z" fill="#725050"/>
<path d="M64.74 63.81C67.11 64.4 69.52 62.88 70.13 60.43C70.74 57.98 69.31 55.51 66.95 54.92C64.59 54.33 62.17 55.85 61.56 58.3C60.95 60.75 62.38 63.22 64.74 63.81Z" fill="#98AFC1"/>
<path d="M83.62 67.86C85.785 67.86 87.54 66.1049 87.54 63.94C87.54 61.775 85.785 60.02 83.62 60.02C81.455 60.02 79.7 61.775 79.7 63.94C79.7 66.1049 81.455 67.86 83.62 67.86Z" fill="#98AFC1"/>
<path d="M82.68 67.74L84.57 60.14C79.45 58.63 74.33 57.11 69.22 55.6C68.46 55.38 67.71 55.15 66.95 54.93C66.22 57.89 65.48 60.85 64.75 63.82L82.69 67.75L82.68 67.74Z" fill="#98AFC1"/>
<path d="M62.8951 67.9953C63.6775 67.9419 64.2666 67.2374 64.2109 66.4219C64.1551 65.6065 63.4756 64.9887 62.6932 65.0422C61.9108 65.0957 61.3217 65.8001 61.3775 66.6156C61.4332 67.4311 62.1127 68.0488 62.8951 67.9953Z" fill="#E6926D"/>
<path d="M62.69 65.05C62.8 66.03 62.92 67.02 63.03 68C64.36 67.97 65.69 67.93 67.03 67.9C66.88 66.77 66.72 65.65 66.57 64.52C65.28 64.69 63.99 64.87 62.7 65.04L62.69 65.05Z" fill="#E6926D"/>
<path d="M84.3501 68.0841C86.3224 67.8328 87.6995 65.8882 87.4259 63.7406C87.1523 61.593 85.3317 60.0557 83.3594 60.3069C81.3871 60.5582 80.0101 62.5029 80.2836 64.6505C80.5572 66.7981 82.3779 68.3353 84.3501 68.0841Z" fill="#98AFC1"/>
<path d="M67.17 63.28C67.4 65.11 67.63 66.93 67.86 68.76C73.35 68.54 78.84 68.32 84.34 68.1L83.35 60.33C77.96 61.32 72.56 62.3 67.17 63.29V63.28Z" fill="#99B0C2"/>
<path d="M64.7119 63.8647L65.3513 68.8841C65.3848 69.1471 65.6252 69.3331 65.8881 69.2996L67.882 69.0456C68.145 69.0121 68.331 68.7717 68.2975 68.5088L67.6581 63.4893C67.6246 63.2264 67.3842 63.0403 67.1213 63.0738L65.1274 63.3278C64.8644 63.3613 64.6784 63.6017 64.7119 63.8647Z" fill="#B8C2CB"/>
<path d="M80.4 61.79L68.15 63.35" stroke="#93AABC" stroke-width="0.45" stroke-linecap="round" stroke-linejoin="round"/>
<path d="M23.46 58.83L29.04 68.01" stroke="#302919" stroke-width="0.36" stroke-miterlimit="10" stroke-linecap="round"/>
<path d="M26.73 57.56L29.23 68.01" stroke="#302919" stroke-width="0.36" stroke-miterlimit="10" stroke-linecap="round"/>
<path d="M34 59.43L28.84 68.85" stroke="#302919" stroke-width="0.36" stroke-miterlimit="10" stroke-linecap="round"/>
<path d="M33.34 67.71V68.37C33.34 69.12 32.73 69.73 31.98 69.73H31.58V69.84C31.58 70.5 31.04 71.03 30.39 71.03H28.05C27.39 71.03 26.86 70.5 26.86 69.84V69.73H26.47C25.72 69.73 25.11 69.12 25.11 68.37V67.71C25.11 66.96 25.72 66.35 26.47 66.35H31.99C32.74 66.35 33.35 66.96 33.35 67.71H33.34Z" fill="url(#paint0_linear_3_2)"/>
<path d="M28.31 57.01C28.79 56.57 29.32 56.12 29.71 55.6C30.07 55.11 30.1 54.53 29.79 54C29.46 53.44 28.89 53.13 28.46 52.67C28.25 52.45 28.07 52.18 28.02 51.87C27.97 51.56 28.09 51.27 28.26 51.02C28.67 50.44 29.37 50.14 29.85 49.63C30 49.47 29.76 49.22 29.61 49.39C29.18 49.85 28.6 50.13 28.18 50.59C27.79 51.01 27.55 51.57 27.73 52.14C27.92 52.74 28.43 53.12 28.89 53.52C29.35 53.92 29.87 54.49 29.6 55.13C29.46 55.45 29.18 55.7 28.94 55.94C28.66 56.22 28.37 56.5 28.07 56.77C27.91 56.92 28.15 57.16 28.31 57.01Z" fill="#9B9B9B"/>
<path d="M32.96 57.42C33.25 57.15 33.57 56.89 33.8 56.57C34.02 56.28 34.03 55.93 33.85 55.61C33.65 55.28 33.31 55.09 33.05 54.81C32.93 54.68 32.81 54.52 32.79 54.33C32.77 54.14 32.83 53.97 32.94 53.82C33.19 53.47 33.61 53.29 33.9 52.98C33.99 52.88 33.84 52.74 33.75 52.83C33.49 53.11 33.15 53.27 32.89 53.55C32.66 53.8 32.51 54.14 32.62 54.48C32.74 54.84 33.04 55.07 33.32 55.31C33.6 55.55 33.91 55.89 33.74 56.28C33.66 56.47 33.49 56.62 33.34 56.77C33.17 56.94 33 57.11 32.82 57.27C32.72 57.36 32.87 57.51 32.97 57.42H32.96Z" fill="#9B9B9B"/>
<path d="M24.49 57.34C24.78 57.07 25.1 56.81 25.33 56.49C25.55 56.2 25.56 55.85 25.38 55.53C25.18 55.2 24.84 55.01 24.58 54.73C24.46 54.6 24.34 54.44 24.32 54.25C24.3 54.06 24.36 53.89 24.47 53.74C24.72 53.39 25.14 53.21 25.43 52.9C25.52 52.8 25.3701 52.66 25.2801 52.75C25.0201 53.03 24.68 53.19 24.42 53.47C24.19 53.72 24.0401 54.06 24.1501 54.4C24.2701 54.76 24.57 54.99 24.85 55.23C25.13 55.47 25.44 55.81 25.27 56.2C25.19 56.39 25.02 56.54 24.87 56.69C24.7 56.86 24.53 57.03 24.35 57.19C24.25 57.28 24.4 57.43 24.5 57.34H24.49Z" fill="#9B9B9B"/>
<defs>
<linearGradient id="paint0_linear_3_2" x1="32.53" y1="70.13" x2="25.76" y2="66.22" gradientUnits="userSpaceOnUse">
<stop stop-color="#6D3D3D"/>
<stop offset="1" stop-color="#AF7272"/>
</linearGradient>
</defs>
</svg>
