<?xml version="1.0" encoding="UTF-8"?>
<svg id="_Слой_1" data-name="Слой 1" xmlns="http://www.w3.org/2000/svg" viewBox="0 0 92.66 24.67">
  <g>
    <g>
      <path d="M64.73,5.8c-.83.24-1.77-.12-2.73-.35-.89-.22-1.78-.39-2.7-.55-.63-.1-1.3-.2-1.96-.31-1.28-.24-2.63-.4-3.4-1.29-.48-.62-.17-1.43.5-1.77.58-.29,1.29-.25,1.99-.18,1.3.15,2.76.43,4.07.69,1.61.32,3.29.67,4.69,1.22,1.74.58.87,2.16-.46,2.53h-.02s0,0,0,0Z" fill="#ea906d" isolation="isolate"/>
      <g>
        <path d="M69.69,3.89c-.18-.05-.36-.1-.55-.15-1.69-.46-2.27-.63-3.33-.9-.17-.04-.45-.12-.8-.21-.04.2-.09.4-.14.6-.31,1.24-.75,2.35-1.24,3.33,1.42.43,2.83.85,4.25,1.28,1.33.5,2.81.01,3.31-1.08.5-1.09-.17-2.38-1.51-2.87h0Z" fill="#ead9cf"/>
        <path d="M64.81,7c.49-1.37.98-2.75,1.47-4.12" fill="none"/>
      </g>
    </g>
    <g>
      <path d="M55.3,3.97c-.8,0-1.69-.25-2.45-.38-1.49-.28-3.08-.67-4.61-.87-.58-.07-1.24-.14-1.83-.19-.68-.05-1.37-.1-2.05-.16-.72-.08-1.37-.14-1.98-.45-.45-.23-.83-.74-.56-1.17.26-.43.94-.58,1.49-.62,1.43-.09,2.85.04,4.3.11,1.72.1,3.55.26,5.21.52,1.16.2,2.89.31,3.79.99.4.31.58.8.42,1.28-.22.62-.97.92-1.73.94h-.02s0,0,0,0Z" fill="#ea906d" isolation="isolate"/>
      <path d="M41.55.09c.62.1,1.15.43,1.69.72.23.14,1.33.49.69.68-.22.06-.56.06-.82.12-.43.1-.81.31-1.25.38-.38.06-.78.04-1.17.02-1.02-.07-2.04-.12-3.05-.28-1.01-.18-1.03-.6-.05-1.04,1.22-.59,2.63-.83,3.94-.6h.01Z" fill="#ea906d" isolation="isolate"/>
    </g>
  </g>
  <g>
    <path d="M46.22,3.44c-2.48-.02-4.5,2.05-4.52,4.61-.02,2.57,1.97,4.66,4.45,4.68s4.5-2.05,4.52-4.61-1.97-4.66-4.45-4.68Z" fill="#98afc1"/>
    <circle cx="27.55" cy="7.78" r="3.98" transform="translate(19.55 35.27) rotate(-89.55)" fill="#98afc1"/>
    <polygon points="27.58 3.8 27.52 11.76 46.15 12.73 46.22 3.44 27.58 3.8" fill="#98afc1"/>
  </g>
  <g>
    <path d="M6.1,6.16c.1.29.28.95.11,1.76-.13.63-.42,1.07-.6,1.31.71-.01,1.57.02,2.53.19.77.13,1.45.32,2.03.52-.16-.45-.37-1.21-.34-2.16.03-.85.25-1.52.42-1.95-.34.21-1.03.59-2,.68-1,.09-1.78-.19-2.15-.35Z" fill="#e6926d"/>
    <g>
      <ellipse cx="28.09" cy="7.75" rx="3.66" ry="3.95" transform="translate(-.12 .47) rotate(-.95)" fill="#98afc1"/>
      <path d="M11.34,4.97c.03,1.85.06,3.71.09,5.56,5.58.39,11.15.77,16.73,1.16l-.13-7.89c-5.56.39-11.12.78-16.68,1.17h0Z" fill="#99b0c2"/>
    </g>
    <rect x="7.32" y="6.3" width="6.06" height="3.02" rx=".43" ry=".43" transform="translate(2.72 18.29) rotate(-90.95)" fill="#b8c2cb"/>
  </g>
  <g>
    <path d="M5.79,9.59c-.68.21-1.89-.49-2.17-1.56-.32-1.2.62-2.5,1.24-2.5.37,0,.67.16,1.1.46.77.53.6,1.31,1.32,1.64.2.09.44.14.47.3,0,.05,0,.12-.34.5-.34.38-.54.54-.59.58-.07.06-.17.14-.31.23-.24.16-.44.25-.51.27-.08.03-.16.06-.21.08Z" fill="#e6926d"/>
    <path d="M5.42,5.01c-.2-.36-.61-.71-.96-1.02-.57-.51-1.19-.86-1.88-1.24-.69-.4-1.97-.93-1.82.38.07.41.21.82.35,1.26l1.41,4.48c.26.68.32,1.78,1.24,1.82.4.03.81-.1,1.17-.27.44-.21.81-.41.87-.67.06-.58-.83-.8-1.22-1.08-.32-.2-.78-.87-.77-1.24.07-.27.45-.25.68-.34.97-.26,1.4-1.18.93-2.07v-.02s0,0,0,0Z" fill="#896565"/>
  </g>
  <g>
    <path d="M5.98,12.46c.1.29.28.95.11,1.76-.13.63-.42,1.07-.6,1.31.71-.01,1.57.02,2.53.19.77.13,1.45.32,2.03.52-.16-.45-.37-1.21-.34-2.16.03-.85.25-1.52.42-1.95-.34.21-1.03.59-2,.68-1,.09-1.78-.19-2.15-.35Z" fill="#e6926d"/>
    <g>
      <path d="M5.92,15.76c-.64.3-1.94-.22-2.36-1.25-.48-1.15.27-2.56.88-2.65.36-.05.68.07,1.15.3.83.42.78,1.22,1.53,1.44.21.06.45.08.5.23.02.05.01.12-.27.54-.29.42-.46.61-.5.66-.06.07-.15.16-.27.27-.22.19-.41.31-.47.34-.08.05-.15.08-.19.1Z" fill="#e6926d"/>
      <path d="M4.92,11.27c-.25-.33-.7-.62-1.09-.88-.64-.42-1.29-.68-2.03-.97-.74-.3-2.08-.65-1.75.63.12.4.33.79.52,1.2.68,1.44,1.34,2.82,2.02,4.24.35.63.57,1.72,1.48,1.63.4-.02.79-.21,1.12-.43.41-.27.75-.52.77-.78-.03-.59-.94-.68-1.36-.9-.34-.16-.89-.75-.93-1.12.03-.28.41-.3.63-.43.93-.39,1.22-1.37.64-2.18h-.01s0-.01,0-.01Z" fill="#896565"/>
    </g>
  </g>
  <path d="M47.48,18.93c-.74-1.13-2.33-3.86-2.41-7.68-.09-3.74,1.31-6.5,1.99-7.67,1.19.1,2.71.34,4.39.88,1.47.47,2.68,1.05,3.62,1.58.05,3.46.1,6.92.14,10.39-.97.5-2.13,1.02-3.47,1.47-1.59.53-3.04.85-4.27,1.03Z" fill="#98afc1"/>
  <g>
    <path d="M72.67,14.63c-.35-.16-.7-.32-1.05-.48l-1.4-1.39-.36-2.29.17-2.27,1.63-.31.99.7s.03.09.04.13c.04.13.16.21.29.21h.25s4.95-.14,4.95-.14c.16,0,.32.05.44.15.36.3,1.05,1,1.05,2.1,0,.74-.32,1.31-.62,1.68-.12.14-.23.26-.33.34-.12.11-.27.17-.42.17-1.74.07-3.47.13-5.21.2-.14,0-.25.11-.28.25-.05.32-.1.63-.14.95Z" fill="#ea906d" isolation="isolate"/>
    <path d="M76.82,12.73c-.86-.15-1.96-.34-2.69-1.27-.78-.98-.68-2.18-.64-2.56l4.68-.12c.16,0,.32.05.45.15.36.3,1.05,1.01,1.05,2.1,0,.74-.32,1.31-.62,1.68-.51.09-1.3.17-2.23.01Z" fill="#b05e46" isolation="isolate"/>
  </g>
  <path d="M72.71,8.7c.09-.08.22-.39-.98-2.43-.43-.73-.83-1.35-1.18-1.85-.19-.27-.49-.43-.82-.42l-16.48.17s-.87.16-.79,2.09l.39,10.73s.24,1.19.98,1.32c.67.12,13.85-.11,16.48-.16.31,0,.6-.14.8-.38.44-.52,1.2-1.56,1.6-3.02.05-.19-.03-.39-.19-.5-.55-.36-1.63-1.21-2.06-2.72-.32-1.12-.13-2.07,0-2.53.15-.21.37-.44.69-.54.73-.23,1.34.42,1.56.23Z" fill="#ead9cf"/>
  <g>
    <path d="M84.69,16.45l-2.9.08c-2.17.06-3.98-1.66-4.04-3.83l-.02-.72,5.94-.15-.17-6.59,2.2-.06c1.92-.05,3.51,1.46,3.56,3.38l.05,1.84c.15-.03.3-.05.46-.05,1.55-.04,2.85,1.26,2.89,2.91s-1.18,3.02-2.74,3.06c-.88.02-1.67-.38-2.21-1.04-.81.71-1.86,1.15-3.02,1.18Z" fill="#573937" isolation="isolate"/>
    <ellipse cx="78.31" cy="9.01" rx="3.59" ry="3.66" transform="translate(-.21 2.04) rotate(-1.49)" fill="#ea906d"/>
    <path d="M78.41,12.67c.16-2.38.32-4.75.48-7.13,1.79-.12,3.58-.23,5.37-.35,1.41-.04,2.58,1.08,2.62,2.48l.04,1.73c.04,1.41-1.08,2.58-2.48,2.62-2.01.21-4.02.43-6.03.64Z" fill="#ea906d"/>
    <g>
      <path d="M79.63,14.18c1.22.29,2.16.14,2.16.14,0,0,.72-.1.82-.72.1-.62-.27-.82-.27-.82,0,0-.5-.3-1.42-.31s-1.61-.04-2.14.06-.37,1.38.84,1.66h0Z" fill="#ea906d"/>
      <g>
        <path d="M79.4,13.4s.06-.02.09-.02c.04,0-.05,0,0,0h.06c.1-.02.19-.02.29-.02.24,0,.45.02.67.05.23.03.46.08.67.15.03,0,.05.02.08.03-.04-.02.02,0,.02,0,.04.02.08.04.12.06.01,0,.03.02.04.02-.05-.03,0,0,.01.01.01.01.05.06,0,0,0,.01.02.02.03.04.13.24.49.02.36-.22-.16-.28-.58-.38-.87-.45-.4-.09-.82-.14-1.23-.14-.16,0-.34,0-.49.06-.25.09-.13.49.12.4h0Z" fill="#ce7857"/>
        <path d="M80.34,13.2c-.02.14-.04.28-.06.42,0,.06,0,.11.03.16.03.04.08.08.13.09.05.01.11,0,.16-.03.04-.03.09-.07.09-.13.02-.14.04-.28.06-.42,0-.06,0-.11-.03-.16-.03-.04-.08-.08-.13-.09-.05-.01-.11,0-.16.03-.04.03-.09.07-.09.13h0Z" fill="#ce7857"/>
      </g>
    </g>
  </g>
  <ellipse cx="81.58" cy="5.79" rx=".77" ry=".25" transform="translate(-.12 2.12) rotate(-1.49)" fill="#422f2b"/>
  <path d="M81.99,7.24c-.18-.05-.4-.02-.61-.03-.18,0-.39.01-.54-.05-.15-.05-.22-.16-.31-.25-.1-.1-.22-.19-.37-.24-.28-.1-.66-.11-.92.03-.28.16-.34.41-.37.64-.01.1-.03.26.04.33.03.03.08.03.12,0,.12-.13.06-.33.13-.47.07-.21.34-.42.69-.37.47.05.5.36.79.54.22.12.54.08.8.08.2-.01.44,0,.6-.08.07-.03.06-.09-.03-.11h0s0,0,0,0Z" fill="#c2684e"/>
  <rect x="82.38" y="5.38" width="1.63" height=".74" rx=".32" ry=".32" transform="translate(81.6 -77.63) rotate(84.95)" fill="#50373b"/>
  <rect x="82.47" y="8.92" width="1.63" height=".74" rx=".32" ry=".32" transform="translate(94.21 -73.8) rotate(91.13)" fill="#50373b"/>
  <g>
    <g>
      <path d="M46.51,9.79c-2.48-.02-4.5,2.05-4.52,4.61s1.97,4.66,4.45,4.68,4.5-2.05,4.52-4.61-1.97-4.66-4.45-4.68Z" fill="#98afc1"/>
      <circle cx="27.83" cy="14.13" r="3.98" transform="translate(13.48 41.85) rotate(-89.55)" fill="#98afc1"/>
      <polygon points="27.86 10.16 27.8 18.11 46.43 19.09 46.51 9.79 27.86 10.16" fill="#98afc1"/>
    </g>
    <g>
      <g>
        <ellipse cx="28.37" cy="14.1" rx="3.66" ry="3.95" transform="translate(-.23 .47) rotate(-.95)" fill="#98afc1"/>
        <path d="M11.63,11.33c.03,1.85.06,3.71.09,5.56,5.58.39,11.15.77,16.73,1.16l-.13-7.89c-5.56.39-11.12.78-16.68,1.17h0Z" fill="#99b0c2"/>
      </g>
      <rect x="7.6" y="12.65" width="6.06" height="3.02" rx=".43" ry=".43" transform="translate(-3.35 25.03) rotate(-90.95)" fill="#b8c2cb"/>
    </g>
  </g>
  <line x1="18.2" y1="10.88" x2="43.38" y2="10.01" fill="none" stroke="#93aabc" stroke-linecap="round" stroke-linejoin="round" stroke-width=".39"/>
  <path d="M44.12,8.66c-.36.37-.54.89-.5,1.41s.31,1,.72,1.3" fill="none" stroke="#93aabc" stroke-linecap="round" stroke-linejoin="round" stroke-width=".39"/>
  <path d="M77.29,6.88c-.44,1.04-.37,2.26.19,3.24" fill="none" isolation="isolate" stroke="#e07065" stroke-linecap="round" stroke-miterlimit="10" stroke-width=".32"/>
  <ellipse cx="81.53" cy="9.19" rx=".77" ry=".25" transform="translate(-.21 2.12) rotate(-1.49)" fill="#422f2b"/>
  <g>
    <g>
      <path d="M64.98,16.78c-.87-.18-1.8.25-2.77.57-.9.3-1.79.54-2.72.76-.64.15-1.32.31-1.98.47-1.29.35-2.66.61-3.38,1.58-.45.67-.07,1.47.65,1.77.62.25,1.34.16,2.05.03,1.32-.25,2.79-.65,4.12-1.01,1.62-.45,3.32-.94,4.71-1.61,1.73-.73.73-2.28-.66-2.55h-.02s0,0,0,0Z" fill="#ea906d" isolation="isolate"/>
      <g>
        <path d="M70.2,18.36c-.18.06-.37.13-.55.19-1.69.6-2.27.81-3.34,1.18-.17.06-.45.15-.81.27-.06-.2-.12-.4-.19-.61-.41-1.24-.94-2.35-1.52-3.32,1.42-.54,2.83-1.09,4.25-1.63,1.32-.61,2.88-.22,3.47.85.59,1.08,0,2.45-1.32,3.06h0Z" fill="#ead9cf"/>
        <path d="M64.97,15.54c.6,1.37,1.21,2.74,1.81,4.11" fill="none"/>
      </g>
    </g>
    <g>
      <path d="M55.46,19.37c-.82.06-1.71.38-2.48.58-1.51.4-3.1.91-4.65,1.24-.59.12-1.26.24-1.86.33-.69.11-1.4.2-2.08.32-.73.13-1.4.25-1.99.61-.44.27-.79.82-.48,1.24.29.42,1.01.52,1.57.52,1.47-.02,2.92-.26,4.39-.44,1.75-.23,3.61-.53,5.29-.92,1.17-.29,2.93-.54,3.81-1.3.39-.35.53-.86.33-1.34-.28-.62-1.06-.87-1.84-.83h-.02s0,0,0,0Z" fill="#ea906d" isolation="isolate"/>
      <path d="M41.67,22.32c.64,0,1.23.24,1.83.43.26.1,1.43.26.82.57-.21.1-.56.16-.8.27-.41.17-.77.46-1.2.6-.38.13-.78.18-1.17.23-1.05.11-2.08.24-3.13.25-1.05,0-1.15-.43-.24-1.05,1.12-.81,2.51-1.31,3.88-1.3h.01Z" fill="#ea906d" isolation="isolate"/>
    </g>
  </g>
</svg>