<svg width="124" height="77" viewBox="0 0 124 77" fill="none" xmlns="http://www.w3.org/2000/svg">
<path d="M117.06 0.149994H6.97998C3.30176 0.149994 0.320007 3.13178 0.320007 6.81V70.06C0.320007 73.7382 3.30176 76.72 6.97998 76.72H117.06C120.738 76.72 123.72 73.7382 123.72 70.06V6.81C123.72 3.13178 120.738 0.149994 117.06 0.149994Z" fill="white"/>
<path d="M67.206 28.1365C67.2197 24.5522 64.5625 21.6363 61.2709 21.6237C57.9793 21.611 55.2998 24.5064 55.286 28.0907C55.2723 31.675 57.9295 34.5909 61.2211 34.6035C64.5127 34.6162 67.1922 31.7208 67.206 28.1365Z" fill="#98AFC1"/>
<path d="M65.0929 47.0639C65.1015 44.8327 63.0534 43.0161 60.5184 43.0064C57.9835 42.9966 55.9215 44.7975 55.913 47.0287C55.9044 49.2599 57.9525 51.0766 60.4874 51.0863C63.0224 51.0961 65.0844 49.2951 65.0929 47.0639Z" fill="#98AFC1"/>
<path d="M65.1 47.12C62.04 47.06 58.99 47.01 55.93 46.95C55.72 40.63 55.52 34.31 55.31 27.98C58.82 29.41 62.33 30.84 65.84 32.26C65.59 37.21 65.35 42.16 65.1 47.11V47.12Z" fill="#98AFC1"/>
<path d="M62.4303 72.313C63.4497 72.2444 64.2317 71.5277 64.1768 70.7122C64.1219 69.8966 63.251 69.2911 62.2315 69.3597C61.2121 69.4283 60.4302 70.1451 60.4851 70.9606C60.54 71.7761 61.4109 72.3816 62.4303 72.313Z" fill="#E6926D"/>
<path d="M64.19 70.65L60.51 70.9C60.26 69.1 60.01 67.3 59.76 65.5C61.22 65.41 62.67 65.33 64.13 65.24C64.15 67.04 64.17 68.85 64.19 70.65Z" fill="#E6926D"/>
<path d="M60.7293 51.6751C63.3082 51.5016 65.28 49.5964 65.1335 47.4198C64.987 45.2432 62.7777 43.6194 60.1989 43.793C57.62 43.9665 55.6482 45.8717 55.7946 48.0483C55.9411 50.2249 58.1504 51.8487 60.7293 51.6751Z" fill="#98AFC1"/>
<path d="M65.3 65.42C63.11 65.57 60.91 65.72 58.72 65.87C57.75 59.91 56.78 53.96 55.81 48L65.15 47.37C65.2 53.39 65.25 59.4 65.3 65.42Z" fill="#99B0C2"/>
<path d="M64.4769 64.579L59.2986 64.9275C58.7475 64.9646 58.3309 65.4414 58.368 65.9924L58.4479 67.1797C58.485 67.7308 58.9617 68.1474 59.5128 68.1103L64.6911 67.7618C65.2421 67.7248 65.6587 67.248 65.6217 66.6969L65.5418 65.5096C65.5047 64.9586 65.0279 64.542 64.4769 64.579Z" fill="#B8C2CB"/>
<path d="M67.3217 29.0182C68.1302 25.8275 65.9387 22.5194 62.4267 21.6294C58.9147 20.7395 55.4122 22.6046 54.6036 25.7953C53.7951 28.9861 55.9866 32.2942 59.4986 33.1842C63.0106 34.0742 66.5131 32.209 67.3217 29.0182Z" fill="#98AFC1"/>
<path d="M54.07 22.48L51.98 30.73C51.97 30.78 52 30.84 52.05 30.86C54.61 31.65 57.18 32.44 59.74 33.24C59.8 33.26 59.86 33.22 59.87 33.17C60.7 29.86 61.53 26.55 62.36 23.24C62.38 23.18 62.33 23.12 62.27 23.11C59.57 22.88 56.88 22.64 54.18 22.41C54.13 22.41 54.08 22.44 54.07 22.49V22.48Z" fill="#98AFC1"/>
<path d="M32.41 21.6C32.49 21.58 32.57 21.56 32.65 21.54C32.83 21.48 33.02 21.41 33.2 21.32C32.91 21.39 32.64 21.49 32.41 21.61V21.6Z" fill="#B46048"/>
<path d="M24.31 22.24C23.39 22.14 22.43 22.32 21.58 22.39C19.93 22.54 18.2 22.79 16.5 22.84C15.85 22.86 15.11 22.85 14.45 22.84C13.69 22.82 12.9 22.78 12.14 22.78C11.34 22.78 10.6 22.78 9.97995 23.07C9.51995 23.28 9.19996 23.83 9.60996 24.37C9.99996 24.9 10.82 25.16 11.46 25.27C13.12 25.55 14.72 25.57 16.37 25.66C18.32 25.75 20.38 25.79 22.23 25.7C23.51 25.61 25.4699 25.7 26.3499 25.01C26.7399 24.7 26.83 24.15 26.5399 23.57C26.1399 22.82 25.21 22.38 24.34 22.27H24.32L24.31 22.24Z" fill="#D87759"/>
<path d="M8.93588 25.3771C10.0895 25.339 10.9949 24.4042 10.9581 23.2892C10.9214 22.1742 9.95628 21.3012 8.80264 21.3393C7.64899 21.3773 6.74363 22.3121 6.78043 23.4271C6.81722 24.5421 7.78223 25.4151 8.93588 25.3771Z" fill="#F09077"/>
<path d="M33.78 20.99C33.03 20.65 31.95 21.01 30.89 21.23C29.9 21.44 28.94 21.58 27.96 21.7C27.28 21.78 26.57 21.86 25.86 21.94C24.48 22.15 23.05 22.24 21.94 23.25C21.22 23.96 21.23 24.94 21.78 25.39C22.26 25.77 22.9899 25.78 23.7199 25.74C25.0899 25.65 26.67 25.41 28.1 25.19C29.85 24.91 31.68 24.61 33.31 24.05C35.28 23.47 35.01 21.53 33.8 21.01H33.78V20.99Z" fill="#D87759"/>
<path d="M39.96 20.71C40.1 21.87 39.4 23.04 38.21 23.5L38.13 23.52C37.97 23.56 37.8 23.61 37.64 23.65C36.85 23.86 36.07 24.06 35.28 24.27C35.18 24.3 35.08 24.32 34.97 24.35L34.73 24.41C34.54 24.46 34.35 24.51 34.15 24.56C33.97 24.61 33.8 24.65 33.62 24.7C33.54 24.72 33.47 24.74 33.39 24.76C33.32 24.53 33.25 24.31 33.18 24.08C33.18 24.07 33.18 24.05 33.17 24.04C32.97 23.38 32.77 22.73 32.57 22.07C32.52 21.92 32.48 21.76 32.43 21.61C32.43 21.61 32.43 21.6 32.43 21.59C32.36 21.37 32.3 21.15 32.23 20.94C32.18 20.78 32.13 20.63 32.09 20.47C32.06 20.39 32.04 20.3 32.01 20.21C31.99 20.14 31.97 20.06 31.94 19.99C32.66 19.78 33.38 19.56 34.1 19.35C34.4 19.26 34.69 19.17 34.99 19.09C34.87 19.38 34.72 19.69 34.51 20.01C34.96 20.01 35.38 20.07 35.74 20.18C35.77 19.81 35.59 19.4 35.25 19.01C35.52 18.93 35.8 18.85 36.07 18.77C36.14 18.75 36.2 18.73 36.27 18.71C36.31 18.7 36.34 18.69 36.38 18.68C37.11 18.4 37.88 18.45 38.52 18.75C39.1 19.02 39.58 19.5 39.82 20.14C39.89 20.33 39.94 20.52 39.96 20.72V20.71Z" fill="#EAD9CF" stroke="#C9B9B1" stroke-width="0.17" stroke-miterlimit="10"/>
<path d="M34.54 20.01C34.63 20.01 34.71 20.01 34.8 20.03C34.71 20.03 34.63 20.03 34.54 20.02V20.01Z" fill="#B46048"/>
<path d="M35.99 17.39L36.01 17.46C36.09 17.86 36.12 18.31 36.08 18.78C36.08 18.83 36.08 18.87 36.07 18.92C36.04 19.15 36 19.38 35.94 19.6C35.91 19.71 35.88 19.81 35.85 19.92C35.83 19.98 35.8 20.13 35.75 20.2C35.78 19.83 35.6 19.42 35.26 19.03C35.21 18.97 35.15 18.91 35.09 18.85C35.04 18.81 35 18.76 34.95 18.72C34.79 19.08 34.56 19.56 34.24 20.03C34.16 20.03 34.09 20.03 34.01 20.05C33.99 20.05 33.98 20.04 33.96 20.02L33.89 19.87C33.73 19.97 33.58 20.06 33.41 20.13C33.1 20.2 32.81 20.3 32.57 20.42C32.41 20.45 32.24 20.47 32.08 20.48C31.86 20.48 31.63 20.48 31.41 20.42C31.05 20.34 30.72 20.19 30.42 19.98C30.78 20.13 31.11 20.2 31.39 20.23C31.59 20.25 31.8 20.24 32 20.23C32.76 20.14 33.49 19.78 34.09 19.37C34.41 19.15 34.69 18.93 34.93 18.72C35.21 18.48 35.42 18.26 35.55 18.12C35.63 18.03 35.68 17.98 35.69 17.97C35.79 17.81 35.88 17.65 35.95 17.48C35.96 17.46 35.97 17.43 35.98 17.41L35.99 17.39Z" fill="#B46048"/>
<path d="M38.54 15.09V15.85C38.54 16 38.54 16.15 38.54 16.29C38.54 17.11 38.54 17.92 38.54 18.74C38.54 19.17 38.54 19.61 38.54 20.04C38.54 20.74 38.54 21.43 38.54 22.13C38.47 22.02 38.36 21.88 38.23 21.72C38.03 21.48 37.76 21.21 37.41 20.95C37.23 20.82 37.03 20.69 36.81 20.57C36.66 20.49 36.49 20.41 36.32 20.35C36.26 20.33 36.2 20.3 36.13 20.28C36.01 20.24 35.89 20.2 35.78 20.18C35.81 19.81 35.63 19.4 35.29 19.01C35.24 18.95 35.18 18.89 35.12 18.83C35.07 18.79 35.03 18.74 34.98 18.7C34.59 18.36 34.09 18.06 33.5 17.84C32.97 17.64 32.44 17.53 31.97 17.52C32.14 17.65 32.31 17.79 32.46 17.94C32.3 17.79 32.13 17.65 31.95 17.52C31.79 17.4 31.63 17.3 31.46 17.2C31.49 17.07 31.51 16.94 31.53 16.81C31.62 16.23 31.62 15.66 31.55 15.1C31.95 15.24 32.4 15.36 32.9 15.47C33.19 15.53 33.49 15.58 33.81 15.61C33.97 15.63 34.14 15.64 34.31 15.66C34.49 15.67 34.67 15.68 34.86 15.68C35.21 15.68 35.54 15.68 35.86 15.65C36.07 15.63 36.27 15.61 36.47 15.59C36.82 15.54 37.14 15.48 37.44 15.41C37.88 15.31 38.26 15.19 38.57 15.08L38.54 15.09Z" fill="#EF9475"/>
<path d="M36.03 16.44C36.03 16.44 36.09 16.42 36.14 16.41C36.14 16.41 36.44 16.31 36.75 16.23C40.52 15.27 42.83 15.68 42.83 15.68C43.84 15.98 44.66 16.24 45.22 16.43C45.22 16.43 49.15 17.72 55.2 21.45C55.33 21.53 55.61 21.71 55.74 22.05C55.89 22.44 55.76 22.85 55.63 23.13L52.69 30.96C52.55 31.33 52.14 31.52 51.77 31.38L42.08 27.75C41.58 27.53 41.13 27.29 40.73 27.02C38.56 24.65 36.42 21.35 36.07 17.26C36.05 16.99 36.03 16.72 36.03 16.46V16.44Z" fill="#EAD9CF"/>
<path d="M38.94 10.02C39.44 12 38.79 14.01 37.4 15.42C37.31 15.51 37.22 15.6 37.13 15.68C36.82 15.96 36.47 16.21 36.1 16.42C36.08 16.43 36.05 16.45 36.03 16.46C35.93 16.52 35.82 16.58 35.71 16.63C35.59 16.69 35.47 16.74 35.35 16.79C35.37 16.98 35.37 17.18 35.37 17.37C35.38 17.39 35.4 17.43 35.41 17.47C35.41 17.47 35.41 17.49 35.41 17.5C35.42 17.55 35.43 17.6 35.43 17.67C35.43 17.85 35.34 17.98 35.31 18.03C35.29 18.14 35.25 18.29 35.2 18.46C35.17 18.57 35.13 18.7 35.08 18.84C35.05 18.92 35.02 19.01 34.98 19.09C34.86 19.38 34.71 19.69 34.5 20.01C34.44 20.11 34.37 20.2 34.3 20.3C34.22 20.4 34.14 20.5 34.06 20.59C34.03 20.62 34 20.65 33.98 20.68C33.92 20.74 33.86 20.8 33.8 20.86C33.76 20.9 33.73 20.93 33.69 20.96C33.43 21.19 33.21 21.32 33.11 21.36C33.11 21.36 33.01 21.4 32.92 21.43C32.9 21.44 32.87 21.45 32.85 21.46C32.85 21.46 32.85 21.46 32.84 21.46C32.84 21.46 32.83 21.46 32.82 21.46C32.8 21.46 32.79 21.47 32.79 21.47C32.79 21.47 32.79 21.47 32.78 21.47C32.69 21.51 32.57 21.55 32.43 21.59C32.4 21.59 32.38 21.6 32.35 21.61C32.07 21.68 31.72 21.74 31.29 21.72C30.97 21.63 30.65 21.49 30.36 21.3C29.89 21 29.46 20.61 29.14 20.16C29.05 20.04 28.97 19.91 28.9 19.78C28.9 19.77 28.88 19.75 28.88 19.74C28.87 19.72 28.86 19.7 28.85 19.68C28.8 19.59 28.73 19.47 28.66 19.31C28.5 18.95 28.33 18.44 28.34 17.86C28.34 17.64 28.37 17.42 28.44 17.19C28.52 16.93 28.62 16.72 28.7 16.58C28.65 16.48 28.6 16.38 28.54 16.26C28.28 15.75 27.96 15.08 27.64 14.28C27.61 14.2 27.57 14.11 27.54 14.03C27.37 13.59 27.19 13.13 27.15 12.96C26.98 12.28 26.94 11.6 27.03 10.94C27.32 8.6 29.1 6.53999 31.64 5.89999C32.45 5.68999 33.27 5.65999 34.05 5.75999C35.63 5.96999 37.05 6.77999 37.98 7.99999C38.42 8.57999 38.75 9.25 38.94 9.99V10.02Z" fill="#EF9475"/>
<path d="M39.43 10.7C39.83 12.23 40 15.27 38.08 16.7C36.91 17.57 35.4901 17.51 34.7801 17.42C34.9901 17.24 35.36 16.89 35.6 16.33C35.72 16.06 36.03 15.33 35.75 14.52C35.71 14.39 35.41 13.53 34.86 13.44C34.3 13.35 33.53 14.08 33.2 15.33C32.69 11.97 30.96 9.65002 29.13 9.52002C28.76 9.49002 28.2 9.54001 27.5 9.95001C27.38 10.04 27.15 10.4 27.11 10.53C27.06 10.69 27.03 10.84 27.01 10.96C26.97 10.91 26.94 10.85 26.91 10.78C26.79 10.51 26.8 10.25 26.82 10.1C26.82 10.1 26.82 9.72002 26.95 9.27002C27.57 7.04002 30.4801 5.31002 33.3401 5.49002C33.5701 5.51002 33.79 5.53002 34.01 5.57002C35.64 5.85002 37.06 6.74001 38.15 8.08001C38.15 8.08001 39.05 9.23 39.43 10.68V10.7Z" fill="#5B3D3B"/>
<path d="M37.6758 8.16666C39.2608 7.76647 40.2213 6.15714 39.8211 4.57212C39.4209 2.98709 37.8116 2.0266 36.2266 2.42679C34.6416 2.82697 33.681 4.4363 34.0812 6.02133C34.4814 7.60635 36.0908 8.56685 37.6758 8.16666Z" fill="#5B3D3B"/>
<path d="M29.1281 16.1541C29.2673 16.1189 29.3002 15.7736 29.2015 15.3827C29.1028 14.9918 28.9099 14.7034 28.7707 14.7385C28.6314 14.7737 28.5986 15.1191 28.6973 15.51C28.796 15.9009 28.9888 16.1892 29.1281 16.1541Z" fill="#422F2B"/>
<path d="M27.6139 13.4829L27.7612 14.1979L29.1814 13.9054L29.0341 13.1904L27.6139 13.4829Z" fill="#50373B"/>
<path d="M28.9064 17.8705C29.5597 17.7056 30.0027 17.2289 29.8959 16.8059C29.7891 16.3829 29.1729 16.1736 28.5196 16.3386C27.8664 16.5035 27.4233 16.9802 27.5301 17.4032C27.6369 17.8262 28.2531 18.0354 28.9064 17.8705Z" fill="#EF9475"/>
<path d="M30.13 18.94C30.13 19.05 30.15 19.36 29.94 19.68C29.69 20.06 29.31 20.17 29.22 20.2C28.98 20.2 28.89 20.13 28.85 20.07C28.79 19.98 28.86 19.91 28.81 19.77C28.75 19.61 28.61 19.58 28.61 19.47C28.61 19.38 28.69 19.32 28.73 19.28C29.03 19.03 29.97 18.95 30.12 18.94H30.13Z" fill="#E46761"/>
<path d="M28.9 19.82C29.22 19.8 29.52 19.66 29.76 19.43C29.82 19.37 29.73 19.28 29.67 19.34C29.46 19.54 29.19 19.67 28.9 19.69C28.82 19.69 28.82 19.82 28.9 19.82Z" fill="#754048"/>
<path d="M34.27 15.46C34.45 15.53 34.62 15.6 34.8 15.67C34.93 15.72 35.08 15.62 35.12 15.5C35.16 15.36 35.07 15.23 34.95 15.18C34.77 15.11 34.6 15.04 34.42 14.97C34.29 14.92 34.14 15.02 34.1 15.14C34.06 15.28 34.15 15.41 34.27 15.46Z" fill="#CE7857"/>
<path d="M34.3 16.39C34.23 15.75 34.2 14.79 34.97 14.56C35.28 14.47 35.16 13.97 34.85 14.07C33.83 14.37 33.7 15.48 33.8 16.38C33.84 16.7 34.35 16.72 34.31 16.39H34.3Z" fill="#CE7857"/>
<path d="M64.2 73.62C63.63 74.47 62.33 74.37 61.81 74.33C60.85 74.25 59.58 73.81 59.56 73.26C59.54 72.85 60.21 72.85 60.96 71.83C61.29 71.38 61.38 71.08 61.76 70.92C61.95 70.84 62.21 70.84 62.75 70.84C63.29 70.84 63.57 70.84 63.73 70.92C64.15 71.14 64.27 71.64 64.35 71.96C64.42 72.26 64.61 73.02 64.21 73.63L64.2 73.62Z" fill="#E6926D"/>
<path d="M60.26 72.34C59.92 71.99 58.76 72.59 58.28 72.84C57.65 73.17 57.32 73.34 57.16 73.74C56.97 74.2 57.05 74.85 57.41 75.11C57.52 75.18 57.62 75.2 57.84 75.23C58.77 75.34 59.48 75.24 60.46 75.23C60.59 75.23 60.82 75.11 60.89 75.03C61.02 74.87 61.21 74.77 61.37 74.74C61.65 74.69 61.98 74.85 62.19 75.15C62.21 75.18 62.32 75.24 62.35 75.24H64.78C64.78 75.24 65.3 75.37 65.05 74.31C64.89 73.62 64.91 73.26 64.66 73.08C64.47 72.94 64.26 72.95 63.87 72.96C63.33 72.98 62.89 73.14 62.59 73.28C62 73.56 62.04 73.74 61.64 73.85C61.2 73.97 60.55 73.92 60.31 73.57C60.02 73.14 60.52 72.6 60.28 72.34H60.26Z" fill="#815F5E"/>
<path d="M60.11 73.9C60.11 74.26 59.92 74.61 59.65 74.85C59.35 75.11 58.95 75.17 58.52 75.18C57.93 75.18 57.29 75.18 56.68 75.17C56.43 75.15 55.7 75.17 55.7 74.9C55.7 74.75 56 74.48 56.33 74.2C56.8 73.81 57.33 73.4 57.81 73.08C58.21 72.81 58.68 72.57 59.17 72.72C59.66 72.86 60.11 73.35 60.11 73.89V73.9Z" fill="#886060"/>
<path d="M38.79 25.09C38.6 25.15 38.4 25.18 38.21 25.19C38.4 25.16 38.6 25.12 38.79 25.09Z" fill="#EAD9CF"/>
<path d="M35.75 20.18C35.75 20.18 35.66 20.16 35.61 20.14C35.56 20.12 35.51 20.12 35.46 20.11C35.37 20.09 35.27 20.07 35.17 20.06C35.13 20.06 35.09 20.05 35.05 20.04C35.01 20.04 34.98 20.04 34.94 20.03C34.93 20.03 34.92 20.03 34.9 20.03C34.87 20.03 34.84 20.03 34.8 20.03C34.71 20.03 34.63 20.02 34.54 20.01C34.5 20.09 34.46 20.18 34.42 20.26C34.42 20.28 34.35 20.37 34.35 20.37C34.29 20.45 34.23 20.54 34.17 20.63C34.11 20.72 34.04 20.79 33.97 20.87C33.84 21.02 33.69 21.16 33.53 21.28C33.17 21.56 32.76 21.75 32.32 21.81C31.98 21.86 31.64 21.83 31.3 21.74C31.67 21.76 31.98 21.71 32.23 21.64C33.08 21.41 33.74 20.72 34.23 20.01C34.55 19.54 34.79 19.06 34.94 18.7C34.99 18.74 35.04 18.79 35.08 18.83C35.14 18.89 35.2 18.95 35.25 19.01C35.59 19.4 35.77 19.81 35.74 20.18H35.75Z" fill="#B46048"/>
<path d="M34.5901 22.21C33.8701 21.81 32.76 22.07 31.69 22.19C30.69 22.31 29.72 22.37 28.73 22.4C28.05 22.42 27.33 22.43 26.62 22.46C25.22 22.54 23.8 22.51 22.6 23.42C21.82 24.06 21.74 25.04 22.26 25.53C22.7 25.95 23.43 26.02 24.17 26.05C25.55 26.08 27.14 25.98 28.58 25.89C30.34 25.77 32.2 25.62 33.87 25.2C35.89 24.8 35.78 22.84 34.62 22.21H34.61H34.5901Z" fill="#F09077"/>
<path d="M38.79 25.09C38.6 25.12 38.4 25.16 38.21 25.19C37.03 25.39 35.85 25.6 34.66 25.8C34.4 25.84 34.15 25.89 33.89 25.93C33.84 25.68 33.79 25.44 33.73 25.19C33.44 23.81 33.14 22.43 32.85 21.05C34.36 20.74 35.88 20.43 37.39 20.12C38.82 19.72 40.3 20.5 40.68 21.87C41.06 23.24 40.22 24.68 38.78 25.08L38.79 25.09Z" fill="#EAD9CF" stroke="#C9B9B1" stroke-width="0.17" stroke-miterlimit="10"/>
<path d="M33.99 20.73C34.33 22.43 34.67 24.14 35.01 25.84C35.04 26 35.28 25.95 35.25 25.8C34.91 24.1 34.57 22.39 34.23 20.69C34.2 20.53 33.96 20.58 33.99 20.73Z" fill="#C9B9B1"/>
<path d="M103.402 22.8305C104.206 22.6841 104.71 21.7505 104.527 20.7453C104.344 19.7401 103.544 19.044 102.739 19.1904C101.935 19.3368 101.432 20.2704 101.615 21.2756C101.798 22.2808 102.598 22.977 103.402 22.8305Z" fill="#E6926D"/>
<path d="M102.74 19.19L103.4 22.82C101.64 23.27 99.88 23.72 98.11 24.17C97.86 22.73 97.61 21.29 97.36 19.86C99.15 19.64 100.94 19.41 102.73 19.19H102.74Z" fill="#E6926D"/>
<path d="M81.1644 30.0665C83.3106 29.6757 84.6751 27.2975 84.2121 24.7546C83.749 22.2117 81.6338 20.4671 79.4876 20.8579C77.3413 21.2487 75.9768 23.627 76.4398 26.1698C76.9029 28.7127 79.0181 30.4573 81.1644 30.0665Z" fill="#98AFC1"/>
<path d="M97.41 18.68C97.81 20.84 98.2 23.01 98.6 25.17C92.79 26.8 86.98 28.44 81.17 30.07L79.49 20.86C85.46 20.13 91.43 19.41 97.41 18.68Z" fill="#99B0C2"/>
<path d="M96.6206 19.5857L97.5503 24.6918C97.6493 25.2351 98.17 25.5954 98.7133 25.4965L99.8841 25.2833C100.427 25.1843 100.788 24.6637 100.689 24.1203L99.759 19.0143C99.66 18.4709 99.1394 18.1106 98.596 18.2096L97.4253 18.4228C96.8819 18.5217 96.5216 19.0424 96.6206 19.5857Z" fill="#B8C2CB"/>
<path d="M55.2801 27.47C54.9901 24.4 57.65 21.64 61.22 21.3C62.74 21.16 63.94 21.51 64.4 21.69C66.1 22.38 68 24.05 68.21 26.25C68.49 29.25 65.47 32.12 62.27 32.42C58.7 32.76 55.5701 30.54 55.2801 27.47Z" fill="#98AFC1"/>
<path d="M81.0559 29.9176C83.2773 29.7084 84.8854 27.4928 84.6478 24.969C84.4101 22.4452 82.4166 20.5688 80.1952 20.778C77.9738 20.9872 76.3657 23.2028 76.6034 25.7266C76.8411 28.2504 78.8345 30.1268 81.0559 29.9176Z" fill="#98AFC1"/>
<path d="M80.25 20.82C80.49 23.87 80.74 26.92 80.98 29.96C74.71 30.78 68.44 31.61 62.17 32.43C62.56 28.75 62.94 25.08 63.33 21.4C66.43 21.37 69.6 21.3 72.83 21.18C75.35 21.09 77.82 20.97 80.25 20.82Z" fill="#98AFC1"/>
<path d="M104.19 18.23C105.18 18 106.07 18.96 106.42 19.35C107.07 20.06 107.69 21.25 107.33 21.68C107.07 21.99 106.57 21.53 105.33 21.77C104.78 21.87 104.52 22.03 104.12 21.89C103.93 21.82 103.73 21.64 103.34 21.28C102.94 20.91 102.74 20.73 102.68 20.55C102.53 20.11 102.78 19.65 102.94 19.37C103.09 19.1 103.48 18.42 104.18 18.25L104.19 18.23Z" fill="#E6926D"/>
<path d="M106.19 21.85C106.19 22.33 107.45 22.69 107.98 22.84C108.67 23.03 109.02 23.13 109.41 22.95C109.86 22.74 110.25 22.21 110.16 21.78C110.13 21.65 110.07 21.57 109.93 21.4C109.32 20.68 108.74 20.27 108.02 19.6C107.92 19.51 107.67 19.44 107.57 19.45C107.36 19.47 107.16 19.42 107.02 19.33C106.78 19.17 106.65 18.83 106.7 18.47C106.7 18.44 106.67 18.32 106.64 18.29L104.87 16.62C104.87 16.62 104.57 16.18 104.03 17.12C103.68 17.73 103.41 17.98 103.47 18.29C103.52 18.52 103.67 18.66 103.97 18.92C104.38 19.27 104.81 19.46 105.13 19.56C105.76 19.76 105.84 19.6 106.21 19.8C106.61 20.01 107.06 20.49 106.99 20.92C106.91 21.43 106.17 21.49 106.17 21.84L106.19 21.85Z" fill="#815F5E"/>
<path d="M107.36 20.81C107.61 20.55 107.98 20.42 108.34 20.43C108.74 20.45 109.07 20.68 109.39 20.96C109.83 21.36 110.29 21.79 110.73 22.23C110.9 22.42 111.45 22.9 111.26 23.09C111.15 23.2 110.75 23.19 110.32 23.17C109.71 23.13 109.05 23.07 108.47 22.98C108 22.9 107.48 22.75 107.24 22.31C106.98 21.87 106.98 21.21 107.36 20.81Z" fill="#886060"/>
<path d="M24.35 22.73C23.43 22.6 22.46 22.74 21.62 22.78C19.97 22.87 18.23 23.05 16.52 23.04C15.87 23.04 15.13 23 14.47 22.96C13.71 22.91 12.92 22.85 12.16 22.81C11.36 22.78 10.62 22.75 9.98998 23.02C9.51998 23.22 9.17999 23.75 9.56999 24.3C9.93999 24.84 10.75 25.13 11.39 25.27C13.04 25.61 14.64 25.69 16.28 25.84C18.22 26 20.28 26.12 22.13 26.09C23.41 26.05 25.37 26.2 26.27 25.55C26.67 25.25 26.78 24.71 26.51 24.12C26.14 23.35 25.23 22.88 24.36 22.74H24.34L24.35 22.73Z" fill="#F09077"/>
<path d="M10.9348 23.353C10.9391 22.2374 10.0068 21.3294 8.85258 21.325C7.69831 21.3205 6.75911 22.2214 6.75483 23.337C6.75054 24.4526 7.6828 25.3605 8.83707 25.3649C9.99133 25.3694 10.9305 24.4686 10.9348 23.353Z" fill="#F09077"/>
<path d="M55.81 31.85C55.81 31.85 60.8 33.34 65.52 31.99" stroke="#93AABC" stroke-width="0.7" stroke-linecap="round" stroke-linejoin="round"/>
</svg>
