<?xml version="1.0" encoding="UTF-8"?>
<svg id="_Слой_1" data-name="Слой 1" xmlns="http://www.w3.org/2000/svg" viewBox="0 0 102.12 52.56">
  <g>
    <g>
      <path d="M7.06,50.15l-1.55-2.65c1.87-1.24,3.74-2.49,5.61-3.73l1.92,3.29c-2,1.03-3.99,2.06-5.99,3.09Z" fill="#e6926d"/>
      <rect x="9.81" y="42.73" width="3.19" height="5.69" rx=".43" ry=".43" transform="translate(49.02 73.72) rotate(140.87)" fill="#b8c2cb"/>
      <rect x=".68" y="47.02" width="7.63" height="3.81" rx="1.66" ry="1.66" transform="translate(-8.64 1.58) rotate(-10.26)" fill="#815f5e"/>
    </g>
    <g>
      <ellipse cx="8.15" cy="40.29" rx="3.94" ry="3.54" transform="translate(-32.82 37.04) rotate(-74.03)" fill="#8aa5b7"/>
      <path d="M6.99,44.05c.74-2.52,1.48-5.04,2.22-7.55,5.4,1.29,10.8,2.58,16.2,3.88l-6.02,7.73c-4.13-1.34-8.27-2.7-12.41-4.04h0Z" fill="#8aa5b7"/>
    </g>
    <g>
      <g>
        <path d="M.81,42.43c.36-2.62,2.81-4.49,5.48-4.19s4.53,2.67,4.17,5.29-2.81,4.49-5.48,4.19-4.53-2.67-4.17-5.29Z" fill="#98afc1"/>
        <path d="M4.82,47.7c.49-3.15.97-6.3,1.46-9.45,7.58.63,15.17,1.26,22.75,1.89l-6.57,10.31c-5.88-.91-11.77-1.82-17.65-2.73h0Z" fill="#98afc1"/>
      </g>
      <path d="M25.71,39.74c3.25.57,5.38,3.48,4.77,6.5-.61,3.02-3.74,5.01-6.99,4.44-3.25-.57-5.38-3.48-4.77-6.5s3.74-5.01,6.99-4.44Z" fill="#98afc1"/>
      <path d="M29.36,35.69l-9.33-.17c-.06,0-.11.04-.11.11-.26,3.03-.52,6.05-.78,9.08,0,.06.04.13.11.13,3.74.06,7.48.12,11.22.18.07,0,.12-.07.12-.14-.37-3.03-.74-6.06-1.11-9.09,0-.05-.05-.1-.11-.11h0Z" fill="#98afc1"/>
    </g>
    <rect x="34.32" y="46.9" width="33.37" height="5.16" rx="2.19" ry="2.19" fill="#333"/>
    <rect x="52.54" y="44.12" width="10.55" height="3.65" rx="1.46" ry="1.46" fill="#e8e8e8"/>
    <g>
      <path d="M25.11,21.23c-.74.16-1.29.98-1.9,1.69-.57.66-1.16,1.26-1.8,1.87-.43.41-.9.84-1.34,1.27-.86.87-1.8,1.69-1.98,2.97-.08.86.52,1.54,1.19,1.56.57.01,1.09-.37,1.59-.77.91-.78,1.88-1.78,2.76-2.68,1.07-1.11,2.18-2.29,3-3.53,1.05-1.43-.32-2.64-1.5-2.36h-.01s0-.02,0-.02Z" fill="#f2957c"/>
      <path d="M18.71,27.82c-.8-.03-1.69.2-2.45.32-1.49.25-3.08.61-4.6.76-.57.06-1.24.11-1.82.13-.68.03-1.36.04-2.04.09-.71.05-1.37.1-1.97.42-.45.23-.83.78-.56,1.27.25.48.93.67,1.48.74,1.43.16,2.85.08,4.28.06,1.71-.04,3.53-.14,5.19-.35,1.15-.17,2.88-.22,3.79-.93.41-.33.58-.85.43-1.4-.21-.69-.96-1.05-1.71-1.1h-.02s-.01,0-.01,0Z" fill="#f2957c"/>
      <circle cx="4.87" cy="30.4" r="1.49" fill="#f2957c"/>
    </g>
    <g>
      <g>
        <g>
          <g>
            <g>
              <g>
                <path d="M28.95,19.56c-2.2.78-4.41,1.57-6.6,2.35.07-.11.17-.25.27-.43h0c.3-.53.67-1.39.65-2.45,0-.13,0-.25-.03-.36.78-.2,1.39-1.43,1.41-2.92,0-.57-.07-1.09-.21-1.55-.06.2-.13.41-.23.6.08-.2.15-.41.22-.61h0c.05-.18.1-.38.13-.57h0c.13-.01.26-.04.38-.06.57-.11,1.11-.3,1.61-.56,0,.42.04.88.12,1.38.08.59.23,1.23.45,1.9.19.54.4,1.03.63,1.48.4.76.83,1.37,1.18,1.8h.01Z" fill="#ef9475"/>
                <path d="M28.12,17.62s.04.05.07.1h0s.19.24.37.51c2.16,3.21,2.56,5.51,2.56,5.51.06,1.04.09,1.9.1,2.48,0,0,.11,4.11-1.34,11.01-.03.14-.1.47-.38.71-.32.27-.73.29-1.04.26l-8.31-.11c-.4,0-.71-.33-.71-.72l.14-10.28c.04-.55.11-1.04.23-1.5,1.49-2.82,3.84-5.94,7.57-7.64.24-.11.49-.22.73-.31h.02Z" fill="#ead9cf"/>
              </g>
              <path d="M29.76,8.02c-.02,2.16-1.31,4.02-3.18,4.96-.5.25-1.03.44-1.61.56-.13.02-.26.05-.38.06h0c-.03.19-.08.38-.13.57h0c.01.05.02.17,0,.3-.05.17-.17.28-.21.31h0c-.2.39-.65,1.22-1.54,1.91-.67.52-1.23.69-1.41.71l-.34.04h0c-.31.05-.83.08-1.51-.13-.88-.52-1.57-1.53-1.81-2.51-.07-.26-.28-1.09-.04-1.96.06-.2.14-.42.27-.62.14-.24.29-.4.41-.52-.02-.11-.05-.22-.07-.34-.11-.55-.25-1.28-.35-2.13,0-.09-.02-.17-.04-.27-.05-.47-.11-.96-.1-1.13.01-.7.15-1.36.4-1.97.88-2.17,3.12-3.7,5.72-3.66.83,0,1.63.18,2.35.48,1.46.61,2.62,1.75,3.2,3.17.28.67.43,1.4.41,2.16l-.03.02Z" fill="#ef9475"/>
            </g>
            <path d="M24.67,15.74c-.02,1.49-.64,2.72-1.41,2.92-.06-.67-.28-1.26-.56-1.77-.3.25-.63.45-.95.59-.44.18-.88.26-1.33.2-.34-.05-.68-.17-.98-.35.35.12.68.16.94.16,2.05.01,3.82-2.61,3.86-2.69h0c.09-.19.17-.39.23-.6.15.45.22.98.21,1.55h0Z" fill="#b46048"/>
            <path d="M24.45,14.19c-.06.2-.13.41-.23.6.08-.2.15-.41.22-.61v.02s.01-.01.01-.01Z" fill="#b46048"/>
          </g>
          <path d="M30.06,8.81c-.01,1.57-.62,4.53-2.84,5.42-1.34.53-2.69.12-3.35-.15.26-.12.69-.36,1.07-.84.18-.23.67-.84.61-1.7,0-.14-.07-1.04-.57-1.27-.52-.23-1.44.28-2.08,1.4.37-3.36-.69-6.02-2.42-6.62-.35-.12-.9-.21-1.68,0-.14.06-.46.35-.53.46-.08.14-.16.27-.21.39-.02-.06-.04-.13-.06-.2-.05-.3.02-.54.09-.68,0,0,.1-.37.33-.76,1.17-1.98,4.4-2.89,7.11-1.99.21.07.42.15.62.25,1.5.69,2.63,1.91,3.33,3.47,0,0,.56,1.34.56,2.83h.01Z" fill="#5b3d3b"/>
          <circle cx="29.07" cy="2.94" r="2.94" fill="#5b3d3b"/>
        </g>
        <ellipse cx="18.81" cy="10.65" rx=".73" ry=".26" transform="translate(7.91 29.32) rotate(-89.23)" fill="#422f2b"/>
        <rect x="18.34" y="8.11" width=".73" height="1.43" rx=".28" ry=".28" transform="translate(8.82 26.99) rotate(-86.7)" fill="#50373b"/>
        <ellipse cx="18.15" cy="12.2" rx=".79" ry="1.22" transform="translate(5.71 30.19) rotate(-89.23)" fill="#ef9475"/>
      </g>
      <path d="M19.01,14.34c-.02.11-.09.41-.37.67-.34.3-.72.31-.82.31-.23-.06-.3-.15-.32-.22-.03-.11.05-.15.04-.3-.02-.17-.14-.23-.12-.34.02-.09.12-.13.16-.15.35-.15,1.27,0,1.42.03h.01Z" fill="#e46761"/>
      <path d="M17.61,14.86c.31.06.64,0,.92-.15.03-.02.04-.05.02-.09-.02-.03-.05-.04-.09-.02-.25.14-.54.19-.82.14-.03,0-.06,0-.07.04,0,.03,0,.07.04.07h0Z" fill="#754048"/>
      <g>
        <path d="M23.89,12.06l.45.34s.06.03.1.03h.1s.06-.02.08-.05c.03-.02.05-.04.06-.08l.02-.06s0-.09,0-.14l-.02-.06s-.05-.06-.09-.08l-.45-.34s-.06-.03-.1-.03h-.1s-.06.02-.08.05c-.03.02-.05.04-.06.08l-.02.06s0,.09,0,.14l.02.06s.05.06.09.08h0Z" fill="#ce7857"/>
        <path d="M23.67,12.95c.02-.15.05-.31.08-.46.02-.08.04-.15.06-.23.01-.03.02-.08.04-.11,0-.02.01-.03.02-.05,0,0,.02-.04,0,0s0,0,0-.01c.03-.06.06-.14.1-.2.02-.03.03-.05.05-.09,0-.01.02-.03.03-.04,0-.01.03-.03-.01.02,0,0,.01-.01.02-.02.04-.05.09-.11.15-.15.01,0,.02-.02.03-.03,0,0,.05-.04.02-.01-.03.03,0,0,.02-.01s.03-.02.05-.03c.03-.02.06-.04.1-.05.01,0,.03-.01.04-.02,0,0,.02,0,.02-.01-.01,0-.05.02-.02,0,.07-.03.15-.04.22-.06h-.06s.11,0,.16,0c.13,0,.26-.12.25-.26s-.11-.24-.26-.25c-.36,0-.7.16-.96.41s-.43.6-.52.96c-.05.19-.09.39-.12.58,0,.06,0,.13.02.19.03.05.1.11.15.12.06,0,.14,0,.19-.02s.11-.09.12-.15h-.01Z" fill="#ce7857"/>
      </g>
    </g>
    <g>
      <g>
        <path d="M22.92,26.87c-.75.04-1.42.77-2.14,1.37-.67.56-1.35,1.07-2.07,1.56-.49.33-1.02.69-1.52,1.05-.98.72-2.05,1.38-2.42,2.62-.22.84.28,1.6.93,1.73.56.1,1.14-.2,1.69-.52,1.03-.63,2.14-1.46,3.15-2.21,1.23-.93,2.51-1.91,3.51-3.02,1.26-1.25.09-2.66-1.11-2.57h0s0-.02,0-.02Z" fill="#ef9475"/>
        <path d="M28.29,27.14c-.14.15-.3.28-.46.4.15-.13.3-.27.46-.4Z" fill="#ead9cf"/>
        <path d="M28.29,27.14c-.15.13-.3.27-.46.4-.94.8-1.86,1.59-2.79,2.39-.2.17-.41.35-.61.52-.18-.19-.35-.37-.52-.56-.98-1.06-1.96-2.12-2.94-3.17,1.16-1.07,2.33-2.13,3.5-3.2,1.05-1.1,2.75-1.19,3.8-.2,1.06,1,1.07,2.71.01,3.82h0Z" fill="#ead9cf" stroke="#c9b9b1" stroke-miterlimit="10" stroke-width=".17"/>
        <path d="M21.79,25.83c1.19,1.32,2.39,2.64,3.57,3.96.11.12.3-.06.18-.17-1.19-1.32-2.39-2.64-3.57-3.96-.11-.12-.3.06-.18.17h0Z" fill="#c9b9b1"/>
      </g>
      <path d="M15.51,32.44c-.78-.16-1.7-.07-2.47-.07-1.51.02-3.13.12-4.66.03-.57-.04-1.24-.09-1.82-.16-.67-.08-1.35-.17-2.03-.23-.71-.06-1.37-.12-2.01.1-.48.16-.94.64-.75,1.17.17.51.81.81,1.35.97,1.38.38,2.8.53,4.22.73,1.69.23,3.51.42,5.18.47,1.17.01,2.88.24,3.89-.33.46-.26.71-.75.64-1.31-.1-.72-.78-1.19-1.51-1.36h-.02s-.01,0-.01,0Z" fill="#ef9475"/>
      <circle cx="1.49" cy="32.74" r="1.49" fill="#ef9475"/>
    </g>
  </g>
  <g>
    <rect x="70.62" y="38.21" width="30.39" height="6.84" rx="2.06" ry="2.06" fill="#333"/>
    <rect x="75.41" y="33.92" width="20.73" height="5.09" rx="1.97" ry="1.97" fill="#e8e8e8"/>
    <g>
      <path d="M83.55,7.24c.07.19.12.37.15.56-.05-.19-.1-.37-.15-.56Z" fill="#ead9cf"/>
      <path d="M95.07,46.28c-1.36.67-4.66,2.11-9.24,2.13-4.48.02-7.75-1.32-9.13-1.97.15-1.11.46-2.52,1.14-4.08.59-1.36,1.31-2.48,1.96-3.35,4.14,0,8.29.02,12.43.03.58.91,1.17,2,1.69,3.25.61,1.49.95,2.85,1.15,3.99Z" fill="#98afc1"/>
      <g>
        <path d="M89.31,20.35c.13.62-1.45,1.93-3.19,1.93-1.74,0-3.32-1.31-3.19-1.93.05-.22.29-.21.63-.68.41-.56.26-.84.55-1.17.35-.4.91-.4,2.05-.39.99,0,1.49.01,1.81.37.27.3.15.52.49,1.02.4.59.78.57.84.85h0Z" fill="#f09077"/>
        <ellipse cx="86.06" cy="15.37" rx="2.04" ry="1.72" fill="#f09077"/>
        <path d="M88.19,18.87c-1.42.01-2.85.03-4.27.04.03-1.18.07-2.36.1-3.54h4.08c.03,1.17.06,2.33.09,3.5Z" fill="#f09077"/>
      </g>
      <path d="M88.18,18.3s-.05.04-.08.06c-.1.08-.21.15-.32.22-.52.31-1.11.49-1.73.49s-1.17-.17-1.67-.46c-.12-.07-.24-.15-.36-.24-.03-.02-.06-.04-.09-.07.03-1.03.06-2.06.09-3.08h0c0-.91.91-1.65,2.03-1.65s2.03.74,2.03,1.65c0,0,0,.01,0,.02.03,1.02.05,2.04.08,3.06Z" fill="#b46048"/>
      <g>
        <path d="M91.02,11.11c0,3.61-2.22,6.54-4.96,6.54s-4.96-2.93-4.96-6.54c0-.43.03-.85.09-1.25.35-2.38,1.68-4.3,3.41-5,.46-.19.95-.29,1.46-.29.57,0,1.11.12,1.62.36,1.65.75,2.91,2.63,3.25,4.93.06.41.09.82.09,1.25h0Z" fill="#ea8f72"/>
        <ellipse cx="88.23" cy="11.07" rx=".27" ry=".78" fill="#422f2b"/>
        <path d="M85.74,10.67c-.08.17-.05.38-.06.57-.01.17,0,.36-.08.51-.08.14-.23.2-.37.28-.14.09-.27.2-.36.35-.15.26-.18.62,0,.87.21.27.57.33.89.37.14.02.37.04.47-.03.04-.03.05-.07,0-.11-.18-.11-.46-.06-.66-.13-.3-.07-.57-.33-.51-.66.08-.45.53-.46.79-.73.17-.2.13-.51.14-.76-.01-.18.02-.41-.09-.57-.05-.06-.12-.06-.16.03h0s0,0,0,0Z" fill="#c2684e"/>
        <g>
          <path d="M82.6,2.9c-.03.57.13.85.13.85l.37-.14s-.53-.56-.49-.82" fill="#5b3d3b"/>
          <path d="M91.46,9.2c-.03.21-.08.5-.16.8-.12.46-.36,1.16-.91,1.95.16-1.33.02-2.39-.13-3.08-.14-.68-.28-1.27-.7-1.94-.19-.3-.75-1.15-1.85-1.64-.35-.16-.72-.26-1.09-.31-.15-.02-.3-.04-.45-.04-.06,0-.1,0-.13,0-.03,0-.07,0-.13,0-.15,0-.3.02-.45.04-.37.06-.74.16-1.09.31-1.1.49-1.65,1.34-1.85,1.64-.43.67-.56,1.26-.7,1.94-.15.69-.29,1.75-.13,3.08-.54-.8-.79-1.49-.91-1.95-.08-.3-.13-.59-.16-.8-.07-.42-.15-.94-.14-1.58,0-.23.01-.63.11-1.14.1-.5.25-.91.39-1.21.14-.3.26-.5.32-.58.57-.77,1.27-1.18,1.71-1.38-.06-.21-.1-.44-.1-.67,0-.81.43-1.56,1.08-2.04.44-.32.85-.44,1.16-.52.58-.15,1.4-.08,1.4-.08.14.02.28.06.36.08.42.09.82.26,1.16.52.65.47,1.08,1.22,1.08,2.04,0,.23-.03.46-.1.67.44.2,1.15.61,1.71,1.38.05.08.18.28.32.58.14.3.29.71.39,1.21.1.51.11.91.11,1.14.01.64-.07,1.15-.14,1.58h0Z" fill="#5b3d3b"/>
        </g>
        <rect x="82.95" y="8.72" width="1.54" height=".84" transform="translate(-.45 6.23) rotate(-4.25)" fill="#50373b"/>
        <ellipse cx="83.72" cy="11.07" rx=".27" ry=".78" fill="#422f2b"/>
        <g>
          <path d="M88.07,14.61c.09.24-.87,1.14-2,1.14s-2.1-.9-2-1.14c.07-.17.65.08,2,.08s1.93-.25,2-.08Z" fill="#ea7564"/>
          <path d="M84.5,14.82c.08.08.2.13.31.16.47.15.97.17,1.47.17.18,0,.36,0,.53-.03.29-.04.58-.13.83-.28" fill="none" stroke="#d3584a" stroke-linecap="round" stroke-linejoin="round" stroke-width=".17"/>
        </g>
        <rect x="87.81" y="8.37" width=".84" height="1.54" transform="translate(72.57 96.45) rotate(-85.75)" fill="#50373b"/>
        <g>
          <path d="M91.77,12.99c.27-1.02.16-1.82.16-1.82,0,0-.07-.61-.59-.71-.52-.1-.7.21-.7.21,0,0-.26.41-.3,1.19s-.07,1.35,0,1.8,1.15.34,1.42-.67h0Z" fill="#ea8f72"/>
          <g>
            <path d="M90.86,12.36c.12.02.23.04.35.06.05,0,.09,0,.14-.02.04-.02.07-.06.08-.11.01-.04,0-.1-.02-.14-.02-.04-.06-.07-.11-.08-.12-.02-.23-.04-.35-.06-.05,0-.09,0-.14.02-.04.02-.07.06-.08.11-.01.04,0,.1.02.14.02.04.06.07.11.08h0Z" fill="#ce7857"/>
            <path d="M91.01,13.17s-.01-.05-.02-.08c0-.03,0,.04,0,0v-.05c-.01-.08,0-.16,0-.24,0-.2.03-.38.06-.56.03-.19.08-.38.14-.56,0-.02.02-.04.02-.06-.01.03,0-.01,0-.02.02-.04.03-.07.06-.1,0-.01.01-.02.02-.03-.03.04,0,0,.01-.01,0-.01.05-.04,0,0,.01,0,.02-.01.03-.02.2-.1.02-.41-.18-.31-.24.12-.34.48-.4.72-.09.33-.14.69-.14,1.03,0,.13,0,.28.04.41.07.22.41.12.34-.09h0Z" fill="#ce7857"/>
          </g>
        </g>
        <g>
          <path d="M80.3,12.96c-.27-1.02-.16-1.82-.16-1.82,0,0,.07-.61.59-.71.52-.1.7.21.7.21,0,0,.26.41.3,1.19s.07,1.35,0,1.8-1.15.34-1.42-.67h0Z" fill="#ea8f72"/>
          <g>
            <path d="M81.11,11.98c-.12.02-.23.04-.35.06-.04,0-.09.05-.11.08-.02.04-.03.09-.02.14s.04.08.08.11l.04.02s.06,0,.09,0c.12-.02.23-.04.35-.06.04,0,.09-.05.11-.08.02-.04.03-.09.02-.14s-.04-.08-.08-.11l-.04-.02s-.06,0-.09,0h0Z" fill="#ce7857"/>
            <path d="M81.4,13.23c.08-.25.04-.57.01-.82-.04-.35-.11-.7-.25-1.01-.06-.12-.14-.26-.26-.32-.2-.1-.38.2-.18.31.01,0,.02.01.03.02-.04-.03,0,0,0,0,0,0,.03.04.02.02s.01.02.02.02c.02.03.04.07.06.1,0,0,.02.05,0,.02,0,.02.02.04.02.06.07.18.11.37.14.56.03.18.05.36.06.56,0,.08,0,.16,0,.24,0,.01,0,.03,0,.04,0,.05,0-.01,0,.01,0,.03-.01.05-.02.08-.07.22.27.31.34.09h0Z" fill="#ce7857"/>
          </g>
        </g>
      </g>
      <path d="M91.73,20.07h-.31c.11,0,.21,0,.31,0Z" fill="#ead9cf"/>
      <path d="M93.84,26.01c-.58,4.81-1.16,9.62-1.74,14.43-.06.5-.47.88-.97.94-.87-.01-2.25,0-3.77,0-2.2,0-4.4,0-6.6-.01-.56,0-1.03-.41-1.09-.96-.48-4.57-.97-9.14-1.45-13.7,0-2.36.01-4.34.13-5.28.17-.62.59-1.21,1.16-1.48.4-.22.9-.27,1.42-.28h.45c.12.01.34.03.6,0,.97-.09,1.48-.61,1.72-.4.16.14-.03.41.07.77.2.74,1.35,1.04,2,1.1.99.09,2.33-.25,2.55-1.03.13-.46-.19-.89-.02-1.02.22-.16.71.56,1.52.58.13,0,.25,0,.57,0,.21,0,.42,0,.62,0,.02,0,.03,0,.05,0h.29c1.24.04,2.16.66,2.44,2.01h0c.03,1.11.05,2.64.05,4.33h0Z" fill="#ead9cf"/>
      <path d="M81.1,20.07h.64c-.2,0-.42,0-.64,0Z" fill="#ead9cf"/>
      <path d="M91.36,20.07c-.22,0-.44,0-.66,0h.72s-.04,0-.06,0h0Z" fill="#ead9cf"/>
      <g>
        <path d="M78.9,26.67c.21.89-.28,1.82-.64,2.79-.34.9-.61,1.8-.87,2.73-.18.64-.35,1.33-.53,1.99-.39,1.29-.69,2.67-1.81,3.36-.77.42-1.7,0-2.04-.74-.29-.64-.19-1.37-.05-2.09.29-1.33.74-2.8,1.15-4.14.52-1.62,1.07-3.33,1.84-4.72.83-1.73,2.63-.64,2.95.79v.02s0,0,0,0Z" fill="#f09077"/>
        <g>
          <path d="M77.05,21.28c-.07.18-.15.37-.22.55-.69,1.69-.93,2.27-1.34,3.34-.07.17-.18.45-.31.81.23.07.47.14.7.22,1.43.48,2.71,1.07,3.83,1.7.62-1.41,1.24-2.83,1.86-4.24.7-1.32.25-2.92-1-3.57-1.25-.65-2.82-.12-3.52,1.2h0Z" fill="#ead9cf"/>
          <path d="M80.32,26.74c-1.58-.68-3.17-1.36-4.75-2.04" fill="none"/>
        </g>
      </g>
      <path d="M74.55,33.96c.57-.6,1.27-.95,1.85-1.35,1.14-.76,2.38-1.46,3.52-2.35.43-.34.92-.75,1.35-1.13.5-.44,1-.9,1.5-1.32.53-.44,1.01-.85,1.53-.91.39-.05.8.3.73,1.04-.06.72-.5,1.41-.88,1.87-.99,1.17-2.04,2.07-3.09,3.05-1.25,1.15-2.59,2.31-3.85,3.23-.88.62-2.14,1.76-2.97,1.59-.38-.09-.64-.56-.66-1.27-.02-.94.43-1.86.96-2.44h.01s0-.01,0-.01Z" fill="#ea8c73"/>
      <path d="M82.72,28.24c.93-.86,1.81-2.1,2.1-3.43.2-.78.23-1.79.42-2.48.06-.29.48-1.21.61-.67.03.16.03.37.04.56-.01,1.33.03,3.87-.02,5.36-.04.83-.88.8-1.57.92" fill="#ea8c73"/>
      <path d="M89.06,28.24c-.93-.86-1.81-2.1-2.1-3.43-.2-.78-.23-1.79-.42-2.48-.06-.29-.48-1.21-.61-.67-.03.16-.03.37-.04.56.01,1.33-.03,3.87.02,5.36.04.83.88.8,1.57.92" fill="#ea8c73"/>
      <g>
        <path d="M92.97,26.68c-.21.89.28,1.82.64,2.79.34.9.61,1.8.87,2.73.18.64.35,1.33.53,1.99.39,1.29.69,2.67,1.81,3.36.77.42,1.7,0,2.04-.74.29-.64.19-1.37.05-2.09-.29-1.33-.74-2.8-1.15-4.14-.52-1.62-1.07-3.33-1.84-4.72-.83-1.73-2.63-.64-2.95.79v.02s0,0,0,0Z" fill="#f09077"/>
        <g>
          <path d="M94.82,21.29c.07.18.15.37.22.55.69,1.69.93,2.27,1.34,3.34.07.17.18.45.31.81-.23.07-.47.14-.7.22-1.43.48-2.71,1.07-3.83,1.7-.62-1.41-1.24-2.83-1.86-4.24-.7-1.32-.25-2.92,1-3.57,1.25-.65,2.82-.12,3.52,1.2h0Z" fill="#ead9cf"/>
          <path d="M91.55,26.75c1.58-.68,3.17-1.36,4.75-2.04" fill="none"/>
        </g>
      </g>
      <path d="M97.32,33.97c-.57-.6-1.27-.95-1.85-1.35-1.14-.76-2.38-1.46-3.52-2.35-.43-.34-.92-.75-1.35-1.13-.5-.44-1-.9-1.5-1.32-.53-.44-1.01-.85-1.53-.91-.39-.05-.8.3-.73,1.04.06.72.5,1.41.88,1.87.99,1.17,2.04,2.07,3.09,3.05,1.25,1.15,2.59,2.31,3.85,3.23.88.62,2.14,1.76,2.97,1.59.38-.09.64-.56.66-1.27.02-.94-.43-1.86-.96-2.44h-.01s0-.01,0-.01Z" fill="#ea8c73"/>
      <line x1="85.89" y1="27.03" x2="85.89" y2="22.02" fill="none" stroke="#aa390b" stroke-miterlimit="10" stroke-width=".04"/>
      <g>
        <path d="M88.54,49.31c1.47-.37,2.22-2.38,1.69-4.49s-2.16-3.51-3.62-3.14-2.22,2.38-1.69,4.49,2.16,3.51,3.62,3.14Z" fill="#98afc1"/>
        <ellipse cx="98.64" cy="42.83" rx="2.43" ry="3.37" transform="translate(-7.5 25.58) rotate(-14.24)" fill="#98afc1"/>
        <path d="M99.47,46.09l-1.66-6.53c-3.25.62-6.51,1.23-9.76,1.85-.48.09-.96.18-1.44.27.65,2.54,1.29,5.09,1.94,7.63l10.92-3.22Z" fill="#98afc1"/>
      </g>
      <rect x="74.23" y="48.33" width="7.18" height="3.77" rx="1.62" ry="1.62" transform="translate(1.47 -2.2) rotate(1.64)" fill="#815f5e"/>
      <g>
        <ellipse cx="79.41" cy="50.13" rx="1.38" ry="1.44" transform="translate(-4.13 7.23) rotate(-5.08)" fill="#e6926d"/>
        <path d="M79.28,48.69c.13.95.26,1.91.39,2.86,1.29-.06,2.59-.12,3.88-.18-.17-1.09-.34-2.18-.51-3.27-1.25.2-2.5.39-3.76.59h0Z" fill="#e6926d"/>
      </g>
      <g>
        <g>
          <ellipse cx="98.57" cy="43.29" rx="3.5" ry="3.81" transform="translate(-9.08 42.01) rotate(-23.03)" fill="#98afc1"/>
          <path d="M82.73,46.83c.35.62.75,1.45,1.05,2.47.24.84.35,1.61.4,2.23,5.29-1.58,10.59-3.16,15.88-4.74l-2.98-7.01c-4.78,2.35-9.57,4.69-14.35,7.04Z" fill="#99b0c2"/>
        </g>
        <rect x="80.13" y="48.02" width="5.28" height="2.89" rx=".45" ry=".45" transform="translate(55.69 142) rotate(-104.55)" fill="#b8c2cb"/>
      </g>
      <line x1="85.01" y1="47.02" x2="95.79" y2="41.74" fill="none" isolation="isolate" stroke="#93aabc" stroke-linecap="round" stroke-linejoin="round" stroke-width=".43"/>
      <g>
        <path d="M83.84,49.26c-1.47-.37-2.22-2.38-1.69-4.49.53-2.11,2.16-3.51,3.62-3.14s2.22,2.38,1.69,4.49-2.16,3.51-3.62,3.14Z" fill="#98afc1"/>
        <ellipse cx="73.74" cy="42.77" rx="3.37" ry="2.43" transform="translate(14.14 103.73) rotate(-75.76)" fill="#98afc1"/>
        <path d="M72.91,46.04l1.66-6.53c3.25.62,6.51,1.23,9.76,1.85.48.09.96.18,1.44.27-.65,2.54-1.29,5.09-1.94,7.63l-10.92-3.22Z" fill="#98afc1"/>
      </g>
      <rect x="91" y="48.24" width="7.18" height="3.77" rx="1.62" ry="1.62" transform="translate(195.03 87.16) rotate(172.32)" fill="#815f5e"/>
      <g>
        <ellipse cx="93.31" cy="50.36" rx="1.44" ry="1.38" transform="translate(36.26 139.74) rotate(-85.81)" fill="#e6926d"/>
        <path d="M93.42,48.92c-.11.96-.23,1.91-.34,2.87-1.29-.04-2.59-.08-3.88-.12.15-1.09.31-2.19.46-3.28,1.25.18,2.51.35,3.76.53h0Z" fill="#e6926d"/>
      </g>
      <g>
        <g>
          <ellipse cx="73.81" cy="43.24" rx="3.81" ry="3.5" transform="translate(5.14 94.25) rotate(-66.97)" fill="#98afc1"/>
          <path d="M89.65,46.78c-.7,1.65-1.4,3.29-2.09,4.94-5.08-1.66-10.16-3.32-15.24-4.97l2.98-7.01c4.78,2.35,9.57,4.69,14.35,7.04h0Z" fill="#99b0c2"/>
        </g>
        <rect x="86.63" y="48.02" width="5.85" height="2.89" rx=".47" ry=".47" transform="translate(17.27 121.86) rotate(-73.95)" fill="#b8c2cb"/>
      </g>
      <line x1="88.69" y1="46.46" x2="77.38" y2="42.41" fill="none" isolation="isolate" stroke="#93aabc" stroke-linecap="round" stroke-linejoin="round" stroke-width=".43"/>
    </g>
  </g>
</svg>