<?xml version="1.0" encoding="UTF-8"?>
<svg id="_Слой_1" data-name="Слой 1" xmlns="http://www.w3.org/2000/svg" viewBox="0 0 62.86 35.36">
  <g>
    <g>
      <ellipse cx="4.78" cy="28.08" rx="4.78" ry="5.05" transform="translate(-.85 .16) rotate(-1.73)" fill="#98afc1"/>
      <path d="M5.01,33.13c-.2-3.35-.41-6.72-.61-10.07,7.43-.86,14.88-1.71,22.31-2.57l-4.13,11.97c-5.85.23-11.72.45-17.57.68h0Z" fill="#98afc1"/>
    </g>
    <ellipse cx="23.74" cy="26.74" rx="6.1" ry="6" transform="translate(-.44 .4) rotate(-.96)" fill="#98afc1"/>
    <path d="M32.51,26.33l-4.89-8.12c-.03-.05-.1-.07-.15-.04-2.63,1.41-5.27,2.81-7.9,4.21-.05.03-.08.1-.04.17,1.96,3.25,3.93,6.5,5.9,9.76.04.06.12.07.18.02,2.3-1.95,4.6-3.9,6.89-5.85.04-.03.05-.1.03-.15h0Z" fill="#98afc1"/>
  </g>
  <g>
    <g>
      <g>
        <g>
          <g>
            <g>
              <path d="M46.2,16.87c-1.82-1.4-3.65-2.79-5.47-4.19.13,0,.29,0,.5,0h0c.6-.03,1.5-.19,2.37-.77.1-.07.2-.13.29-.22.58.53,1.93.38,3.16-.4.47-.3.86-.64,1.16-1-.2.06-.41.11-.62.14.21-.04.42-.09.62-.15h0c.18-.06.36-.12.54-.2h0c.08.1.17.19.25.29.4.4.84.75,1.32,1.03-.34.23-.7.51-1.07.83-.44.38-.89.85-1.32,1.39-.35.45-.64.88-.88,1.31-.42.74-.68,1.42-.85,1.94h0Z" fill="#ef9475"/>
              <path d="M47.35,15.14s-.02.06-.04.11h0s-.1.28-.22.58c-1.49,3.5-3.17,5.06-3.17,5.06-.82.6-1.52,1.09-1.99,1.41,0,0-3.33,2.29-9.8,4.79-.13.05-.44.17-.79.07-.39-.12-.63-.45-.77-.72l-4.36-6.91c-.22-.32-.11-.76.21-.97l8.55-5.39c.47-.26.92-.46,1.36-.62,3.13-.28,6.95,0,10.35,2.14.22.14.44.29.65.44h.02Z" fill="#ead9cf"/>
            </g>
            <path d="M56.14,11.36c-1.79,1.14-4.02,1.07-5.8.03-.48-.28-.92-.61-1.32-1.03-.09-.09-.18-.19-.25-.29h0c-.17.08-.35.13-.54.2h0s-.13.11-.25.15c-.17.05-.32.01-.37,0h0c-.43.04-1.35.12-2.4-.24-.79-.27-1.23-.65-1.35-.78l-.21-.26h0c-.2-.23-.51-.65-.7-1.31-.04-1.01.42-2.11,1.1-2.84.17-.19.75-.81,1.59-1.08.2-.06.42-.11.66-.11.27-.01.49.03.65.06.08-.08.16-.16.24-.24.4-.39.92-.89,1.57-1.43.07-.05.13-.11.2-.17.36-.29.73-.6.88-.69.58-.36,1.2-.6,1.84-.73,2.26-.44,4.72.59,6.08,2.75.44.69.72,1.44.86,2.19.28,1.53-.04,3.1-.9,4.33-.4.59-.92,1.1-1.55,1.5h-.04Z" fill="#ef9475"/>
          </g>
          <path d="M47.05,11.3c-1.24.78-2.58.93-3.16.4.52-.41.89-.91,1.16-1.41-.36-.11-.7-.28-1-.47-.38-.26-.69-.59-.88-.99-.14-.31-.22-.65-.23-.99.09.36.23.64.37.86,1.09,1.7,4.19,1.75,4.29,1.74h0c.21-.03.41-.07.62-.14-.29.36-.69.7-1.16,1h0Z" fill="#b46048"/>
          <path d="M48.21,10.29c-.2.06-.41.11-.62.14.21-.04.42-.09.62-.15h-.02s.01.01.01.01Z" fill="#b46048"/>
        </g>
        <path d="M55.65,12.03c-1.3.83-4.07,1.91-5.99.56-1.16-.82-1.54-2.16-1.67-2.84.24.15.67.38,1.26.43.28.03,1.06.1,1.73-.41.11-.08.82-.61.74-1.15-.09-.55-1-1.04-2.26-.96,2.97-1.49,4.6-3.8,4.16-5.54-.09-.36-.31-.86-.9-1.38-.12-.08-.53-.19-.66-.19-.16,0-.31.02-.43.04.04-.05.08-.11.14-.15.22-.2.45-.27.6-.29,0,0,.36-.11.81-.14,2.26-.1,4.74,2.08,5.45,4.79.06.22.1.43.13.65.24,1.6-.17,3.19-1.08,4.61,0,0-.8,1.18-2.03,1.98h.01Z" fill="#5b3d3b"/>
        <circle cx="59.96" cy="8.07" r="2.89" fill="#5b3d3b"/>
      </g>
      <ellipse cx="48.12" cy="3.74" rx=".71" ry=".25" transform="translate(5.42 26.24) rotate(-32.23)" fill="#422f2b"/>
      <rect x="49.21" y="1.97" width=".71" height="1.41" rx=".27" ry=".27" transform="translate(5.18 24.91) rotate(-29.7)" fill="#50373b"/>
      <ellipse cx="46.49" cy="4.03" rx=".78" ry="1.2" transform="translate(5.01 25.41) rotate(-32.23)" fill="#ef9475"/>
    </g>
    <path d="M45.18,5.88c-.1.04-.38.14-.75.06-.43-.12-.64-.43-.69-.51-.07-.22-.04-.33,0-.38.07-.08.15-.04.27-.13.13-.11.12-.24.22-.28.08-.03.17.03.21.05.32.21.68,1.05.73,1.19h0Z" fill="#e46761"/>
    <path d="M44,5c.12.29.34.53.62.68.04.01.07,0,.08-.03.01-.04,0-.07-.03-.08-.25-.13-.45-.35-.56-.6-.02-.03-.04-.05-.08-.04-.03.02-.06.04-.04.08h0Z" fill="#754048"/>
    <g>
      <path d="M49.67,8.68l-.03.55s0,.07.03.1l.05.08s.05.04.08.05c.04.01.06.02.1.01l.06-.02s.08-.04.11-.08l.04-.05s.02-.08.02-.12l.03-.55s0-.07-.03-.1l-.05-.08s-.05-.04-.08-.05c-.04-.01-.06-.02-.1-.01l-.06.02s-.08.04-.11.08l-.04.05s-.02.08-.02.12h0Z" fill="#ce7857"/>
      <path d="M48.82,8.98c.13-.06.28-.13.42-.18.07-.02.15-.05.22-.07.03,0,.07-.02.11-.02.02-.01.03,0,.06-.01,0,0,.05,0,0,0s0,0,0,0c.07,0,.15-.02.22-.02.04,0,.06,0,.1,0,0,0,.04,0,.05,0,0,0,.04,0-.02,0,0,0,.01,0,.03,0,.07,0,.14.02.2.04,0,0,.03,0,.04,0,0,0,.06.02.02.01-.04,0,0,0,.02.01s.04.01.06.03c.04.01.07.03.1.05,0,0,.03.02.04.02,0,0,.01.02.02.01,0,0-.05-.03-.01-.02.07.04.12.1.17.15l-.04-.05.09.13c.07.1.24.15.35.07s.14-.22.07-.35c-.19-.3-.51-.49-.85-.57s-.73-.03-1.07.08c-.19.06-.37.13-.54.21-.06.03-.11.06-.15.12-.03.06-.03.14-.01.19.03.06.07.12.12.15s.13.04.19.01h-.01Z" fill="#ce7857"/>
    </g>
  </g>
  <g>
    <path d="M43.32,22.12c-.41.62-.23,1.57-.18,2.49.05.86.05,1.69.03,2.55-.02.58-.05,1.21-.07,1.82,0,1.2-.11,2.42.66,3.45.53.66,1.43.72,1.91.28.41-.39.51-1.01.58-1.64.1-1.18.1-2.54.09-3.78-.01-1.51-.04-3.11-.33-4.54-.25-1.73-2.04-1.63-2.68-.62h0s-.02,0-.02,0Z" fill="#ef9475"/>
    <path d="M46.67,18.05c.03.2.05.4.05.59-.02-.2-.03-.4-.05-.59Z" fill="#ead9cf"/>
    <path d="M46.67,18.05c.02.2.03.4.05.59.08,1.21.17,2.4.26,3.61.02.26.04.52.06.78-.25.03-.5.05-.75.08-1.41.15-2.82.31-4.23.46-.16-1.54-.32-3.09-.48-4.63-.26-1.47.67-2.87,2.07-3.12,1.41-.25,2.76.74,3.02,2.22h0Z" fill="#ead9cf" stroke="#c9b9b1" stroke-miterlimit="10" stroke-width=".17"/>
    <path d="M41.83,22.41c1.74-.16,3.48-.34,5.22-.51.16-.01.13-.27-.02-.24-1.74.16-3.48.34-5.22.51-.16.01-.13.27.02.24h0Z" fill="#c9b9b1"/>
  </g>
  <g>
    <ellipse cx="26.65" cy="32.44" rx="1.81" ry="1.46" transform="translate(-10.2 52.57) rotate(-79.24)" fill="#e6926d"/>
    <path d="M26.98,30.67l-.68,3.56c-1.78-.21-3.55-.42-5.33-.63.28-1.41.56-2.81.84-4.22,1.72.43,3.44.86,5.16,1.28h0Z" fill="#e6926d"/>
  </g>
  <g>
    <g>
      <ellipse cx="4.6" cy="28.56" rx="4.61" ry="4.27" transform="translate(-24.32 27.74) rotate(-79.24)" fill="#98afc1"/>
      <path d="M24.36,28.71c-.4,2.13-.8,4.24-1.21,6.37-6.48-.66-12.95-1.33-19.43-1.99l1.72-9.05c6.31,1.55,12.61,3.11,18.91,4.66h0Z" fill="#99b0c2"/>
    </g>
    <rect x="20.73" y="28.14" width="3.14" height="7.07" rx=".47" ry=".47" transform="translate(38.29 66.96) rotate(-169.24)" fill="#b8c2cb"/>
  </g>
  <g>
    <path d="M27.32,31.13c1-.58,2.29.21,2.79.51.91.55,2,1.65,1.73,2.24-.17.38-.86.44-2.12.55-.4.04-.93.07-1.59-.02-.3-.05-.4-.08-.81-.13-.63-.07-.75-.03-.9-.14-.37-.29-.16-1.1-.1-1.37.08-.34.28-1.21,1-1.62h0Z" fill="#e6926d"/>
    <path d="M30.66,34.44c.16.52,1.64.51,2.26.51.81,0,1.23-.02,1.59-.34.43-.37.68-1.08.44-1.52-.06-.13-.17-.2-.38-.34-.9-.59-1.66-.84-2.65-1.35-.14-.07-.43-.06-.54-.02-.22.09-.46.1-.64.04-.32-.1-.56-.42-.62-.83,0-.03-.08-.15-.12-.17l-2.46-1.25s-.47-.39-.76.81c-.18.78-.39,1.13-.23,1.45.13.24.35.34.75.52.56.25,1.09.32,1.47.33.75.01.79-.18,1.26-.09.51.11,1.14.48,1.21.97.07.58-.71.87-.59,1.27h0Z" fill="#815f5e"/>
  </g>
  <path d="M44.65,30.24c-.76-.18-1.67-.11-2.43-.13-1.49-.02-3.09.04-4.59-.08-.56-.05-1.22-.12-1.78-.21-.66-.1-1.32-.21-1.99-.28-.7-.08-1.34-.16-1.99.05-.48.15-.96.62-.8,1.16.14.52.77.84,1.29,1.01,1.35.42,2.74.6,4.13.84,1.66.27,3.44.51,5.09.6,1.15.04,2.83.31,3.85-.24.46-.26.73-.74.69-1.31-.07-.73-.72-1.23-1.43-1.41h-.02s0-.01,0-.01Z" fill="#ef9475"/>
  <circle cx="30.5" cy="30.27" r="1.46" fill="#ef9475"/>
</svg>