<?xml version="1.0" encoding="UTF-8"?>
<svg id="_Слой_1" data-name="Слой 1" xmlns="http://www.w3.org/2000/svg" viewBox="0 0 68.59 23.42">
  <g>
    <path d="M6.38,18.13l-1.55-2.65c1.87-1.24,3.74-2.49,5.61-3.73l1.92,3.29c-2,1.03-3.99,2.06-5.99,3.09Z" fill="#e6926d"/>
    <rect x="9.14" y="10.71" width="3.19" height="5.69" rx=".43" ry=".43" transform="translate(27.61 17.29) rotate(140.87)" fill="#b8c2cb"/>
    <rect x="0" y="15" width="7.63" height="3.81" rx="1.66" ry="1.66" transform="translate(-2.95 .95) rotate(-10.26)" fill="#815f5e"/>
  </g>
  <g>
    <ellipse cx="7.48" cy="8.27" rx="3.94" ry="3.54" transform="translate(-2.53 13.18) rotate(-74.03)" fill="#8aa5b7"/>
    <path d="M6.31,12.03c.74-2.52,1.48-5.04,2.22-7.55,5.4,1.29,10.8,2.58,16.2,3.88l-6.02,7.73c-4.13-1.34-8.27-2.7-12.41-4.04h0Z" fill="#8aa5b7"/>
  </g>
  <g>
    <g>
      <path d="M.13,10.41c.36-2.62,2.81-4.49,5.48-4.19s4.53,2.67,4.17,5.29-2.81,4.49-5.48,4.19S-.23,13.02.13,10.41Z" fill="#98afc1"/>
      <path d="M4.15,15.68c.49-3.15.97-6.3,1.46-9.45,7.58.63,15.17,1.26,22.75,1.89l-6.57,10.31c-5.88-.91-11.77-1.82-17.65-2.73h0Z" fill="#98afc1"/>
    </g>
    <path d="M25.04,7.72c3.25.57,5.38,3.48,4.77,6.5s-3.74,5.01-6.99,4.44c-3.25-.57-5.38-3.48-4.77-6.5s3.74-5.01,6.99-4.44Z" fill="#98afc1"/>
    <path d="M32.33,16.18l-1.03-8.92c0-.06-.06-.1-.12-.1-3.03.16-6.06.31-9.1.47-.06,0-.12.06-.11.12.42,3.57.84,7.15,1.26,10.73,0,.07.08.11.15.09,2.95-.76,5.91-1.51,8.87-2.28.05,0,.09-.06.09-.12h-.01Z" fill="#98afc1"/>
  </g>
  <rect x="33.65" y="14.88" width="33.37" height="5.16" rx="2.19" ry="2.19" fill="#333"/>
  <rect x="51.86" y="12.1" width="10.55" height="3.65" rx="1.46" ry="1.46" fill="#e8e8e8"/>
  <g>
    <g>
      <g>
        <g>
          <g>
            <g>
              <path d="M49.24,13.13c-1.13-2.05-2.27-4.09-3.4-6.13.12.05.27.12.47.2h0c.57.21,1.48.43,2.52.24.13-.02.24-.04.35-.09.33.73,1.64,1.14,3.11.92.56-.09,1.06-.25,1.49-.46-.21-.03-.42-.06-.63-.13.22.05.43.09.64.11h0c.19.02.39.04.58.04h0c.03.12.08.25.12.37.21.54.48,1.04.81,1.49-.41.07-.86.19-1.34.34-.57.18-1.17.43-1.8.76-.5.28-.95.56-1.36.86-.69.52-1.21,1.04-1.59,1.46h0Z" fill="#ef9475"/>
              <path d="M51.01,11.99s-.05.05-.08.08h0s-.21.22-.44.45c-2.81,2.66-5.01,3.42-5.01,3.42-1.01.23-1.86.4-2.43.5,0,0-4.03.78-11.08.48-.14,0-.48-.02-.76-.25-.32-.27-.4-.68-.43-.99l-1.25-8.22c-.07-.39.21-.76.59-.81l10.17-1.55c.54-.05,1.04-.06,1.52-.02,3.03,1.01,6.48,2.82,8.78,6.21.15.22.3.45.43.67v.02Z" fill="#ead9cf"/>
            </g>
            <path d="M60.75,12.04c-2.14.33-4.18-.64-5.42-2.33-.33-.45-.6-.95-.81-1.49-.04-.12-.09-.25-.12-.37h0c-.2,0-.38-.02-.58-.04h0c-.05.02-.16.05-.3.04-.18-.02-.3-.12-.34-.16h0c-.41-.13-1.31-.44-2.14-1.2-.62-.57-.88-1.1-.94-1.28l-.09-.33h0c-.1-.3-.21-.81-.12-1.51.37-.96,1.25-1.8,2.18-2.2.24-.11,1.03-.46,1.92-.36.21.03.44.07.66.16.26.1.44.22.58.32.1-.04.21-.08.33-.12.53-.2,1.22-.46,2.05-.69.08-.02.16-.05.26-.08.46-.13.93-.27,1.1-.28.69-.1,1.37-.07,2.01.07,2.29.51,4.16,2.47,4.55,5.04.13.82.09,1.64-.09,2.4-.36,1.54-1.3,2.87-2.6,3.67-.62.38-1.31.65-2.06.76l-.03-.03Z" fill="#ef9475"/>
          </g>
          <path d="M52.3,8.28c-1.47.22-2.78-.18-3.11-.92.65-.17,1.19-.49,1.65-.84-.3-.25-.54-.54-.74-.85-.25-.4-.4-.83-.42-1.28,0-.35.06-.7.19-1.02-.06.37-.05.69,0,.96.32,2.03,3.2,3.34,3.29,3.36h0c.21.06.41.1.63.13-.42.22-.93.37-1.49.46h0Z" fill="#b46048"/>
          <path d="M53.79,7.81c-.21-.03-.42-.06-.63-.13.22.05.43.09.64.11h-.02s.01.01.01.01Z" fill="#b46048"/>
        </g>
        <path d="M60.02,12.46c-1.55.25-4.57.13-5.81-1.91-.74-1.24-.56-2.64-.4-3.33.16.23.47.62,1,.92.25.14.94.53,1.77.32.14-.02,1.01-.24,1.15-.77.14-.55-.51-1.38-1.72-1.82,3.38-.18,5.83-1.67,6.14-3.47.06-.37.06-.92-.28-1.66-.08-.13-.42-.39-.54-.45-.15-.06-.29-.11-.42-.14.06-.03.12-.06.19-.09.29-.1.53-.06.68-.02,0,0,.38.04.81.2,2.15.83,3.58,3.87,3.13,6.69-.04.22-.08.44-.14.66-.43,1.59-1.46,2.9-2.88,3.85,0,0-1.23.78-2.7,1.02h.01Z" fill="#5b3d3b"/>
        <circle cx="65.65" cy="10.53" r="2.94" fill="#5b3d3b"/>
      </g>
      <ellipse cx="56.36" cy="1.67" rx=".73" ry=".26" transform="translate(.39 8.49) rotate(-8.65)" fill="#422f2b"/>
      <rect x="57.78" y=".55" width=".73" height="1.43" rx=".28" ry=".28" transform="translate(.2 6.2) rotate(-6.12)" fill="#50373b"/>
      <ellipse cx="54.73" cy="1.27" rx=".79" ry="1.22" transform="translate(.43 8.24) rotate(-8.65)" fill="#ef9475"/>
    </g>
    <path d="M52.75,2.47c-.11,0-.42-.02-.72-.25-.36-.28-.42-.66-.44-.76.02-.23.09-.32.16-.36.1-.05.16.03.3-.01.16-.05.21-.18.32-.18.09,0,.15.09.18.13.21.32.2,1.26.2,1.41h0Z" fill="#e46761"/>
    <path d="M52.01,1.17c0,.32.1.63.3.88.03.03.06.03.09,0,.03-.03.03-.06,0-.09-.18-.23-.28-.5-.27-.79,0-.03-.01-.06-.06-.07-.03,0-.07.01-.07.06h0Z" fill="#754048"/>
    <g>
      <path d="M55.8,6.91l-.26.5s-.02.07-.01.1l.02.09s.03.06.06.08c.03.03.05.05.09.05h.07s.09,0,.14-.01l.06-.03s.05-.06.07-.1l.26-.5s.02-.07.01-.1l-.02-.09s-.03-.06-.06-.08c-.03-.03-.05-.05-.09-.05h-.07s-.09,0-.14.01l-.06.03s-.05.06-.07.1h0Z" fill="#ce7857"/>
      <path d="M54.89,6.83c.15,0,.31,0,.47,0,.08,0,.15.02.23.02.03,0,.08,0,.11.02.02,0,.03,0,.06.01,0,0,.05.01,0,0s0,0,.01,0c.07.02.15.04.22.07.04.02.06.02.09.04.01,0,.04.02.05.02.01,0,.04.03-.02,0,0,0,.01,0,.02.02.06.03.12.08.17.12,0,.01.02.02.04.03,0,0,.05.05.01.02-.04-.03,0,0,.01.02s.03.03.04.05c.03.03.05.06.07.09,0,.01.02.03.03.04,0,0,0,.02.01.02,0-.01-.03-.05,0-.02.04.07.07.14.09.21v-.06s0,.11.02.16c.02.13.16.23.3.21s.22-.15.21-.3c-.05-.36-.27-.67-.56-.88s-.67-.33-1.03-.36c-.2-.02-.4-.03-.59-.02-.07,0-.13.01-.19.06-.05.04-.09.11-.09.17,0,.07.01.14.06.19s.1.09.17.09h-.01Z" fill="#ce7857"/>
    </g>
  </g>
  <g>
    <path d="M42.13,13.23c-.75.04-1.42.77-2.14,1.37-.67.56-1.35,1.07-2.07,1.56-.49.33-1.02.69-1.52,1.05-.98.72-2.05,1.38-2.42,2.62-.22.84.28,1.6.93,1.73.56.1,1.14-.2,1.69-.52,1.03-.63,2.14-1.46,3.15-2.21,1.23-.93,2.51-1.91,3.51-3.02,1.26-1.25.09-2.66-1.11-2.57h0s0-.02,0-.02Z" fill="#ef9475"/>
    <path d="M47.5,13.5c-.14.15-.3.28-.46.4.15-.13.3-.27.46-.4Z" fill="#ead9cf"/>
    <path d="M47.5,13.5c-.15.13-.3.27-.46.4-.94.8-1.86,1.59-2.79,2.39-.2.17-.41.35-.61.52-.18-.19-.35-.37-.52-.56-.98-1.06-1.96-2.12-2.94-3.17,1.16-1.07,2.33-2.13,3.5-3.2,1.05-1.1,2.75-1.19,3.8-.2,1.06,1,1.07,2.71.01,3.82h0Z" fill="#ead9cf" stroke="#c9b9b1" stroke-miterlimit="10" stroke-width=".17"/>
    <path d="M41,12.19c1.19,1.32,2.39,2.64,3.57,3.96.11.12.3-.06.18-.17-1.19-1.32-2.39-2.64-3.57-3.96-.11-.12-.3.06-.18.17h0Z" fill="#c9b9b1"/>
  </g>
  <path d="M35.31,18.58c-.8,0-1.68.27-2.44.43-1.48.32-3.06.75-4.57.97-.57.08-1.24.16-1.81.2-.68.06-1.36.1-2.04.18-.71.08-1.37.15-1.96.51-.44.26-.81.84-.52,1.34.26.49.95.66,1.51.71,1.43.1,2.85-.03,4.28-.11,1.71-.11,3.53-.28,5.18-.57,1.15-.22,2.88-.34,3.76-1.11.4-.36.56-.9.39-1.46-.23-.71-.99-1.05-1.74-1.07h-.02s-.01,0-.01,0Z" fill="#ef9475"/>
  <circle cx="20.94" cy="21.93" r="1.49" fill="#ef9475"/>
</svg>