<?xml version="1.0" encoding="UTF-8"?>
<svg id="_Слой_1" data-name="Слой 1" xmlns="http://www.w3.org/2000/svg" viewBox="0 0 74.93 17.95">
  <g>
    <g>
      <ellipse cx="4.78" cy="8.65" rx="4.78" ry="5.05" transform="translate(-.26 .15) rotate(-1.73)" fill="#98afc1"/>
      <path d="M5.01,13.69c-.2-3.35-.41-6.72-.61-10.07,7.43-.86,14.88-1.71,22.31-2.57l-4.13,11.97c-5.85.23-11.72.45-17.57.68h0Z" fill="#98afc1"/>
    </g>
    <ellipse cx="23.74" cy="7.3" rx="6.1" ry="6" transform="translate(-.12 .4) rotate(-.96)" fill="#98afc1"/>
    <path d="M35.31,9.75l-1.49-9.36c-.01-.06-.06-.11-.12-.09-2.97.32-5.94.63-8.9.94-.06.01-.12.06-.1.14.6,3.75,1.21,7.5,1.81,11.26.01.07.09.11.16.09,2.86-.95,5.72-1.89,8.58-2.84.05,0,.08-.07.08-.13h-.01Z" fill="#98afc1"/>
  </g>
  <g>
    <g>
      <g>
        <g>
          <g>
            <g>
              <path d="M50.01,12.19c-.39-2.26-.79-4.53-1.18-6.78.09.09.21.2.37.34h0c.46.38,1.24.88,2.26,1.04.12.02.24.04.36.03.07.79,1.16,1.59,2.59,1.85.55.1,1.07.11,1.54.05-.19-.09-.37-.2-.55-.32.18.11.37.22.56.31h0c.17.08.35.16.53.22h0c0,.13,0,.25,0,.38.02.57.11,1.12.27,1.65-.41-.06-.86-.1-1.35-.12-.58-.02-1.23.02-1.91.13-.56.09-1.07.22-1.54.37-.81.26-1.46.58-1.94.84h0Z" fill="#ef9475"/>
              <path d="M52.03,11.7s-.06.03-.1.05h0s-.27.14-.55.27c-3.47,1.56-5.76,1.57-5.76,1.57-1.01-.12-1.86-.23-2.42-.32,0,0-4-.57-10.45-3.12-.13-.05-.44-.18-.63-.48-.21-.35-.16-.76-.08-1.06l1.48-8.04c.06-.38.44-.63.81-.56l9.94,1.84c.52.12.99.28,1.42.47,2.49,1.91,5.11,4.71,6.15,8.6.07.26.13.51.18.76v.02Z" fill="#ead9cf"/>
            </g>
            <path d="M61.05,14.88c-2.09-.38-3.68-1.94-4.28-3.91-.16-.53-.26-1.07-.27-1.65,0-.13,0-.26,0-.38h0c-.18-.06-.35-.14-.53-.22h0c-.05,0-.17,0-.29-.06-.16-.08-.24-.21-.27-.26h0c-.34-.26-1.07-.83-1.6-1.81-.4-.73-.47-1.31-.46-1.49l.02-.34h0c0-.31.06-.82.38-1.44.65-.77,1.74-1.27,2.73-1.34.26-.02,1.1-.09,1.9.29.19.09.38.21.56.36.21.17.34.35.44.48.11,0,.22,0,.34-.01.56-.02,1.28-.03,2.13.01.08.01.17,0,.26,0,.46.03.95.05,1.11.09.67.13,1.29.37,1.85.72,1.96,1.21,3.07,3.63,2.6,6.15-.15.81-.45,1.55-.86,2.2-.83,1.32-2.13,2.25-3.6,2.58-.7.16-1.42.18-2.16.04l-.02-.03Z" fill="#ef9475"/>
          </g>
          <path d="M54.42,8.67c-1.44-.27-2.53-1.07-2.59-1.85.66.05,1.27-.07,1.81-.25-.19-.33-.33-.68-.41-1.02-.1-.45-.1-.9.03-1.33.1-.32.28-.63.5-.89-.18.32-.27.63-.31.89-.35,1.99,1.9,4.13,1.97,4.18h0c.17.12.35.22.55.32-.46.07-.99.05-1.54-.05h0Z" fill="#b46048"/>
          <path d="M55.95,8.72c-.19-.09-.37-.2-.55-.32.18.11.37.22.56.31h-.02s0,0,0,0Z" fill="#b46048"/>
        </g>
        <path d="M60.24,15.04c-1.52-.27-4.29-1.35-4.78-3.65-.29-1.39.33-2.63.7-3.22.08.27.24.73.64,1.17.19.21.71.79,1.55.87.14.02,1.02.11,1.32-.35.31-.46-.03-1.44-1.01-2.24,3.2.92,5.95.33,6.82-1.25.18-.32.36-.84.28-1.63-.03-.14-.26-.5-.35-.59-.12-.1-.24-.2-.34-.27.07-.01.13-.02.21-.02.3,0,.51.11.64.2,0,0,.34.16.69.45,1.73,1.46,2.08,4.74.75,7.22-.11.2-.22.38-.34.56-.91,1.34-2.29,2.23-3.92,2.65,0,0-1.39.32-2.83.08h0Z" fill="#5b3d3b"/>
        <circle cx="66.09" cy="15.05" r="2.89" fill="#5b3d3b"/>
      </g>
      <ellipse cx="60.32" cy="3.84" rx=".25" ry=".71" transform="translate(45.59 62.46) rotate(-79.53)" fill="#422f2b"/>
      <rect x="61.75" y="3.33" width=".71" height="1.41" rx=".27" ry=".27" transform="translate(2.5 -13.87) rotate(13)" fill="#50373b"/>
      <ellipse cx="58.93" cy="2.94" rx="1.2" ry=".78" transform="translate(45.33 60.35) rotate(-79.53)" fill="#ef9475"/>
    </g>
    <path d="M56.71,3.42c-.1-.04-.38-.16-.59-.46-.24-.38-.18-.75-.17-.85.1-.21.19-.27.27-.28.11-.01.14.07.28.09.17,0,.25-.1.35-.06.08.03.11.13.12.18.09.37-.21,1.23-.27,1.37h0Z" fill="#e46761"/>
    <path d="M56.44,1.97c-.11.29-.11.62,0,.91.02.03.05.05.08.03.03-.02.05-.05.03-.08-.1-.27-.09-.56,0-.82,0-.03,0-.06-.03-.08-.03,0-.07-.01-.08.03h0Z" fill="#754048"/>
    <g>
      <path d="M58.11,8.52l-.4.38s-.04.06-.05.09v.09s0,.07.01.09c.02.03.03.06.06.07l.06.03s.08.02.14.02h.07s.07-.05.1-.08l.4-.38s.04-.06.05-.09v-.09s0-.07-.01-.09c-.02-.03-.03-.06-.06-.07l-.06-.03s-.08-.02-.14-.02h-.07s-.07.05-.1.08h0Z" fill="#ce7857"/>
      <path d="M57.29,8.16c.14.04.29.1.43.15.07.03.14.06.21.1.03.02.07.03.1.06.02,0,.03.02.05.03,0,0,.04.03,0,0s0,0,.01,0c.06.04.13.08.18.13.03.03.05.04.07.06.01,0,.03.03.04.04.01,0,.03.04-.02-.01,0,0,0,.01.02.02.05.05.09.11.12.17,0,.01.02.02.03.04,0,0,.03.06,0,.02-.03-.04,0,0,0,.02s.02.03.02.06c.02.03.03.07.04.1,0,.01,0,.03.01.04,0,0,0,.02,0,.02,0-.01-.01-.06,0-.02.02.08.02.15.02.23v-.06s0,.1-.01.16c-.02.12.08.27.21.29s.26-.07.29-.21c.07-.35-.04-.71-.24-1s-.51-.52-.84-.66c-.18-.08-.36-.15-.54-.21-.06-.02-.12-.03-.19,0-.06.02-.12.08-.14.13-.02.06-.03.13,0,.19s.07.12.13.14h0Z" fill="#ce7857"/>
    </g>
  </g>
  <g>
    <path d="M49.68,11.56c.59.45,1.55.34,2.47.36.86,0,1.69.07,2.54.16.58.06,1.2.14,1.81.2,1.2.09,2.41.29,3.48-.4.7-.48.82-1.37.42-1.89-.36-.44-.97-.59-1.59-.7-1.17-.19-2.53-.29-3.77-.37-1.51-.1-3.1-.19-4.55-.01-1.74.12-1.77,1.92-.82,2.62h0s0,.02,0,.02Z" fill="#ef9475"/>
    <path d="M45.87,7.91c.2-.02.4-.02.6,0-.2,0-.4,0-.6,0Z" fill="#ead9cf"/>
    <path d="M45.87,7.91c.2,0,.4,0,.6,0,1.21,0,2.41,0,3.62.01.26,0,.53,0,.78,0,.01.25.02.5.03.75.05,1.41.1,2.83.15,4.25-1.55.05-3.11.09-4.66.13-1.49.15-2.81-.88-2.96-2.3-.14-1.43.94-2.7,2.44-2.85h0Z" fill="#ead9cf" stroke="#c9b9b1" stroke-miterlimit="10" stroke-width=".17"/>
    <path d="M49.86,13.06c-.03-1.75-.08-3.49-.12-5.24,0-.16-.26-.15-.25,0,.03,1.75.08,3.49.12,5.24,0,.16.26.15.25,0h0Z" fill="#c9b9b1"/>
  </g>
  <g>
    <g>
      <ellipse cx="26.65" cy="13" rx="1.81" ry="1.46" transform="translate(8.9 36.76) rotate(-79.24)" fill="#e6926d"/>
      <path d="M26.98,11.23l-.68,3.56c-1.78-.21-3.55-.42-5.33-.63.28-1.41.56-2.81.84-4.22,1.72.43,3.44.86,5.16,1.28h0Z" fill="#e6926d"/>
    </g>
    <g>
      <g>
        <g>
          <ellipse cx="4.6" cy="9.12" rx="4.61" ry="4.27" transform="translate(-5.22 11.93) rotate(-79.24)" fill="#98afc1"/>
          <path d="M24.36,9.27c-.4,2.13-.8,4.24-1.21,6.37-6.48-.66-12.95-1.33-19.43-1.99l1.72-9.05c6.31,1.55,12.61,3.11,18.91,4.66h0Z" fill="#99b0c2"/>
        </g>
        <rect x="20.73" y="8.7" width="3.14" height="7.07" rx=".47" ry=".47" transform="translate(41.92 28.42) rotate(-169.24)" fill="#b8c2cb"/>
      </g>
      <g>
        <path d="M26.85,11.65c.82-.81,2.26-.38,2.83-.22,1.02.3,2.36,1.08,2.25,1.72-.07.42-.72.65-1.91,1.07-.37.14-.88.31-1.55.38-.3.03-.41.02-.82.08-.63.09-.73.17-.9.09-.43-.19-.44-1.03-.44-1.3-.01-.35-.03-1.24.55-1.82h0Z" fill="#e6926d"/>
        <path d="M30.92,14c.29.47,1.72.08,2.32-.09.78-.21,1.18-.33,1.45-.74.32-.47.38-1.21.04-1.58-.09-.11-.21-.15-.45-.23-1.02-.34-1.82-.39-2.91-.63-.15-.03-.43.05-.53.12-.19.15-.42.21-.6.2-.33-.01-.65-.27-.81-.65-.01-.03-.12-.12-.16-.13l-2.7-.58s-.55-.26-.53.98c.02.8-.09,1.2.14,1.46.18.2.42.24.86.31.61.1,1.13.03,1.5-.06.73-.18.72-.37,1.2-.41.52-.03,1.23.18,1.41.63.22.54-.47,1.03-.25,1.38h0Z" fill="#815f5e"/>
      </g>
    </g>
  </g>
  <g>
    <path d="M59.32,12.44c.76.21,1.67.18,2.42.23,1.49.08,3.09.08,4.59.27.56.07,1.21.17,1.77.28.65.12,1.32.26,1.98.36.7.11,1.34.21,1.99.03.49-.13.98-.58.84-1.13-.12-.53-.73-.87-1.25-1.06-1.33-.47-2.71-.71-4.09-1.01-1.65-.34-3.42-.65-5.06-.81-1.15-.09-2.82-.43-3.86.08-.47.24-.76.71-.75,1.28.04.73.66,1.25,1.37,1.47h.02s0,.01,0,.01Z" fill="#ef9475"/>
    <circle cx="73.47" cy="12.99" r="1.46" fill="#ef9475"/>
  </g>
  <line x1="5.85" y1="6.21" x2="20.97" y2="8.74" fill="none" stroke="#93aabc" stroke-linecap="round" stroke-linejoin="round" stroke-width=".24"/>
</svg>