<?xml version="1.0" encoding="UTF-8"?>
<svg id="_Слой_1" data-name="Слой 1" xmlns="http://www.w3.org/2000/svg" viewBox="0 0 118.53 121.97">
  <path d="M73.95,70.68c-2.18,1.34-7.49,4.19-14.82,4.22-7.19.03-12.43-2.65-14.65-3.95.24-2.22.74-5.02,1.84-8.11.86-2.42,1.87-4.45,2.82-6.07l20.69.03c.79,1.74,1.58,3.72,2.28,5.94.92,2.91,1.48,5.6,1.84,7.95h0Z" fill="#98afc1"/>
  <g>
    <path d="M70.6,33.53c.19,5.82.04,20.13.1,23.52.07,2.13-1.59,3.71-3.7,3.61-3.13-.04-11.93.08-16.13,0-1.59-.18-2.79-1.37-3.01-2.95-.07-1.19-.01-2.38-.03-3.6.11-6.87-.28-17.87.12-20.89.25-.85.86-1.67,1.69-2.04.98-.51,2.42-.37,3.61-.39,1.02,0,1.64.01,2.14.97.65,1.05,1.78,1.62,3.27,1.78,1.44.17,3.34-.36,4.13-1.41.29-.33.45-.77.79-1.05.31-.24.76-.29,1.19-.31.57-.01,1.18,0,1.75,0,2.07-.09,3.64.74,4.09,2.76h0s0,.02,0,.02Z" fill="#ead9cf"/>
    <g>
      <path d="M59.22,34.01c-2.39,0-4.57-1.8-4.4-2.65.02-.09.06-.15.12-.21.15-.15.41-.27.75-.73.33-.45.4-.77.48-1.05h0c.03-.12.07-.24.13-.35.16.13.33.24.5.34.7.42,1.49.66,2.31.66s1.67-.26,2.38-.71c.15-.09.3-.2.44-.31.05.1.09.2.12.3h0c.07.23.13.49.39.87.43.62.83.75,1.03.96.06.06.1.13.12.22.18.85-1.99,2.66-4.38,2.66Z" fill="#ea906d"/>
      <path d="M56.31,29.02c.16.13.33.24.5.34-.21,0-.42,0-.63,0h0c0-.15,0-.3.01-.45.04.03.08.07.12.1Z" fill="#f09077"/>
      <path d="M62.06,29.31h0c-.19,0-.37,0-.56,0,.15-.09.3-.2.44-.31.04-.03.07-.06.11-.09,0,.13,0,.26.01.39Z" fill="#f09077"/>
    </g>
    <path d="M62.05,28.91s-.07.06-.11.09c-.14.11-.29.22-.44.31-.72.45-1.53.71-2.38.71s-1.61-.23-2.31-.66c-.17-.1-.34-.22-.5-.34-.04-.03-.08-.06-.12-.1.04-1.47.08-2.95.12-4.43h0c0-1.31,1.25-2.37,2.81-2.37s2.81,1.06,2.82,2.36c0,0,0,.01,0,.02.04,1.47.08,2.93.12,4.4Z" fill="#b46048"/>
  </g>
  <g>
    <path d="M66.98,17.59c.14,5.78-3.29,10.55-7.67,10.66-4.38.11-8.05-4.49-8.19-10.27-.02-.69.02-1.36.1-2.01.47-3.82,2.51-6.94,5.26-8.14.73-.32,1.51-.5,2.32-.52.91-.02,1.78.16,2.6.51,2.68,1.14,4.76,4.09,5.39,7.77.11.65.18,1.31.19,2h0Z" fill="#ea906d"/>
    <ellipse cx="62.51" cy="17.64" rx=".44" ry="1.25" transform="translate(-.41 1.54) rotate(-1.41)" fill="#422f2b"/>
    <path d="M58.5,17.09c-.11.27-.06.61-.08.92-.02.28.02.58-.12.83-.12.22-.36.33-.57.47-.23.15-.43.33-.56.57-.24.42-.27,1.01.05,1.4.35.42.93.51,1.44.55.22.02.6.04.75-.07.07-.05.07-.12-.01-.18-.29-.17-.74-.08-1.06-.19-.48-.1-.93-.51-.83-1.03.12-.72.83-.76,1.23-1.2.27-.33.2-.82.19-1.22-.03-.3.01-.66-.17-.91-.08-.1-.19-.09-.26.05h0s0,0,0,0Z" fill="#c2684e"/>
    <g>
      <path d="M53.17,4.78c-.03.91.24,1.36.24,1.36l.59-.24s-.87-.88-.81-1.29l-.02.17Z" fill="#5b3d3b"/>
      <path d="M67.61,14.52c-.05.33-.11.8-.22,1.29-.17.74-.54,1.87-1.38,3.16.2-2.13-.07-3.82-.33-4.92-.26-1.08-.49-2.02-1.2-3.08-.32-.48-1.24-1.81-3.02-2.55-.56-.24-1.16-.38-1.76-.46-.24-.03-.48-.04-.72-.05-.09,0-.15,0-.21,0-.05,0-.12.01-.21.02-.24.02-.48.05-.72.09-.6.1-1.19.28-1.73.54-1.74.83-2.6,2.2-2.89,2.7-.66,1.09-.85,2.04-1.05,3.13-.21,1.11-.39,2.82-.09,4.93-.9-1.25-1.32-2.36-1.53-3.09-.14-.48-.23-.94-.29-1.27-.13-.67-.28-1.49-.29-2.52,0-.36,0-1,.14-1.83.14-.81.36-1.47.57-1.96.21-.49.4-.81.49-.93.88-1.25,1.99-1.93,2.69-2.27-.11-.34-.17-.7-.18-1.07-.03-1.3.63-2.52,1.65-3.3.69-.53,1.34-.73,1.84-.87.93-.26,2.23-.18,2.23-.18.22.03.45.09.57.11.67.13,1.32.39,1.88.78,1.06.73,1.78,1.91,1.81,3.22,0,.37-.04.73-.13,1.08.72.31,1.86.93,2.8,2.14.09.13.3.43.53.91.23.48.49,1.12.67,1.92.18.82.21,1.46.23,1.82.04,1.02-.07,1.85-.16,2.53h0Z" fill="#5b3d3b"/>
    </g>
    <rect x="53.97" y="14.06" width="2.47" height="1.35" transform="translate(-1.18 5.51) rotate(-5.66)" fill="#50373b"/>
    <ellipse cx="55.29" cy="17.82" rx=".44" ry="1.25" transform="translate(-.42 1.36) rotate(-1.41)" fill="#422f2b"/>
    <g>
      <path d="M62.39,23.31c.16.38-1.35,1.86-3.16,1.9s-3.39-1.36-3.25-1.75c.1-.27,1.05.1,3.2.04s3.08-.47,3.2-.2Z" fill="#ea7564"/>
      <path d="M56.68,23.78c.13.13.32.2.5.25.76.22,1.57.24,2.36.22.28,0,.57-.02.85-.07.46-.07.92-.24,1.32-.47" fill="none" stroke="#d3584a" stroke-linecap="round" stroke-linejoin="round" stroke-width=".27"/>
    </g>
    <rect x="61.75" y="13.32" width="1.35" height="2.47" transform="translate(44.8 76.18) rotate(-87.16)" fill="#50373b"/>
    <g>
      <path d="M68.25,20.58c.39-1.64.19-2.92.19-2.92,0,0-.14-.98-.97-1.11s-1.11.36-1.11.36c0,0-.4.67-.43,1.92s-.06,2.17.07,2.89,1.86.5,2.24-1.14h0Z" fill="#ea906d"/>
      <g>
        <path d="M66.77,19.59c.19.03.38.06.57.08.08.01.15,0,.22-.03.06-.04.11-.1.13-.17.01-.07,0-.15-.03-.22-.04-.06-.1-.11-.17-.13-.19-.03-.38-.06-.57-.08-.08-.01-.15,0-.22.03-.06.04-.11.1-.13.17-.01.07,0,.15.03.22.04.06.1.11.17.13h0Z" fill="#ce7857"/>
        <path d="M67.04,20.88s-.02-.08-.03-.12c-.01-.04,0,.05,0-.03,0-.02,0-.05,0-.07-.01-.13-.01-.26-.01-.4,0-.31.03-.6.07-.89.05-.3.11-.61.21-.9.04-.11.07-.18.14-.3.01-.02.02-.04.04-.06-.04.06.01-.01.02-.02.01-.01.03-.03.04-.04-.06.05,0,0,.01,0,.32-.18.02-.66-.3-.48-.24.13-.37.42-.46.66-.12.31-.19.65-.24.98-.06.36-.09.72-.1,1.08,0,.25,0,.53.08.76.12.34.67.18.54-.16h0Z" fill="#ce7857"/>
      </g>
    </g>
    <g>
      <path d="M49.88,20.97c-.47-1.62-.33-2.91-.33-2.91,0,0,.09-.98.91-1.16s1.13.31,1.13.31c0,0,.43.65.52,1.9s.17,2.17.07,2.89-1.83.59-2.3-1.02h0Z" fill="#ea906d"/>
      <g>
        <path d="M51.15,19.37c-.19.04-.37.07-.56.11-.07.01-.13.08-.17.13-.03.06-.05.15-.02.22s.07.13.13.17l.07.03c.05.01.1.01.15,0,.19-.04.37-.07.56-.11.07-.01.13-.08.17-.13.03-.06.05-.15.02-.22s-.07-.13-.13-.17l-.07-.03c-.05-.01-.1-.01-.15,0h0Z" fill="#ce7857"/>
        <path d="M51.66,21.36c.07-.24.06-.52.04-.77-.02-.36-.08-.72-.15-1.07-.07-.33-.15-.65-.29-.96-.1-.24-.24-.52-.49-.64-.33-.16-.6.34-.27.5.02,0,.07.05.01,0,.01.01.03.02.04.04.01.01.07.08.02.02.01.02.03.04.04.06.03.05.06.1.09.15.03.06.03.06.06.14.11.29.19.59.25.89s.1.58.12.89c0,.13.01.26,0,.4,0,.02,0,.05,0,.07,0,.08,0-.01,0,.03,0,.04-.01.08-.03.12-.11.35.44.49.55.14h0Z" fill="#ce7857"/>
      </g>
    </g>
  </g>
  <g>
    <g>
      <path d="M57.66,72.73c-2.37,2.98-6.79,3.4-9.87.94s-3.67-6.86-1.3-9.83,6.79-3.4,9.87-.94,3.67,6.86,1.3,9.83Z" fill="#98afc1"/>
      <circle cx="34.43" cy="90.84" r="6.11" transform="translate(-58.08 61.21) rotate(-51.49)" fill="#98afc1"/>
      <polygon points="39.21 94.64 29.66 87.03 46.49 63.84 57.66 72.73 39.21 94.64" fill="#98afc1"/>
    </g>
    <g>
      <path d="M15.65,118.01c-.29-.43-.91-1.24-2-1.83-.9-.49-1.74-.62-2.23-.66.71-.75,1.54-1.78,2.31-3.09.62-1.07,1.04-2.07,1.34-2.92.38.63,1.08,1.61,2.25,2.49,1.04.78,2.06,1.18,2.73,1.38-.58.2-1.7.66-2.74,1.73-1.07,1.11-1.49,2.31-1.66,2.9Z" fill="#e6926d"/>
      <g>
        <ellipse cx="35" cy="90.23" rx="5.62" ry="6.06" transform="translate(-56.66 59.18) rotate(-50.09)" fill="#98afc1"/>
        <path d="M22.14,112.9c-2.19-1.82-4.37-3.65-6.56-5.47,4.92-7.03,9.85-14.06,14.77-21.09l9.3,7.78c-5.84,6.26-11.67,12.52-17.51,18.78h0Z" fill="#99b0c2"/>
      </g>
      <rect x="13.14" y="109.02" width="9.31" height="4.64" rx=".66" ry=".66" transform="translate(75.59 14.52) rotate(39.91)" fill="#b8c2cb"/>
    </g>
    <g>
      <path d="M15.79,117.39c0,1.09-1.56,2.55-3.27,2.49-1.91-.07-3.4-2.03-3.12-2.94.17-.54.53-.91,1.17-1.41.96-.77,1.9-.97,3-1.2.72-.16,1.63-.34,1.85.01.08.13.02.2-.02,1.03,0,.19,0,.41.04.69,0,.05.03.19.11.53.05.2.13.48.23.81Z" fill="#e6926d"/>
      <path d="M8.9,115.89c-.62.13-1.32.57-1.93.95-1,.61-1.79,1.36-2.66,2.21-.89.83-2.25,2.49-.25,2.84.63.09,1.31.06,2.01.06,2.45-.02,4.8-.05,7.21-.07,1.11-.08,2.76.32,3.23-1.01.23-.57.22-1.23.12-1.84-.11-.74-.24-1.37-.59-1.58-.83-.34-1.56.87-2.14,1.31-.44.38-1.62.76-2.16.57-.36-.23-.16-.77-.19-1.15.06-1.54-1.11-2.59-2.62-2.3h-.03s0,0,0,0Z" fill="#896565"/>
    </g>
  </g>
  <g>
    <g>
      <path d="M42.78,33.99c-1.18.43-2.58.02-4-.22-1.32-.23-2.63-.39-3.98-.51-.93-.09-1.91-.16-2.88-.25-1.88-.22-3.86-.3-5.07-1.52-.76-.85-.4-2.06.54-2.62.81-.48,1.85-.5,2.87-.47,1.91.08,4.05.34,5.99.57,2.37.3,4.85.63,6.95,1.29,2.58.66,1.5,3.05-.4,3.72h-.02s0,0,0,0Z" fill="#ea906d"/>
      <g>
        <path d="M49.79,30.7c-.27-.05-.54-.11-.81-.16-2.5-.49-3.36-.67-4.93-.96-.25-.05-.67-.12-1.19-.22-.04.29-.09.59-.14.89-.32,1.83-.84,3.49-1.45,4.97,2.1.47,4.2.94,6.3,1.41,1.98.58,4.09-.28,4.7-1.92.61-1.64-.5-3.44-2.49-4.02h0Z" fill="#ead9cf"/>
        <path d="M43.02,35.73c.57-2.05,1.13-4.1,1.7-6.15" fill="none"/>
      </g>
    </g>
    <g>
      <path d="M28.88,32.32c-1.17.08-2.49-.19-3.61-.3-2.2-.26-4.54-.65-6.79-.77-.85-.05-1.82-.07-2.68-.08-.99,0-2,0-2.99-.02-1.05-.04-2.01-.06-2.92-.45-.68-.29-1.28-.99-.93-1.64.33-.65,1.3-.94,2.1-1.06,2.07-.28,4.15-.24,6.26-.29,2.51-.03,5.18,0,7.63.2,1.7.16,4.23.15,5.62,1.04.62.41.92,1.1.74,1.82-.26.93-1.32,1.44-2.41,1.54h-.03s0,0,0,0Z" fill="#ea906d"/>
      <path d="M7.69,30.65c1.05-.07,2-.49,2.96-.84.41-.17,2.32-.55,1.27-.91-.36-.11-.93-.15-1.36-.27-.7-.19-1.32-.56-2.04-.7-.64-.14-1.31-.16-1.96-.17-1.73-.02-3.46-.07-5.19.04-1.73.14-1.84.75-.26,1.51,1.95,1,4.3,1.53,6.55,1.35h.02Z" fill="#ea906d"/>
    </g>
  </g>
  <g>
    <g>
      <path d="M75.75,34.39c1.18.43,2.58.02,4-.22,1.32-.23,2.63-.39,3.98-.51.93-.09,1.91-.16,2.88-.25,1.88-.22,3.86-.3,5.07-1.52.76-.85.4-2.06-.54-2.62-.81-.48-1.85-.5-2.87-.47-1.91.08-4.05.34-5.99.57-2.37.3-4.85.63-6.95,1.29-2.58.66-1.5,3.05.4,3.72h.02s0,0,0,0Z" fill="#ea906d"/>
      <g>
        <path d="M68.74,31.1c.27-.05.54-.11.81-.16,2.5-.49,3.36-.67,4.93-.96.25-.05.67-.12,1.19-.22.04.29.09.59.14.89.32,1.83.84,3.49,1.45,4.97-2.1.47-4.2.94-6.3,1.41-1.98.58-4.09-.28-4.7-1.92-.61-1.64.5-3.44,2.49-4.02h0Z" fill="#ead9cf"/>
        <path d="M75.51,36.13c-.57-2.05-1.13-4.1-1.7-6.15" fill="none"/>
      </g>
    </g>
    <g>
      <path d="M89.65,32.72c1.17.08,2.49-.19,3.61-.3,2.2-.26,4.54-.65,6.79-.77.85-.05,1.82-.07,2.68-.08.99,0,2,0,2.99-.02,1.05-.04,2.01-.06,2.92-.45.68-.29,1.28-.99.93-1.64-.33-.65-1.3-.94-2.1-1.06-2.07-.28-4.15-.24-6.26-.29-2.51-.03-5.18,0-7.63.2-1.7.16-4.23.15-5.62,1.04-.62.41-.92,1.1-.74,1.82.26.93,1.32,1.44,2.41,1.54h.03s0,0,0,0Z" fill="#ea906d"/>
      <path d="M110.84,31.05c-1.05-.07-2-.49-2.96-.84-.41-.17-2.32-.55-1.27-.91.36-.11.93-.15,1.36-.27.7-.19,1.32-.56,2.04-.7.64-.14,1.31-.16,1.96-.17,1.73-.02,3.46-.07,5.19.04,1.73.14,1.84.75.26,1.51-1.95,1-4.3,1.53-6.55,1.35h-.02Z" fill="#ea906d"/>
    </g>
  </g>
  <g>
    <g>
      <path d="M60.01,72.75c2.37,2.98,6.79,3.4,9.87.94,3.09-2.46,3.67-6.86,1.3-9.83s-6.79-3.4-9.87-.94c-3.09,2.46-3.67,6.86-1.3,9.83Z" fill="#98afc1"/>
      <circle cx="83.24" cy="90.86" r="6.11" transform="translate(-38.47 71.6) rotate(-38.51)" fill="#98afc1"/>
      <polygon points="78.46 94.66 88.02 87.05 71.18 63.86 60.01 72.75 78.46 94.66" fill="#98afc1"/>
    </g>
    <g>
      <path d="M102.02,118.03c.29-.43.91-1.24,2-1.83.9-.49,1.74-.62,2.23-.66-.71-.75-1.54-1.78-2.31-3.09-.62-1.07-1.04-2.07-1.34-2.92-.38.63-1.08,1.61-2.25,2.49-1.04.78-2.06,1.18-2.73,1.38.58.2,1.7.66,2.74,1.73,1.07,1.11,1.49,2.31,1.66,2.9Z" fill="#e6926d"/>
      <g>
        <ellipse cx="82.67" cy="90.25" rx="6.06" ry="5.62" transform="translate(-38.64 74.07) rotate(-39.91)" fill="#98afc1"/>
        <path d="M95.53,112.92c2.19-1.82,4.37-3.65,6.56-5.47-4.92-7.03-9.85-14.06-14.77-21.09l-9.3,7.78c5.84,6.26,11.67,12.52,17.51,18.78h0Z" fill="#99b0c2"/>
      </g>
      <rect x="95.22" y="109.04" width="9.31" height="4.64" rx=".66" ry=".66" transform="translate(247.93 132.69) rotate(140.09)" fill="#b8c2cb"/>
    </g>
    <g>
      <path d="M101.88,117.41c0,1.09,1.56,2.55,3.27,2.49,1.91-.07,3.4-2.03,3.12-2.94-.17-.54-.53-.91-1.17-1.41-.96-.77-1.9-.97-3-1.2-.72-.16-1.63-.34-1.85.01-.08.13-.02.2.02,1.03,0,.19,0,.41-.04.69,0,.05-.03.19-.11.53-.05.2-.13.48-.23.81Z" fill="#e6926d"/>
      <path d="M108.77,115.91c.62.13,1.32.57,1.93.95,1,.61,1.79,1.36,2.66,2.21.89.83,2.25,2.49.25,2.84-.63.09-1.31.06-2.01.06-2.45-.02-4.8-.05-7.21-.07-1.11-.08-2.76.32-3.23-1.01-.23-.57-.22-1.23-.12-1.84.11-.74.24-1.37.59-1.58.83-.34,1.56.87,2.14,1.31.44.38,1.62.76,2.16.57.36-.23.16-.77.19-1.15-.06-1.54,1.11-2.59,2.62-2.3h.03s0,0,0,0Z" fill="#896565"/>
    </g>
  </g>
</svg>