<?xml version="1.0" encoding="UTF-8"?>
<svg id="_Слой_1" data-name="Слой 1" xmlns="http://www.w3.org/2000/svg" viewBox="0 0 104.81 126.5">
  <g>
    <g>
      <path d="M66.27,69.03c1.75,3.38,6.01,4.64,9.51,2.82,3.5-1.82,4.92-6.03,3.16-9.4-1.75-3.38-6.01-4.64-9.51-2.82s-4.92,6.03-3.16,9.4Z" fill="#98afc1"/>
      <circle cx="85.59" cy="91.26" r="6.11" transform="translate(-32.42 49.7) rotate(-27.44)" fill="#98afc1"/>
      <polygon points="80.17 94.07 91.01 88.44 78.95 62.45 66.27 69.03 80.17 94.07" fill="#98afc1"/>
    </g>
    <g>
      <path d="M98.8,121.54c.33-.35,1.09-1.06,2.31-1.41.95-.27,1.75-.19,2.2-.12-.53-.95-1.09-2.15-1.56-3.57-.37-1.15-.61-2.2-.75-3.12-.5.55-1.37,1.37-2.69,2.01-1.18.57-2.24.76-2.95.83.53.3,1.54.98,2.35,2.23.84,1.3,1.02,2.55,1.07,3.16Z" fill="#e6926d"/>
      <g>
        <ellipse cx="85.15" cy="90.55" rx="6.06" ry="5.62" transform="translate(-33.11 52.3) rotate(-28.84)" fill="#98afc1"/>
        <path d="M93.42,115.27c2.5-1.37,4.99-2.74,7.49-4.11-3.48-7.85-6.96-15.69-10.44-23.54l-10.62,5.85c4.53,7.27,9.05,14.53,13.58,21.8h0Z" fill="#99b0c2"/>
      </g>
      <rect x="93.32" y="112.26" width="9.31" height="4.64" rx=".66" ry=".66" transform="translate(239.07 167.69) rotate(151.16)" fill="#b8c2cb"/>
    </g>
    <g>
      <path d="M103.92,121.99c0,1.09-1.57,2.55-3.28,2.47-1.9-.08-3.39-2.04-3.1-2.95.17-.54.54-.91,1.17-1.41,1.13-.89,2.2-.29,3.01-1.19.22-.25.4-.58.65-.55.08,0,.17.06.57.73.4.67.55,1.03.59,1.13.05.13.13.31.2.56.13.43.16.76.17.87.01.14.02.26.02.34Z" fill="#e6926d"/>
      <path d="M97.04,120.46c-.62.13-1.32.57-1.93.94-1,.61-1.79,1.35-2.67,2.2-.89.83-2.26,2.48-.26,2.84.63.09,1.31.06,2.01.06,2.45-.01,4.8-.03,7.21-.04,1.11-.08,2.75.33,3.23-.99.23-.57.22-1.23.13-1.84-.11-.74-.23-1.37-.58-1.58-.83-.35-1.56.86-2.14,1.3-.44.37-1.62.75-2.17.56-.36-.23-.16-.77-.19-1.15.06-1.54-1.1-2.59-2.61-2.31h-.03s0,0,0,0Z" fill="#896565"/>
    </g>
  </g>
  <g>
    <g>
      <path d="M37.77,46.32c.58-1.22.27-2.76.15-4.31-.12-1.44-.16-2.85-.16-4.31,0-1,.01-2.06.01-3.11-.05-2.03.05-4.16-1.14-5.57-.84-.9-2.16-.63-2.85.33-.59.82-.72,1.93-.78,3.03-.1,2.05-.03,4.37.04,6.47.1,2.56.21,5.25.71,7.56.46,2.83,3.12,1.9,4.02-.07v-.02s.01,0,.01,0Z" fill="#ea906d"/>
      <g>
        <path d="M33.56,53.51c-.03-.29-.06-.59-.09-.88-.29-2.72-.4-3.66-.56-5.37-.03-.27-.07-.73-.12-1.29.32-.01.64-.03.97-.06,1.99-.17,3.81-.56,5.46-1.07.3,2.29.6,4.59.9,6.88.43,2.18-.69,4.35-2.5,4.85-1.81.5-3.63-.87-4.06-3.05h0Z" fill="#ead9cf"/>
        <path d="M39.6,46.74c-2.25.41-4.5.82-6.74,1.23" fill="none"/>
      </g>
    </g>
    <g>
      <path d="M37.32,31.28c.2-1.24.04-2.68.03-3.89-.06-2.38-.25-4.92-.17-7.34.03-.91.1-1.95.17-2.87.09-1.06.2-2.14.27-3.2.06-1.13.13-2.16-.2-3.17-.24-.76-.93-1.47-1.67-1.16-.72.29-1.13,1.31-1.33,2.15-.5,2.18-.66,4.42-.91,6.67-.28,2.68-.49,5.54-.52,8.18.01,1.84-.25,4.54.57,6.11.38.7,1.08,1.09,1.87.97,1.02-.19,1.67-1.27,1.88-2.43v-.03s0,0,0,0Z" fill="#ea906d"/>
      <path d="M37.58,8.45c-.18,1.12-.72,2.1-1.19,3.09-.22.43-.81,2.43-1.09,1.28-.08-.39-.07-1.01-.16-1.48-.14-.77-.47-1.46-.55-2.26-.08-.7-.04-1.41,0-2.12.15-1.86.26-3.71.55-5.55.32-1.84.98-1.9,1.64-.13.88,2.19,1.22,4.75.81,7.14v.03Z" fill="#ea906d"/>
    </g>
  </g>
  <g>
    <g>
      <path d="M35.75,74.41c.58,1.3.23,2.91.07,4.53-.16,1.51-.23,2.99-.26,4.53-.02,1.05-.03,2.17-.05,3.27-.1,2.14-.03,4.38-1.31,5.84-.9.93-2.29.62-3-.4-.61-.88-.72-2.05-.76-3.2-.06-2.16.05-4.59.17-6.8.15-2.69.33-5.52.89-7.94.54-2.97,3.32-1.93,4.23.16v.03s.01,0,.01,0Z" fill="#ea906d"/>
      <g>
        <path d="M31.47,66.77c-.04.31-.08.62-.11.93-.36,2.86-.49,3.84-.69,5.64-.03.29-.08.76-.15,1.36.33.02.67.05,1.02.09,2.09.22,4,.67,5.72,1.23.36-2.41.72-4.81,1.09-7.22.5-2.28-.64-4.59-2.54-5.15-1.9-.56-3.84.84-4.33,3.13h0Z" fill="#ead9cf"/>
        <path d="M37.69,74.01c-2.36-.47-4.71-.95-7.07-1.43" fill="none"/>
      </g>
    </g>
    <g>
      <path d="M34.97,90.22c.19,1.31-.01,2.82-.05,4.09-.11,2.5-.36,5.17-.33,7.71.01.96.06,2.06.13,3.02.07,1.11.17,2.26.22,3.37.04,1.19.09,2.27-.27,3.33-.27.79-1.01,1.52-1.78,1.18-.76-.32-1.16-1.4-1.36-2.28-.48-2.31-.61-4.66-.82-7.04-.24-2.82-.41-5.84-.38-8.62.05-1.93-.17-4.78.72-6.41.42-.73,1.16-1.13,1.99-.98,1.07.22,1.73,1.37,1.93,2.6v.03s0,0,0,0Z" fill="#ea906d"/>
      <path d="M34.79,114.24c-.16-1.18-.72-2.22-1.19-3.27-.23-.45-.81-2.57-1.12-1.36-.09.41-.1,1.06-.2,1.55-.16.81-.52,1.53-.63,2.36-.1.73-.07,1.49-.04,2.23.12,1.96.2,3.91.47,5.84.3,1.94.99,2.01,1.72.17.97-2.28,1.38-4.97,1-7.49v-.03Z" fill="#ea906d"/>
    </g>
  </g>
  <g>
    <g>
      <path d="M67.47,76.93c-2.37,2.98-6.79,3.4-9.87.94-3.09-2.46-3.67-6.86-1.3-9.83,2.37-2.98,6.79-3.4,9.87-.94,3.09,2.46,3.67,6.86,1.3,9.83Z" fill="#98afc1"/>
      <circle cx="44.24" cy="95.04" r="6.11" transform="translate(-57.67 70.47) rotate(-51.49)" fill="#98afc1"/>
      <polygon points="49.02 98.84 39.46 91.23 56.3 68.04 67.47 76.93 49.02 98.84" fill="#98afc1"/>
    </g>
    <g>
      <path d="M25.46,122.21c-.29-.43-.91-1.24-2-1.83-.9-.49-1.74-.62-2.23-.66.71-.75,1.54-1.78,2.31-3.09.62-1.07,1.04-2.07,1.34-2.92.38.63,1.08,1.61,2.25,2.49,1.04.78,2.06,1.18,2.73,1.38-.58.2-1.7.66-2.74,1.73-1.07,1.11-1.49,2.31-1.66,2.9Z" fill="#e6926d"/>
      <g>
        <ellipse cx="44.81" cy="94.43" rx="5.62" ry="6.06" transform="translate(-56.37 68.21) rotate(-50.09)" fill="#98afc1"/>
        <path d="M31.95,117.1c-2.19-1.82-4.37-3.65-6.56-5.47,4.92-7.03,9.85-14.06,14.77-21.09l9.3,7.78c-5.84,6.26-11.67,12.52-17.51,18.78h0Z" fill="#99b0c2"/>
      </g>
      <rect x="22.95" y="113.22" width="9.31" height="4.64" rx=".66" ry=".66" transform="translate(80.57 9.21) rotate(39.91)" fill="#b8c2cb"/>
    </g>
    <g>
      <path d="M25.6,121.59c0,1.09-1.56,2.55-3.27,2.49-1.91-.07-3.4-2.03-3.12-2.94.17-.54.53-.91,1.17-1.41.96-.77,1.9-.97,3-1.2.72-.16,1.63-.34,1.85.01.08.13.02.2-.02,1.03,0,.19,0,.41.04.69,0,.05.03.19.11.53.05.2.13.48.23.81Z" fill="#e6926d"/>
      <path d="M18.7,120.09c-.62.13-1.32.57-1.93.95-1,.61-1.79,1.36-2.66,2.21-.89.83-2.25,2.49-.25,2.84.63.09,1.31.06,2.01.06,2.45-.02,4.8-.05,7.21-.07,1.11-.08,2.76.32,3.23-1.01.23-.57.22-1.23.12-1.84-.11-.74-.24-1.37-.59-1.58-.83-.34-1.56.87-2.14,1.31-.44.38-1.62.76-2.16.57-.36-.23-.16-.77-.19-1.15.06-1.54-1.11-2.59-2.62-2.3h-.03s0,0,0,0Z" fill="#896565"/>
    </g>
  </g>
  <ellipse cx="67.77" cy="64.48" rx="11.08" ry="10.71" transform="translate(-4.4 4.96) rotate(-4.06)" fill="#98afc1"/>
  <ellipse cx="59.95" cy="58.54" rx="15.91" ry="6.23" fill="#98afc1"/>
  <g>
    <g>
      <path d="M31.72,65.47c.58-.21,1.15-.42,1.73-.63l2.4-2.05.85-3.61v-3.64s-2.55-.69-2.55-.69l-1.67.99c-.03.07-.05.13-.08.2-.08.2-.28.32-.49.3l-.4-.04-7.87-.81c-.26-.03-.51.04-.73.19-.61.43-1.79,1.47-1.93,3.22-.09,1.19.34,2.12.78,2.75.17.25.34.44.48.59.17.18.41.3.66.33,2.76.32,5.52.63,8.28.95.22.03.39.21.41.43.04.51.08,1.02.11,1.53Z" fill="#ea906d" isolation="isolate"/>
      <path d="M25.33,61.94c1.38-.13,3.16-.31,4.45-1.69,1.36-1.46,1.35-3.39,1.33-4l-7.45-.75c-.26-.03-.52.04-.74.19-.61.43-1.79,1.48-1.92,3.22-.09,1.19.34,2.12.78,2.75.8.21,2.05.43,3.56.29Z" fill="#b05e46" isolation="isolate"/>
    </g>
    <path d="M32.37,56.01c-.13-.14-.3-.65,1.85-3.75.77-1.11,1.49-2.05,2.1-2.8.33-.41.84-.62,1.36-.58l26.24,2.26s1.36.36,1.01,3.43l-1.92,17.05s-.52,1.86-1.73,1.98c-1.09.11-22.06-1.85-26.24-2.25-.49-.05-.94-.3-1.23-.7-.64-.88-1.72-2.63-2.18-5-.06-.31.09-.62.36-.77.92-.5,2.75-1.74,3.61-4.08.64-1.74.45-3.29.31-4.03-.21-.35-.53-.75-1.03-.95-1.13-.45-2.18.52-2.51.18Z" fill="#ead9cf"/>
    <g>
      <g>
        <g>
          <g>
            <path d="M12.34,66.91l4.61.47c3.46.35,6.55-2.17,6.9-5.62l.12-1.15-9.44-.96,1.07-10.49-3.5-.36c-3.05-.31-5.78,1.91-6.09,4.96l-.3,2.93c-.23-.07-.48-.11-.73-.14-2.47-.25-4.69,1.67-4.96,4.29s1.52,4.95,3.99,5.21c1.4.14,2.71-.41,3.64-1.39,1.2,1.23,2.83,2.06,4.68,2.25Z" fill="#573937" isolation="isolate"/>
            <ellipse cx="23.4" cy="55.83" rx="5.85" ry="5.74" transform="translate(-34.51 73.45) rotate(-84.18)" fill="#ea906d"/>
            <path d="M22.81,61.65c.03-3.81.06-7.61.09-11.42-2.84-.4-5.68-.8-8.52-1.2-2.24-.23-4.24,1.4-4.47,3.64l-.28,2.75c-.23,2.24,1.4,4.24,3.64,4.47,3.18.58,6.36,1.17,9.54,1.75Z" fill="#ea906d"/>
            <g>
              <path d="M20.68,63.9c-1.97.31-3.47-.04-3.47-.04,0,0-1.14-.25-1.23-1.24-.09-1,.53-1.28.53-1.28,0,0,.83-.41,2.31-.33s2.57.13,3.4.35.43,2.24-1.55,2.55h0Z" fill="#ea906d"/>
              <g>
                <path d="M21.14,62.69s-.1-.04-.15-.05c-.06-.02.07.01-.01,0l-.09-.02c-.15-.03-.31-.04-.46-.05-.37-.02-.72-.02-1.07,0-.37.03-.74.07-1.09.16-.04.01-.08.02-.13.03.06-.02-.03.01-.03.01-.07.03-.14.05-.21.09-.02.01-.04.02-.07.03.08-.04,0,0-.02.02-.02.02-.08.08-.02,0-.02.02-.03.04-.04.06-.24.36-.78-.03-.54-.4.28-.43.97-.54,1.44-.61.65-.1,1.32-.12,1.97-.07.25.02.53.05.77.16.39.18.15.8-.24.63h0Z" fill="#ce7857"/>
                <path d="M19.67,62.26c.02.23.03.45.05.68,0,.09,0,.18-.06.25-.05.07-.13.12-.22.13-.09.01-.18,0-.25-.06-.06-.05-.13-.13-.13-.22-.02-.23-.03-.45-.05-.68,0-.09,0-.18.06-.25.05-.07.13-.12.22-.13.09-.01.18,0,.25.06.06.05.13.13.13.22h0Z" fill="#ce7857"/>
              </g>
            </g>
          </g>
          <g>
            <path d="M24.72,57.85c.35,0,.73-.19.97-.44.93-.86,1.13-3.14.44-4.22-.17-.28-.48-.51-.8-.57-.27-.05-.53.03-.71.31v.02c-.27.4-.25,1.08-.34,1.71-.06.48-.17.96-.28,1.44-.1.46-.16.89-.05,1.22.13.39.43.54.76.53ZM24.75,57.58c-.22-.02-.41-.16-.49-.47-.08-.29-.03-.68.06-1.09.09-.44.18-.86.23-1.3.07-.57.07-1.18.28-1.54h0c.12-.24.29-.32.47-.31l-.55,4.7h0Z" fill="#ea7b6c" isolation="isolate"/>
            <path d="M24.75,57.58c.29.02.63-.15.84-.4.73-.78.91-2.83.39-3.79-.14-.27-.42-.5-.68-.51l-.55,4.7h0Z" fill="#3c3230" isolation="isolate"/>
            <path d="M24.75,57.58h0s.55-4.7.55-4.7c-.18-.01-.35.07-.47.3h0c-.2.37-.2.98-.28,1.55-.05.43-.14.86-.23,1.3-.08.41-.14.8-.06,1.09.08.31.27.45.49.47Z" fill="#d8b9be" isolation="isolate"/>
            <path d="M24.72,57.85l.03-.26c-.22-.02-.41-.16-.49-.47-.08-.29-.03-.68.06-1.09.09-.44.18-.86.23-1.3.07-.57.07-1.18.28-1.54h0c.12-.24.29-.32.47-.31h0s.03-.26.03-.26c-.27-.05-.53.03-.71.31v.02c-.27.4-.25,1.08-.34,1.71-.06.48-.17.96-.28,1.44-.1.46-.16.89-.05,1.22.13.39.43.54.76.53Z" fill="#ea7b6c" isolation="isolate"/>
          </g>
        </g>
        <ellipse cx="18.58" cy="50.3" rx=".41" ry="1.23" transform="translate(-33.34 63.69) rotate(-84.18)" fill="#422f2b"/>
        <ellipse cx="18" cy="55.97" rx=".44" ry="1.23" transform="translate(-39.5 68.2) rotate(-84.18)" fill="#422f2b"/>
        <path d="M17.75,52.57c.29-.06.64.01.97.03.29.01.61.06.87,0,.24-.06.37-.23.52-.36.16-.15.37-.27.62-.35.45-.13,1.07-.1,1.47.16.43.28.49.7.52,1.06.01.16.02.42-.11.52-.05.04-.13.04-.18-.03-.17-.22-.05-.53-.15-.76-.08-.35-.49-.7-1.05-.68-.76.02-.84.51-1.32.76-.36.16-.87.06-1.29.03-.31-.05-.7-.05-.95-.2-.1-.06-.08-.14.07-.18h0s0,0,0,0Z" fill="#c2684e"/>
      </g>
      <rect x="14.71" y="49.45" width="2.61" height="1.19" rx=".51" ry=".51" transform="translate(68 42.4) rotate(99.38)" fill="#50373b"/>
      <rect x="14.14" y="55.08" width="2.61" height="1.19" rx=".51" ry=".51" transform="translate(71.89 43.37) rotate(93.21)" fill="#50373b"/>
    </g>
  </g>
</svg>