<?xml version="1.0" encoding="UTF-8"?>
<svg id="_Слой_1" data-name="Слой 1" xmlns="http://www.w3.org/2000/svg" viewBox="0 0 96.39 109.64">
  <g>
    <g>
      <path d="M57.85,52.16c1.75,3.38,6.01,4.64,9.51,2.82,3.5-1.82,4.92-6.03,3.16-9.4-1.75-3.38-6.01-4.64-9.51-2.82s-4.92,6.03-3.16,9.4Z" fill="#98afc1"/>
      <circle cx="77.17" cy="74.4" r="6.11" transform="translate(-25.6 43.93) rotate(-27.44)" fill="#98afc1"/>
      <polygon points="71.75 77.21 82.59 71.58 70.53 45.58 57.85 52.16 71.75 77.21" fill="#98afc1"/>
    </g>
    <g>
      <path d="M90.38,104.68c.33-.35,1.09-1.06,2.31-1.41.95-.27,1.75-.19,2.2-.12-.53-.95-1.09-2.15-1.56-3.57-.37-1.15-.61-2.2-.75-3.12-.5.55-1.37,1.37-2.69,2.01-1.18.57-2.24.76-2.95.83.53.3,1.54.98,2.35,2.23.84,1.3,1.02,2.55,1.07,3.16Z" fill="#e6926d"/>
      <g>
        <ellipse cx="76.73" cy="73.69" rx="6.06" ry="5.62" transform="translate(-26.03 46.15) rotate(-28.84)" fill="#98afc1"/>
        <path d="M85,98.41c2.5-1.37,4.99-2.74,7.49-4.11-3.48-7.85-6.96-15.69-10.44-23.54l-10.62,5.85c4.53,7.27,9.05,14.53,13.58,21.8h0Z" fill="#99b0c2"/>
      </g>
      <rect x="84.9" y="95.4" width="9.31" height="4.64" rx=".66" ry=".66" transform="translate(215.14 140.11) rotate(151.16)" fill="#b8c2cb"/>
    </g>
    <g>
      <path d="M95.5,105.12c0,1.09-1.57,2.55-3.28,2.47-1.9-.08-3.39-2.04-3.1-2.95.17-.54.54-.91,1.17-1.41,1.13-.89,2.2-.29,3.01-1.19.22-.25.4-.58.65-.55.08,0,.17.06.57.73.4.67.55,1.03.59,1.13.05.13.13.31.2.56.13.43.16.76.17.87.01.14.02.26.02.34Z" fill="#e6926d"/>
      <path d="M88.62,103.59c-.62.13-1.32.57-1.93.94-1,.61-1.79,1.35-2.67,2.2-.89.83-2.26,2.48-.26,2.84.63.09,1.31.06,2.01.06,2.45-.01,4.8-.03,7.21-.04,1.11-.08,2.75.33,3.23-.99.23-.57.22-1.23.13-1.84-.11-.74-.23-1.37-.58-1.58-.83-.35-1.56.86-2.14,1.3-.44.37-1.62.75-2.17.56-.36-.23-.16-.77-.19-1.15.06-1.54-1.1-2.59-2.61-2.31h-.03s0,0,0,0Z" fill="#896565"/>
    </g>
  </g>
  <g>
    <g>
      <path d="M44.83,21.16c1.35.02,2.62-.9,3.98-1.65,1.26-.71,2.53-1.33,3.85-1.93.91-.42,1.88-.84,2.83-1.28,1.83-.89,3.81-1.68,4.6-3.34.47-1.14-.33-2.23-1.48-2.46-1-.2-2.06.15-3.08.54-1.91.76-3.99,1.78-5.87,2.71-2.29,1.15-4.69,2.37-6.59,3.77-2.38,1.59-.43,3.63,1.73,3.63h.03s0,0,0,0Z" fill="#ea906d"/>
      <g>
        <path d="M36.55,20.31c.26-.15.51-.3.77-.45,2.36-1.39,3.17-1.88,4.66-2.73.24-.14.63-.36,1.13-.64.14.28.3.57.46.86.98,1.74,2.09,3.24,3.23,4.53-1.96,1.22-3.93,2.45-5.89,3.67-1.81,1.29-4.24,1.17-5.45-.27-1.2-1.44-.71-3.66,1.09-4.96h0Z" fill="#ead9cf"/>
        <path d="M45.2,23.01c-1.3-1.88-2.61-3.75-3.91-5.63" fill="none"/>
      </g>
    </g>
    <g>
      <path d="M58.33,14.52c1.22-.33,2.46-1.07,3.55-1.58,2.14-1.04,4.38-2.27,6.61-3.2.84-.35,1.82-.72,2.68-1.03,1-.36,2.03-.71,3.02-1.08,1.05-.41,2.02-.77,2.8-1.49.59-.53.95-1.46.36-2-.56-.54-1.66-.49-2.51-.32-2.19.45-4.29,1.23-6.45,1.94-2.55.86-5.25,1.85-7.66,2.92-1.67.77-4.24,1.66-5.32,3.05-.48.64-.54,1.44-.11,2.11.59.85,1.85,1,3,.7h.03s0,0,0,0Z" fill="#ea906d"/>
      <path d="M79.22,5.3c-1.09.3-2.21.21-3.3.2-.48-.03-2.55.26-1.61-.47.33-.24.89-.49,1.28-.76.64-.44,1.14-1.03,1.82-1.44.6-.36,1.27-.62,1.93-.87,1.75-.64,3.48-1.3,5.28-1.8,1.81-.47,2.13.1.8,1.44-1.62,1.71-3.81,3.08-6.16,3.69h-.03Z" fill="#ea906d"/>
    </g>
  </g>
  <g>
    <g>
      <path d="M27.51,38.18c-.16,1.41-1.29,2.62-2.25,3.93-.9,1.22-1.72,2.46-2.53,3.76-.56.89-1.13,1.85-1.71,2.79-1.17,1.79-2.26,3.75-4.1,4.36-1.25.34-2.28-.64-2.37-1.87-.08-1.06.43-2.13.98-3.14,1.05-1.89,2.39-3.92,3.61-5.77,1.5-2.24,3.09-4.58,4.81-6.38,1.97-2.28,3.84.03,3.56,2.29v.03s0,0,0,0Z" fill="#ea906d"/>
      <g>
        <path d="M27.72,29.42c-.19.25-.38.49-.57.74-1.76,2.28-2.38,3.06-3.47,4.5-.18.23-.46.61-.82,1.09.28.19.55.39.83.59,1.69,1.25,3.1,2.61,4.29,3.98,1.54-1.89,3.08-3.77,4.61-5.66,1.59-1.71,1.79-4.27.44-5.72-1.35-1.45-3.73-1.23-5.32.48h0Z" fill="#ead9cf"/>
        <path d="M29.39,38.82c-1.79-1.61-3.57-3.22-5.36-4.83" fill="none"/>
      </g>
    </g>
    <g>
      <path d="M18.79,51.38c-.51,1.22-1.44,2.42-2.13,3.49-1.37,2.09-2.95,4.27-4.21,6.47-.48.83-.99,1.8-1.43,2.66-.51.99-1.01,2.03-1.53,3.01-.57,1.04-1.08,2-1.93,2.72-.63.54-1.65.8-2.13.11-.49-.66-.29-1.79,0-2.66.76-2.23,1.85-4.32,2.88-6.47,1.23-2.55,2.62-5.23,4.06-7.61,1.03-1.64,2.29-4.2,3.89-5.15.73-.42,1.57-.38,2.21.17.81.73.8,2.06.34,3.22v.03s-.01,0-.01,0Z" fill="#ea906d"/>
      <path d="M6.4,71.96c.46-1.1.51-2.27.65-3.42.04-.5.61-2.62-.27-1.75-.29.31-.63.87-.96,1.23-.55.61-1.23,1.05-1.74,1.71-.46.58-.82,1.24-1.17,1.9-.9,1.74-1.82,3.46-2.58,5.27-.73,1.82-.17,2.24,1.4,1.02,2-1.47,3.72-3.57,4.67-5.94v-.03Z" fill="#ea906d"/>
    </g>
  </g>
  <g>
    <g>
      <path d="M59.05,60.07c-2.37,2.98-6.79,3.4-9.87.94-3.09-2.46-3.67-6.86-1.3-9.83,2.37-2.98,6.79-3.4,9.87-.94s3.67,6.86,1.3,9.83Z" fill="#98afc1"/>
      <circle cx="35.82" cy="78.17" r="6.11" transform="translate(-47.65 57.52) rotate(-51.49)" fill="#98afc1"/>
      <polygon points="40.6 81.98 31.04 74.37 47.88 51.17 59.05 60.07 40.6 81.98" fill="#98afc1"/>
    </g>
    <g>
      <path d="M17.04,105.35c-.29-.43-.91-1.24-2-1.83-.9-.49-1.74-.62-2.23-.66.71-.75,1.54-1.78,2.31-3.09.62-1.07,1.04-2.07,1.34-2.92.38.63,1.08,1.61,2.25,2.49,1.04.78,2.06,1.18,2.73,1.38-.58.2-1.7.66-2.74,1.73-1.07,1.11-1.49,2.31-1.66,2.9Z" fill="#e6926d"/>
      <g>
        <ellipse cx="36.39" cy="77.56" rx="5.62" ry="6.06" transform="translate(-46.45 55.7) rotate(-50.09)" fill="#98afc1"/>
        <path d="M23.53,100.24c-2.19-1.82-4.37-3.65-6.56-5.47,4.92-7.03,9.85-14.06,14.77-21.09l9.3,7.78c-5.84,6.26-11.67,12.52-17.51,18.78h0Z" fill="#99b0c2"/>
      </g>
      <rect x="14.53" y="96.36" width="9.31" height="4.64" rx=".66" ry=".66" transform="translate(67.79 10.68) rotate(39.91)" fill="#b8c2cb"/>
    </g>
    <g>
      <path d="M17.18,104.73c0,1.09-1.56,2.55-3.27,2.49-1.91-.07-3.4-2.03-3.12-2.94.17-.54.53-.91,1.17-1.41.96-.77,1.9-.97,3-1.2.72-.16,1.63-.34,1.85.01.08.13.02.2-.02,1.03,0,.19,0,.41.04.69,0,.05.03.19.11.53.05.2.13.48.23.81Z" fill="#e6926d"/>
      <path d="M10.29,103.23c-.62.13-1.32.57-1.93.95-1,.61-1.79,1.36-2.66,2.21-.89.83-2.25,2.49-.25,2.84.63.09,1.31.06,2.01.06l7.21-.07c1.11-.08,2.76.32,3.23-1.01.23-.57.22-1.23.12-1.84-.11-.74-.24-1.37-.59-1.58-.83-.34-1.56.87-2.14,1.31-.44.38-1.62.76-2.16.57-.36-.23-.16-.77-.19-1.15.06-1.54-1.11-2.59-2.62-2.3h-.03s0,0,0,0Z" fill="#896565"/>
    </g>
  </g>
  <ellipse cx="59.35" cy="47.62" rx="11.08" ry="10.71" transform="translate(-3.22 4.32) rotate(-4.06)" fill="#98afc1"/>
  <ellipse cx="51.53" cy="41.68" rx="15.91" ry="6.23" fill="#98afc1"/>
  <g>
    <g>
      <path d="M27.95,29.2c.59.17,1.18.33,1.77.5l3.15-.25,2.81-2.42,2.14-2.95-1.66-2.06-1.93-.17c-.06.04-.12.08-.18.12-.18.11-.42.09-.57-.05l-.3-.27-5.9-5.27c-.19-.17-.44-.27-.7-.27-.75-.01-2.32.14-3.45,1.48-.77.91-.97,1.92-.98,2.68,0,.3.02.56.04.76.03.25.15.48.34.65,2.05,1.88,4.1,3.75,6.15,5.63.16.15.2.4.08.59-.27.44-.54.87-.81,1.31Z" fill="#ea906d" isolation="isolate"/>
      <path d="M24.85,22.59c1.2.7,2.74,1.6,4.59,1.24,1.96-.39,3.08-1.95,3.42-2.46l-5.59-4.98c-.2-.17-.45-.27-.71-.28-.75-.01-2.31.15-3.44,1.48-.77.91-.97,1.92-.98,2.68.53.64,1.4,1.55,2.71,2.32Z" fill="#b05e46" isolation="isolate"/>
    </g>
    <path d="M34.03,21.92c-.03-.19.14-.71,3.7-1.95,1.28-.45,2.41-.78,3.34-1.04.5-.14,1.04-.01,1.44.33l19.93,17.22s.89,1.09-1.19,3.37-11.56,12.68-11.56,12.68c0,0-1.51,1.2-2.56.59-.94-.55-16.78-14.44-19.94-17.21-.37-.33-.58-.8-.59-1.29,0-1.09.15-3.14,1.17-5.33.13-.28.43-.45.74-.41,1.04.13,3.25.2,5.32-1.19,1.54-1.04,2.29-2.4,2.61-3.08.03-.4,0-.92-.28-1.37-.65-1.03-2.07-.86-2.14-1.32Z" fill="#ead9cf"/>
    <g>
      <g>
        <g>
          <g>
            <path d="M11.41,19l3.46,3.09c2.59,2.31,6.57,2.09,8.89-.51l.77-.86-7.08-6.32,7.02-7.87-2.63-2.34c-2.29-2.04-5.8-1.84-7.84.45l-1.96,2.2c-.15-.19-.32-.37-.51-.54-1.85-1.65-4.78-1.4-6.54.57-1.76,1.97-1.67,4.9.18,6.56,1.05.93,2.44,1.26,3.77,1.01.25,1.7,1.08,3.33,2.47,4.57Z" fill="#573937" isolation="isolate"/>
            <ellipse cx="26.87" cy="16.51" rx="5.85" ry="5.74" transform="translate(-3.34 25.57) rotate(-48.27)" fill="#ea906d"/>
            <path d="M22.98,20.88c2.26-3.06,4.52-6.13,6.77-9.19-2.07-1.99-4.13-3.98-6.2-5.97-1.68-1.5-4.26-1.35-5.76.33l-1.84,2.06c-1.5,1.68-1.35,4.26.33,5.76,2.23,2.34,4.46,4.68,6.7,7.01Z" fill="#ea906d"/>
            <g>
              <path d="M19.93,21.45c-1.78-.91-2.78-2.07-2.78-2.07,0,0-.78-.87-.26-1.73.51-.86,1.18-.72,1.18-.72,0,0,.92.15,2.06,1.09s2.01,1.61,2.55,2.28-.97,2.06-2.75,1.16h0Z" fill="#ea906d"/>
              <g>
                <path d="M21.01,20.74s-.06-.09-.09-.13c-.04-.05.05.05-.01-.01l-.06-.07c-.11-.11-.22-.21-.34-.31-.29-.24-.57-.44-.87-.63-.31-.19-.64-.37-.98-.51-.04-.02-.08-.03-.12-.05.06.02-.03,0-.03-.01-.07-.02-.14-.04-.22-.05-.02,0-.05,0-.07-.01.09.01,0,0-.03,0-.03,0-.11.02-.02,0-.02,0-.05.01-.07.02-.4.16-.61-.48-.21-.64.48-.19,1.1.13,1.52.34.58.3,1.14.67,1.64,1.1.19.17.4.35.53.58.22.37-.35.74-.56.36h0Z" fill="#ce7857"/>
                <path d="M20.08,19.53c-.12.19-.24.38-.36.57-.05.08-.11.14-.2.17-.08.02-.18.02-.25-.02-.08-.04-.15-.11-.17-.2-.02-.08-.03-.18.02-.25.12-.19.24-.38.36-.57.05-.08.11-.14.2-.17.08-.02.18-.02.25.02.08.04.15.11.17.2.02.08.03.18-.02.25h0Z" fill="#ce7857"/>
              </g>
            </g>
          </g>
          <g>
            <path d="M26.75,18.92c.29.2.7.27,1.04.21,1.25-.15,2.75-1.88,2.83-3.16.03-.32-.09-.7-.31-.93-.19-.2-.45-.29-.75-.16h-.02c-.44.18-.83.73-1.27,1.2-.33.36-.7.68-1.07,1.01-.35.31-.65.63-.76.96-.13.39.03.69.31.88ZM26.93,18.72c-.17-.14-.24-.37-.13-.67.1-.28.38-.57.69-.85.33-.3.65-.59.95-.92.39-.42.75-.91,1.13-1.09h.01c.23-.12.42-.08.56.03l-3.2,3.49h0Z" fill="#ea7b6c" isolation="isolate"/>
            <path d="M26.93,18.72c.22.19.6.24.92.17,1.04-.2,2.4-1.76,2.54-2.84.05-.3-.05-.65-.25-.82l-3.2,3.49h0Z" fill="#3c3230" isolation="isolate"/>
            <path d="M26.93,18.72h0s3.2-3.49,3.2-3.49c-.14-.11-.33-.15-.56-.04h-.01c-.38.18-.73.67-1.13,1.09-.3.32-.62.61-.95.92-.31.28-.58.57-.69.85-.12.3-.04.52.13.67Z" fill="#d8b9be" isolation="isolate"/>
            <path d="M26.75,18.92l.18-.2c-.17-.14-.24-.37-.13-.67.1-.28.38-.57.69-.85.33-.3.65-.59.95-.92.39-.42.75-.91,1.13-1.09h.01c.23-.12.42-.08.56.03h0s.18-.19.18-.19c-.19-.2-.45-.29-.75-.16h-.02c-.44.18-.83.73-1.27,1.2-.33.36-.7.68-1.07,1.01-.35.31-.65.63-.76.96-.13.39.03.69.31.88Z" fill="#ea7b6c" isolation="isolate"/>
          </g>
        </g>
        <ellipse cx="26.21" cy="9.21" rx=".41" ry="1.23" transform="translate(1.89 22.64) rotate(-48.27)" fill="#422f2b"/>
        <ellipse cx="22.42" cy="13.46" rx=".44" ry="1.23" transform="translate(-2.55 21.23) rotate(-48.27)" fill="#422f2b"/>
        <path d="M24.2,10.55c.27.12.52.39.77.59.23.18.46.41.71.51.23.09.43.03.63.01.22-.02.46,0,.71.08.44.16.93.55,1.09.99.18.48-.01.86-.2,1.17-.08.13-.23.35-.4.36-.07,0-.13-.04-.13-.13,0-.28.27-.46.33-.7.13-.33.02-.86-.45-1.16-.63-.43-.98-.08-1.51-.16-.39-.08-.74-.46-1.06-.73-.22-.22-.53-.45-.65-.72-.04-.11.02-.17.16-.11h0s0,0,0,0Z" fill="#c2684e"/>
      </g>
      <rect x="22.98" y="6.89" width="2.61" height="1.19" rx=".51" ry=".51" transform="translate(46.81 -4.27) rotate(135.29)" fill="#50373b"/>
      <rect x="19.21" y="11.12" width="2.61" height="1.19" rx=".51" ry=".51" transform="translate(42.55 3.19) rotate(129.12)" fill="#50373b"/>
    </g>
  </g>
</svg>